/* XPM */
static char *result[] = {
/* columns rows colors chars-per-pixel */
"128 128 30 1 ",
"  c black",
". c #010701",
"X c #010305",
"o c #020E02",
"O c #0C0805",
"+ c #00060A",
"@ c #03080C",
"# c #0A0908",
"$ c #100D0C",
"% c #031203",
"& c #031403",
"* c #041604",
"= c #061706",
"- c #040B12",
"; c #06111B",
": c #0B1A1F",
"> c #1B1613",
", c #261F1A",
"< c #092409",
"1 c #0F210F",
"2 c #132F13",
"3 c #091A28",
"4 c #0F2A38",
"5 c #3D2D20",
"6 c #4C3321",
"7 c #4A3627",
"8 c #4F3A2B",
"9 c #2B552B",
"0 c #2A4930",
"q c #1D3C43",
/* pixels */
"&======o<==o2=..==o==<oo%%%%......%%&2<<<=......%==.=<<<2&%......%%%%o=o<==o2=..==o==<o..............ooo<...=.&&==.......oooooo&",
"2&=..=o<==oo&.&&.&oo==<o%&%...&&...%&ooo<...=...==.......%....&&..%&%oo<==oo&....&oo==<o%%%...&&.%%%%o=o<==o2&22&=o==<o====o==&2",
"2&....o<=ooo.&22&.ooo=<o&o%..&22&..%o&=o<==o2=..==o==<ooo%...&22&.%o&=o<=ooo......ooo=<o&%...&22&.%&%oo<==oo&&<2&&oo==<o==oo==&<",
"<2&..o<==ooo.&<2&.ooo==<o%%..&<2&..%%&o<==oo&....&oo==<o%%...&<2&.%%&o<==ooo......ooo==<o%...&<2&.%o&=o<=ooo&<<<2&ooo=<o=o..o&<<",
"<<&..o<==oo%&<<<2&%oo==<o%..&<<<2&..%oo<=ooo......ooo=<oo...&<<<2&.%oo<==oo%......%oo==<o%..&<<<2&%%&o<==ooo&<=<<&ooo==<o=...&<=",
"2=<&o<==oo=.&<=<<&.=oo==<o..&<=<<&...o<==ooo......ooo==<o...&<=<<&..o<==oo=........=oo==<o..&<=<<&.%oo<==oo&<==2=<&oo==<o....<==",
"<=2&o<==oo.&<==2=<&.oo==<&.&<==2=<&.oo<==oo%......%oo==<oo.&<==2=<&oo<==oo.=....%.=.oo==<&.&<==2=<&.o<==oo=&2==<=2&=oo==<o..&2==",
"===<&====.=&2==<=2&=.====<o&2==<=2&=o<==oo=........=oo==<o.&2==<=2&o<====.=........=.====<o&2==<=2&oo<==oo&<======<&oo==<&..<===",
"===<&<<<<.&<======<&.<<<<2&<======<&o<==oo.=....%.=.oo==<&&<======<&2<<<<..==....==..<<<<2&<======<&<====.&<==*===<&.====<o&<==*",
"&&==<&<..<&<==*===<&<..<o&&<==*===<&<====.=........=.====<&<==*===<& o<..<<<..=..<<<<..<o&&<==*===<&2<<<<&<==&.&&==<&<<<<2&<==&.",
".&o=<&==.&<==&.&&==<&.==<&<==&.&&==<&<<<<..==....==..<<<<&<==&.&&==<&<==..&..o..o..&..==<&<==&.&&==<&o<..&<=o&..&o=<&..<o&&<=o&.",
"..oo=<&=&&<=o&..&o=<&&==<&<=o&..&o=<&o<..<<<..=..<<<<..<o&<=o&..&o=<&<==&oo=.o..o.=oo&==<&<=o&..&o=<&<==&<=oo.=..oo=<&==<&<=oo.=",
"..&o=<<=&<=oo.=..oo=<&==&<=oo.=..oo=<&==..&..o..o..&..==&<=oo.=..oo=<&==&oo=o....o=oo&==&<=oo.=..oo=<&=&<<=o&.%..&o=<<&=&<<=o&.%",
"...&&=<&<<=o&.%..&o=<<&&<<=o&.%..&o=<<&=&oo=.o..o.=oo&=&<<=o&.%..&o=<<&&oo=oo....oo=oo&&<<=o&.%..&o=<<&&<=&&......&&=<&=&<=&&...",
"...=&=<&<=&&......&&=<&&<=&&......&&=<&=&oo=o....o=oo&=&<=&&......&&=<&o&ooo%....%ooo&o&<=&&......&&=<&&<=&=..%...=&=<&=&<=&=..%",
"....&o=<&=&=..%...=&=<&&<=&=..%...=&=<&&oo=oo....oo=oo&&<=&=..%...=&=<&ooooo.%..%.ooooo&<=&=..%...=&=<&<=o&........&o=<&<=o&....",
"....&o=<&o&........&o=<&=o&........&o=<&&&oo%....%ooo&&<=o&........&o=<&oooo.%..%.oooo&<=o&........&o=&<=o&........&o=<&<=o&....",
".....===2&.........&o=<&=o&........&o=<&22&o.%..%.oooo&<=o&........&o=<&oo%%......%%oo&<=o&........&o&2===..........==&2===.....",
".%==.=<<<2&.........===2&=..........===&<2&o.%..%.ooo&2===..........===2&%o.%......o%&2===..........&2<<<=......%==.=&2<<<=.....",
".==.............%==.=<<<2&......%==.=<&<<<2&......%%&2<<<=......%==.=<<<2&o........o&2<<<=......%==.=ooo<...=...==....ooo<...=..",
".==o==<o<==o=...==..........=...==....&<=<<&%......o%ooo<...=...==.......==.%....%.==ooo<...=...==.....o<==o2=..==o==<ooo<==o2=.",
"..&oo==<o=oo.=..==o==<oo<==o2=..==o==&<==2=<&......oo=oo<&&o.=..==o==<o<<=%%%....%%%=<<o<==o.=..==o==<o<==oo&&&..&oo==<o<==oo&..",
"...ooo=<oooo.....&oo==<o==oo&....&oo=&2==<=2&....%.===o<&22&&....&oo==<o.....&&.......o<==oo&....&oo==o<=ooo&22&&.ooo=<o<=ooo...",
"...ooo==<ooo....&&ooo=<o=ooo......oo&<======<&...%%%=<o<&<2&......ooo=<o%%%%&22&..%%%%o<=ooo......oooo<==ooo&<22&.ooo=o<==ooo...",
"...%oo==<oo%...&22&oo==<oooo......oo&<==*===<&.......o<&<<<2&.....ooo==<o&%.&<2&...%&o<==ooo......oooo<==oo&<<<<2&%oo=o<==oo%...",
"....=oo==<o....&<2&oo==<ooo%......%&<==&.&&==<&...%%%o<&<=<<&.....%oo==<oo%&<<<2&..%oo<==oo%......%oo<==oo=&<==<<&.=oo<==oo=....",
".%.=.oo==<&=.&&<<<2&oo==<o=........&<=o&..&o=<&....%o<&<==2=<&.....=oo==<o%&<=<<&..%o<==oo=........=o<==oo&<===2=<&.oo<==oo.=...",
"....=.====<o.&<<=<<&oo==<&.=....%.&<=oo.=..oo=<&...%o<&2==<=2&..%.=.oo==<&&<==2=<&..o<==oo.=....%.=o<====.&2===<=2&=o<====.=....",
"..==..<<<<22&<===2=<&====<o......&<<=o&.%..&o=<<&..o<&<======<&....=.====<&2==<=2&.o<====.=........o2<<<<&<=======<&o2<<<<..==..",
"..<<<<..<o&2&2===<=2&<<<<22o=....&<=&&......&&=<&..o2&<==*===<&..==..<<<<&<======<&o2<<<<..==....==..o<..&<===*===<&<.o<..<<<..=",
".o..&..==<&&<=======<&.<o&2o..=..&<=&=..%...=&=<&...&<==&.&&==<&.<<<<..<o&<==*===<&=.o<..<<<..=..<<<.<==&<===&.&&==<&.<==..&..o.",
".o.=oo&==<.&<==*====<&==<&...o..&<=o&........&o=<&..&<=o&..&o=<&o..&..==&<==&.&&==<&.<==..&..o..o..&.<==&<=oo&..&o=<&.<==&oo=.o.",
"..o=oo&===&<==&.&&&==<&=<.o=.o..&<=o&........&o=<&.&<=oo.=..oo=<&.=oo&==&<=o&..&o=<&.<==&oo=.o..o.=.<==&<=ooo.=..oo=<&===&oo=o..",
"..oo=oo&==&<=o&..&&o=<&==<.=o..&2===..........===2&<<=o&.%..&o=<<&=oo&=&<=oo.=..oo=<&===&oo=o....o=.<=&<<=o&&.%..&o=<<&=&oo=oo..",
"..%ooo&o=&<=oo.=...oo=<&=<.oo.&2<<<=......%==.=<<<&<=&&......&&=<&o=oo&<<=o&.%..&o=<<&=&oo=oo....oo.<=&<=&&.......&&=<&=o&ooo%..",
".%.ooooo&<<=o&.%...&o=<<&<.o%..ooo<...=...==......&<=&=..%...=&=<&ooo&&<=&&......&&=<&=o&ooo%....%.<==&<=&=...%...=&=<&&ooooo.%.",
".%.ooooo&<=&&.......&&=<&=<..%..%o<==o2=..==o==<o&<=o&........&o=<&ooo&<=&=..%...=&=<&&ooooo.%..%..<=&<=o&.........&o=<&ooooo.%.",
"...%%ooo&<=&=..%....=&=<&=<..%..o<==oo&....&oo==<&<=o&........&o=<&oo&<=o&........&o=<&ooooo.%..%..<=&<=o&.........&o=<&ooo%%...",
"....o%&&<=o&.........&o=<&<2....o<=ooo......ooo=&2===..........===2&o&<=o&........&o=<&ooo%%......<=&2===...........===2&&%o.%..",
"....oo=&<=o&.........&o=<&=<...o<==ooo......ooo&2<<<=......%==.=<<<2&2===..........===2&&%o.%.....<&2<<<=.......%==.=<<<2&oo....",
"..%.==&2===...........===2&<...o<==oo%......%oo=ooo<...=...==.......2<<<=......%==.=<<<2&oo......<==ooo<....=...==.......===.%..",
"..%%%&2<<<=......%%==.=<<<2&<.o<==oo=........=oo==o<==o.=..==o==<o.=ooo<...=...==.......===.%....2<<<<o<==ooo=..==o==<o<<<=%%%..",
"......ooo<...=...===.......<2.o<==oo.=....%.=.oo=o<==oo&....&oo==<o%=<o<==o.=..==o==<o<<<=%%%.......<o<==ooo&....&oo==<o........",
"...%%%%oo<==oo=..===o==<o<<..o<====.&&.......=.==o<=ooo......ooo=<o..o<==oo&....&oo==<o.............<o<=oooo......ooo=<oo%%%%...",
"&...%&%o<==oo&....&&oo==<o<..o2<<<<&22&....==..<o<==ooo......ooo==<o%o<=ooo......ooo=<o&&%%%......%.o<==oooo......ooo==<o%&%...&",
"2&..%o&o<=ooo.......ooo=<o=<...o<..&<2&.=..<<<<.o<==oo%......%oo==<oo<==ooo......ooo==&22&%........<o<==ooo%......%oo==<o&o%..&2",
"2&..%%o<==ooo.......ooo==<o<<..<==&<<<2&..o..&.o<==oo=........=oo==<o<==oo%......%oo==&<2&%........o<==oo==........=oo==<o%%..&<",
"<2&..%o<==oo%.......%oo==<o=<o.<==&<=<<&..o.=ooo<==oo.=....%.=.&&==<&==oo=........=oo&<<<2&.......<o<==oo..=.&&.%.=.oo==<&%..&<<",
"<<&..o<==oo=..&&.....=oo==<o<.<==&<==2=<&..o=oo<====.=........&22&==<o=oo.=....%.=.oo&<=<<&.......o<====.==.&22&...=.====<o..&<=",
"2=<&.o<==oo.=&22&%..=.oo==<&=.<==&2==<=2&..oo=o2<<<<..==....==&<2&<<22o=.=........=.&<==2=<&.....<o2<<<<...=&<2&.==..<<<<22o&<==",
"<=2&o<====.=.&<2&....=.====<o.<=&<======<&.%ooo&o<..<<<..=..<&<<<2&o&2o<..==....==..&2==<=2&.....2=<o<..<<<&<<<2&<<<<..<o&2o&2==",
"===<&2<<<<..&<<<2&===..<<<<2.<==&<==*===<&%.ooo.<==..&..o..o.&<=<<&<&...<<<..=..<<<&<======<&....oo.<==..&&&<=<<&..&..==<&.&<===",
"===<& o<..<<&<=<<&<<<<<..<o&.<=&<==&.&&==<&.ooo.<==&oo=.o..o&<==2=<&.==..&..o..o..&&<==*===<&oooo...<==&oo&<==2=<&=oo&==<.#&<==*",
"&&==<&<==..&<==2=<&..&..==<&.<=&<=o&..&o=<&.%%.<===&oo=o....&2==<=2&<.=&oo=.o..o.=&<==&.&&==<&    .<===&oo&2==<=2&=oo&===<&<==&.",
".&o=<&<==&o&2==<=2&&=oo&==<.<=&<=oo.=..oo=<&.o.<==&oo=oo...&<======<&.=&oo=o....o=&<=o&..&o=<& -X+.<==&oo&<======<&=oo&==<&<=o&.",
"..oo=<&==&&<======<&=oo&===.<&<<=o&.%..&o=<<&o.<==o&ooo%...&<==*===<&.&oo=oo....o&<=oo.=..oo=<&  +.<==o&o&<==*===<&oo&o==&<=oo.=",
"..&o=<<&&o&<==*===<<&=oo&=.<=&<=&&......&&=<&.<==&ooooo.%.&<==&.&&==<&.&ooo%....&<<=o&.%..&o=<<&X.<==&oo&<==&.&&==<&ooo&&<<=o&.%",
"...&&=<&o&<==&.&&==<&oo&o=.2<&<=&=..%...=&=<&.<==&ooooo.%.&<=o&..&o=<&.oooo.%..%&<=&&......&&=<&X.<==&oo&<=o&..&o=<&ooo&&<=&&...",
"...=&=<&o&<=o&..&o==<&ooo&=.&<=o&........&o=<&<==oooo%%..&<=oo.=..oo=<&.ooo.%..%&<=&=..%...=&=<& .<==oo&<=oo.=..oo=<&ooo&<=&=..%",
"....&o=<&<=oo.=..oo=<<&oo&==&<=o&........&o=<&==&oo&%o.%&<<=o&.%..&o=<<&o%%....&<=o&........&o=<&<==&o&<<=o&.%..&o=<<&o&<=o&....",
"....&o=&<<=o&.%..&o&=<&ooo=&2===..........===2&===o=oo..&<=&&......&&=<&%o.%...&<=o&........&o=<&<====&<=&&......&&=<&o&<=o&....",
".....==&<=&&......&&=<&&oo&2<<<=......%==.=<<<2&=oo===.%&<=&=..%...=&=<&.o....&2===..........===2&===o&<=&=..%...=&=<&&2===.....",
".%==.=<&<=&=..%...=&o=<&o==ooo<...=...==.......<<<<<=%%&<=o&........&o=<&=.%.&2<<<=......%==.=<<<2&<<&<=o&........&o=<&<<<=.....",
".==...&<=o&........&o=<&oo=.<o<==o.=..==o==<o..<=......&<=o&........&o=<&%%%..ooo<...=...==........<=&<=o&........&o=<&oo<...=..",
".==o==&<=o&.........===2&<<.o<==oo&....&oo==<o.<==o%%%&2===..........===2&......o<==o.=..==o==<oXX.<&2===..........===2&o<==o2=.",
"..&oo&2===..........=<<<2&.<o<=ooo......ooo=<o.===o%&&2<<<=......%==.=<<<2&....o<==oo&....&oo==<oX.&2<<<=......%==.=<<<2&==oo&..",
"...o&2<<<=......%==......=.o<==ooo......ooo==<o==o=&o%ooo<...=...==............o<=ooo......ooo=<o.<=ooo<...=...==.......<=ooo...",
"...ooooo<...=...==.==<o%o==o<==oo%......%oo==<o==oo&%%..o<==o.=..==o==<oo.....o<==ooo......ooo==<o<==oo<==oo=..==o==<oo<==ooo...",
"...%oo=o<==oo=..==oo==<o=oo<==oo=........=oo==<o=o&o%..o<==oo&....&oo==<o.....o<==oo%......%oo==<o===o<==oo&....&oo==<o<==oo%...",
"....=oo<==oo&....&ooo=<oooo<==oo.=....%.=.oo==<&oo&o...o<=ooo......ooo=<o....o<==oo=........=oo==<o=oo<=ooo......ooo=<o==oo=....",
".%.=.oo<=ooo......ooo==<oo<====.=........=.====<o&=.o.o<==ooo......ooo==<o...o<==oo.=....%.=.oo==<&=o<==ooo......ooo==<o=oo.=...",
"....=o<==ooo......ooo==<oo2<<<<..==....==..<<<<22o.o..o<==oo%......%oo==<o..o<====.=........=.====<oo<==oo%......%oo==<o==.=....",
"..==.o<==oo%......%=oo==<o&o<..<<<..=..<<<<..<o&2ooooo<==oo=........=oo==<o.o2<<<<..==....==..<<<<2o<==oo=........=oo==<o<..==..",
"..<<o<==oo=.........oo==<&.<==..&..o..o..&..==<&.oo==o<==oo.=....%.=.oo==<&oooo<..<<<..=..<<<<..<o&o<==oo.=....%.=.oo==<&.<<<..=",
".o..o<==oo.=....%..=.====<o<==&oo=.o..o.=oo&==<.o&o=o<====.=........=.====<o .<==..&..o..o..&..==<o<====.=........=.====<o.&..o.",
".o.o<====.=.......=..<<<<22o==&oo=o....o=oo&===<.&ooo2<<<<..==....==..<<<<22o.<==&oo=.o..o.=oo&==<o2<<<<..==....==..<<<<22oo=.o.",
"..oo2<<<<..==....=<<<..<o&2o=&oo=oo....oo=oo&==<.=&&=.o<..<<<..=..<<<<..<o&2o<===&oo=o....o=oo&===<.o<..<<<..=..<<<<..<o&2oo=o..",
"..oo=o<..<<<..=..<.&..==<&.==o&ooo%....%ooo&o==<..&&..<==..&..o..o..&..==<&..<==&oo=oo....oo=oo&==<.<==..&..o..o..&..==<&.o=oo..",
"..%o.<==..&..o..o.=oo&==<.==&ooooo.%..%.ooooo&==<.oo..<==&oo=.o..o.=oo&==<...<==o&ooo%....%ooo&o==<.<==&oo=.o..o.=oo&==<.&ooo%..",
".%.o.<==&oo=.o..o.=oo&===<.=&ooooo.%..%.ooooo&==<.<..<===&oo=o....o=oo&===<.<==&ooooo.%..%.ooooo&=.<===&oo=o....o=oo&===<.ooo.%.",
".%..<===&oo=o....oo=oo&==<.=oooo%%......%%oooo==<2.<.<==&oo=oo....oo=oo&==<.<==&ooooo.%..%.ooooo&=.<==&oo=oo....oo=oo&==<.ooo.%.",
"....<==&oo=oo....oooo&o==<.&oo&%o.%......o%&oo&==<.2.<==o&ooo%....%ooo&o==<.<==oooo%%......%%oooo=.<==o&ooo%....%ooo&o==<.o%%...",
"....<==o&ooo%....%ooooo&==<.=o=oo........oo=o====<..<==&ooooo.%..%.ooooo&==<.=&oo&%o.%......o%&oo.<==&ooooo.%..%.ooooo&==<.o.%..",
"...<==&ooooo.%..%.ooooo&==<.oo===.%....%.===oo====<.<==&ooooo.%..%.ooooo&==<.===o=oo........oo=o=.<==&ooooo.%..%.ooooo&==<.o....",
"...<==&ooooo.%..%.%%oooo==<2.<<=%%%....%%%=<<<<<<<2.<==oooo%%......%%oooo==<2.=oo===.%....%.===oo.<==oooo%%......%%oooo==<2..%..",
"...<==oooo%%.......o%&oo&==<..................=<<..<==&oo&%o.%......o%&oo&==<.<<<<=%%%....%%%=<<.<==&oo&%o.%......o%&oo&==<.%%..",
"..<==&oo&%o.%......oo=o====<.o%%%%......%%%%o==<<..<====o=oo........oo=o====<.=..................<====o=oo........oo=o====<.....",
"..<====o=oo........===oo====<.%&%........%&%o====.<====oo===.%....%.===oo====<.=o%%%%......%%%%.<====oo===.%....%.===oo====<....",
".<====oo===.%....%.%=<<<<<<<2.&o%........%o&=o==<.2<<<<<<<=%%%....%%%=<<<<<<<2.=o%&%........%&%.2<<<<<<<=%%%....%%%=<<<<<<<2....",
".2<<<<<<<=%%%....%%.....=<<..o&%%........%%&oo==<=...<=..................=<<..=o=&o%........%o&=...<=..................=<<......",
"....<=.............%%%o==<<.o&o%..........%o&o===<<<.<==o%%%%......%%%%o==<<.==oo&%%........%%&oo=.<==o%%%%......%%%%o==<<.%....",
"....<==o%%%%......%%&%o====<.&o............o&oo==<=<.===o%&%........%&%o====<.=o&o%..........%o&o=.===o%&%........%&%o====<.....",
"....===o%&%........%o&=o==<<<..o..........o.=&&===<.<==o=&o%........%o&=o==<<<.o&o............o&o.<==o=&o%........%o&=o==<<<....",
"...<==o=&o%........%%&oo==<=<o...........=.o.&&&<=2.<==oo&%%........%%&oo==<=<o.=.o..........o.=&.<==oo&%%........%%&oo==<=<o...",
"...<==oo&%%........%%o&o===<<<.oooooooo..ooooooooo.<===o&o%..........%o&o===<<<..o..........=.o..<===o&o%..........%o&o===<<<...",
"o.<===o&o%...........o&oo==<=<.   3         O ###$.<==oo&o............o&oo==<=<.oooooooooo..oooo.<==oo&o............o&oo==<=<.oo",
" .<==oo&o...........o.=&&===<<<.44   -X+;129#####.<===&&=.o..........o.=&&===<<<.X;  3         .<===&&=.o..........o.=&&===<<<. ",
".<===&&=.o...........o.&&&<=2=<.443--  +:<20#####.2=<&&&.o..........=.o.&&&<=2=<.XX44   -X+;129.2=<&&&.o..........=.o.&&&<=2=<. ",
".2=<&&&.o..........=.oooooooooo,q;3-; XX:029#####$oooooooooooooooo..ooooooooooooXXX443--  +:<20Xoooooooooooooooo..oooooooooooo--",
" oooooooooooooooo..oo O;22<0####q4;;;-XX;1<9##########       3         O.X -X- XXXXq;3-; XX:029##########  3         O#####q;3-;",
"-XX;1<9###  3         X;;#######q433;- +:120############ X 44   -X+;129###     XX Xq4;;;-XX;1<9##########44   -X+;129######q4;;;",
"- +:120###44   -X+;129X;########q4--;  X;220###############443--  +:<20##### X XX  q433;- +:120##########443--  +:<20######q433;",
"  X;220###443--  +:<20##########44-3-  X;120###############q;3-; XX:029############q4--;  X;220##########q;3-; XX:029######q4--;",
"  X;120###q;3-; XX:029##########q433---X;120###############q4;;;-XX;1<9############44-3-  X;120##########q4;;;-XX;1<9######44-3-",
"--X;120###q4;;;-XX;1<9##########q4-;;- X:120###############q433;- +:120############q433---X;120##########q433;- +:120######q433-",
"- X:120###q433;- +:120##########q4-3--XX;1<0###############q4--;  X;220############q4-;;- X:120##########q4--;  X;220######q4-;;",
"-XX;1<0###q4--;  X;220##########q43;- XX;120###############44-3-  X;120############q4-3--XX;1<0##########44-3-  X;120######q4-3-",
" XX;120###44-3-  X;120##########q4-3- XX;1090##############q433---X;120############q43;- XX;120##########q433---X;120######q43;-",
" XX;1090##q433---X;120##########44-3;- X:1290##############q4-;;- X:120############q4-3- XX;1090#########q4-;;- X:120######q4-3-",
"- X:1290##q4-;;- X:120##########q4;3; XX;2120##############q4-3--XX;1<0############44-3;- X:1290#########q4-3--XX;1<0######44-3;",
" XX;2120$#q4-3--XX;1<0##########q43;; XX;1120##############q43;- XX;120############q4;3; XX;2120#########q43;- XX;120##$###q4;3;",
" XX;1120##q43;- XX;1200########q43--; XX:2210##############q4-3- XX;1090###########q43;; XX;1120#########q4-3- XX;1090#$###q43;;",
" XX:2210##q4-3- XX;1090########443;-- XX;2<28##############44-3;- X:1290##########q43--; XX:2210#########44-3;- X:1290$$$#q43--;",
" XX;2<28>#44-3;- X:1290#######q433;;-XXX:2<<q##############q4;3; XX;2120##########443;-- XX;2<28#########q4;3; XX;2120$$$#443;--",
"XXX:2<<q##q4;3; XX;2120#######q43;---XXXX;28q4#############q43;; XX;1120#########q433;;-XXX:2<<q$########q43;; XX;1120$$$q433;;-",
"XXXX;28q4qq43;; XX;1120#######q;-3--X- XX;2128########$$$$q43--; XX:2210#########q43;---XXXX;28q4###$$$#q43--; XX:2210$$$q43;---",
"- XX;2128q43--; XX:2210#$$$$$q4333-X @ XX;201<0#####$$$$$$443;-- XX;2<28#########q;-3--X- XX;2128$$$$$$$443;-- XX;2<28$$$q;-3--X",
"@ XX;201<443;-- XX;2<28$$$$$$q4;-3-   XXX;221200$$$$$$$$$q433;;-XXX:2<<q$$$$$$$$q4333-X @ XX;201<0$$$$$q433;;-XXX:2<<q$$q4333-X ",
" XXX;221q433;;-XXX:2<<q4$$$$q43;3-;X @ XXX;20209$$$$$$$$$q43;---XXXX;28q4$$$$$$$q4;-3-   XXX;221200$$$$q43;---XXXX;28q4$q4;-3-  ",
"@ XXX;20q43;---XXXX;28q8$$$$q4-3X-     XXX;;22<0$$$$$$$$$q;-3--X- XX;2128$$$$$$q43;3-;X @ XXX;20209$$$$q;-3--X- XX;2128q43;3-;X ",
"  XXX;;2q;-3--X- XX;212<0$$$$$$3X -X- XXXXX;;$$$$$$$$$$$q4333-X @ XX;201<0$$$$$q4-3X-     XXX;;22<0$$$q4333-X @ XX;201<04-3X-   ",
" XXXXX;q4333-X @ XX;201200$$$$$$$     XX XX;$$$$$$$$$$$$q4;-3-   XXX;221200$$$$$$$3X -X- XXXXX;;$$$$$$q4;-3-   XXX;221200$3X -X-",
" XX XX;q4;-3-   XXX;221209$$$$$$$$$ X XX  $$$$$$$$$$$$$q43;3-;X @ XXX;20209$$$$$$$$$     XX XX;$$$$$$q43;3-;X @ XXX;20209$$$    ",
" XX  $q43;3-;X @ XXX;202<0$$$88$$$$$$$$$$$$$$$$888888$$q4-3X-     XXX;;22<0$$$$$$$$$$$ X XX  $$$$$$$$q4-3X-     XXX;;22<0$$$## X",
"$$$$$$q4-3X-     XXX;;25$$$$55557777777777777777775557$$$$3X -X- XXXXX;;$$$$$$$$$$$$$$$$$$$$$$$$$$$$$$$$3X -X- XXXXX;;$$$$$$$$$$",
"$$$$$$$$$3X -X- XXXXX;;$$$$5555555558888888888885588888$$$$$     XX XX;$$$$888888888$$$$$$$$$$$$$$$$$$$$$$     XX XX;$$$$$888$$$",
"$$8888$8$$$     XX XX;$$$$6666668888555555555888888888888$$$$$ X XX  $$$$$8588888888888$$$$$$$$88885$$$$$$$$ X XX  $$$$$$888888$",
"8888888888$$$ X XX  $$$$888888886666668888888888888888888888$$$$$$$$$$$$$88888888888888888888888888888$$$$$$$$$$$$$$$$8888888888"
};
