/* XPM */
static char *result[] = {
/* columns rows colors chars-per-pixel */
"128 128 32 1 ",
"  c black",
". c #010701",
"X c #010305",
"o c #020E02",
"O c #0C0805",
"+ c #00060A",
"@ c #03080C",
"# c #0A0908",
"$ c #100D0C",
"% c #031203",
"& c #031403",
"* c #041604",
"= c #061706",
"- c #040B12",
"; c #06111B",
": c #0B1A1F",
"> c #1B1613",
", c #261F1A",
"< c #092409",
"1 c #0F210F",
"2 c #132F13",
"3 c #332419",
"4 c #091A28",
"5 c #0F2A38",
"6 c #3D2D20",
"7 c #4C3321",
"8 c #4A3627",
"9 c #4F3A2B",
"0 c #2B552B",
"q c #2A4930",
"w c #50412A",
"e c #1D3C43",
/* pixels */
"&======o<==o2=..==o==<oo%%%%......%%&2<<<=......%==.=<<<2&%......%%%%o=o<==o2=..==o==<o..............ooo<...=.&&==.......oooooo9",
"2&=..=o<==oo&.&&.&oo==<o%&%...&&...%&ooo<...=...==.......%....&&..%&%oo<==oo&....&oo==<o%%%...&&.%%%%o=o<==o2&22&=o==<o999999999",
"2&....o<=ooo.&22&.ooo=<o&o%..&22&..%o&=o<==o2=..==o==<ooo%...&22&.%o&=o<=ooo......ooo=<o&%...&22&.%&%oo<==oo&&<2&&oo==<o99999999",
"<2&..o<==ooo.&<2&.ooo==<o%%..&<2&..%%&o<==oo&....&oo==<o%%...&<2&.%%&o<==ooo......ooo==<o%...&<2&.%o&=o<=ooo&<<<2&ooo=<owww6www9",
"<<&..o<==oo%&<<<2&%oo==<o%..&<<<2&..%oo<=ooo......ooo=<oo...&<<<2&.%oo<==oo%......%oo==<o%..&<<<2&%%&o<==ooo&<=<<&ooo==<o6898999",
"2=<&o<==oo=.&<=<<&.=oo==<o..&<=<<&...o<==ooo......ooo==<o...&<=<<&..o<==oo=........=oo==<o..&<=<<&.%oo<==oo&<==2=<&oo==<o6666666",
"<=2&o<==oo.&<==2=<&.oo==<&.&<==2=<&.oo<==oo%......%oo==<oo.&<==2=<&oo<==oo.=....%.=.oo==<&.&<==2=<&.o<==oo=&2==<=2&=oo==<o999999",
"===<&====.=&2==<=2&=.====<o&2==<=2&=o<==oo=........=oo==<o.&2==<=2&o<====.=........=.====<o&2==<=2&oo<==oo&<======<&oo==<&wwwwww",
"===<&<<<<.&<======<&.<<<<2&<======<&o<==oo.=....%.=.oo==<&&<======<&2<<<<..==....==..<<<<2&<======<&<====.&<==*===<&.====<o36333",
"&&==<&<..<&<==*===<&<..<o&&<==*===<&<====.=........=.====<&<==*===<& o<..<<<..=..<<<<..<o&&<==*===<&2<<<<&<==&.&&==<&<<<<22o9999",
".&o=<&==.&<==&.&&==<&.==<&<==&.&&==<&<<<<..==....==..<<<<&<==&.&&==<&<==..&..o..o..&..==<&<==&.&&==<&o<..&<=o&..&o=<&..<o&2o9999",
"..oo=<&=&&<=o&..&o=<&&==<&<=o&..&o=<&o<..<<<..=..<<<<..<o&<=o&..&o=<&<==&oo=.o..o.=oo&==<&<=o&..&o=<&<==&<=oo.=..oo=<&==<&.99999",
"..&o=<<=&<=oo.=..oo=<&==&<=oo.=..oo=<&==..&..o..o..&..==&<=oo.=..oo=<&==&oo=o....o=oo&==&<=oo.=..oo=<&=&<<=o&.%..&o=<<&=<.888888",
"...&&=<&<<=o&.%..&o=<<&&<<=o&.%..&o=<<&=&oo=.o..o.=oo&=&<<=o&.%..&o=<<&&oo=oo....oo=oo&&<<=o&.%..&o=<<&&<=&&......&&=<&==<.99999",
"...=&=<&<=&&......&&=<&&<=&&......&&=<&=&oo=o....o=oo&=&<=&&......&&=<&o&ooo%....%ooo&o&<=&&......&&=<&&<=&=..%...=&=<&==<.66999",
"....&o=<&=&=..%...=&=<&&<=&=..%...=&=<&&oo=oo....oo=oo&&<=&=..%...=&=<&ooooo.%..%.ooooo&<=&=..%...=&=<&<=o&........&o=<&=<.99999",
"....&o=<&o&........&o=<&=o&........&o=<&&&oo%....%ooo&&<=o&........&o=<&oooo.%..%.oooo&<=o&........&o=&<=o&........&o=<&==<.6666",
".....===2&.........&o=<&=o&........&o=<&22&o.%..%.oooo&<=o&........&o=<&oo%%......%%oo&<=o&........&o&2===..........===2&=<.9999",
".%==.=<<<2&.........===2&=..........===&<2&o.%..%.ooo&2===..........===2&%o.%......o%&2===..........&2<<<=......%==.=<<<2&<2.999",
".==.............%==.=<<<2&......%==.=<&<<<2&......%%&2<<<=......%==.=<<<2&o........o&2<<<=......%==.=ooo<...=...==.......==<.888",
".==o==<o<==o=...==..........=...==....&<=<<&%......o%ooo<...=...==.......==.%....%.==ooo<...=...==.....o<==o2=..==o==<o====<.999",
"..&oo==<o=oo.=..==o==<oo<==o2=..==o==&<==2=<&......oo=oo<&&o.=..==o==<o<<=%%%....%%%=<<o<==o.=..==o==<o<==oo&&&..&oo==<o====<.ww",
"...ooo=<oooo.....&oo==<o==oo&....&oo=&2==<=2&....%.===o<&22&&....&oo==<o.....&&.......o<==oo&....&oo==o<=ooo&22&..ooo=<o<<<<2.33",
"...ooo==<ooo....&&ooo=<o=ooo......oo&<======<&...%%%=<o<&<2&......ooo=<o%%%%&22&..%%%%o<=ooo......oooo<==ooo&<2&..ooo==<o<<..666",
"...%oo==<oo%...&22&oo==<oooo......oo&<==*===<&.......o<&<<<2&.....ooo==<o&%.&<2&...%&o<==ooo......oooo<==oo&<<<2&.%oo==<o<<.9999",
"....=oo==<o....&<2&oo==<ooo%......%&<==&.&&==<&...%%%o<&<=<<&.....%oo==<oo%&<<<2&..%oo<==oo%......%oo<==oo=&<=<<&..=oo==<o=<.999",
".%.=.oo==<&=.&&<<<2&oo==<o=........&<=o&..&o=<&....%o<&<==2=<&.....=oo==<o%&<=<<&..%o<==oo=........=o<==oo&<==2=<&=.oo==<&<<<.88",
"....=.====<o.&<<=<<&oo==<&.=....%.&<=oo.=..oo=<&...%o<&2==<=2&..%.=.oo==<&&<==2=<&..o<==oo.=....%.=o<====.&2==<=2&.=.====<o=<o.9",
"..==..<<<<22&<===2=<&====<o......&<<=o&.%..&o=<<&..o<&<======<&....=.====<&2==<=2&.o<====.=........o2<<<<&<======<&..<<<<22o<<.9",
"..<<<<..<o&2&2===<=2&<<<<22o=....&<=&&......&&=<&..o2&<==*===<&..==..<<<<&<======<&o2<<<<..==....==..o<..&<==*===<&<<..<o&2o=<.9",
".o..&..==<&&<=======<&.<o&2o..=..&<=&=..%...=&=<&...&<==&.&&==<&.<<<<..<o&<==*===<&=.o<..<<<..=..<<<.<==&<==&.&&==<&..==<&.=<<<.",
".o.=oo&==<.&<==*====<&==<&...o..&<=o&........&o=<&..&<=o&..&o=<&o..&..==&<==&.&&==<&.<==..&..o..o..&.<==&<=o&..&o=<&o&==<.<=2=<.",
"..o=oo&===&<==&.&&&==<&=<.o=.o..&<=o&........&o=<&.&<=oo.=..oo=<&.=oo&==&<=o&..&o=<&.<==&oo=.o..o.=.<==&<=oo.=..oo=<&&===<.oooo9",
"..oo=oo&==&<=o&..&&o=<&==<.=o..&2===..........===2&<<=o&.%..&o=<<&=oo&=&<=oo.=..oo=<&===&oo=o....o=.<=&<<=o&.%..&o=<<&&==<.88888",
"..%ooo&o=&<=oo.=...oo=<&=<.oo.&2<<<=......%==.=<<<&<=&&......&&=<&o=oo&<<=o&.%..&o=<<&=&oo=oo....oo.<=&<=&&......&&=<&o==<.99999",
".%.ooooo&<<=o&.%...&o=<<&<.o%..ooo<...=...==......&<=&=..%...=&=<&ooo&&<=&&......&&=<&=o&ooo%....%.<==&<=&=..%...=&=<&o&==<.9999",
".%.ooooo&<=&&.......&&=<&=<..%..%o<==o2=..==o==<o&<=o&........&o=<&ooo&<=&=..%...=&=<&&ooooo.%..%..<=&<=o&........&o=<&&==<.9999",
"...%%ooo&<=&=..%....=&=<&=<..%..o<==oo&....&oo==<&<=o&........&o=<&oo&<=o&........&o=<&ooooo.%..%..<=&<=o&........&o=<&o==<2.999",
"....o%&&<=o&.........&o=<&<2....o<=ooo......ooo=&2===..........===2&o&<=o&........&o=<&ooo%%......<=&2===..........===2&&==<.999",
"....oo=&<=o&.........&o=<&=<...o<==ooo......ooo&2<<<=......%==.=<<<2&2===..........===2&&%o.%.....<&2<<<=......%==.=<<<2&==<.666",
"..%.==&2===...........===2&<...o<==oo%......%oo=ooo<...=...==.......2<<<=......%==.=<<<2&oo......<==ooo<...=...==.......====<.99",
"..%%%&2<<<=......%%==.=<<<2&<.o<==oo=........=oo==o<==o.=..==o==<o.=ooo<...=...==.......===.%....2<<<<o<==o.=..==o==<o<<<<<<2.99",
"......ooo<...=...===.......<2.o<==oo.=....%.=.oo=o<==oo&....&oo==<o%=<o<==o.=..==o==<o<<<=%%%.......<o<==oo&....&oo==<o.=<<..999",
"...%%%%oo<==oo=..===o==<o<<..o<====.&&.......=.==o<=ooo......ooo=<o..o<==oo&....&oo==<o.............<o<=ooo......ooo=<o==<<.6888",
"&...%&%o<==oo&....&&oo==<o<..o2<<<<&22&....==..<o<==ooo......ooo==<o%o<=ooo......ooo=<o&&%%%......%.o<==ooo......ooo==<o===<.999",
"2&..%o&o<=ooo.......ooo=<o=<...o<..&<2&.=..<<<<.o<==oo%......%oo==<oo<==ooo......ooo==&22&%........<o<==oo%......%oo==<o==<<<.89",
"2&..%%o<==ooo.......ooo==<o<<..<==&<<<2&..o..&.o<==oo=........=oo==<o<==oo%......%oo==&<2&%........o<==oo=........=oo==<o=<=<o.9",
"<2&..%o<==oo%.......%oo==<o=<o.<==&<=<<&..o.=ooo<==oo.=....%.=.&&==<&==oo=........=oo&<<<2&.......<o<==oo.=..&&%.=.oo==<&==<<<.9",
"<<&..o<==oo=..&&.....=oo==<o<.<==&<==2=<&..o=oo<====.=........&22&==<o=oo.=....%.=.oo&<=<<&.......o<====.=..&22&..=.====<o=<=<.9",
"2=<&.o<==oo.=&22&%..=.oo==<&=.<==&2==<=2&..oo=o2<<<<..==....==&<2&<<22o=.=........=.&<==2=<&.....<o2<<<<..==&<2&==..<<<<22o=<<<.",
"<=2&o<====.=.&<2&....=.====<o.<=&<======<&.%ooo&o<..<<<..=..<&<<<2&o&2o<..==....==..&2==<=2&.....2=<o<..<<<&<<<2&<<<..<o&2o=2=<.",
"===<&2<<<<..&<<<2&===..<<<<2.<==&<==*===<&%.ooo.<==..&..o..o.&<=<<&<&...<<<..=..<<<&<======<&....oo.<==..&.&<=<<&.&..==<&.ooooo9",
"===<& o<..<<&<=<<&<<<<<..<o&.<=&<==&.&&==<&.ooo.<==&oo=.o..o&<==2=<&.==..&..o..o..&&<==*===<&oooo...<==&oo&<==2=<&oo&==<..####99",
"&&==<&<==..&<==2=<&..&..==<&.<=&<=o&..&o=<&.%%.<===&oo=o....&2==<=2&<.=&oo=.o..o.=&<==&.&&==<&    .<===&oo&2==<=2&oo&===<..99www",
".&o=<&<==&o&2==<=2&&=oo&==<.<=&<=oo.=..oo=<&.o.<==&oo=oo...&<======<&.=&oo=o....o=&<=o&..&o=<& -X+.<==&oo&<======<&oo&==<..99333",
"..oo=<&==&&<======<&=oo&===.<&<<=o&.%..&o=<<&o.<==o&ooo%...&<==*===<&.&oo=oo....o&<=oo.=..oo=<&  +.<==o&o&<==*===<&o&o==<..88888",
"..&o=<<&&o&<==*===<<&=oo&=.<=&<=&&......&&=<&.<==&ooooo.%.&<==&.&&==<&.&ooo%....&<<=o&.%..&o=<<&X.<==&oo&<==&.&&==<&oo&==<..9999",
"...&&=<&o&<==&.&&==<&oo&o=.2<&<=&=..%...=&=<&.<==&ooooo.%.&<=o&..&o=<&.oooo.%..%&<=&&......&&=<&X.<==&oo&<=o&..&o=<&oo&==<..9999",
"...=&=<&o&<=o&..&o==<&ooo&=.&<=o&........&o=<&<==oooo%%..&<=oo.=..oo=<&.ooo.%..%&<=&=..%...=&=<& .<==oo&<=oo.=..oo=<&oo==<2..999",
"....&o=<&<=oo.=..oo=<<&oo&==&<=o&........&o=<&==&oo&%o.%&<<=o&.%..&o=<<&o%%....&<=o&........&o=<&<==&o&<<=o&.%..&o=<<&o&==<..666",
"....&o=&<<=o&.%..&o&=<&ooo=&2===..........===2&===o=oo..&<=&&......&&=<&%o.%...&<=o&........&o=<&<====&<=&&......&&=<&====<..999",
".....==&<=&&......&&=<&&oo&2<<<=......%==.=<<<2&=oo===.%&<=&=..%...=&=<&.o....&2===..........===2&===o&<=&=..%...=&=<&o====<..99",
".%==.=<&<=&=..%...=&o=<&o==ooo<...=...==.......<<<<<=%%&<=o&........&o=<&=.%.&2<<<=......%==.=<<<2&<<&<=o&........&o=<&<<<<2.#99",
".==...&<=o&........&o=<&oo=.<o<==o.=..==o==<o..<=......&<=o&........&o=<&%%%..ooo<...=...==........<=&<=o&........&o=<&=<<..#888",
".==o==&<=o&.........===2&<<.o<==oo&....&oo==<o.<==o%%%&2===..........===2&......o<==o.=..==o==<oXX.<&2===..........===2&<<.##999",
"..&oo&2===..........=<<<2&.<o<=ooo......ooo=<o.===o%&&2<<<=......%==.=<<<2&....o<==oo&....&oo==<oX.&2<<<=......%==.=<<<2&=<..999",
"...o&2<<<=......%==......=.o<==ooo......ooo==<o==o=&o%ooo<...=...==............o<=ooo......ooo=<o.<=ooo<...=...==.......=<<<..66",
"...ooooo<...=...==.==<o%o==o<==oo%......%oo==<o==oo&%%..o<==o.=..==o==<oo.....o<==ooo......ooo==<o<==oo<==o.=..==o==<oo==<=<o..9",
"...%oo=o<==oo=..==oo==<o=oo<==oo=........=oo==<o=o&o%..o<==oo&....&oo==<o.....o<==oo%......%oo==<o===o<==oo&....&oo==<o===<<<..9",
"....=oo<==oo&....&ooo=<oooo<==oo.=....%.=.oo==<&oo&o...o<=ooo......ooo=<o....o<==oo=........=oo==<o=oo<=ooo......ooo=<oo==<=<..9",
".%.=.oo<=ooo......ooo==<oo<====.=........=.====<o&=.o.o<==ooo......ooo==<o...o<==oo.=....%.=.oo==<&=o<==ooo......ooo==<o===<<<..",
"....=o<==ooo......ooo==<oo2<<<<..==....==..<<<<22o.o..o<==oo%......%oo==<o..o<====.=........=.====<oo<==oo%......%oo==<o&<=2=<..",
"..==.o<==oo%......%=oo==<o&o<..<<<..=..<<<<..<o&2ooooo<==oo=........=oo==<o.o2<<<<..==....==..<<<<2o<==oo=........=oo==<ooooooo9",
"..<<o<==oo=.........oo==<&.<==..&..o..o..&..==<&.oo==o<==oo.=....%.=.oo==<&oooo<..<<<..=..<<<<..<o&o<==oo.=....%.=.oo==<&####999",
".o..o<==oo.=....%..=.====<o<==&oo=.o..o.=oo&==<.o&o=o<====.=........=.====<o .<==..&..o..o..&..==<o<====.=........=.====<o###666",
".o.o<====.=.......=..<<<<22o==&oo=o....o=oo&===<.&ooo2<<<<..==....==..<<<<22o.<==&oo=.o..o.=oo&==<o2<<<<..==....==..<<<<22o#w999",
"..oo2<<<<..==....=<<<..<o&2o=&oo=oo....oo=oo&==<.=&&=.o<..<<<..=..<<<<..<o&2o<===&oo=o....o=oo&===<.o<..<<<..=..<<<<..<o&2o99999",
"..oo=o<..<<<..=..<.&..==<&.==o&ooo%....%ooo&o==<..&&..<==..&..o..o..&..==<&..<==&oo=oo....oo=oo&==<.<==..&..o..o..&..==<&.888888",
"..%o.<==..&..o..o.=oo&==<.==&ooooo.%..%.ooooo&==<.oo..<==&oo=.o..o.=oo&==<...<==o&ooo%....%ooo&o==<.<==&oo=.o..o.=oo&==<.#999999",
".%.o.<==&oo=.o..o.=oo&===<.=&ooooo.%..%.ooooo&==<.<..<===&oo=o....o=oo&===<.<==&ooooo.%..%.ooooo&=.<===&oo=o....o=oo&===<.999999",
".%..<===&oo=o....oo=oo&==<.=oooo%%......%%oooo==<2.<.<==&oo=oo....oo=oo&==<.<==&ooooo.%..%.ooooo&=.<==&oo=oo....oo=oo&==<.999999",
"....<==&oo=oo....oooo&o==<.&oo&%o.%......o%&oo&==<.2.<==o&ooo%....%ooo&o==<.<==oooo%%......%%oooo=.<==o&ooo%....%ooo&o==<.666666",
"....<==o&ooo%....%ooooo&==<.=o=oo........oo=o====<..<==&ooooo.%..%.ooooo&==<.=&oo&%o.%......o%&oo.<==&ooooo.%..%.ooooo&==<.99999",
"...<==&ooooo.%..%.ooooo&==<.oo===.%....%.===oo====<.<==&ooooo.%..%.ooooo&==<.===o=oo........oo=o=.<==&ooooo.%..%.ooooo&==<.99999",
"...<==&ooooo.%..%.%%oooo==<2.<<=%%%....%%%=<<<<<<<2.<==oooo%%......%%oooo==<2.=oo===.%....%.===oo.<==oooo%%......%%oooo==<2.8888",
"...<==oooo%%.......o%&oo&==<..................=<<..<==&oo&%o.%......o%&oo&==<.<<<<=%%%....%%%=<<.<==&oo&%o.%......o%&oo&==<.9999",
"..<==&oo&%o.%......oo=o====<.o%%%%......%%%%o==<<..<====o=oo........oo=o====<.=..................<====o=oo........oo=o====<.9979",
"..<====o=oo........===oo====<.%&%........%&%o====.<====oo===.%....%.===oo====<.=o%%%%......%%%%.<====oo===.%....%.===oo====<.666",
".<====oo===.%....%.%=<<<<<<<2.&o%........%o&=o==<.2<<<<<<<=%%%....%%%=<<<<<<<2.=o%&%........%&%.2<<<<<<<=%%%....%%%=<<<<<<<2.999",
".2<<<<<<<=%%%....%%.....=<<..o&%%........%%&oo==<=...<=..................=<<..=o=&o%........%o&=...<=..................=<<..9999",
"....<=.............%%%o==<<.o&o%..........%o&o===<<<.<==o%%%%......%%%%o==<<.==oo&%%........%%&oo=.<==o%%%%......%%%%o==<<.#7799",
"....<==o%%%%......%%&%o====<.&o............o&oo==<=<.===o%&%........%&%o====<.=o&o%..........%o&o=.===o%&%........%&%o====<.#666",
"....===o%&%........%o&=o==<<<..o..........o.=&&===<.<==o=&o%........%o&=o==<<<.o&o............o&o.<==o=&o%........%o&=o==<<<.#39",
"...<==o=&o%........%%&oo==<=<o...........=.o.&&&<=2.<==oo&%%........%%&oo==<=<o.=.o..........o.=&.<==oo&%%........%%&oo==<=<o.#9",
"...<==oo&%%........%%o&o===<<<.oooooooo..ooooooooo.<===o&o%..........%o&o===<<<..o..........=.o..<===o&o%..........%o&o===<<<.88",
"o.<===o&o%...........o&oo==<=<.   4         O ###$.<==oo&o............o&oo==<=<.oooooooooo..oooo.<==oo&o............o&oo==<=<.33",
" .<==oo&o...........o.=&&===<<<.55   -X+;120#####.<===&&=.o..........o.=&&===<<<.X;  4         .<===&&=.o..........o.=&&===<<<.9",
".<===&&=.o...........o.&&&<=2=<.554--  +:<2q#####.2=<&&&.o..........=.o.&&&<=2=<.XX55   -X+;120.2=<&&&.o..........=.o.&&&<=2=<.9",
".2=<&&&.o..........=.oooooooooo,e;4-; XX:q20#####$oooooooooooooooo..ooooooooooooXXX554--  +:<2qXoooooooooooooooo..oooooooooooo99",
" oooooooooooooooo..oo O;22<q####e5;;;-XX;1<0##########       4         O.X -X- XXXXe;4-; XX:q20##########  4         O###9999966",
"-XX;1<0###  4         X;;#######e544;- +:12q############ X 55   -X+;120###     XX Xe5;;;-XX;1<0##########55   -X+;120###99969999",
"- +:12q###55   -X+;120X;########e5--;  X;22q###############554--  +:<2q##### X XX  e544;- +:12q##########554--  +:<2q###99999999",
"  X;22q###554--  +:<2q##########55-4-  X;12q###############e;4-; XX:q20############e5--;  X;22q##########e;4-; XX:q20###99999999",
"  X;12q###e;4-; XX:q20##########e544---X;12q###############e5;;;-XX;1<0############55-4-  X;12q##########e5;;;-XX;1<0###96666666",
"--X;12q###e5;;;-XX;1<0##########e5-;;- X:12q###############e544;- +:12q############e544---X;12q##########e544;- +:12q###96699999",
"- X:12q###e544;- +:12q##########e5-4--XX;1<q###############e5--;  X;22q############e5-;;- X:12q##########e5--;  X;22q###99999999",
"-XX;1<q###e5--;  X;22q##########e54;- XX;12q###############55-4-  X;12q############e5-4--XX;1<q##########55-4-  X;12q###99999699",
" XX;12q###55-4-  X;12q##########e5-4- XX;1q0q##############e544---X;12q############e54;- XX;12q##########e544---X;12q###66699999",
" XX;1q0q##e544---X;12q##########55-4;- X:120q##############e5-;;- X:12q############e5-4- XX;1q0q#########e5-;;- X:12q##$99888888",
"- X:120q##e5-;;- X:12q##########e5;4; XX;212q##############e5-4--XX;1<q############55-4;- X:120q#########e5-4--XX;1<q##$66999999",
" XX;212q$#e5-4--XX;1<q##########e54;; XX;112q##############e54;- XX;12q############e5;4; XX;212q#########e54;- XX;12q##$98999999",
" XX;112q##e54;- XX;12qq########e54--; XX:221q##############e5-4- XX;1q0q###########e54;; XX;112q#########e5-4- XX;1q0q#$$9999999",
" XX:221q##e5-4- XX;1q0q########554;-- XX;2<29##############55-4;- X:120q##########e54--; XX:221q#########55-4;- X:120q$$$6666666",
" XX;2<29>#55-4;- X:120q#######e544;;-XXX:2<<e##############e5;4; XX;212q##########554;-- XX;2<29#########e5;4; XX;212q$$$9999999",
"XXX:2<<e##e5;4; XX;212q#######e54;---XXXX;29e5#############e54;; XX;112q#########e544;;-XXX:2<<e$########e54;; XX;112q$$$9999999",
"XXXX;29e5ee54;; XX;112q#######e;-4--X- XX;2129########$$$$e54--; XX:221q#########e54;---XXXX;29e5###$$$#e54--; XX:221q$$$8888888",
"- XX;2129e54--; XX:221q#$$$$$e5444-X @ XX;2q1<q#####$$$$$$554;-- XX;2<29#########e;-4--X- XX;2129$$$$$$$554;-- XX;2<29$$$6333333",
"@ XX;2q1<554;-- XX;2<29$$$$$$e5;-4-   XXX;2212qq$$$$$$$$$e544;;-XXX:2<<e$$$$$$$$e5444-X @ XX;2q1<q$$$$$e544;;-XXX:2<<e$$$$999999",
" XXX;221e544;;-XXX:2<<e5$$$$e54;4-;X @ XXX;2q2q0$$$$$$$$$e54;---XXXX;29e5$$$$$$$e5;-4-   XXX;2212qq$$$$e54;---XXXX;29e5$$$999999",
"@ XXX;2qe54;---XXXX;29e9$$$$e5-4X-     XXX;;22<q$$$$$$$$$e;-4--X- XX;2129$$$$$$e54;4-;X @ XXX;2q2q0$$$$e;-4--X- XX;2129$$$$99999",
"  XXX;;2e;-4--X- XX;212<q$$$$$$4X -X- XXXXX;;$$$$$$$$$$$e5444-X @ XX;2q1<q$$$$$e5-4X-     XXX;;22<q$$$e5444-X @ XX;2q1<q$$$$6666",
" XXXXX;e5444-X @ XX;2q12qq$$$$$$$     XX XX;$$$$$$$$$$$$e5;-4-   XXX;2212qq$$$$$$$4X -X- XXXXX;;$$$$$$e5;-4-   XXX;2212qq$$$9999",
" XX XX;e5;-4-   XXX;2212q0$$$$$$$$$ X XX  $$$$$$$$$$$$$e54;4-;X @ XXX;2q2q0$$$$$$$$$     XX XX;$$$$$$e54;4-;X @ XXX;2q2q0$$$9999",
" XX  $e54;4-;X @ XXX;2q2<q$$$99$$$$$$$$$$$$$$$$999999$$e5-4X-     XXX;;22<q$$$$$$$$$$$ X XX  $$$$$$$$e5-4X-     XXX;;22<q$$$8888",
"$$$$$$e5-4X-     XXX;;26$$$$66668888888888888888886668$$$$4X -X- XXXXX;;$$$$$$$$$$$$$$$$$$$$$$$$$$$$$$$$4X -X- XXXXX;;$$$$$99899",
"$$$$$$$$$4X -X- XXXXX;;$$$$6666666669999999999996699999$$$$$     XX XX;$$$$999999999$$$$$$$$$$$$$$$$$$$$$$     XX XX;$$$$$999999",
"$$9999$9$$$     XX XX;$$$$7777779999666666666999999999999$$$$$ X XX  $$$$$9699999999999$$$$$$$$99996$$$$$$$$ X XX  $$$$$$9999999",
"9999999999$$$ X XX  $$$$999999997777779999999999999999999999$$$$$$$$$$$$$99999999999999999999999999999$$$$$$$$$$$$$$$$9999999999"
};
