/* XPM */
static char *result[] = {
/* columns rows colors chars-per-pixel */
"128 128 33 1 ",
"  c black",
". c #010701",
"X c #010305",
"o c #020E02",
"O c #0C0805",
"+ c #00060A",
"@ c #03080C",
"# c #0A0908",
"$ c #100D0C",
"% c #031203",
"& c #031403",
"* c #041604",
"= c #061706",
"- c #040B12",
"; c #06111B",
": c #0B1A1F",
"> c #171311",
", c #1B1613",
"< c #261F1A",
"1 c #092409",
"2 c #0F210F",
"3 c #132F13",
"4 c #332419",
"5 c #091A28",
"6 c #0F2A38",
"7 c #3D2D20",
"8 c #4C3321",
"9 c #4A3627",
"0 c #4F3A2B",
"q c #2B552B",
"w c #2A4930",
"e c #50412A",
"r c #1D3C43",
/* pixels */
"0000000o1==o3=..==o==1oo%%%%......%%&3111=......%==.=1113&%......%%%%o=o1==o3=..==o==1o..............ooo1...=.&&==.......oooooo&",
"000777o1==oo&.&&.&oo==1o%&%...&&...%&ooo1...=...==.......%....&&..%&%oo1==oo&....&oo==1o%%%...&&.%%%%o=o1==o3&33&=o==1o====o==&3",
"000000o1=ooo.&33&.ooo=1o&o%..&33&..%o&=o1==o3=..==o==1ooo%...&33&.%o&=o1=ooo......ooo=1o&%...&33&.%&%oo1==oo&&13&&oo==1o==oo==&1",
"00000o1==ooo.&13&.ooo==1o%%..&13&..%%&o1==oo&....&oo==1o%%...&13&.%%&o1==ooo......ooo==1o%...&13&.%o&=o1=ooo&1113&ooo=1o=o..o&11",
"00000o1==oo%&1113&%oo==1o%..&1113&..%oo1=ooo......ooo=1oo...&1113&.%oo1==oo%......%oo==1o%..&1113&%%&o1==ooo&1=11&ooo==1o=...&1=",
"7777o1==oo=.&1=11&.=oo==1o..&1=11&...o1==ooo......ooo==1o...&1=11&..o1==oo=........=oo==1o..&1=11&.%oo1==oo&1==3=1&oo==1o....1==",
"0000o1==oo.&1==3=1&.oo==1&.&1==3=1&.oo1==oo%......%oo==1oo.&1==3=1&oo1==oo.=....%.=.oo==1&.&1==3=1&.o1==oo=&3==1=3&=oo==1o..&3==",
"eeeo1====.=&3==1=3&=.====1o&3==1=3&=o1==oo=........=oo==1o.&3==1=3&o1====.=........=.====1o&3==1=3&oo1==oo&1======1&oo==1&..1===",
"444o31111.&1======1&.11113&1======1&o1==oo.=....%.=.oo==1&&1======1&31111..==....==..11113&1======1&1====.&1==*===1&.====1o&1==*",
"00000o1..1&1==*===1&1..1o&&1==*===1&1====.=........=.====1&1==*===1& o1..111..=..1111..1o&&1==*===1&31111&1==&.&&==1&11113&1==&.",
"0000.1==.&1==&.&&==1&.==1&1==&.&&==1&1111..==....==..1111&1==&.&&==1&1==..&..o..o..&..==1&1==&.&&==1&o1..&1=o&..&o=1&..1o&&1=o&.",
"0000.1==&&1=o&..&o=1&&==1&1=o&..&o=1&o1..111..=..1111..1o&1=o&..&o=1&1==&oo=.o..o.=oo&==1&1=o&..&o=1&1==&1=oo.=..oo=1&==1&1=oo.=",
"999.1===&1=oo.=..oo=1&==&1=oo.=..oo=1&==..&..o..o..&..==&1=oo.=..oo=1&==&oo=o....o=oo&==&1=oo.=..oo=1&=&11=o&.%..&o=11&=&11=o&.%",
"000.1==&11=o&.%..&o=11&&11=o&.%..&o=11&=&oo=.o..o.=oo&=&11=o&.%..&o=11&&oo=oo....oo=oo&&11=o&.%..&o=11&&1=&&......&&=1&=&1=&&...",
"000.1==&1=&&......&&=1&&1=&&......&&=1&=&oo=o....o=oo&=&1=&&......&&=1&o&ooo%....%ooo&o&1=&&......&&=1&&1=&=..%...=&=1&=&1=&=..%",
"00.1==&&1=&=..%...=&=1&&1=&=..%...=&=1&&oo=oo....oo=oo&&1=&=..%...=&=1&ooooo.%..%.ooooo&1=&=..%...=&=1&1=o&........&o=1&1=o&....",
"77.1==&1=o&........&o=1&=o&........&o=1&&&oo%....%ooo&&1=o&........&o=1&oooo.%..%.oooo&1=o&........&o=&1=o&........&o=1&1=o&....",
"00.1==&1=o&........&o=1&=o&........&o=1&33&o.%..%.oooo&1=o&........&o=1&oo%%......%%oo&1=o&........&o&3===..........==&3===.....",
"0.1==&3===..........===3&=..........===&13&o.%..%.ooo&3===..........===3&%o.%......o%&3===..........&3111=......%==.=&3111=.....",
"9.1=&3111=......%==.=1113&......%==.=1&1113&......%%&3111=......%==.=1113&o........o&3111=......%==.=ooo1...=...==....ooo1...=..",
".1===ooo1...=...==..........=...==....&1=11&%......o%ooo1...=...==.......==.%....%.==ooo1...=...==.....o1==o3=..==o==1ooo1==o3=.",
".311111o1==o.=..==o==1oo1==o3=..==o==&1==3=1&......oo=oo1&&o.=..==o==1o11=%%%....%%%=11o1==o.=..==o==1o1==oo&&&..&oo==1o1==oo&..",
"4...1=o1==oo&....&oo==1o==oo&....&oo=&3==1=3&....%.===o1&33&&....&oo==1o.....&&.......o1==oo&....&oo==o1=ooo&33&&.ooo=1o1=ooo...",
"777.1=o1=ooo....&&ooo=1o=ooo......oo&1======1&...%%%=1o1&13&......ooo=1o%%%%&33&..%%%%o1=ooo......oooo1==ooo&133&.ooo=o1==ooo...",
"000.=o1==ooo...&33&oo==1oooo......oo&1==*===1&.......o1&1113&.....ooo==1o&%.&13&...%&o1==ooo......oooo1==oo&11113&%oo=o1==oo%...",
"00.1=o1==oo%...&13&oo==1ooo%......%&1==&.&&==1&...%%%o1&1=11&.....%oo==1oo%&1113&..%oo1==oo%......%oo1==oo=&1==11&.=oo1==oo=....",
"99.1o1==oo=...&1113&oo==1o=........&1=o&..&o=1&....%o1&1==3=1&.....=oo==1o%&1=11&..%o1==oo=........=o1==oo&1===3=1&.oo1==oo.=...",
"0.1=o1==oo.=..&1=11&oo==1&.=....%.&1=oo.=..oo=1&...%o1&3==1=3&..%.=.oo==1&&1==3=1&..o1==oo.=....%.=o1====.&3===1=3&=o1====.=....",
"0.1o1====.=..&1==3=1&====1o......&11=o&.%..&o=11&..o1&1======1&....=.====1&3==1=3&.o1====.=........o31111&1=======1&o31111..==..",
".1=o31111..==&3==1=3&111133o=....&1=&&......&&=1&..o3&1==*===1&..==..1111&1======1&o31111..==....==..o1..&1===*===1&1.o1..111..=",
".3=1&o1..111&1======1&.1o&3o..=..&1=&=..%...=&=1&...&1==&.&&==1&.1111..1o&1==*===1&=.o1..111..=..111.1==&1===&.&&==1&.1==..&..o.",
"0ooo.1==..&.&1==*===1&==1&...o..&1=o&........&o=1&..&1=o&..&o=1&o..&..==&1==&.&&==1&.1==..&..o..o..&.1==&1=oo&..&o=1&.1==&oo=.o.",
"000..1==&oo&1==&.&&==1&=1.o=.o..&1=o&........&o=1&.&1=oo.=..oo=1&.=oo&==&1=o&..&o=1&.1==&oo=.o..o.=.1==&1=ooo.=..oo=1&===&oo=o..",
"999.1===&oo&1=o&..&o=1&==1.=o..&3===..........===3&11=o&.%..&o=11&=oo&=&1=oo.=..oo=1&===&oo=o....o=.1=&11=o&&.%..&o=11&=&oo=oo..",
"000.1==&oo&1=oo.=..oo=1&=1.oo.&3111=......%==.=111&1=&&......&&=1&o=oo&11=o&.%..&o=11&=&oo=oo....oo.1=&1=&&.......&&=1&=o&ooo%..",
"00..1==o&&11=o&.%..&o=11&1.o%..ooo1...=...==......&1=&=..%...=&=1&ooo&&1=&&......&&=1&=o&ooo%....%.1==&1=&=...%...=&=1&&ooooo.%.",
"00.1==&oo&1=&&......&&=1&=1..%..%o1==o3=..==o==1o&1=o&........&o=1&ooo&1=&=..%...=&=1&&ooooo.%..%..1=&1=o&.........&o=1&ooooo.%.",
"00.1==&oo&1=&=..%...=&=1&=1..%..o1==oo&....&oo==1&1=o&........&o=1&oo&1=o&........&o=1&ooooo.%..%..1=&1=o&.........&o=1&ooo%%...",
"0..1==oo&1=o&........&o=1&13....o1=ooo......ooo=&3===..........===3&o&1=o&........&o=1&ooo%%......1=&3===...........===3&&%o.%..",
"7.1==&oo&1=o&........&o=1&=1...o1==ooo......ooo&3111=......%==.=1113&3===..........===3&&%o.%.....1&3111=.......%==.=1113&oo....",
"..1====&3===..........===3&1...o1==oo%......%oo=ooo1...=...==.......3111=......%==.=1113&oo......1==ooo1....=...==.......===.%..",
".1====&3111=......%==.=1113&1.o1==oo=........=oo==o1==o.=..==o==1o.=ooo1...=...==.......===.%....31111o1==ooo=..==o==1o111=%%%..",
".311111ooo1...=...==.......13.o1==oo.=....%.=.oo=o1==oo&....&oo==1o%=1o1==o.=..==o==1o111=%%%.......1o1==ooo&....&oo==1o........",
"9...1=...o1==o.=..==o==1o11..o1====.&&.......=.==o1=ooo......ooo=1o..o1==oo&....&oo==1o.............1o1=oooo......ooo=1oo%%%%...",
"0##.1==oo1==oo&....&oo==1o1..o31111&33&....==..1o1==ooo......ooo==1o%o1=ooo......ooo=1o&&%%%......%.o1==oooo......ooo==1o%&%...&",
"00..===oo1=ooo......ooo=1o=1...o1..&13&.=..1111.o1==oo%......%oo==1oo1==ooo......ooo==&33&%........1o1==ooo%......%oo==1o&o%..&3",
"00.1==oo1==ooo......ooo==1o11..1==&1113&..o..&.o1==oo=........=oo==1o1==oo%......%oo==&13&%........o1==oo==........=oo==1o%%..&1",
"0..1==oo1==oo%&&....%oo==1o=1o.1==&1=11&..o.=ooo1==oo.=....%.=.&&==1&==oo=........=oo&1113&.......1o1==oo..=.&&.%.=.oo==1&%..&11",
"0.1===o1==oo=&33&....=oo==1o1.1==&1==3=1&..o=oo1====.=........&33&==1o=oo.=....%.=.oo&1=11&.......o1====.==.&33&...=.====1o..&1=",
"..1==oo1==oo.&13&.%.=.oo==1&=.1==&3==1=3&..oo=o31111..==....==&13&1133o=.=........=.&1==3=1&.....1o31111...=&13&.==..111133o&1==",
".1===o1====.&1113&...=.====1o.1=&1======1&.%ooo&o1..111..=..1&1113&o&3o1..==....==..&3==1=3&.....3=1o1..111&1113&1111..1o&3o&3==",
".3=1&o31111.&1=11&.==..11113.1==&1==*===1&%.ooo.1==..&..o..o.&1=11&1&...111..=..111&1======1&....oo.1==..&&&1=11&..&..==1&.&1===",
"#ooooooo1..&1==3=1&1111..1o&.1=&1==&.&&==1&.ooo.1==&oo=.o..o&1==3=1&.==..&..o..o..&&1==*===1&oooo...1==&oo&1==3=1&=oo&==1.#&1==*",
"eee##..1==.&3==1=3&..&..==1&.1=&1=o&..&o=1&.%%.1===&oo=o....&3==1=3&1.=&oo=.o..o.=&1==&.&&==1&    .1===&oo&3==1=3&=oo&===1&1==&.",
"444##..1==&1======1&=oo&==1.1=&1=oo.=..oo=1&.o.1==&oo=oo...&1======1&.=&oo=o....o=&1=o&..&o=1& -X+.1==&oo&1======1&=oo&==1&1=o&.",
"999#..1===&1==*===1&=oo&===.1&11=o&.%..&o=11&o.1==o&ooo%...&1==*===1&.&oo=oo....o&1=oo.=..oo=1&  +.1==o&o&1==*===1&oo&o==&1=oo.=",
"000#..1==&1==&.&&==1&=oo&=.1=&1=&&......&&=1&.1==&ooooo.%.&1==&.&&==1&.&ooo%....&11=o&.%..&o=11&X.1==&oo&1==&.&&==1&ooo&&11=o&.%",
"000#..1==&1=o&..&o=1&oo&o=.31&1=&=..%...=&=1&.1==&ooooo.%.&1=o&..&o=1&.oooo.%..%&1=&&......&&=1&X.1==&oo&1=o&..&o=1&ooo&&1=&&...",
"000..1==&1=oo.=..oo=1&ooo&=.&1=o&........&o=1&1==oooo%%..&1=oo.=..oo=1&.ooo.%..%&1=&=..%...=&=1& .1==oo&1=oo.=..oo=1&ooo&1=&=..%",
"777..1=&11=o&.%..&o=11&oo&==&1=o&........&o=1&==&oo&%o.%&11=o&.%..&o=11&o%%....&1=o&........&o=1&1==&o&11=o&.%..&o=11&o&1=o&....",
"000..1=&1=&&......&&=1&ooo=&3===..........===3&===o=oo..&1=&&......&&=1&%o.%...&1=o&........&o=1&1====&1=&&......&&=1&o&1=o&....",
"00..1==&1=&=..%...=&=1&&oo&3111=......%==.=1113&=oo===.%&1=&=..%...=&=1&.o....&3===..........===3&===o&1=&=..%...=&=1&&3===.....",
"00..1=&1=o&........&o=1&o==ooo1...=...==.......11111=%%&1=o&........&o=1&=.%.&3111=......%==.=1113&11&1=o&........&o=1&111=.....",
"9..1==&1=o&........&o=1&oo=.1o1==o.=..==o==1o..1=......&1=o&........&o=1&%%%..ooo1...=...==........1=&1=o&........&o=1&oo1...=..",
"0..31&3===..........===3&11.o1==oo&....&oo==1o.1==o%%%&3===..........===3&......o1==o.=..==o==1oXX.1&3===..........===3&o1==o3=.",
"##..&3111=......%==.=1113&.1o1=ooo......ooo=1o.===o%&&3111=......%==.=1113&....o1==oo&....&oo==1oX.&3111=......%==.=1113&==oo&..",
"####.ooo1...=...==.......=.o1==ooo......ooo==1o==o=&o%ooo1...=...==............o1=ooo......ooo=1o.1=ooo1...=...==.......1=ooo...",
"####..=o1==o.=..==o==1o%o==o1==oo%......%oo==1o==oo&%%..o1==o.=..==o==1oo.....o1==ooo......ooo==1o1==oo1==oo=..==o==1oo1==ooo...",
"0##..1o1==oo&....&oo==1o=oo1==oo=........=oo==1o=o&o%..o1==oo&....&oo==1o.....o1==oo%......%oo==1o===o1==oo&....&oo==1o1==oo%...",
"00#..1o1=ooo......ooo=1oooo1==oo.=....%.=.oo==1&oo&o...o1=ooo......ooo=1o....o1==oo=........=oo==1o=oo1=ooo......ooo=1o==oo=....",
"99..1o1==ooo......ooo==1oo1====.=........=.====1o&=.o.o1==ooo......ooo==1o...o1==oo.=....%.=.oo==1&=o1==ooo......ooo==1o=oo.=...",
"00..1o1==oo%......%oo==1oo31111..==....==..111133o.o..o1==oo%......%oo==1o..o1====.=........=.====1oo1==oo%......%oo==1o==.=....",
"0..1o1==oo=........=oo==1o&o1..111..=..1111..1o&3ooooo1==oo=........=oo==1o.o31111..==....==..11113o1==oo=........=oo==1o1..==..",
"0..3o1==oo.=....%.=.oo==1&.1==..&..o..o..&..==1&.oo==o1==oo.=....%.=.oo==1&oooo1..111..=..1111..1o&o1==oo.=....%.=.oo==1&.111..=",
"7#oo1====.=........=.====1o1==&oo=.o..o.=oo&==1.o&o=o1====.=........=.====1o .1==..&..o..o..&..==1o1====.=........=.====1o.&..o.",
"0##o31111..==....==..111133o==&oo=o....o=oo&===1.&ooo31111..==....==..111133o.1==&oo=.o..o.=oo&==1o31111..==....==..111133oo=.o.",
"0####o1..111..=..1111..1o&3o=&oo=oo....oo=oo&==1.=&&=.o1..111..=..1111..1o&3o1===&oo=o....o=oo&===1.o1..111..=..1111..1o&3oo=o..",
"9###.1==..&..o..o..&..==1&.==o&ooo%....%ooo&o==1..&&..1==..&..o..o..&..==1&..1==&oo=oo....oo=oo&==1.1==..&..o..o..&..==1&.o=oo..",
"0###.1==&oo=.o..o.=oo&==1.==&ooooo.%..%.ooooo&==1.oo..1==&oo=.o..o.=oo&==1...1==o&ooo%....%ooo&o==1.1==&oo=.o..o.=oo&==1.&ooo%..",
"00#.1===&oo=o....o=oo&===1.=&ooooo.%..%.ooooo&==1.1..1===&oo=o....o=oo&===1.1==&ooooo.%..%.ooooo&=.1===&oo=o....o=oo&===1.ooo.%.",
"00#.1==&oo=oo....oo=oo&==1.=oooo%%......%%oooo==13.1.1==&oo=oo....oo=oo&==1.1==&ooooo.%..%.ooooo&=.1==&oo=oo....oo=oo&==1.ooo.%.",
"777.1==o&ooo%....%ooo&o==1.&oo&%o.%......o%&oo&==1.3.1==o&ooo%....%ooo&o==1.1==oooo%%......%%oooo=.1==o&ooo%....%ooo&o==1.o%%...",
"00.1==&ooooo.%..%.ooooo&==1.=o=oo........oo=o====1..1==&ooooo.%..%.ooooo&==1.=&oo&%o.%......o%&oo.1==&ooooo.%..%.ooooo&==1.o.%..",
"00.1==&ooooo.%..%.ooooo&==1.oo===.%....%.===oo====1.1==&ooooo.%..%.ooooo&==1.===o=oo........oo=o=.1==&ooooo.%..%.ooooo&==1.o....",
"99.1==oooo%%......%%oooo==13.11=%%%....%%%=11111113.1==oooo%%......%%oooo==13.=oo===.%....%.===oo.1==oooo%%......%%oooo==13..%..",
"0.1==&oo&%o.%......o%&oo&==1..................=11..1==&oo&%o.%......o%&oo&==1.1111=%%%....%%%=11.1==&oo&%o.%......o%&oo&==1.%%..",
"0.1====o=oo........oo=o====1.o%%%%......%%%%o==11..1====o=oo........oo=o====1.=..................1====o=oo........oo=o====1.....",
".1====oo===.%....%.===oo====1.%&%........%&%o====.1====oo===.%....%.===oo====1.=o%%%%......%%%%.1====oo===.%....%.===oo====1....",
".31111111=%%%....%%%=11111113.&o%........%o&=o==1.31111111=%%%....%%%=11111113.=o%&%........%&%.31111111=%%%....%%%=11111113....",
"0...1=..................=11..o&%%........%%&oo==1=...1=..................=11..=o=&o%........%o&=...1=..................=11......",
"000.1==o%%%%......%%%%o==11.o&o%..........%o&o===111.1==o%%%%......%%%%o==11.==oo&%%........%%&oo=.1==o%%%%......%%%%o==11.%....",
"777.===o%&%........%&%o====1.&o............o&oo==1=1.===o%&%........%&%o====1.=o&o%..........%o&o=.===o%&%........%&%o====1.....",
"00.1==o=&o%........%o&=o==111..o..........o.=&&===1.1==o=&o%........%o&=o==111.o&o............o&o.1==o=&o%........%o&=o==111....",
"0e.1==oo&%%........%%&oo==1=1o...........=.o.&&&1=3.1==oo&%%........%%&oo==1=1o.=.o..........o.=&.1==oo&%%........%%&oo==1=1o...",
"9.1===o&o%..........%o&o===111.oooooooo..ooooooooo.1===o&o%..........%o&o===111..o..........=.o..1===o&o%..........%o&o===111...",
"4.1==oo&o............o&oo==1=1.   5         O ###$.1==oo&o............o&oo==1=1.oooooooooo..oooo.1==oo&o............o&oo==1=1.oo",
".1===&&=.o..........o.=&&===111.66   -X+;23q#####.1===&&=.o..........o.=&&===111.X;  5         .1===&&=.o..........o.=&&===111. ",
".3=1&&&.o..........=.o.&&&1=3=1.665--  +:13w#####.3=1&&&.o..........=.o.&&&1=3=1.XX66   -X+;23q.3=1&&&.o..........=.o.&&&1=3=1. ",
"0oooooooooooooooo..oooooooooooo<r;5-; XX:w3q#####$oooooooooooooooo..ooooooooooooXXX665--  +:13wXoooooooooooooooo..oooooooooooo--",
"77777##$r6  5         O;331w####r6;;;-XX;21q##########       5         O.X -X- XXXXr;5-; XX:w3q##########  5         O#####r;5-;",
"000000####66   -X+;23qX;;#######r655;- +:23w############ X 66   -X+;23q###     XX Xr6;;;-XX;21q##########66   -X+;23q######r6;;;",
"000000####665--  +:13wX;########r6--;  X;33w###############665--  +:13w##### X XX  r655;- +:23w##########665--  +:13w######r655;",
"000000####r;5-; XX:w3q##########66-5-  X;23w###############r;5-; XX:w3q############r6--;  X;33w##########r;5-; XX:w3q######r6--;",
"707777####r6;;;-XX;21q##########r655---X;23w###############r6;;;-XX;21q############66-5-  X;23w##########r6;;;-XX;21q######66-5-",
"000000####r655;- +:23w##########r6-;;- X:23w###############r655;- +:23w############r655---X;23w##########r655;- +:23w######r655-",
"0000077###r6--;  X;33w##########r6-5--XX;21w###############r6--;  X;33w############r6-;;- X:23w##########r6--;  X;33w######r6-;;",
"077007$###66-5-  X;23w##########r65;- XX;23w###############66-5-  X;23w############r6-5--XX;21w##########66-5-  X;23w######r6-5-",
"000070$###r655---X;23w##########r6-5- XX;2wqw##############r655---X;23w############r65;- XX;23w##########r655---X;23w######r65;-",
"990000$$##r6-;;- X:23w##########66-5;- X:23qw##############r6-;;- X:23w############r6-5- XX;2wqw#########r6-;;- X:23w######r6-5-",
"000700$$##r6-5--XX;21w##########r6;5; XX;323w##############r6-5--XX;21w############66-5;- X:23qw#########r6-5--XX;21w######66-5;",
"0000077>$#r65;- XX;23w##########r65;; XX;223w##############r65;- XX;23w############r6;5; XX;323w#########r65;- XX;23w##$###r6;5;",
"000000>>##r6-5- XX;2wqw########r65--; XX:332w##############r6-5- XX;2wqw###########r65;; XX;223w#########r6-5- XX;2wqw#$###r65;;",
"777000,>##66-5;- X:23qw########665;-- XX;3130##############66-5;- X:23qw##########r65--; XX:332w#########66-5;- X:23qw$$$#r65--;",
"000700>,,#r6;5; XX;323w#######r655;;-XXX:311r##############r6;5; XX;323w##########665;-- XX;3130#########r6;5; XX;323w$$$#665;--",
"0000<0>>##r65;; XX;223w#######r65;---XXXX;30r6#############r65;; XX;223w#########r655;;-XXX:311r$########r65;; XX;223w$$$r655;;-",
"999990<>$r65--; XX:332w#######r;-5--X- XX;3230########$$$$r65--; XX:332w#########r65;---XXXX;30r6###$$$#r65--; XX:332w$$$r65;---",
"4444e,$$<665;-- XX;3130#$$$$$r6555-X @ XX;3w21w#####$$$$$$665;-- XX;3130#########r;-5--X- XX;3230$$$$$$$665;-- XX;3130$$$r;-5--X",
"09944<$$r655;;-XXX:311r$$$$$$r6;-5-   XXX;3323ww$$$$$$$$$r655;;-XXX:311r$$$$$$$$r6555-X @ XX;3w21w$$$$$r655;;-XXX:311r$$r6555-X ",
"00000<$$r65;---XXXX;30r6$$$$r65;5-;X @ XXX;3w3wq$$$$$$$$$r65;---XXXX;30r6$$$$$$$r6;-5-   XXX;3323ww$$$$r65;---XXXX;30r6$r6;-5-  ",
"00000,$$r;-5--X- XX;3230$$$$r6-5X-     XXX;;331w$$$$$$$$$r;-5--X- XX;3230$$$$$$r65;5-;X @ XXX;3w3wq$$$$r;-5--X- XX;3230r65;5-;X ",
"7777,$$r6555-X @ XX;3w21w$$$$$$5X -X- XXXXX;;$$$$$$$$$$$r6555-X @ XX;3w21w$$$$$r6-5X-     XXX;;331w$$$r6555-X @ XX;3w21w6-5X-   ",
"0000,$$r6;-5-   XXX;3323ww$$$$$$$     XX XX;$$$$$$$$$$$$r6;-5-   XXX;3323ww$$$$$$$5X -X- XXXXX;;$$$$$$r6;-5-   XXX;3323ww$5X -X-",
"0000$$r65;5-;X @ XXX;3w3wq$$$$$$$$$ X XX  $$$$$$$$$$$$$r65;5-;X @ XXX;3w3wq$$$$$$$$$     XX XX;$$$$$$r65;5-;X @ XXX;3w3wq$$$    ",
"99ee$$r6-5X-     XXX;;331w$$$00$$$$$$$$$$$$$$$$000000$$r6-5X-     XXX;;331w$$$$$$$$$$$ X XX  $$$$$$$$r6-5X-     XXX;;331w$$$## X",
"99999$$$$5X -X- XXXXX;;7$$$$77779999999999999999997779$$$$5X -X- XXXXX;;$$$$$$$$$$$$$$$$$$$$$$$$$$$$$$$$5X -X- XXXXX;;$$$$$$$$$$",
"0000000$$$$     XX XX;$$$$$7777777770000000000007700000$$$$$     XX XX;$$$$000000000$$$$$$$$$$$$$$$$$$$$$$     XX XX;$$$$$000$$$",
"00000000$$$$$ X XX  $$$$$$8888880000777777777000000000000$$$$$ X XX  $$$$$0700000000000$$$$$$$$00007$$$$$$$$ X XX  $$$$$$000000$",
"0000000000$$$$$$$$$$$$$$000000008888880000000000000000000000$$$$$$$$$$$$$00000000000000000000000000000$$$$$$$$$$$$$$$$0000000000"
};
