/* XPM */
static char *_5960_6d83b503b9568ae8fae603711566d50b8429fed314886768ffa6f896fd7505d2[] = {
/* columns rows colors chars-per-pixel */
"128 128 19 1 ",
"  c black",
". c #010701",
"X c #010305",
"o c #020E02",
"O c #00060A",
"+ c #0A0908",
"@ c #031203",
"# c #031403",
"$ c #041604",
"% c #061706",
"& c #040B12",
"* c #092409",
"= c #132F13",
"- c #332419",
"; c #3D2D20",
": c #4C3321",
"> c #4A3627",
", c #4F3A2B",
"< c #50412A",
/* pixels */
",,,,,,,,,,,,,,##,,,,,,,,,,,,,,,,,,,,,,,,,,,,,,##,,,,,;;;,,,,,,,,,,,,,,,,,,,,,,##;;;,,,,,,,,,,,,,,,,,,,,,,,,,,,##,,,,,,,,,,,,,,,,",
",,,;;;;,,;;,,#==#,,,,,,,,,,,,,,,,,,##;;;;;;;;#==#;;;;;;;;;;;;;,,,,,,##,,,,,,,#==#,,;;;,,,,,,,,,;;;##;;;;;;,,,#==#,,,,,,,,,,,,,,,",
",,,,,,,,,,,,,#*=#;;;;;,,##,,,,,,,,#==#,,,,,,,#*=#<><<<<<<<##<<<<<<,#==#,,,,,,#*=#,,,,,,##,,,,,,,,#==#;;;,,;;;#*=#;;;;;;;,,,,,,,,",
",,,,,,><>>>>#***=#,,,,,#==#><,,,,,#*=#,,,,;;#***=#;;;;;;;#==#,,,,;;#*=#<<><<#***=#>>><#==#<>,,,,>#*=#>,,,<<<#***=#><<<<<<<<;<<<,",
",,,,,,,,,,,,#*%**#,,,,,#*=#,>><<<#***=#;;;,,#*%**#,,,,,,,#*=#>>,,,#***=#;;,,#*%**#,,,,#*=#,><<,,#***=#;;,,,,#*%**#;,,,,,;;>,>,,,",
";;;;;;;;;;;#*%%=%*#;;;#***=#;;;;;#*%**#;;;;#*%%=%*#;;;;;#***=#;;;;#*%**#;;;#*%%=%*#;;#***=#;;;;;#*%**#;;;;;#*%%=%*#;;;;;;;;;;;;;",
",,,,,,,,,,,#=%%*%=#,,>#*%**#,,,,#*%%=%*#,,,#=%%*%=#<;;<<#*%**#<<<#*%%=%*#;;#=%%*%=#,,#*%**#>>;;#*%%=%*#,,,,#=%%*%=#,,,,,,,,,,,,,",
"<<<<<<<;,,#*%%%%%%*#,#*%%=%*#,,,#=%%*%=#,,#*%%%%%%*#---#*%%=%*#;;#=%%*%=#-#*%%%%%%*##*%%=%*#;;;#=%%*%=#;,;#*%%%%%%*#,,,,<<<<<<<<",
"---;--;-,,#*%%$%%%*#,#=%%*%=#;;#*%%%%%%*#,#*%%$%%%*#,,,#=%%*%=#;#*%%%%%%*##*%%$%%%*##=%%*%=#;;#*%%%%%%*#<<#*%%$%%%*#<----;--;---",
",,,,,,,;;#*%%#.##%%*#*%%%%%%*#,#*%%$%%%*##*%%#.##%%*#,#*%%%%%%*##*%%$%%%*#*%%#.##%%#*%%%%%%*#,#*%%$%%%*#-#*%%#.##%%*#-,,,,,,,,,,",
",,,,,,,,,#*%o#..#o%*#*%%$%%%*##*%%#.##%%*#*%o#..#o%*#,#*%%$%%%*#*%%#.##%%*#%o#..#o%#*%%$%%%*##*%%#.##%%*##*%o#..#o%*#,,,,,,,,,,,",
",,,,,,,,#*%oo.%..oo#*%%#.##%%*#*%o#..#o%*#%oo.%..oo%*#*%%#.##%%*#%o#..#o%*#oo.%..o#*%%#.##%%*#*%o#..#o%*#*%oo.%..oo%*#,,,,,,,,,,",
">>>;;;;#**%o#.@..#o#*%o#..#o%*#%oo.%..oo%*#o#.@..#o%*#*%o#..#o%*#oo.%..oo%*##.@..##*%o#..#o%*#%oo.%..oo#**%o#.@..#o%**#>>>>>>>>>",
",,,,,,,#*%##......#*%oo.%..oo%*#o#.@..#o%**#......###*%oo.%..oo%*##.@..#o%**#....#*%oo.%..oo%*#o#.@..#o#*%##......##%*#;;>>,,,,,",
",,,,,,,#*%#%..@..#**%o#.@..#o%**#......##%*#..@...%#**%o#.@..#o%**#.....##%*#.@.#**%o#.@..#o%**#......##*%#%..@...%#%*#,,,;;;,,,",
",,,,,,#*%o#......#*%##......##%*#..@...%#%*#.......#*%##......##%*#.@...%#%*#...#*%##......##%*#..@...#*%o#........#o%*#;,,,,,,,",
";;;;;;#*%o#......#*%#%..@...%####.......#o%*#......#*%#%..@...%#%*#......#o%*#..#*%#%..@...%#%*#......#*%o#........#o%*#;;;;;;;;",
",,,,,#=%%%......#*%o#........#==##......#o%*#.....#*%##........#o%*#.....#o%*#.#*%o#........#o%*#....#=%%%..........%%%=#,,,,,,,",
",,,,#=***%......#*%o#........#*=##.......%%%=#..@%#*#==#.......#o%*#.....##%%=##*%o#........#o%*#...#=***%......@%%.%***=#,,,,,,",
">>>>+ooo*...%..#=%%%........#***=##..@%%.%***=#.%#=%#*=#........%%%=#.@%#==#**#=%%%..........%%%=#..@ooo*...%...%%.......>>>>>>>",
",,,,+++o*%%o=%#=***%......@%#*%**#=#.%%.........#=*#***=#...@%%.%***=#%%#*=#.#=***%......@%%##***=#.%%.o*%%o=%..%%o%%*o<<;<<,,,,",
"<<<<<<o*%%oo#..ooo*...%...%#*%%=%*#..%%o%%*o#....oo#*%**#...%%........%#***=#.ooo*...%...%%#==#.....%%o*%%oo#.##.#oo%%*o--;-;<<<",
"----;;o*%ooo.....o*%%o=%..%#=%%*%=#...#oo%%*o.....#*%%=%*#..%%o%%*o....#*%**#o..o*%%o=%..%%#*=#o#....#o*%ooo.#==#.ooo%*o,,,--;--",
";;;;;o*%%ooo...##*%%oo#...#*%%%%%%*#...ooo%*o.....#=%%*%=#...#oo%%*o..#*%%=%*#.o*%%oo#....#***=#o....o*%%ooo.#*=#.ooo%%*o;;;;;;;",
",,,,,o*%%oo@..#==#%ooo....#*%%$%%%*#...ooo%%*o...#*%%%%%%*#...ooo%*o..#=%%*%=#oo*%ooo.....#*%**#o....o*%%oo@#***=#@oo%%*o,,,,,,,",
",,,,o*%%oo%...#*=#%ooo...#*%%#.##%%*#..@oo%%*o...#*%%$%%%*#...ooo%%*o#*%%%%%%*#*%%ooo....#*%%=%*#o..o*%%oo%.#*%**#.%oo%%*o,,,,,,",
">>>>o*%%oo.%.#***=#oo@...#*%o#..#o%*#...%oo%%*o.#*%%#.##%%*#..@oo%%*o#*%%$%%%*#*%%oo@....#=%%*%=#o..o*%%oo.#*%%=%*#.oo%%*#>>>>>>",
",,,o*%%%%.%..#*%**#o%...#*%oo.%..oo%*#.%.##%%*#.#*%o#..#o%*#...%oo%%#*%%#.##%%*#%oo%....#*%%%%%%*#oo*%%%%.%#=%%*%=#%.%%%%*o,,,,,",
",,+o=****..%#*%%=%*#.%.#**%o#.@..#o%**#.#==#%%*#*%oo.%..oo%*#.%.oo###*%o#..#o%*#%oo.%...#*%%$%%%*##o=****.#*%%%%%%*#.****==o,,;,",
",,+++o*..***#=%%*%=#%..#*%##......##%*#%#*=#**#**%o#.@..#o%**#.%.#==#%oo.%..oo%*#%.%...#*%%#.##%%*#o.o*..*#*%%$%%%*#*..*o#=o,,,,",
",,,+.*%%..##*%%%%%%*#%%#*%#%..@...%#%*##***=#o#*%##......##%*#%..#*=#%o#.@..#o%**#..%%.#*%o#..#o%*#=o*%%.#*%%#.##%%*#.%%*#.,;;,,",
",,,+.*%%#oo#*%%$%%%*#*#*%o#........#o%*#*%**#*#*%#%..@...%#%*#**#***=##......##%*#***.#*%oo.%..oo%*#o*%%##*%o#..#o%*##%%*.+;,,,,",
",,,.*%%%#o#*%%#.##%%*##*%o#........#o%#*%%=%*#*%o#........#o%*###*%**#%..@...%#%*#.#.#**%o#.@..#o%**#%%%#*%oo.%..oo%*#%%%*.,,,,,",
">>>.*%%#oo#*%o#..#o%*#=%%%..........%%#=%%*%=#*%o#........#o%*##*%%=%*#.......#o%*#o%#*%##......##%*#%%#**%o#.@..#o%**#%%*.>>>>>",
",,,.*%%o##*%oo.%..oo%*#**%......@%%.%#*%%%%%%*#%%..........%%%##=%%*%=#.......#o%*#o%#*%#%..@...%#%*#%%#*%##......##%*#%%*.,,,,,",
",,.*%%#o#**%o#.@..#o%**#*...%...%%...#*%%$%%%*#*%......@%%.%**#*%%%%%%*#.......%%%=##*%o#........#o%*###*%#%..@...%#%*##%%*.,,,,",
",,.*%%#o#*%##......##%*#*%%o=%..%%o%#*%%#.##%%*#...%...%%....##*%%$%%%*#...@%%.%**##=#%o#........#o%*##*%o#........#o%*#%%*.,,,,",
",,.*%%oo#*%#%..@...%#%*#%%oo#....#oo#*%o#..#o%*#%%o=%..%%o%%*#*%%#.##%%*#..%%....#==##%%..........%%%=#*%o#........#o%*#%%*=.,,,",
",..*%%oo#*%o#........#o%*#*=....o*%ooo......ooo%#=%%%..........%%%=#o#*%o#........#o%*#ooo@@......*%#=%%%..........%%%=##%%*.,,,",
";.*%%#oo#*%o#........#o%*#%*...o*%%ooo......ooo#=***%......@%%.%***=#=%%%..........%%%=##@o.@.....*#=***%......@%%.%***=#%%*.;;;",
"..*%%%%#=%%%..........%%%=#*...o*%%oo@......@oo%ooo*...%...%%.......=***%......@%%.%***=#oo......*%%ooo*...%...%%.......%%%%*.,,",
".=**%%#=***%......@%%.%***=#*.o*%%oo%........%oo%%o*%%o.%..%%o%%*o.%ooo*...%...%%.......%%%.@....=****o*%%o.%..%%o%%*o******=.,,",
".=*.*%oooo*...%...%%.......*=.o*%%oo.%....@.%.oo%o*%%oo#....#oo%%*o@%*o*%%o.%..%%o%%*o***%@@@.......*o*%%oo#....#oo%%*o.%**..,,,",
">...*%.oo*%%%o.%..%%o%%*o**..o*%%%%.##.......%.%%o*%ooo......ooo%*o..o*%%oo#....#oo%%*o.............*o*%ooo......ooo%*o%%**.;>>>",
",++.*%%oo*%oo#....#ooo%%*o*..o=****#==#....%%..*o*%%ooo......ooo%%*o@o*%ooo......ooo%*o##@@@......@.o*%%ooo......ooo%%*o%%%*.,,,",
",,..%%%oo*%ooo......oo%*o***..%#=**#*=#....****.o*%%oo@......@oo%%*oo*%%ooo......ooo%%#==#@........*o*%%oo@......@oo%%*o%%***.>,",
",,.*%%oo*%%ooo......ooo%%*o**..*%%#***=#..o%%........%..#=***%......@%%.%***=#*%o#..#o#*=##...@.%.ooo*%%oo%........%oo%%*o*%*o.,",
",..*%%oo*%%oo@##....@oo%%*o%*o.*%%#*%**#..o.%ooo*%%oo.%....@.%.##%%*#%%oo%........%oo#***=#.......*o*%%oo.%..##@.%.oo%%*#%%***.,",
",.*%%%o*%%oo%#==#....%oo%%*o*.*%%#*%%=%*#..o%oo*%%%%.%........#==#%%*o%oo.%....@.%.oo#*%**#.......o*%%%%.%..#==#..%.%%%%*o%*%*.,",
"..*%%oo*%%oo.#*=#.@.%.oo%%*#%.*%%#=%%*%=#..oo%o=****..%%....%%#*=#**==o%.%........%.#*%%=%*#.....*o=****..%%#*=#%%..****==o%***.",
".*%%%o*%%%%.#***=#...%.%%%%*o.*%#*%%%%%%*#.@ooo#o*..***..%..*#***=#o#=o*..%%....%%..#=%%*%=#.....=%*o*..***#***=#***..*o#=o%=%*.",
".=%*#o=****.#*%**#.%%..****=.*%%#*%%$%%%*#@.ooo.*%%..#..o..o.#*%**#*#...***..%..***#*%%%%%%*#....oo.*%%..#.#*%**#.#..%%*#.ooooo,",
"+ooooooo*..#*%%=%*#****..*o#.*%#*%%#.##%%*#.ooo.*%%#oo%.o..o#*%%=%*#.%%..#..o..o..##*%%$%%%*#oooo...*%%#oo#*%%=%*#oo#%%*..++++,,",
"<<<++..*%%.#=%%*%=#..#..%%*#.*%#*%o#..#o%*#.@@.*%%%#oo%o....#=%%*%=#*.%#oo%.o..o.%#*%%#.##%%*#    .*%%%#oo#=%%*%=#oo#%%%*..,,<<<",
"---++..*%%#*%%%%%%*#%oo#%%*.*%#*%oo.%..oo%*#.o.*%%#oo%oo...#*%%%%%%*#.%#oo%o....o%#*%o#..#o%*# &XO.*%%#oo#*%%%%%%*#oo#%%*..,,---",
">>>+..*%%%#*%%$%%%*#%oo#%%%.*#**%o#.@..#o%**#o.*%%o#ooo@...#*%%$%%%*#.#oo%oo....o#*%oo.%..oo%*#  O.*%%o#o#*%%$%%%*#o#o%%*..>>>>>",
",,,+..*%%#*%%#.##%%*#%oo#%.*%#*%##......##%*#.*%%#ooooo.@.#*%%#.##%%*#.#ooo@....#**%o#.@..#o%**#X.*%%#oo#*%%#.##%%*#oo#%%*..,,,,",
",,,+..*%%#*%o#..#o%*#oo#o%.=*#*%#%..@...%#%*#.*%%#ooooo.@.#*%o#..#o%*#.oooo.@..@#*%##......##%*#X.*%%#oo#*%o#..#o%*#oo#%%*..,,,,",
",,,..*%%#*%oo.%..oo%*#ooo#%.#*%o#........#o%*#*%%oooo@@..#*%oo.%..oo%*#.ooo.@..@#*%#%..@...%#%*# .*%%oo#*%oo.%..oo%*#oo%%*=..,,,",
";;;..*%#**%o#.@..#o%**#oo#%%#*%o#........#o%*#%%#oo#@o.@#**%o#.@..#o%**#o@@....#*%o#........#o%*#*%%#o#**%o#.@..#o%**#o#%%*..;;;",
",,,..*%#*%##......##%*#ooo%#=%%%..........%%%=#%%%o%oo..#*%##......##%*#@o.@...#*%o#........#o%*#*%%%%#*%##......##%*#%%%%*..,,,",
",,..*%%#*%#%..@...%#%*##oo#=***%......@%%.%***=#%oo%%%.@#*%#%..@...%#%*#.o....#=%%%..........%%%=#%%%o#*%#%..@...%#%*#o%%%%*..,,",
",,..*%#*%o#........#o%*#o%%ooo*...%...%%.......*****%@@#*%o#........#o%*#%.@.#=***%......@%%.%***=#**#*%o#........#o%*#****=.+,,",
">..*%%#*%o#........#o%*#oo%.*o*%%o.%..%%o%%*o..*%......#*%o#........#o%*#@@@..ooo*...%...%%........*%#*%o#........#o%*#%**..+>>>",
",..=*#=%%%..........%%%=#**.o*%%oo#....#oo%%*o.*%%o@@@#=%%%..........%%%=#......o*%%o.%..%%o%%*oXX.*#=%%%..........%%%=#**.++,,,",
"++..#=***%......@%%.%***=#.*o*%ooo......ooo%*o.%%%o@##=***%......@%%.%***=#....o*%%oo#....#oo%%*oX.#=***%......@%%.%***=#%*..,,,",
"++++.ooo*...%...%%.......%.o*%%ooo......ooo%%*o%%o%#o@ooo*...%...%%............o*%ooo......ooo%*o.*%ooo*...%...%%.......%***..;;",
"++++..%o*%%o.%..%%o%%*o@o%%o*%%oo@......@oo%%*o%%oo#@@..o*%%o.%..%%o%%*oo.....o*%%ooo......ooo%%*o*%%oo*%%o.%..%%o%%*oo%%*%*o..,",
",++..*o*%%oo#....#oo%%*o%oo*%%oo%........%oo%%*o%o#o@..o*%%oo#....#oo%%*o.....o*%%oo@......@oo%%*o%%%o*%%oo#....#oo%%*o%%%***..,",
",,+..*o*%ooo......ooo%*oooo*%%oo.%....@.%.oo%%*#oo#o...o*%ooo......ooo%*o....o*%%oo%........%oo%%*o%oo*%ooo......ooo%*oo%%*%*..,",
">>..*o*%%ooo......ooo%%*oo*%%%%.%........%.%%%%*o#%.o.o*%%ooo......ooo%%*o...o*%%oo.%....@.%.oo%%*#%o*%%ooo......ooo%%*o%%%***..",
",,..*o*%%oo@......@oo%%*oo=****..%%....%%..****==o.o..o*%%oo@......@oo%%*o..o*%%%%.%........%.%%%%*oo*%%oo@......@oo%%*o#*%=%*..",
",..*o*%%oo%........%oo%%*o#o*..***..%..****..*o#=ooooo*%%oo%........%oo%%*o.o=****..%%....%%..****=o*%%oo%........%oo%%*ooooooo,",
",..=o*%%oo.%....@.%.oo%%*#.*%%..#..o..o..#..%%*#.oo%%o*%%oo.%....@.%.oo%%*#oooo*..***..%..****..*o#o*%%oo.%....@.%.oo%%*#++++,,,",
";+oo*%%%%.%........%.%%%%*o*%%#oo%.o..o.%oo#%%*.o#o%o*%%%%.%........%.%%%%*o#.*%%..#..o..o..#..%%*o*%%%%.%........%.%%%%*o+++;;;",
",++o=****..%%....%%..****==o%%#oo%o....o%oo#%%%*.#ooo=****..%%....%%..****==o.*%%#oo%.o..o.%oo#%%*o=****..%%....%%..****==o+<,,,",
",++++o*..***..##.****..*o#=o%#oo%oo....oo%oo##%*.%##%.o*..***..%..****..*o#=.##%%#oo%o....o%oo#%%%*.o*..***..%..****..*o#=o,,,,,",
">+++.*%%..#..#==#..#..%%*#.%%o#ooo@....@ooo#==#*..##..*%%..#..o..o..#..%%*#.#==##oo%oo....oo%oo#%%*.*%%..#..o.##..#..%%*#.>>>>>>",
",+++.*%%#oo%.#*=#.%oo#%%*.%%#ooooo.@..@.ooo#*=#%*.oo..*%%#oo%.o..o.%oo#%%*..#*=#o#ooo@....@ooo#o%%*.*%%#oo%.o#==#%oo#%%*.+,,,,,,",
",,+.*%%%#oo%#***=#%oo#%%%*.%#ooooo.@..@.oo#***=#*.*..*%%%#oo%o....o%oo#%%%*#***=#oooo.@..@.ooooo#%.*%%%#oo%o.#*=#%oo#%%%*+,,,,,,",
",,+.*%%#oo%o#*%**#o%oo#%%*.%oooo@@......@@#*%**#*=.*.*%%#oo%oo....oo%oo#%%*#*%**#oooo.@..@.ooooo#%.*%%#oo%oo#***=#%oo#%%*+,,,,,,",
";;;.*%%o#oo#*%%=%*#oo#o%%*.#oo#@o.@......#*%%=%*#*.=.*%%o#ooo@....@ooo#o%%#*%%=%*#o@@......@@oooo%.*%%o#ooo@#*%**#oo#o%%*.;;;;;;",
",,.*%%#oooo#=%%*%=#oooo#%%*.%o%oo........#=%%*%=#*..*%%#ooooo.@..@.ooooo#%#=%%*%=#@o.@......o@#oo.*%%#ooooo#*%%=%*#ooo#%%*.,,,,,",
",,.*%%#ooo#*%%%%%%*#ooo#%%*.oo%%%.@....@#*%%%%%%*#*.*%%#ooooo.@..@.ooooo##*%%%%%%*#o........oo%o%.*%%#ooooo#=%%*%=#ooo#%%*.,,,,,",
">>.*%%oooo#*%%$%%%*#oooo%%*=.**%@@@....@#*%%$%%%*#=.*%%oooo@@......@@oooo#*%%$%%%*#%.@....@.%%%oo.*%%oooo@#*%%%%%%*#ooo%%*=.>>>>",
",.*%%#oo##*%%#.##%%*##oo#%%*..##.......#*%%#.##%%*#*%%#oo#@o.##.....o@#o#*%%#.##%%*#@@....@@@%**.*%%#oo#@o#*%%$%%%*##oo#%%*.,,,,",
",.*%%%%o%#*%o#..#o%*#%o%%%%*.#==#@.....#*%o#..#o%*#*%%%%o%oo#==#....oo%o#*%o#..#o%*#.........##..*%%%%o%o#*%%#.##%%*#o%%%%*.,,:,",
".*%%%%oo#*%oo.%..oo%*#oo%%%%*#*=#.....#*%oo.%..oo%*#%%%oo%%%#*=#..@.%%%#*%oo.%..oo%*#......@#==#*%%%%oo%%#*%o#..#o%*#oo%%%%*.;;;",
".=*****#**%o#.@..#o%**#*****#***=#...#**%o#.@..#o%**#*****%#***=#.@@@%#**%o#.@..#o%**#......#*=#=*******#*%oo.%..oo%*#*****=.,,,",
",...*%.#*%##......##%*#.%**.#*%**#...#*%##......##%*#*%....#*%**#.....#*%##......##%*#.....#***=#..*%..#**%o#.@..#o%**#%**..,,,,",
",,,.*%%#*%#%..@...%#%*#%%**#*%%=%*#..#*%#%..@...%#%*#*%%o@#*%%=%*#.@@@#*%#%..@...%#%*#.....#*%**#%.*%%o#*%##......##%*#%**.+::,,",
";;;.%%#*%o#........#o%*#%%%#=%%*%=#.#*%o#........#o%*#%%o@#=%%*%=#..@#*%o#........#o%*#...#*%%=%*#.%%%o#*%#%..@...%#%*#%%%*.+;;;",
",,.*%%#*%o#........#o%*#%%#*%%%%%%*##*%o#........#o%*#%o%#*%%%%%%*#.@#*%o#........#o%*#...#=%%*%=#*%%o#*%o#........#o%*#%***.+-,",
",<.*%#=%%%..........%%%=#%#*%%$%%%*#=%%%..........%%%=#oo#*%%$%%%*#.#=%%%..........%%%=#.#*%%%%%%*#%%o#*%o#........#o%*#%*%*o.+,",
">.*%#=***%......@%%.%***=#*%%#.##%%*#**%......@%%.%***=##*%%#.##%%*#=***%......@%%.%***=##*%%$%%%*#%%#=%%%..........%%%=#%***.>>",
"-.*%%ooo*...%...%%.......#*%o#..#o%*#o*...%...%%.......o#*%o#..#o%*#ooo*...%...%%.......#*%%#.##%%*##=***%......@%%.%***=#*%*.--",
".*%%%##o*%%o=%..%%o%%*o##*%oo.%..oo%*#*%%o=%..%%o%%*o%##*%oo.%..oo%*#oo*%%o=%..%%o%%*o  #*%o#..#o%*##ooo*...%...%%.......%%***.,",
".=%*##o*%%oo#....#oo%%*#**%o#.@..#o%**#%oo#....#oo%%*o#**%o#.@..#o%**#*%%oo#....#oo%%*o#*%oo.%..oo%*##.o*%%o=%..%%o%%*o##*%=%*.,",
",oooooo*%ooo......ooo%*#*%##......##%*#ooo......ooo%*o#*%##......##%*#*%ooo......ooo%*#**%o#.@..#o%**#o*%%oo#....#oo%%*ooooooo,,",
";;;;;o*%%ooo......ooo%%#*%#%..@...%#%*#ooo......ooo%%*#*%#%..@...%#%*#%%ooo......ooo%%#*%##......##%*#o*%ooo......ooo%*o+,,,,,;;",
",,,,,o*%%oo@......@oo%#*%o#........#o%*#o@......@oo%%#*%o#........#o%*#%oo@......@oo%%#*%#%..@...%#%*#*%%ooo......ooo%%*o,,;,,,,",
",,,,o*%%oo%........%oo#*%o#........#o%*#%........%oo%#*%o#........#o%*#oo%........%oo#*%o#........#o%*#%%oo@......@oo%%*o,,,,,,,",
",,,,o*%%oo.%....@.%.o#=%%%..........%%%=#%....@.%.oo#=%%%..........%%%=#o.%....@.%.oo#*%o#........#o%*#%oo%........%oo%%*o,,,,,,",
";,;o*%%%%.%........%#=***%......@%%.%***=#.......%.#=***%......@%%.%***=#%........%.#=%%%..........%%%=#oo.%....@.%.oo%%*#;;;;;;",
",,,o=****..%%....%%..ooo*...%...%%.......%%....%%..*ooo*...%...%%.........%%....%%.#=***%......@%%.%***=#.%........%.%%%%*o,,,,,",
",,,,oo*..***..%..****..o*%%o=%..%%o%%*o***..%..****..*o*%%o=%..%%o%%*o..***..%..****ooo*...%...%%.......*..%%....%%..****==o,,,,",
",;;,.*%%..#..o..o..#..o*%%oo#....#oo%%*o#..o..o..#..%o*%%oo#....#oo%%*o..#..o..o..#..%o*%%o=%..%%o%%*o*..***..%..****..*o#=o,;,,",
",,,,.*%%#oo%.o..o.%oo#o*%ooo......ooo%*oo%.o..o.%oo#%o*%ooo......ooo%*o#oo%.o..o.%oo#o*%%oo#....#oo%%*o%..#..o..o..#..%%*#.,,,,,",
">>,.*%%%#oo%o.##.o%ooo*%%ooo......ooo%%*o%o....o%oo#o*%%ooo......ooo%%*ooo%o..##o%oo#o*%ooo......ooo%*o%#oo%.o..o.%oo#%%*.>>>>>>",
",,,.*%%#oo%oo#==#oo%oo*%%oo@......@oo%%*ooo...##o%ooo*%%oo@......@oo%%*oo%oo.#==#o%oo*%%ooo......ooo%%*o#oo%o.##.o%oo#%%%*.,,,,,",
",,,.*%%o#ooo@#*=#@ooo*%%oo%........%oo%%*o@..####ooo*%%oo%........%oo%%*ooo@.#*=#oooo*%%oo@......@oo%%*ooo%oo#==#oo%oo#%%*.,,,,,",
",,.*%%#ooooo#***=#ooo*%%oo.%....@.%.oo%%*#.@.#==#ooo*%%oo.%....@.%.oo%%*#oo.#***=#oo*%%oo%........%oo%%*oooo@#*=#@ooo#o%%*.,,,,,",
";;.*%%#ooooo#*%**#oo*%%%%.%........%.%%%%*o@##*=##o*%%%%.%........%.%%%%*oo.#*%**#oo*%%oo.%....@.%.oo%%*#ooo#***=#ooooo#%%*.;;;;",
",,.*%%oooo@#*%%=%*#o=****..%%....%%..****==o#***=#o=****..%%....%%..****==o#*%%=%*#*%%%%.%........%.%%%%*ooo#*%**#ooooo#%%*.,,,,",
",.*%%#oo#@o#=%%*%=#o@o*..***..%..****..*o#=o#*%**###o*..***..%..****..*o#=o#=%%*%=#=****..%%....%%..****==o#*%%=%*#@oooo%%*=.,,,",
">.*%%%%o%o#*%%%%%%*#.*%%..#..o..o..#..%%*#.#*%%=%*#.*%%..#..o..o..#..%%*#.#*%%%%%%*#o*..***..%..****..*o#=o#=%%*%=#o@#oo#%%*.>>>",
".*%%%%oo%%#*%%$%%%*#.*%%#oo%.o..o.%oo#%%*.##=%%*%=##*%%#oo%.o..o.%oo#%%*.%#*%%$%%%*#*%%..#..o..o..#..%%*#.#*%%%%%%*#o%o%%%%*.---",
".=*******#*%%#.##%%*#%%%#oo%o....o%oo#%%%*#*%%%%%%*#%%%#oo%o....o%oo#%%%*#*%%#.##%%*#%%#oo%.o..o.%oo#%%*.%#*%%$%%%*#%%oo%%%%*.,,",
",...*%...#*%o#..#o%*#%%#oo%oo....oo%oo#%%*#*%%$%%%*##%#oo%oo....oo%oo#%%*#*%o#..#o%*#%%#oo%o....o%oo#%%%*#*%%#.##%%*#*******=.,,",
",,,.*%%o#*%oo.%..oo%*#%o#ooo@....@ooo#o%%#*%%#.##%%*#%o#ooo@....@ooo#o%%#*%oo.%..oo%*##oo%oo....oo%oo#%%*#*%o#..#o%*#...%**..,,,",
";;;.%%%#**%o#.@..#o%**#ooooo.@..@.ooooo#%#*%o#..#o%*##ooooo.@..@.ooooo##**%o#.@..#o%**##ooo@....@ooo#o%%#*%oo.%..oo%*#o%%**.;;;;",
",,.*%%o#*%##......##%*#ooooo.@..@.ooooo##*%oo.%..oo%*##oooo.@..@.ooooo##*%##......##%*#oooo.@..@.ooooo##**%o#.@..#o%**#%%%%*.,,,",
",,.*%%o#*%#%..@...%#%*#ooo@@......@@ooo#**%o#.@..#o%**#oo@@......@@oooo#*%#%..@...%#%*#oooo.@..@.ooooo##*%##......##%*#o%%***.,,",
">.*%%%#*%o#........#o%*##@o.@......o@#o#*%##......##%*##@o.@......o@#o#*%o#........#o%*#o@@......@@oooo#*%#%..@...%#%*#o%%*%*o.>",
">.*%%o#*%o#........#o%*#%oo........oo%o#*%#%..@...%#%*##oo........oo%o#*%o#........#o%*#@o.@......o@#o#*%o#........#o%*#%%%***.,",
".*%%%#=%%%..........%%%=#%%.@....@.%%%#*%o#........#o%*#%%.@....@.%%%#=%%%..........%%%=#o........oo%o#*%o#........#o%*#o%%*%*.,",
".=%*#=***%......@%%.%***=#@@@....@@@%*#*%o#........#o%*##@@@....@@@%#=***%......@%%.%***=#.@....@.%%%#=%%%..........%%%=#%%%***.",
",ooooooo*...%...%%...................#=%%%..........%%%=##...........ooo*...%...%%.......@@@....@@@%#=***%......@%%.%***=#*%=%*."
};
