/* XPM */
static char *_73142d784a64f01ba5373c0ddba7de9b8LUtu1QK858y7DN[] = {
/* columns rows colors chars-per-pixel */
"128 128 31 1 ",
"  c black",
". c #010701",
"X c #010305",
"o c #020E02",
"O c #0C0805",
"+ c #00060A",
"@ c #03080C",
"# c #0A0908",
"$ c #100D0C",
"% c #031203",
"& c #031403",
"* c #041604",
"= c #061706",
"- c #040B12",
"; c #06111B",
": c #0B1A1F",
"> c #1B1613",
", c #092409",
"< c #0F210F",
"1 c #132F13",
"2 c #332419",
"3 c #091A28",
"4 c #0F2A38",
"5 c #3D2D20",
"6 c #4C3321",
"7 c #4A3627",
"8 c #4F3A2B",
"9 c #2B552B",
"0 c #2A4930",
"q c #50412A",
"w c #1D3C43",
/* pixels */
"&8888888888888&&888888888888888888888888888888&&888885558888888888888888888888&&555888888888888888888888888888&&8888888888888888",
"1&85555885588=11&888888888888888888&&55555555&11&5555555275555888888&&8888888&11&88555888888888555&&555555888&11&888888888888888",
"1&88888888888&,1&5555588&&88888888&11&8888888&,1&q7qqqqqqq&&qqqqqq8=11&888888&,1&888888&&88888888&11&55588555&,1&555555588888888",
",1&8887q7777&,,,1&88888&11&7q88888&,1&888855&,,,1&5555552&11=888872&,1&qq7qq&,,,1&777q&11&q788887&,1&7888qqq&,,,1&7qqqqqqqq5qqq8",
",,&888888888&,=,,&88888&,1&877qqq&,,,1&55588&,=,,&8888888&,1&78888&,,,1&5588&,=,,&8888&,1&87qq88&,,,1&558888&,=,,&58888855787888",
"1=,&5555722=,==1=,&555&,,,1&55555&,=,,&5555&,==1=,&55555&,,,1=5272*,=,,&555&,==1=,&55&,,,1&55555&,=,,&55555&,==1=,&5555555555555",
",=1&8888888&1==,=1&887&,=,,&8888&,==1=,&888&1==,=1&q55qq&,=,,&qqq*,==1=,&55&1==,=1&88&,=,,&7755&,==1=,&8888&1==,=1&8888888888888",
"===,&qq588&,======,&8&,==1=,&888&1==,=1&88&,======,&222&,==1=,&72=1==,=1&2&,======,&&,==1=,&555&1==,=1&585&,======,&8888qqqqqqqq",
"===,&25288&,======,&8&1==,=1&27&,======,&8&,======,&888&1==,=1&2&,======,&&,==*===,&&1==,=1&55&,======,&qq&,==*===,&q22225225222",
"&&==,&855&,==&.%&==,&,======,&8&,==&===,&&,==&.&&==,&8&,======,&&,==*===,&,==&.&&==&,======,&8&,==*===,&2&,==&.&&==,&28888888888",
".&o=,&888&,=o&..&o=,&,======,&&,==&.&&==,&,=o&..&o=,&8&,======,&,==&.&&==,&=%&..&o=&,==*===,&&,==&.&&==,&&,=o&..&o=,&88888888888",
"..oo=,&8&,=oo.=..oo&,==&.&&==,&,=o&..&o=,&=oo.=..oo=,&,==&.&&==,&=o&..&o=,&&o.=..o&,==&.&&==,&,=o&..&o=,&,=oo.=..oo=,&8888888888",
"..&o=,,&,,=o&.%..&o&,=o&..&o=,%=oo.=..oo=,&o&.%..&o=,&,=o&..&o=,&oo.=..oo=,&%.%..&&,=o&..&o=,&=oo.=..oo&,,=o&.%..&o=,,&777777777",
"...&&=,&,=&&......&,=oo.=..o%=,&o&.%..&o=,,&......&&&,=oo.=..oo=,&&.%..&o=,,&....&,=oo.=..oo=,&o&.%..&o&,=&&......&&=,&557788888",
"...=&=,&,=&=..%..&,,=o&.%..&o=,,&......&&=,&..%...=&,,=o&.%..&o=,,&.....&&=,&.%.&,,=o&.%..&o=,,&......&&,=&=..%...=&=,&888555888",
"....&o=,&o&......&,=&&......&&=,&..%...=&=,&.......&,=&&......&&=,&.%...=&=,&...&,=&&......&&=,&..%...&,=o&........&o=,&58888888",
"....&o=,&o&......&,=&=..%...=&&&&.......&o=,&......&,=&=..%...=&=,&......&o=,&..&,=&=..%...=&=,&......&,=o&........&o=,&55555555",
".....===1&......&,=o&........&11&&......&o=,&.....&,=&&........&o=,&.....&o=,&.&,=o&........&o=,&....&1===..........===1&8888888",
".%==.=,,,1&.....&,=o&........&,1&&.......===1&..%=&,&11&.......&o=,&.....&&==1&&,=o&........&o=,&...&1,,,=......%==.=,,,1&888888",
".==.........=..&1===........&,,,1&&..%==.=,,,1&.=&1=&,1&........===1&.%=&11&,,&1===..........===1&..%ooo,...=...==.......7777777",
".==o==,o,==o1=&1,,,=......%=&,=,,&1&.==.........&1,&,,,1&...%==.=,,,1&==&,1&.&1,,,=......%==&&,,,1&.==.o,==o1=..==o==,oqq5qq8888",
"..&oo==,o=oo&..ooo,...=...=&,==1=,&..==o==,o&....oo&,=,,&...==........=&,,,1&.ooo,...=...==&11&.....==o,==oo&.&&.&oo==,o22525qqq",
"...ooo=,oooo.....o,==oo=..=&1==,=1&...&oo==,o.....&,==1=,&..==o==,o....&,=,,&o..o,==o1=..==&,1&o&....&o,=ooo.&11&.ooo=,o88822522",
"...ooo==,ooo...&&,==oo&...&,======,&...ooo=,o.....&1==,=1&...&oo==,o..&,==1=,&.o,==oo&....&,,,1&o....o,==ooo.&,1&.ooo==,o5555555",
"...%oo==,oo%..&11&=ooo....&,==&===,&...ooo==,o...&,======,&...ooo=,o..&1==,=1&oo,=ooo.....&,=,,&o....o,==oo%&,,,1&%oo==,o8888888",
"....=oo==,o...&,1&=ooo...&,==&.&&==,&..%oo==,o...&,==&===,&...ooo==,o&,======,&,==ooo....&,==1=,&o..o,==oo=.&,=,,&.=oo==,o888888",
".%.=.oo==,&=.&,,,1&oo%...&,=o&..&o=,&...=oo==,o.&,==&.&&==,&..%oo==,o&,==*===,&,==oo%....&1==,=1&o..o,==oo.&,==1=,&.oo==,&777777",
"....=.====,o.&,=,,&o=...&,=oo.=..oo=,&.=.&&==,&.&,=o&..&o=,&...=oo==&,==&.&&==,&=oo=....&,======,&oo,====.=&1==,=1&=.====,o88888",
"..==..,,,,11&,==1=,&.=.&,,=o&.%..&o=,,&.&11&==,&,=oo.=..oo=,&.=.oo&&&,=o&..&o=,&=oo.=...&,==*===,&&o1,,,,.&,======,&.,,,,11o8858",
"..,,,,..,o&1&1==,=1&=..&,=&&......&&=,&=&,1&,,&,,=o&.&..&o=,,&.=.&11&=oo.=..oo=,&=.=...&,==&.&&==,&o.o,..,&,==*===,&,..,o&1o8888",
".o..&..==,&&,======,&==&,=&=..%...=&=,&&,,,1&o&,=&&......&&=,&=..&,1&=o&.%..&o=,,&..==.&,=o&..&o=,&1o,==.&,==&.&&==,&.==,&.85588",
".o.=oo&==,.&,======,&,&,=o&........&o=,&,=,,&,&,=&=..%...=&=,&,,&,,,1&&......&&=,&,,,.&,=oo.=..oo=,&o,==&&,=o&..&o=,&&==,.#58888",
"..o=oo&===&,==&.&&==,&&,=o&........&o=&,==1=,&,=o&........&o=,&&&,=,,&=..%...=&=,&.&.&,,=o&.%..&o=,,&===&,=oo.=..oo=,&===,.88888",
"..oo=oo&==&,=o&..&o=,&1===..........==&1==,=1&,=o&........&o=,&&,==1=,&.......&o=,&o=&,=&&......&&=,&==&,,=o&.%..&o=,,&==,.77777",
"..%ooo&o=&,=oo.=..oo=,&,,=......%==.=&,======,&==..........===&&1==,=1&.......&o=,&o=&,=&=..%...=&=,&==&,=&&......&&=,&==,.88888",
".%.ooooo&,,=o&.%..&o=,,&,...=...==...&,==&===,&,=......%==.=,,&,======,&.......===1&&,=o&........&o=,&&&,=&=..%...=&=,&&==,.8888",
".%.ooooo&,=&&......&&=,&,==oo=..==o=&,==&.&&==,&...=...==....&&,==*===,&...%==.=,,&&1&=o&........&o=,&&,=o&........&o=,&==,.8888",
"...%%ooo&,=&=..%...=&=,&==oo&....&oo&,=o&..&o=,&==oo=..==o==,&,==&.&&==,&..==....&11&&==..........===1&,=o&........&o=,&==,1.888",
"....o%&&,=o&........&o=,&ooo......o&,=oo.=..oo=,&oo&....&oo=&&,=o&..&o=,&..==o==,&,1&1&=......%==.=,,&1===..........===1&==,.888",
"....oo=&,=o&........&o=,&ooo......&,,=o&.%..&o=,,&o......ooo&,=oo.=..oo=,&..&oo=&,,,1&&...=...==....&1,,,=......%==.=,,,1&=,.555",
"..%.==&1===..........===1&o%......&,=&&......&&=,&o......oo&,,=o&.%..&o=,,&..ooo&,=,,&,&=o1=..==o==,oooo,...=...==.......===,.88",
"..%%%&1,,,=......%==.=,,,1&.......&,=&=..%...=&=,&%......%o&,=&&......&&=,&..oo&,==1=,&&oo&....&oo==,o,o,==o1=..==o==,o,,,,,1.88",
"......ooo,...=...==........=....%&,=o&........&o=,&.......&&,=&=..%...=&=,&..%o&1==,=1&,&o......ooo=,oo,==oo&....&oo==,o=,,.#888",
"...%%%%oo,==oo=..==o==,o=.=......&,=&&........&o=,&....%.&&,=o&........&o=,&..&,======,&&o......ooo==,o,=ooo......ooo=,o=,,.5777",
"&...%&%o,==oo&....&oo==,o..==...&1=&11&........===1&.....&&,=o&........&o=,&.=&,==*===,&&&......%oo==o,==ooo......ooo==,o==,.888",
"1&..%o&o,=ooo......ooo=,o,,,..=&1,,&,1&....%==.=,,,1&...=&1===..........===1&&,==&.&&=&11&.......=oo=o,==oo%......%oo==,o=,,,.78",
"1&..%%o,==ooo......ooo==,o&..o..oo&,,,1&...==........=..&1,,,=......%==.=,,,1&,=o&..&o&,1&&...%.=.ooo,==oo=........=oo==,o,=,o.8",
",1&..%o,==oo%......%oo==,oo=.o..o.&,=,,&=..==o==,o..o..o&ooo,..&&...==......&,=oo.=..&,,,1&&.....=.=o,==oo.=.&&.%.=.oo==,&=,,,.8",
",,&..o,==oo=..&&....=oo==,o=o....&,==1=,&...&oo==,o.o..&1==o,=&11&..==o==,o&,,=o&.%..&,=,,&&...==..o,====.=.&11&...=.====,o,=,.8",
"1=,&.o,==oo.=&11&%.=.oo==,&oo....&1==,=1&....ooo=,oo..&1,,o,==&,1&...&oo==,&,=&&....&,==1=,&=..,,,,o1,,,,..=&,1&.==..,,,,11o,,,.",
",=1&o,====.=.&,1&...=.====,o%...&,======,&...ooo==,o...oooo,=&,,,1&...ooo=,&,=&=..%.&1==,=1&&.o..&..=o,..,,&,,,1&,,,,..,o&1o1=,.",
"===,&1,,,,..&,,,1&==..,,,,11o%..&,======,&...%oo==,o....%o,==%,=,,&...ooo=&,=o&....&,======,&.o.=oo&.,==..&&,=,,&..&..==,&.oo#o8",
"===,& o,..,,&,=,,&,,,,..,o&1o%.&,==&.&&==,&...=oo==,o..%oo,=&,==1=,&..%oo=&,=o&....&,==*===,&&.o=oo&.,==&o&,==1=,&=oo&==,.####88",
"&&==,&,==..&,==1=,&.&..==,&....&,=o&..&o=,&%.=.oo==,&..%o,==&1==,=1&...=o&1===....&,==&.&&==,&&oo=o.,===&o&1==,=1&=oo&===,.88qqq",
".&o=,&,==&o&1==,=1&=oo&==,..%.&,=oo.=..oo=,&..=.====,o.o%,=&,======,&.=.&1,,,=....&,=o&..&o=,&.%ooo.,==&o&,======,&=oo&==,.88222",
"..oo=,&==&&,======,&oo&===,..&,,=o&.%..&o=,,&=..,,,,11oo,==&,==&===,&..=.ooo,...=&,=oo.=..oo=,&.ooo.,==o&&,==*===,&oo&o==,.77777",
"..&o=,,&&o&,======,&=oo&==,.%&,=&&......&&=,&,,,..,o&1oo1,&,==&.&&==,&=..,,o,==o&,,=o&.%..&o=,,&oo.,==&o&,==&.&&==,&ooo&==,.8888",
"...&&=,&o&,==&.&&==,&o&o==,.%&,=&=..%...=&=,&.&..==,&.o,=o&,=o&..&o=,&,,,.o,==oo&,=&&......&&=,&%%.,==&o&,=o&..&o=,&ooo&==,.8888",
"...=&=,&o&,=o&..&o=,&ooo&==,&,=o&........&o=,&oo&==,.o,=.&,=oo.=..oo=,&&..o,=ooo&,=&=..%...=&=,&.o.,==o&,=oo.=..oo=,&ooo==,1.888",
"....&o=,&,=oo.=..oo=,&oo&==,&,=o&........&o=,&oo&===,.1,&,,=o&.%..&o=,,&oo,==oo&,=o&........&o=,&.,==&&,,=o&.%..&o=,,&oo&==,.555",
"....&o=&,,=o&.%..&o=,,&oo==&1===..........===1&oo&==,...&,=&&......&&=,&oo,==oo&,=o&........&o=,&.,===&,=&&......&&=,&o====,.888",
".....==&,=&&......&&=,&oo&&1,,,=......%==.=,,,1&&o==,...&,=&=..%...=&=,&o,==oo&1===..........===1&====&,=&=..%...=&=,&oo====,.88",
".%==.=,&,=&=..%...=&=,&o===ooo,...=...==.......ooo&==,.&,=o&........&o=,&,==o&1,,,=......%==.=,,,1&,,&,=o&........&o=,&,,,,,1#88",
".==...&,=o&........&o=,&o====o,==oo=..==o==,oooooo&==,.&,=o&........&o=,&====.ooo,...=...==.........,&,=o&........&o=,&.=,,##777",
".==o==&,=o&........&o=,&,,,,o,==oo&....&oo==,o%oooo==,&1===..........===1&,,,..=o,==o1=..==o==,oo%&.&1===..........===1&=,,##888",
"..&oo&1===..........===1&=,,o,=ooo......ooo=,oo%&oo&=&1,,,=......%==.=,,,1&..,,o,==oo&....&oo==,o%o&1,,,=......%==.=,,,1&==,.888",
"...o&1,,,=......%==.=,,,1&,o,==ooo......ooo==,oo=o===.ooo,...=...==.......==..&o,=ooo......ooo=,o%.,ooo,...=...==.......==,,,.55",
"...ooooo,...=...==.......==o,==oo%......%oo==,o==oo==.,=o,==o1=..==o==,o.,==&oo,==ooo......ooo==,o.,==o,==o1=..==o==,ooo==,=,o.8",
"...%oo=o,==oo=..==o==,o=o=o,==oo=........=oo==,o,,,,.,=o,==oo&....&oo==,o===&oo,==oo%......%oo==,o,==o,==oo&....&oo==,oo===,,,.8",
"....=oo,==oo&....&oo==,oo=o,==oo.=....%.=.oo==,&...=.1,o,=ooo......ooo=,o==&oo,==oo=........=oo==,o==o,=ooo......ooo=,ooo==,=,.8",
".%.=.oo,=ooo......ooo=,ooo,====.=........=.====,oo==,.o,==ooo......ooo==,o=o&o,==oo.=....%.=.oo==,&=o,==ooo......ooo==,o&===,,,.",
"....=o,==ooo......ooo==,oo1,,,,..==....==..,,,,11o====o,==oo%......%oo==,o&oo,====.=........=.====,oo,==oo%......%oo==,o&&,=1=,.",
"..==.o,==oo%......%oo==,o&=o,..,,,..=..,,,,..,o&1oo==o,==oo=........=oo==,ooo1,,,,..==....==..,,,,1o,==oo=........=oo==,ooooooo8",
"..,,o,==oo=........=oo==,o.,==..&..o..o..&..==,&.oo==o,==oo.=....%.=.oo==,&oooo,..,,,..=..,,,,..,o&o,==oo.=....%.=.oo==,&####888",
".o..o,==oo.=....%.=.oo==,&.,==&oo=.o..o.=oo&==,.o&o=o,====.=........=.====,o&.,==..&..o..o..&..==,o,====.=........=.====,o###555",
".o.o,====.=........=.====,o===&oo=o....o=oo&===,.&ooo1,,,,..==....==..,,,,11o.,==&oo=.o..o.=oo&==,o1,,,,..==....==..,,,,11o#q888",
"..oo1,,,,..==....==..,,,,11o=&oo=oo....oo=oo&==,.=&&=.o,..,,,..=..,,,,..,o&1.,===&oo=o....o=oo&===,.o,..,,,..=..,,,,..,o&1o88888",
"..oo=o,..,,,..=..,,,,..,o&1o=o&ooo%....%ooo&o==,..&&..,==..&..o..o..&..==,&..,==&oo=oo....oo=oo&==,.,==..&..o..o..&..==,&.777777",
"..%o.,==..&..o..o..&..==,&.=&ooooo.%..%.ooooo&==,.oo..,==&oo=.o..o.=oo&==,...,==o&ooo%....%ooo&o==,.,==&oo=.o..o.=oo&==,.#888888",
".%.o.,==&oo=.o..o.=oo&==,.==&ooooo.%..%.ooooo&==,.,..,===&oo=o....o=oo&===,.,==&ooooo.%..%.ooooo&=.,===&oo=o....o=oo&===,#888888",
".%..,===&oo=o....o=oo&===,.=oooo%%......%%oooo==,1.,.,==&oo=oo....oo=oo&==,.,==&ooooo.%..%.ooooo&=.,==&oo=oo....oo=oo&==,#888888",
"....,==&oo=oo....oo=oo&==,.&oo&%o.%......o%&oo&==,.1.,==o&ooo%....%ooo&o==,.,==oooo%%......%%oooo=.,==o&ooo%....%ooo&o==,.555555",
"....,==o&ooo%....%ooo&o==,.==o=oo........oo=o====,..,==&ooooo.%..%.ooooo&=.,==&oo&%o.%......o%&oo.,==&ooooo.%..%.ooooo&==,.88888",
"...,==&ooooo.%..%.ooooo&==,.oo===.%....%.===oo====,.,==&ooooo.%..%.ooooo&=.,====o=oo........oo=o=.,==&ooooo.%..%.ooooo&==,.88888",
"...,==&ooooo.%..%.ooooo&==,.,,,=%%%....%%%=,,,,,,,1.,==oooo%%......%%oooo.,====oo===.%....%.===oo.,==oooo%%......%%oooo==,1.7777",
"...,==oooo%%......%%oooo==,1..................=,,..,==&oo&%o.%......o%&oo.1,,,,,,,=%%%....%%%=,,.,==&oo&%o.%......o%&oo&==,.8888",
"..,==&oo&%o.%......o%&oo&==,.o%%%%......%%%%o==,,..,====o=oo........oo=o==...,=..................,====o=oo........oo=o====,.8868",
"..,====o=oo........oo=o====,.o%&%........%&%o====,.====oo===.%....%.===oo===.,==o%%%%......%%%%.,====oo===.%....%.===oo====,.555",
".,====oo===.%....%.===oo====,.&o%........%o&=o==,,,.,,,,,,=%%%....%%%=,,,,,,.===o%&%........%&%.1,,,,,,,=%%%....%%%=,,,,,,,1.888",
".1,,,,,,,=%%%....%%%=,,,,,,,1.&%%........%%&oo==,=,o.,=..................=,.,==o=&o%........%o&=...,=..................=,,..8888",
"....,=..................=,,..&o%..........%o&o===,,,.,==o%%%%......%%%%o==,.,==oo&%%........%%&oo=.,==o%%%%......%%%%o==,,.#6688",
"....,==o%%%%......%%%%o==,,.o&o............o&oo==,=,.===o%&%........%&%o==.,===o&o%..........%o&o=.===o%&%........%&%o====,.#555",
"....===o%&%........%&%o====,.=.o..........o.=&&===,,,.=o=&o%........%o&=o=.,==oo&o............o&o.,==o=&o%........%o&=o==,,,.#28",
"...,==o=&o%........%o&=o==,,,.o..........=.o.&&&,=1=,.=oo&%%........%%&oo.,===&&=.o..........o.=&.,==oo&%%........%%&oo==,=,o.#8",
"...,==oo&%%........%%&oo==,=,o.oooooooo..oooooooooooo==o&o%..........%o&o.1=,&&&.o..........=.o..,===o&o%..........%o&o===,,,.77",
"o.,===o&o%..........%o&o===,,,.   3         O####$.,==oo&o............o&oooooooooooooooooo..oooo.,==oo&o............o&oo==,=,.22",
" .,==oo&o............o&oo==,=,..44   -X+;<19#####.,===&&=.o..........o.=&&===,,,.3-  3         .,===&&=.o..........o.=&&===,,,.8",
".,===&&=.o..........o.=&&===,,,.443--  +:,10#####.1=,&&&.o..........=.o.&&&,=1=,.;;44   -X+;<19.1=,&&&.o..........=.o.&&&,=1=,.8",
".1=,&&&.o..........=.o.&&&,=1=,.w;3-; XX:019#####$oooooooooooooooo..oooooooooooo-$$443--  +:,10Xoooooooooooooooo..oooooooooooo88",
" oooooooooooooooo..oooooooooooo#w4;;;-XX;<,9###############  3         ############w;3-; XX:019##########  3         O###8888855",
"-XX;<,9###  3         O;########w433;- +:<10###############44   -X+;<19############w4;;;-XX;<,9##########44   -X+;<19###88858888",
"- +:<10###44   -X+;<19;#########w4--;  X;110###############443--  +:,10############w433;- +:<10##########443--  +:,10###88888888",
"  X;110###443--  +:,10##########44-3-  X;<10###############w;3-; XX:019############w4--;  X;110##########w;3-; XX:019###88888888",
"  X;<10###w;3-; XX:019##########w433---X;<10###############w4;;;-XX;<,9############44-3-  X;<10##########w4;;;-XX;<,9###85555555",
"--X;<10###w4;;;-XX;<,9##########w4-;;- X:<10###############w433;- +:<10############w433---X;<10##########w433;- +:<10###85588888",
"- X:<10###w433;- +:<10##########w4-3--XX;<,0###############w4--;  X;110############w4-;;- X:<10##########w4--;  X;110###88888888",
"-XX;<,0###w4--;  X;110##########w43;- XX;<10###############44-3-  X;<10############w4-3--XX;<,0##########44-3-  X;<10###88888588",
" XX;<10###44-3-  X;<10##########w4-3- XX;<090##############w433---X;<10############w43;- XX;<10##########w433---X;<10###55588888",
" XX;<090##w433---X;<10##########44-3;- X:<190##############w4-;;- X:<10############w4-3- XX;<09##########w4-;;- X:<10##$88777777",
"- X:<190##w4-;;- X:<10##########w4;3; XX;1<10##############w4-3--XX;<,0############44-3;- X:<19##########w4-3--XX;<,0##$55888888",
" XX;1<10$#w4-3--XX;<,0##########w43;; XX;<<10##############w43;- XX;<10############w4;3; XX;1<1##########w43;- XX;<10##$87888888",
" XX;<<10##w43;- XX;<100########w43--; XX:11<0##############w4-3- XX;<09############w43;; XX;<<1##########w4-3- XX;<09##$$8888888",
" XX:11<0##w4-3- XX;<090########443;-- XX;1,18##############44-3;- X:<19###########w43--; XX:11<##########44-3;- X:<190$$$5555555",
" XX;1,18>#44-3;- X:<190#######w433;;-XXX:1,,w##############w4;3; XX;1<10##########443;-- XX;1,1##########w4;3; XX;1<10$$$8888888",
"XXX:1,,w##w4;3; XX;1<10#######w43;---XXXX;18w4#############w43;; XX;<<10#########w433;;-XXX:1,,$$########w43;; XX;<<10$$$8888888",
"XXXX;18w4ww43;; XX;<<10#######w;-3--X- XX;1<18########$$$$w43--; XX:11<0#########w43;---XXXX;18w$###$$$#w43--; XX:11<0$$$7777777",
"- XX;1<18w43--; XX:11<0#$$$$$w4333-X @ XX;10<,0#####$$$$$$443;-- XX;1,18#########w;-3--X- XX;1<1$$$$$$$$443;-- XX;1,18$$$5222222",
"@ XX;10<,443;-- XX;1,18$$$$$$w4;-3-   XXX;11<100$$$$$$$$$w433;;-XXX:1,,w$$$$$$$$w4333-X @ XX;10<,0$$$$$w433;;-XXX:1,,w$$$$888888",
" XXX;11<w433;;-XXX:1,,w$$$$$w43;3-;X @ XXX;10109$$$$$$$$$w43;---XXXX;18w$$$$$$$$w4;-3-   XXX;11<10$$$$$w43;---XXXX;18w$$$$888888",
"@ XXX;10w43;---XXXX;18w4$$$$w4-3X-     XXX;;11,0$$$$$$$$$w;-3--X- XX;1<1$$$$$$$w43;3-;X @ XXX;1010$$$$$w;-3--X- XX;1<18$$$$88888",
"  XXX;;1w;-3--X- XX;1<18$$$$$$$3X -X- XXXXX;;$$$$$$$$$$$w4333-X @ XX;10<,$$$$$$w4-3X-     XXX;;11$$$$$w4333-X @ XX;10<,0$$$$5555",
" XXXXX;w4333-X @ XX;10<,0$$$$$$$$     XX XX;$$$$$$$$$$$$w4;-3-   XXX;11<10$$$$$$$$3X -X- XXXXX;;$$$$$$w4;-3-   XXX;11<100$$$8888",
" XX XX;w4;-3-   XXX;11<100$$$$$$$$$ X XX  $$$$$$$$$$$$$w43;3-;X @ XXX;10109$$$$$$$$$     XX XX;$$$$$$w43;3-;X @ XXX;10109$$$8888",
" XX  $w43;3-;X @ XXX;10109$$$88$$$$$$$$$$$$$$$$888888$$w4-3X-     XXX;;11,$$$$$$$$$$$$ X XX  $$$$$$$$$4-3X-     XXX;;11,0$$$7777",
"$$$$$$w4-3X-     XXX;;11,0$$55557777777777777777775557$$$$3X -X- XXXXX;;$$$$$$$$$$$$$$$$$$$$$$$$$$$$$$$$3X -X- XXXXX;;$$$$$88788",
"$$$$$$$$$3X -X- XXXXX;;$$$$5555555558888888888885588888$$$$$     XX XX;$$$$888888888$$$$$$$$$$$$$$$$$$$$$$     XX XX;$$$$$888888",
"$$8888$8$$$     XX XX;$$$$6666668888555555555888888888888$$$$$ X XX  $$$$$8588888888888$$$$$$$$88885$$$$$$$$ X XX  $$$$$$8888888",
"8888888888$$$ X XX  $$$$888888886666668888888888888888888888$$$$$$$$$$$$$88888888888888888888888888888$$$$$$$$$$$$$$$$8888888888"
};
