/* XPM */
static char *result[] = {
/* columns rows colors chars-per-pixel */
"128 128 16 1 ",
"  c black",
". c #010701",
"X c #020E02",
"o c #0A0908",
"O c #031203",
"+ c #031403",
"@ c #041604",
"# c #061706",
"$ c #092409",
"% c #132F13",
"& c #332419",
"* c #3D2D20",
"= c #4C3321",
"- c #4A3627",
"; c #4F3A2B",
": c #50412A",
/* pixels */
"+;;;;;;;;;;;;;++;;;;;;;;;;;;;;;;;;;;;;;;;;;;;;++;;;;;***;;;;;;;;;;;;;;;;;;;;;;++***;;;;;;;;;;;;;;;;;;;;;;;;;;;++;;;;;;;;;;;;;;;;",
"%+;****;;**;;+%%+;;;;;;;;;;;;;;;;;;++********+%%+*************;;;;;;++;;;;;;;+%%+;;***;;;;;;;;;***++******;;;+%%+;;;;;;;;;;;;;;;",
"%+;;;;;;;;;;;+$%+*****;;++;;;;;;;;+%%+;;;;;;;+$%+:-:::::::++::::::;+%%+;;;;;;+$%+;;;;;;++;;;;;;;;+%%+***;;***+$%+*******;;;;;;;;",
"$%+;;;-:----+$$$%+;;;;;+%%+-:;;;;;+$%+;;;;**+$$$%+*******+%%+;;;;**+$%+::-::+$$$%+---:+%%+:-;;;;-+$%+-;;;:::+$$$%+-::::::::*:::;",
"$$+;;;;;;;;;+$#$$+;;;;;+$%+;--:::+$$$%+***;;+$#$$+;;;;;;;+$%+--;;;+$$$%+**;;+$#$$+;;;;+$%+;-::;;+$$$%+**;;;;+$#$$+*;;;;;**-;-;;;",
"%#$+*******+$##%#$+***+$$$%+*****+$#$$+****+$##%#$+*****+$$$%+****+$#$$+***+$##%#$+**+$$$%+*****+$#$$+*****+$##%#$+*************",
"$#%+;;;;;;;+%##$#%+;;-+$#$$+;;;;+$##%#$+;;;+%##$#%+:**::+$#$$+:::+$##%#$+**+%##$#%+;;+$#$$+--**+$##%#$+;;;;+%##$#%+;;;;;;;;;;;;;",
"###$+::*;;+$######$+;+$##%#$+;;;+%##$#%+;;+$######$+&&&+$##%#$+**+%##$#%+&+$######$++$##%#$+***+%##$#%+*;*+$######$+;;;;::::::::",
"###$+&*&;;+$##@###$+;+%##$#%+**+$######$+;+$##@###$+;;;+%##$#%+*+$######$++$##@###$++%##$#%+**+$######$+::+$##@###$+:&&&&*&&*&&&",
"++##$+;**+$##+.++##$+$######$+;+$##@###$++$##+.++##$+;+$######$++$##@###$+$##+.++##+$######$+;+$##@###$+&+$##+.++##$+&;;;;;;;;;;",
".+X#$+;;;+$#X+..+X#$+$##@###$++$##+.++##$+$#X+..+X#$+;+$##@###$+$##+.++##$+#X+..+X#+$##@###$++$##+.++##$++$#X+..+X#$+;;;;;;;;;;;",
"..XX#$+;+$#XX.#..XX+$##+.++##$+$#X+..+X#$+#XX.#..XX#$+$##+.++##$+#X+..+X#$+XX.#..X+$##+.++##$+$#X+..+X#$+$#XX.#..XX#$+;;;;;;;;;;",
"..+X#$$+$$#X+.O..+X+$#X+..+X#$+#XX.#..XX#$+X+.O..+X#$+$#X+..+X#$+XX.#..XX#$++.O..++$#X+..+X#$+#XX.#..XX+$$#X+.O..+X#$$+---------",
"...++#$+$#++......+$#XX.#..XX#$+X+.O..+X#$$+......+++$#XX.#..XX#$++.O..+X#$$+....+$#XX.#..XX#$+X+.O..+X+$#++......++#$+**--;;;;;",
"...#+#$+$#+#..O..+$$#X+.O..+X#$$+......++#$+..O...#+$$#X+.O..+X#$$+.....++#$+.O.+$$#X+.O..+X#$$+......++$#+#..O...#+#$+;;;***;;;",
"....+X#$+X+......+$#++......++#$+..O...#+#$+.......+$#++......++#$+.O...#+#$+...+$#++......++#$+..O...+$#X+........+X#$+*;;;;;;;",
"....+X#$+X+......+$#+#..O...#++++.......+X#$+......+$#+#..O...#+#$+......+X#$+..+$#+#..O...#+#$+......+$#X+........+X#$+********",
".....###%#......+$#X+........+%%++......+X#$+.....+$#++........+X#$+.....+X#$+.+$#X+........+X#$+....+%###..........###%+;;;;;;;",
".O##.#$$$#......+$#X+........+$%++.......###%+..O#+$+%%+.......+X#$+.....++##%++$#X+........+X#$+...+%$$$#......O##.#$$$%+;;;;;;",
".##.........#..+%###........+$$$%++..O##.#$$$%+.#+%#+$%+........###%+.O#+%%+$$+%###..........###%+..OXXX$...#...##.......-------",
".##X##$X$##X%#+%$$$#......O#+$#$$+%+.##.........+%$+$$$%+...O##.#$$$%+##+$%+.+%$$$#......O##++$$$%+.##.X$##X%#..##X##$X::*::;;;;",
"..+XX##$X#XX+..XXX$...#...#+$##%#$+..##X##$X+....XX+$#$$+...##........#+$$$%+.XXX$...#...##+%%+.....##X$##XX+.++.+XX##$X&&*&*:::",
"...XXX#$XXXX.....X$##X%#..#+%##$#%+...+XX##$X.....+$##%#$+..##X##$X....+$#$$+X..X$##X%#..##+$%+X+....+X$#XXX.+%%+.XXX#$X;;;&&*&&",
"...XXX##$XXX...++$##XX+...+$######$+...XXX#$X.....+%##$#%+...+XX##$X..+$##%#$+.X$##XX+....+$$$%+X....X$##XXX.+$%+.XXX##$X*******",
"...OXX##$XXO..+%%+#XXX....+$##@###$+...XXX##$X...+$######$+...XXX#$X..+%##$#%+XX$#XXX.....+$#$$+X....X$##XXO+$$$%+OXX##$X;;;;;;;",
"....#XX##$X...+$%+#XXX...+$##+.++##$+..OXX##$X...+$##@###$+...XXX##$X+$######$+$##XXX....+$##%#$+X..X$##XX#.+$#$$+.#XX##$X;;;;;;",
".O.#.XX##$+#.+$$$%+XXO...+$#X+..+X#$+...#XX##$X.+$##+.++##$+..OXX##$X+$##@###$+$##XXO....+%##$#%+X..X$##XX.+$##%#$+.XX##$+------",
"....#.####$..+$#$$+X#...+$#XX.#..XX#$+.#.++##$+.+$#X+..+X#$+...#XX##+$##+.++##$+#XX#....+$######$+XX$####.#+%##$#%+#.####$X;;;;;",
"..##..$$$$%%+$##%#$+.#.+$$#X+.O..+X#$$+.+%%+##$+$#XX.#..XX#$+.#.XX+++$#X+..+X#$+#XX.#...+$##@###$++X%$$$$.+$######$+.$$$$%%X;;*;",
"..$$$$..$X+%+%##$#%+#..+$#++......++#$+#+$%+$$+$$#X+.O..+X#$$+.#.+%%+#XX.#..XX#$+#.#...+$##+.++##$+X.X$..$+$##@###$+$..$X+%X;;;;",
".X..+..##$++$######$+##+$#+#..O...#+#$++$$$%+X+$#++......++#$+#..+$%+#X+.O..+X#$$+..##.+$#X+..+X#$+%X$##.+$##+.++##$+.##$+.;**;;",
".X.#XX+##$.+$##@###$+$+$#X+........+X#$+$#$$+$+$#+#..O...#+#$+$$+$$$%++......++#$+$$$.+$#XX.#..XX#$+X$##++$#X+..+X#$++##$.o*;;;;",
"..X#XX+###+$##+.++##$++$#X+........+X#+$##%#$+$#X+........+X#$+++$#$$+#..O...#+#$+.+.+$$#X+.O..+X#$$+###+$#XX.#..XX#$+###$.;;;;;",
"..XX#XX+##+$#X+..+X#$+%###..........##+%##$#%+$#X+........+X#$++$##%#$+.......+X#$+X#+$#++......++#$+##+$$#X+.O..+X#$$+##$.-----",
"..OXXX+X#+$#XX.#..XX#$+$$#......O##.#+$######$+##..........###++%##$#%+.......+X#$+X#+$#+#..O...#+#$+##+$#++......++#$+##$.;;;;;",
".O.XXXXX+$$#X+.O..+X#$$+$...#...##...+$##@###$+$#......O##.#$$+$######$+.......###%++$#X+........+X#$+++$#+#..O...#+#$++##$.;;;;",
".O.XXXXX+$#++......++#$+$##X%#..##X#+$##+.++##$+...#...##....++$##@###$+...O##.#$$++%+#X+........+X#$++$#X+........+X#$+##$.;;;;",
"...OOXXX+$#+#..O...#+#$+##XX+....+XX+$#X+..+X#$+##X%#..##X##$+$##+.++##$+..##....+%%++##..........###%+$#X+........+X#$+##$%.;;;",
"....XO++$#X+........+X#$+XXX......X+$#XX.#..XX#$+XX+....+XX#++$#X+..+X#$+..##X##$+$%+%+#......O##.#$$+%###..........###%+##$.;;;",
"....XX#+$#X+........+X#$+XXX......+$$#X+.O..+X#$$+X......XXX+$#XX.#..XX#$+..+XX#+$$$%++...#...##....+%$$$#......O##.#$$$%+#$.***",
"..O.##+%###..........###%+XO......+$#++......++#$+X......XX+$$#X+.O..+X#$$+..XXX+$#$$+$+#X%#..##X##$XXXX$...#...##.......###$.;;",
"..OOO+%$$$#......O##.#$$$%+.......+$#+#..O...#+#$+O......OX+$#++......++#$+..XX+$##%#$++XX+....+XX##$X$X$##X%#..##X##$X$$$$$%.;;",
"......XXX$...#...##........#....O+$#X+........+X#$+.......++$#+#..O...#+#$+..OX+%##$#%+$+X......XXX#$XX$##XX+....+XX##$X#$$.o;;;",
"...OOOOXX$##XX#..##X##$X#.#......+$#++........+X#$+....O.++$#X+........+X#$+..+$######$++X......XXX##$X$#XXX......XXX#$X#$$.*---",
"+...O+OX$##XX+....+XX##$X..##...+%#+%%+........###%+.....++$#X+........+X#$+.#+$##@###$+++......OXX##X$##XXX......XXX##$X##$.;;;",
"%+..OX+X$#XXX......XXX#$X$$$..#+%$$+$%+....O##.#$$$%+...#+%###..........###%++$##+.++#+%%+.......#XX#X$##XXO......OXX##$X#$$$.-;",
"%+..OOX$##XXX......XXX##$X+..X..XX+$$$%+...##........#..+%$$$#......O##.#$$$%+$#X+..+X+$%++...O.#.XXX$##XX#........#XX##$X$#$X.;",
"$%+..OX$##XXO......OXX##$XX#.X..X.+$#$$+#..##X##$X..X..X+XXX$..++...##......+$#XX.#..+$$$%++.....#.#X$##XX.#.++.O.#.XX##$+#$$$.;",
"$$+..X$##XX#..++....#XX##$X#X....+$##%#$+...+XX##$X.X..+%##X$#+%%+..##X##$X+$$#X+.O..+$#$$++...##..X$####.#.+%%+...#.####$X$#$.;",
"%#$+.X$##XX.#+%%+O.#.XX##$+XX....+%##$#%+....XXX#$XX..+%$$X$##+$%+...+XX##$+$#++....+$##%#$+#..$$$$X%$$$$..#+$%+.##..$$$$%%X$$$.",
"$#%+X$####.#.+$%+...#.####$XO...+$######$+...XXX##$X...XXXX$#+$$$%+...XXX#$+$#+#..O.+%##$#%++.X..+..#X$..$$+$$$%+$$$$..$X+%X%#$.",
"###$+%$$$$..+$$$%+##..$$$$%%XO..+$##@###$+...OXX##$X....OX$##+$#$$+...XXX#+$#X+....+$######$+.X.#XX+.$##..++$#$$+..+..##$+.XXoX;",
"###$+ X$..$$+$#$$++$$$..$X+%XO.+$##+.++##$+...#XX##$X..OXX$#+$##%#$+..OXX#+$#X+....+$##@###$++.X#XX+.$##+X+$##%#$+#XX+##$.oooo;;",
"++##$+$##..+$##%#$+.+..##$+....+$#X+..+X#$+O.#.XX##$+..OX$##+%##$#%+...#X+%###....+$##+.++##$++XX#X.$###+X+%##$#%+#XX+###$.;;:::",
".+X#$+$##+X+%##$#%++XX+##$..O.+$#XX.#..XX#$+..#.####$X.XX$#+$######$+.#.+%$$$#....+$#X+..+X#$+.OXXX.$##+X+$######$+#XX+##$.;;&&&",
"..XX#$+##++$######$+XX+###$..+$$#X+.O..+X#$$+#..$$$$%%XX$##+$##@###$+..#.XXX$...#+$#XX.#..XX#$+.XXX.$##X++$##@###$+XX+X##$.-----",
"..+X#$$++X+$##@###$++XX+##$.O+$#++......++#$+$$$..$X+%XX%$+$##+.++##$+#..$$X$##X+$$#X+.O..+X#$$+XX.$##+X+$##+.++##$+XXX+##$.;;;;",
"...++#$+X+$##+.++##$+X+X##$.O+$#+#..O...#+#$+.+..##$+.X$#X+$#X+..+X#$+$$$.X$##XX+$#++......++#$+OO.$##+X+$#X+..+X#$+XXX+##$.;;;;",
"...#+#$+X+$#X+..+X#$$+XX+##$+$#X+........+X#$+XX+##$.X$#.+$#XX.#..XX#$++..X$#XXX+$#+#..O...#+#$+.X.$##X+$#XX.#..XX#$+XXX##$%.;;;",
"....+X#$+$#XX.#..XX#$$+X+##$+$#X+........+X#$+XX+###$.%$+$$#X+.O..+X#$$+XX$##XX+$#X+........+X#$+.$##++$$#X+.O..+X#$$+XX+##$.***",
"....+X#+$$#X+.O..+X#$$+XX##+%###..........###%+XX+##$...+$#++......++#$+XX$##XX+$#X+........+X#$+.$###+$#++......++#$+X####$.;;;",
".....##+$#++......++#$+XX++%$$$#......O##.#$$$%++X##$...+$#+#..O...#+#$+X$##XX+%###..........###%+####+$#+#..O...#+#$+XX####$.;;",
".O##.#$+$#+#..O...#+#$$+###XXX$...#...##.......XXX+##$.+$#X+........+X#$+$##X+%$$$#......O##.#$$$%+$$+$#X+........+X#$+$$$$$%o;;",
".##...+$#X+........+X#$+X####X$##X%#..##X##$XXXXXX+##$.+$#X+........+X#$+####.XXX$...#...##.........$+$#X+........+X#$+.#$$oo---",
".##X##+$#X+........+X#$%+$$$X$##XX+....+XX##$XOXXXX##$+%###..........###%+$$$..#X$##X%#..##X##$XXO+.+%###..........###%+#$$oo;;;",
"..+XX+%###..........###$%+$$X$#XXX......XXX#$XXO+XX+#+%$$$#......O##.#$$$%+..$$X$##XX+....+XX##$XOX+%$$$#......O##.#$$$%+##$.;;;",
"...X+%$$$#......O##.#$$..#$X$##XXX......XXX##$XX#X###.XXX$...#...##.......##..+X$#XXX......XXX#$XO.$XXX$...#...##.......##$$$.**",
"...XXXXX$...#...##......###X$##XXO......OXX##$X##XX##.$#X$##X%#..##X##$X.$##+XX$##XXX......XXX##$X.$##X$##X%#..##X##$XXX##$#$X.;",
"...OXX#X$##XX#..##X##$X#X#X$##XX#........#XX##$X$$$$.$#X$##XX+....+XX##$X###+XX$##XXO......OXX##$X$##X$##XX+....+XX##$XX###$$$.;",
"....#XX$##XX+....+XX##$XX#X$##XX.#....O.#.XX##$+...#.%$X$#XXX......XXX#$X##+XX$##XX#........#XX##$X##X$#XXX......XXX#$XXX##$#$.;",
".O.#.XX$#XXX......XXX#$XXX$####.#........#.####$XX##$.X$##XXX......XXX##$X#X+X$##XX.#....O.#.XX##$+#X$##XXX......XXX##$X+###$$$.",
"....#X$##XXX......XXX##$XX%$$$$..##....##..$$$$%%X####X$##XXO......OXX##$X+XX$####.#........#.####$XX$##XXO......OXX##$X++$#%#$.",
"..##.X$##XXO......OXX##$X+#X$..$$$..#..$$$$..$X+%XX##X$##XX#........#XX##$XXX%$$$$..##....##..$$$$%X$##XX#........#XX##$XXXXXXX;",
"..$$X$##XX#........#XX##$X.$##..+..X..X..+..##$+.XX##X$##XX.#....O.#.XX##$+XXXX$..$$$..#..$$$$..$X+X$##XX.#....O.#.XX##$+oooo;;;",
".X..X$##XX.#....O.#.XX##$+.$##+XX#.X..X.#XX+##$.X+X#X$####.#........#.####$X+.$##..+..X..X..+..##$X$####.#........#.####$Xooo***",
".X.X$####.#........#.####$XX##+XX#X....X#XX+###$.+XXX%$$$$..##....##..$$$$%%X.$##+XX#.X..X.#XX+##$X%$$$$..##....##..$$$$%%Xo:;;;",
"..XX%$$$$..##.++.##..$$$$%%X#+XX#XX....XX#XX++#$.#++#.X$..$$$..#..$$$$..$X+%.++##+XX#X....X#XX+###$.X$..$$$..#..$$$$..$X+%X;;;;;",
"..XX#X$..$$$.+%%+$$$$..$X+%X#X+XXXO....OXXX+%%+$..++..$##..+..X..X..+..##$+.+%%++XX#XX....XX#XX+##$.$##..+..X.++..+..##$+.------",
"..OX.$##..+..+$%+..+..##$+.#+XXXXX.O..O.XXX+$%+#$.XX..$##+XX#.X..X.#XX+##$..+$%+X+XXXO....OXXX+X##$.$##+XX#.X+%%+#XX+##$.o;;;;;;",
".O.X.$##+XX#+$$$%+#XX+##$.##+XXXXX.O..O.XX+$$$%+$.$..$###+XX#X....X#XX+###$+$$$%+XXXX.O..O.XXXXX+#.$###+XX#X.+$%+#XX+###$o;;;;;;",
".O..$###+XX#+$#$$+#XX+###$.#XXXXOO......OO+$#$$+$%.$.$##+XX#XX....XX#XX+##$+$#$$+XXXX.O..O.XXXXX+#.$##+XX#XX+$$$%+#XX+##$o;;;;;;",
"....$##+XX#+$##%#$+#XX+##$.+XX+OX.O......+$##%#$+$.%.$##X+XXXO....OXXX+X##+$##%#$+XOO......OOXXXX#.$##X+XXXO+$#$$+XX+X##$.******",
"....$##X+XX+%##$#%+XX+X##$.##X#XX........+%##$#%+$..$##+XXXXX.O..O.XXXXX+#+%##$#%+OX.O......XO+XX.$##+XXXXX+$##%#$+XXX+##$.;;;;;",
"...$##+XXX+$######$+XXX+##$.XX###.O....O+$######$+$.$##+XXXXX.O..O.XXXXX++$######$+X........XX#X#.$##+XXXXX+%##$#%+XXX+##$.;;;;;",
"...$##+XXX+$##@###$+XXX+##$.$$$#OOO....O+$##@###$+%.$##XXXXOO......OOXXXX+$##@###$+#.O....O.###XX.$##XXXXO+$######$+XXX##$%.----",
"...$##XXX+$##+.++##$+XXX##$%..++.......+$##+.++##$+$##+XX+OX.++.....XO+X+$##+.++##$+OO....OOO#$$.$##+XX+OX+$##@###$++XX+##$.;;;;",
"+.$##+XX++$#X+..+X#$++XX+##$.+%%+O.....+$#X+..+X#$+$####X#XX+%%+....XX#X+$#X+..+X#$+.........++..$####X#X+$##+.++##$+X####$.;;=;",
"%+$####X+$#XX.#..XX#$+X####$.+$%+.....+$#XX.#..XX#$+###XX###+$%+..O.###+$#XX.#..XX#$+......O+%%+$####XX##+$#X+..+X#$+XX####$.***",
"%+####X+$$#X+.O..+X#$$+X####+$$$%+...+$$#X+.O..+X#$$+$$$$$#+$$$%+.OOO#+$$#X+.O..+X#$$+......+$%+%$$$$$$$+$#XX.#..XX#$+$$$$$%.;;;",
"$%+$$$$+$#++......++#$+$$$$$+$#$$+...+$#++......++#$+$#....+$#$$+.....+$#++......++#$+.....+$$$%+..$#..+$$#X+.O..+X#$$+#$$..;;;;",
"$$+.$#.+$#+#..O...#+#$+.#$$+$##%#$+..+$#+#..O...#+#$+$##XO+$##%#$+.OOO+$#+#..O...#+#$+.....+$#$$+#.$##X+$#++......++#$+#$$.o==;;",
"%#$+$#+$#X+........+X#$+#$$+%##$#%+.+$#X+........+X#$+##XO+%##$#%+..O+$#X+........+X#$+...+$##%#$+.###X+$#+#..O...#+#$+###$.o***",
"$#%+##+$#X+........+X#$+##+$######$++$#X+........+X#$+#X#+$######$+.O+$#X+........+X#$+...+%##$#%+$##X+$#X+........+X#$+#$$$.o&;",
"###$++%###..........###%+#+$##@###$+%###..........###%+XX+$##@###$+.+%###..........###%+.+$######$+##X+$#X+........+X#$+#$#$X.o;",
"###$+%$$$#......O##.#$$$%+$##+.++##$+$$#......O##.#$$$%++$##+.++##$+%$$$#......O##.#$$$%++$##@###$+##+%###..........###%+#$$$.--",
"++##$+XX$...#...##.......+$#X+..+X#$+X$...#...##.......X+$#X+..+X#$+XXX$...#...##.......+$##+.++##$++%$$$#......O##.#$$$%+$#$.&&",
".+X#$+XX$##X%#..##X##$XX+$#XX.#..XX#$+$##X%#..##X##$X#++$#XX.#..XX#$+XX$##X%#..##X##$X  +$#X+..+X#$++XXX$...#...##.......##$$$.;",
"..XX#$+$##XX+....+XX##$+$$#X+.O..+X#$$+#XX+....+XX##$X+$$#X+.O..+X#$$+$##XX+....+XX##$X+$#XX.#..XX#$++.X$##X%#..##X##$X++$#%#$.;",
"..+X#$$+#XXX......XXX#$+$#++......++#$+XXX......XXX#$X+$#++......++#$+$#XXX......XXX#$+$$#X+.O..+X#$$+X$##XX+....+XX##$XXXXXXX;;",
"...++#$+#XXX......XXX##+$#+#..O...#+#$+XXX......XXX##$+$#+#..O...#+#$+##XXX......XXX##+$#++......++#$+X$#XXX......XXX#$Xo;;;;;**",
"...#+#$+#XXO......OXX#+$#X+........+X#$+XO......OXX##+$#X+........+X#$+#XXO......OXX##+$#+#..O...#+#$+$##XXX......XXX##$X;;*;;;;",
"....+X#$+X#........#XX+$#X+........+X#$+#........#XX#+$#X+........+X#$+XX#........#XX+$#X+........+X#$+##XXO......OXX##$X;;;;;;;",
"....+X#$+X.#....O.#.X+%###..........###%+#....O.#.XX+%###..........###%+X.#....O.#.XX+$#X+........+X#$+#XX#........#XX##$X;;;;;;",
".....###%+#........#+%$$$#......O##.#$$$%+.......#.+%$$$#......O##.#$$$%+#........#.+%###..........###%+XX.#....O.#.XX##$+******",
".O##.#$$$%+##....##..XXX$...#...##.......##....##..$XXX$...#...##.........##....##.+%$$$#......O##.#$$$%+.#........#.####$X;;;;;",
".##.......$$..#..$$$$..X$##X%#..##X##$X$$$..#..$$$$..$X$##X%#..##X##$X..$$$..#..$$$$XXX$...#...##.......$..##....##..$$$$%%X;;;;",
".##X##$X..+..X..X..+..X$##XX+....+XX##$X+..X..X..+..#X$##XX+....+XX##$X..+..X..X..+..#X$##X%#..##X##$X$..$$$..#..$$$$..$X+%X;*;;",
"..+XX##$XXX#.X..X.#XX+X$#XXX......XXX#$XX#.X..X.#XX+#X$#XXX......XXX#$X+XX#.X..X.#XX+X$##XX+....+XX##$X#..+..X..X..+..##$+.;;;;;",
"...XXX#$XXX#X.++.X#XXX$##XXX......XXX##$X#X....X#XX+X$##XXX......XXX##$XXX#X..++X#XX+X$#XXX......XXX#$X#+XX#.X..X.#XX+##$.------",
"...XXX##$X#XX+%%+XX#XX$##XXO......OXX##$XXX...++X#XXX$##XXO......OXX##$XX#XX.+%%+X#XX$##XXX......XXX##$X+XX#X.++.X#XX+###$.;;;;;",
"...OXX##$XXXO+$%+OXXX$##XX#........#XX##$XO..++++XXX$##XX#........#XX##$XXXO.+$%+XXXX$##XXO......OXX##$XXX#XX+%%+XX#XX+##$.;;;;;",
"....#XX##$XX+$$$%+XXX$##XX.#....O.#.XX##$+.O.+%%+XXX$##XX.#....O.#.XX##$+XX.+$$$%+XX$##XX#........#XX##$XXXXO+$%+OXXX+X##$.;;;;;",
".O.#.XX##$+X+$#$$+XX$####.#........#.####$XO++$%++X$####.#........#.####$XX.+$#$$+XX$##XX.#....O.#.XX##$+XXX+$$$%+XXXXX+##$.****",
"....#.####$+$##%#$+X%$$$$..##....##..$$$$%%X+$$$%+X%$$$$..##....##..$$$$%%X+$##%#$+$####.#........#.####$XXX+$#$$+XXXXX+##$.;;;;",
"..##..$$$$%+%##$#%+XOX$..$$$..#..$$$$..$X+%X+$#$$+++X$..$$$..#..$$$$..$X+%X+%##$#%+%$$$$..##....##..$$$$%%X+$##%#$+OXXXX##$%.;;;",
"..$$$$..$X+$######$+.$##..+..X..X..+..##$+.+$##%#$+.$##..+..X..X..+..##$+.+$######$+X$..$$$..#..$$$$..$X+%X+%##$#%+XO+XX+##$.---",
".X..+..##$+$##@###$+.$##+XX#.X..X.#XX+##$.++%##$#%++$##+XX#.X..X.#XX+##$.#+$##@###$+$##..+..X..X..+..##$+.+$######$+X#X####$.&&&",
".X.#XX+##+$##+.++##$+###+XX#X....X#XX+###$+$######$+###+XX#X....X#XX+###$+$##+.++##$+##+XX#.X..X.#XX+##$.#+$##@###$+##XX####$.;;",
"..X#XX+##+$#X+..+X#$+##+XX#XX....XX#XX+##$+$##@###$++#+XX#XX....XX#XX+##$+$#X+..+X#$+##+XX#X....X#XX+###$+$##+.++##$+$$$$$$$%.;;",
"..XX#XX++$#XX.#..XX#$+#X+XXXO....OXXX+X##+$##+.++##$+#X+XXXO....OXXX+X##+$#XX.#..XX#$++XX#XX....XX#XX+##$+$#X+..+X#$+...#$$..;;;",
"..OXXX++$$#X+.O..+X#$$+XXXXX.O..O.XXXXX+#+$#X+..+X#$++XXXXX.O..O.XXXXX++$$#X+.O..+X#$$++XXXO....OXXX+X##+$#XX.#..XX#$+X##$$.****",
".O.XXXX+$#++......++#$+XXXXX.O..O.XXXXX++$#XX.#..XX#$++XXXX.O..O.XXXXX++$#++......++#$+XXXX.O..O.XXXXX++$$#X+.O..+X#$$+####$.;;;",
".O.XXXX+$#+#..O...#+#$+XXXOO......OOXXX+$$#X+.O..+X#$$+XXOO......OOXXXX+$#+#..O...#+#$+XXXX.O..O.XXXXX++$#++......++#$+X##$$$.;;",
"...OOX+$#X+........+X#$++OX.O......XO+X+$#++......++#$++OX.O......XO+X+$#X+........+X#$+XOO......OOXXXX+$#+#..O...#+#$+X##$#$X.-",
"....XO+$#X+........+X#$+#XX........XX#X+$#+#..O...#+#$++XX........XX#X+$#X+........+X#$+OX.O......XO+X+$#X+........+X#$+###$$$.;",
"....X+%###..........###%+##.O....O.###+$#X+........+X#$+##.O....O.###+%###..........###%+X........XX#X+$#X+........+X#$+X##$#$.;",
"..O.+%$$$#......O##.#$$$%+OOO....OOO#$+$#X+........+X#$++OOO....OOO#+%$$$#......O##.#$$$%+.O....O.###+%###..........###%+###$$$.",
"..OOOXXX$...#...##...................+%###..........###%++...........XXX$...#...##.......OOO....OOO#+%$$$#......O##.#$$$%+$#%#$."
};
