/* XPM */
static char *_f1eb865d91a4ac4d755d9fa7f9f79b2RddtWU1o6QSVUNtW[] = {
/* columns rows colors chars-per-pixel */
"128 128 9 1 ",
"  c #332419",
". c #3D2D20",
"X c #4C3321",
"o c #4A3627",
"O c #4F3A2B",
"+ c #623328",
"@ c #50412A",
"# c #5A4F3E",
"$ c #4F5030",
/* pixels */
"OOOOOOOOOOOOOOOOOOOOOOOOOOOOOOOOOOOOOOOOOOOOOOOOOOOOO...OOOOOOOOOOOOOOOOOOOOOOOO...OOOOOOOOOOOOOOOOOOOOOOOOOOOOOOOOOOOOOOOOOOOOO",
"OOO....OO..OOOOOOOOOOOOOOOOOOOOOOOO...........................OOOOOOOOOOOOOOOOOOOOO...OOOOOOOOO...........OOOOOOOOOOOOOOOOOOOOOO",
"OOOOOOOOOOOOOOOOO.....OOOOOOOOOOOOOOOOOOOOOOOOO@@@o@@@@@@@@@@@@@@@OOOOOOOOOOOooOOOOOOOOOOOOOOOOOOO......OO..............OOOOOOOO",
"OOOOOOo@ooooOOOOOOOOOOOOOO@o@OOOOOOOOOOOOO....OOO...........OOOOO....@@@@o@@@@@oo@ooo@OOO@@oOOOOoOOOOoOOO@@@@@oo.oo@@@@@@@@.@@@O",
"OOOOOOOOOOOO@@@@@OOOOOOooOOOoo@@@...OO....OOOOOOOOOOOOOOOOOOoooOOOOoo.....OO..OOOOOOOOOOOOOo@@OOOoO.....OOOOooOOO..OOOOO..oOoOOO",
"................................................................................................................................",
"OOOOOOOOOOOOOOOOOOOOOoOOOOOOOOOOOOOOOOOOOOOOOOOOOO@@..@@@..@@@@@@@@@@@@@....@@@OOOOOO....oooo..OOOOOOOOOOOOOOOOOOOOOOOOOOOOOOOOO",
"@@@@@@@.OOOOOOOOOOOOOOOOOOOOOOOOOOOOOOOOOOOO........       ......  ...          OOOOOOOOOOOO...OOOOOOO..O.....OO.OOOOOOO@@@@@@@@",
"   .  . OOOOOOOOOOOOOOO............OOOOOOOOOOO# ... OOOOOOOOOO...OOOOOOOOOOOOOOOOOOO.OOO#.......OOO@@.@@@@@@@@@@.@.@@    .  .   ",
"OOOOOOO.....   ......   .   OOOOOOOOOOOOOOOOOOOOOOOOOOOOOOOOOOOOOOOOOOOOO.........OOOOOOOOOOOOOOOOO#               .. OOOOOOOOOO",
"OOOOOOOOOOOOOXXXXXXXXXXXXXXXOOOOOOO..........OOOOOOOOOOO..OOOOOOOOOOOOOOOOOOOOOOOOOOOOOOOOOOOOOOOOOOOOOOO..OO.OOOOOOOOOOOOOOOOOO",
"OOOOOOOOOOOOOOOOOOOOOOOOOOOOOOoooooOOOOOOOooOOOOOOOOO...OOOOOOOOOOOOOOooOOOOOOOO.........OOOO.....OOOOOOOOOOOOOOOOOOOOOOOOOOOOOO",
"ooo.....oooo........ooooo.........oooooo........oooooooooooooooooooooo...ooooooooooooooooooooooooooooo....oooooooooooooooooooooo",
"OOOOOOOOOOOOOOOOOO.OOOOOOOOOOOOoOOOOOOOOOOOOOOOOOOOOOOOOOOOOOOOOOOO...OOOOOOOOOOOOOOOOOOOOOOOOOOOOOOOOOOOO....O.....OO...ooOOOOO",
"OOOOOOOOOOOOOOOOOOOOOOOOOOOOOOOoOOoOOOOOoOOOOOOOOOOOOOOO...OOOO@@@@ooo@@@@@oo@@@@OOOOOoOOOOOOOOOOOOOOOOOOOOOOOOOOOOOOOOOOO...OOO",
"OOOOOOOoO@@@@@@OOOOOOOoOOOOOOOOOOOOOOOOOOoOO@@@@@@@@@...@@@ooooO.....O.....OOOOOOOOOOOOOOOOOOOOOooo@@@@....@@@OO.........OOOOOOO",
"................................OO.......OOOOOOOOOOOOO..............OOOOOOO............................OOOOOOOOO................",
"OOOOOOOOOOOOOOOOOOOOOOOOO@@@@@OOOOOOOOoOOOOOOOooOOOOOOOOOOOOOOOOOOOOOOOOOOOOOOOOOOOOOOOOOOO....OOOOOO..OOOOOOOO.....OOOOOOOOOOOO",
"OOOOOOOOOOOOOOOOOOOOOOOOOOOOOOOOOOOOOOOOOOOOO.OOOOOOOOOOOOOOOOOOOOOOOOOOOOOOOOOOOoooooOOOOoOOOOOOOOOOOO...OOOOOOOOOOOOOOOOOOOOOO",
"ooooooo..o...ooo...oooooooooooooooooo..oooo..oo.....ooooooooooooooooooooooooooooooooooooooooooooooooooooooo.....oo......oooooooo",
"OOOOOOOOOOOOOOOOOOO..OOO.......OOO...OOOOOOOOOOOOOOOOO........@@@@@..............@........OOOOOOOOOOo..OOOOOOOO@@@@@...@@.@@OOOO",
"@@@@@@@..@@@@OOOOOOOOOOOOOO@@@@@@@@...OOOOOOOOOOOOOOOOO@@....@@               .... .   OOOOOOOOooO...OoOOOOOOOoo          . .@@@",
"    ..       @@@@@@..@@@.@OO ....    ....OOOOOOOOOOOOOO@         OOOOOOOOOOOOOOOOOOOO.OOOOOOOOOOOOOOOOOOOOOOOOOOOOOOOOOOOOO  .  ",
".....OO....OOO........OOOO.........................................................OOO..................O..........XX...........",
"OOOOOOOOOOOOOOOOOOOOOOOOOOOOOOOOOOOOOOOOOOOOOOOOOOOOOOOOOOOOOOO......OOOOOOOOOOOOOOOOOOOOooooOOOoOOOOOOOOOOoO.....OOOOOOOOOOOOOO",
"OOOOOOOOOOOOOO.OOOOOOOOOOOOOOOOOOOOOOOOOOooooOOoOOOOOOOOOOOOOOOOOOOOOOOOOOOOOOooooooOOOOOOOOOOOOOOOO..OOOOOOoOOOOOOOOOOOOOOOOOOO",
"oooooooooooo....ooooooooooooo......ooooooooooooooooooooooooooooooooooooooooooooo.ooooooooooooooooooooo...ooooooooooooooooooooooo",
"OOOOOOOOOOOOOOOOOOO.OOOOOOOOOOoooOOOOOOOOOOOOOOoOOOOOOOOOOOOOoooooooOOOOOOOOOOoOOOOOOOOOOOOOoOo@@@@@ooOOOOOOOOOOO@@oOOOOOoOOOOOO",
"OOOOOOO@@@oooOOOOOOOOOOOOOOoOOOOOXOOOOXOO....OOOOOOOXXXXXXXXXOOoOOOOOOOOOOOOOOOOOOOOOOOOOOOOOOOooooooOOOOOOOOOOOOOOOo@@@OoOOOOOO",
"OOOOOOOOOX..........................X..........................OOOO....XXXXXXXXOOOOOOOOOOOOOOOOOOOOOOOOOOOOOoOOOOOOoOOOOOOOOOOOO",
"OOOOOOOOOOO.OOOo....oo.ooooooooo@@OOOOOOOOOOOOOXXXXXXOO..OOOOOO.......................XX.......OOO...............X..OO..OOOOOOOO",
"OOOOOOOOOOOOOOOOOOOOOOOOOOOOOOOOOOOOOOOOOOOOOOOOOOOOOOOOOOOOOOOOOOOOOOOOOOOOOOOOOOOOOOOOoooooOOoooooooo..ooooo...O.OOOOOOOOOOOOO",
"OOOOOOOOOOOOOOOOOOOOOOOOOOOOOOOOOOOOOOOOOOOOOOOOOOOOOOOOOOOO.OOOO......OOO.....o@@oo@OOOOOOOOOOOOOOOOOOOO@@@@@@OOOOOOOOOOooOOOOO",
"oooooo....ooooo....ooooooooooooooo........oooooooooooooooooo.....ooooooooooooooooooooooo......ooooooo..........ooooooooo.ooooooo",
"OOOOOOO# .         ..    @@@@@@@@@@@@@@@@@OOO@@@@@....@@   .  OOOOoOOOOOOOOOOOOOooOOOOOOOOOOOOOOOOOOOOOOOOOOOOOOOOOOOOOOOOOOOOOO",
"OOOOOOOOOOOOOOOOOO.OOOOOO   ..  ...     .  OO   ..      OOOOOOOOOOoOOOO...OOOOOOOOOOOOO#       OOOOOOOOOOOOOOOoOO#     OOoOOOOOO",
"OOOOOOOOOOOOOOOOOOOOOOOOOOOOOOOOOOOOOOOO.OOOOOO.......OOOOOOOOO...OOOOOOOOOOOOOOOOOOOOOOOOOOOOO        OOOOOOOoOOOOOOOOOOoOOOOOO",
"OOOOOOOOOOO...OOOOOOOOOOOO.....OO........OOOOOOOOOOOOOOOOOOOOOOOOo...OOOOOOOOOOO...OOOO.....OOO.....OOOOOOOOOOoOOOOOOOOOOOOOOOOO",
"OOOOO..OOOOOOOO......oOOOOOOOoooOOOOOOOOOOOOOOOOXXXXXOOOOOOOOOOOOOOOOOOOOO#         OOOOOOOOOOOOOOOO.....Oooo.....O.....OOOOOOOO",
".....................OOOOOOOOOOOO..................OOOOOOO.O.................XXXXXXO.........................ooo................",
"OOOOOOOOOOOOOooooOOOOOOOOOOOOOOOOXXXXXXXXXXXXXXXOOO@@oo@@@oooOOOOOOOOOOOXXXXXOOOOOOOOOOOOOOOOOooooooOOOOOOOOOOOoOOOOOOOOOOOOOOOO",
"OOOOOOOOOOOOOOOOoooOOOOOOOOOX.................OOOOOOOOOoooOOOOOOOOOOOOOOOOOOOOOOOOOOOOOOOOOOOOOOOOOOOOooooooOOOOOOOOOOOOoOOOOOOO",
"OOOOOOOOOOOOOOOOOOOooooOOOOOOOOOOOOOOooooOOOOOOOOOOOOOOOOOOOooooOOOOOooooooOOOOOOOOOOOOOOOOOOO......OOOOOOOOooooooo..OO...OOOOOO",
"ooo....oooo...oooooooo.oooooooooooooooooooooo......o.......oooooooooooo.....ooo...........ooooooooooooooooooooooo..ooooooooo.ooo",
"OOOO@@..@@@@@@@@@@.   .                  .    OOOOOOOOOOOOOOoooo....ooOOOOOOooOOOOOOOOOooOOO............OOOOOO....OOOOOOoOOOOOOO",
"OOOO#        .    . OOOOO.OOOOOOOOOOOOOOOOOOOOOOOOOOOoooooooOOOXXXXXXOOOooOOOOoo............OOOOOOOOOOOOOOOOOOOOOOOOOO..OoOOOooO",
"OOOOOOoOOOOOOOOOOOOOOOOOOOOOOOOOOOOOOOOOOOOOOOOOOOOOOOOOOOOOOOOOOOOOOOOOOOOOOOOOooOOOOOOOOOOOOOO@.@@@@@@@OOOOOOOOOOOOOOOOOOOOOOO",
"OOOOOOOooOOOOOooooOOOOOOOOOOOOOOOOOOOOOOOOOooooOOOOOOOOOOOOOOOOOOooOOOoOOOOOOOOOOOOOOOOOOOO@@@OO          OOOOOO@@@@..@@@@OOOOOO",
"OOOOOOOOOOOOOOOOOOOOOOOOOOOOOOOoooOOOOOooooOOOOOOOOOOOOO....OOOO..@o@o@@@OOOOOOOOOOooOOOOOO#    OOO..OOOOOOOO....OOOOOOOOOOOOOOO",
".............................OOOOO.....O............................OOOO....OOOOOOOOOOOO........................................",
"OOOOOOOOOOOOOOOOOOOOOOOOOOoooooOooOooooOOOOOOOOOOooOOOooooOOOOOOOOOOOOOOOOOOOOOOOO...OOOOOOOOOOOOOOOOOOOOOOOOOOOOOOOOOOOOOOOOOOO",
"OOOOOOOOOOOOOOOOooooOOOOOOOOOOOOOOOOOOOOOOOOOOOOOOOOOOOOOOOOOOOO@@@@@..@@...@@OOOOOOOOOoOOOOOOOOOOOOOOOOOOOOOOOXXXXXXOOOOOOOOOOO",
"OOOOOOOOoooOOOOOOOOOOOOOOOOOOOOOOOOOOOOOOOOOOOOOOOOOOOO@@@@@@.@@@@O           OOOOOOOOOOoOOO..........OOO@@@@oOOOOOOOXXXXXXOOOOO",
"@@@@@OOOOOOOOOOOOOO.....@@@@@@@@@..@@@@@@@@@@@@@...@@@..        .. OXXXXXXXXXXXXXOOOOOOOoOOOOOOOOOOOOOOOO   ooOOOOOOoooOOOOOO@@@",
"      OOOOOOOO.....OOOOO#    . ..   ..  ...              OOOOOOOOOOOOOOOOOOOOOOOOoO....oOOOOOOOOOOOOOOOOOOOOOOOOOOOOOOOOOOOOO   ",
"ooooooooooooooooooooooooooooooooooooooooooooooooooooooooooooooooooooooooooooooooooooooo.ooooooooooooooooo..........ooooooooooooo",
"OOOOOOOOOOOOOOOOOOOOOOOOOOOOOOOOOOOOOOOOOOOOOOOOOOOOOOOOOOOOOOOOOOOOOOOoooOOOOOOOOOOOOOOOOOOOOOOOOOO.....OOOOOOOOOOOOOOOOOOOOOOO",
"OOOOOOOOO#      XXXXXXXXXXXXXXXXOOOOOOOOOOOOOOOOOOO.OOOOoOOOOOOOOOOOoooOOOOOOOOOOOOOOOOOOOOOOOOOOOOOOOOOOOOOOOOOOOOOOOOOOOOOOOOO",
"OOOO  OOOOOOOOOOOOOOOOOOOOOOOOOOOOOOOOOO...XXXXXXXOOOOOOOOOOOOOOOOOoOOOOOOOOOOOOOOOOOOOOOOOOOOOOOOOOOOO...OOOOOOOOXXXOOOOOOOOOOO",
"..........................OOOO..................................X.OOOO..OOOOO.....OO................XXX...........XXXX..........",
"OOOOOOOOOOO.OOOOOOOoooOOOOOOoOOOOOOOOOOOOOOOOOOOOOOOOOOOOOOOOOOOOOOOOooOOOOOOOOOOOOOOOOOOOOO@@@@@@.@@@@@@@@@@@.@@@@@@@.@@OOOOOOO",
"OOOOOOOOOOOooOOOOOOOOOOOOOOoOOOO@@OO.OOOOOOOOOOOOOOOOOOOOOOOOoOOOOOOOOOOOOO@@@.@@@.@@@@@@O      .         .       .       OOOOOO",
"OOOOOOOOOOOOOOOOOOOO...OOOOOOOOOOOOOOOOOOOOOOoOOOOOOOOOo....OOO...OOOOOOOOO#    .    .     OOOOOOOOOOOOOOOOOOOOOOOOOOOOOOOOOOOOO",
"oooooooo...oooooo...ooooooooooooooooooooooooooooo.......oooo......oooooooooooooooooooooooooooooooooooooooooooo..oooooooooooooooo",
"OOOOOOOOOOOOOOOOO@@@@@OOOOOOOOOOOOOOO@@@@@@OOOOOOOOOoooOOOOOOOOOOO....OOOOOOOOOOOOOOOOOOOOOOOOOOOOOOOOOOOOOOOOOOOOOOOO..OOOOOOOO",
"OOOOOOOOOOOO.OOOOOOOOOOOOOOOOOOOOO@@@      OO.OOOOOOOOOOOOOOOOOOOOOOOOOOOXXXXXXXXXXXXOOOOOOOOOOOOOOOOOOOOOXXXXXXXOOOOOOOOOOOOOOO",
"...........OO....OO........................OO..OOO.OOOOOO.........OO...X.........................OOOOOOO.....X..................",
"OOOOO.o..OOOOOOOOOO.....O..OOOOOOO.OOOOOOOOOOOOOOOOOO..o@@@@@OOOOoOOOOOOOOOOOOOOoOOOOOOOOOooOOOOOOOOOO#   OOOOOOOOOOOOOOOOoOOOOO",
"OOOOOOOOO@@@@@@@@@@@..@OOOOOOOOOOOOOOOOOOOOOOOOOOOOOOOOOooOOoooOOOOOOOOOOOOOOOOOoOoooooOOOOOoooOOOOOOOOOOOOOOOOOOOOOOOOOOOOoOOOO",
"OOOOOOOOO#  .   ..     OOOOOOOOOOOOOOOOOOOOOOOOOOOOOOOOOOOO.......OOOOOO....OOOOOOOOOOOoooooOOOooooOOOOOOOOOOooo...oOOOOOOOOOOOO",
"oooooooooooooo.....ooooo.....oooo......oooooooooo....ooooooooooooooooooooooo.....ooooo..ooooo............ooooo..oooooooooooooooo",
"OOOOOOOOOOOOOOOOOOOOOOOOOOOOOOOOOOOOOOOOOOOOOOO@@@@@@@@@@@.@@@.@@@@.@OOOOOOOOOOOOOO..........OOOOOOOOOOOOOOOOOOOOOOOOOOOOO..OOOO",
"OOOOOOOOOOOOOoOOOOOOOOOOOOOOOOOOOOooOOOOOOOOOOO#   .               .   OOOOOOOOOOOOOOO##Ooo@@@@O....OOoOOOOOO.OOOOOOoOOOOOOOOOOO",
"OOOOOOOOOOOOOOo@@oo@@@o@@@@@ooooooOOOOOOOOOOOOOOOOOOOOOOOOOOOOOOOOOOOOOOOOOOOOOOOOOOOOooOoOOO$.....O++++++OOOOOOOOOOO.OOOOOOOOOO",
".....oo..oooo.....OOOO...OOOO.....OOO...OOO....O....O.....OO..OO.....OOO...................................OOO...OOOOOO.........",
"OOOOOOOOOOOOOOOOOOOOOOOOOOOOOOOOOOOOOOOOOOOOOOOOOOOOOOOOOOOOOOOOOOOOOOOOOOOOOOOOOOOOOOOOOOOOOOOOOOOOOOOOOOOOOoOOOOoO@OO@..@@@OOO",
"OOOoOOOOOOOOOOOOOOOOOOOOOOOOOOOOOO..OOOOOOOOOOOOOOOOOOOOOOOOOOOOOOOOOOOOOOOOOOOOOOOOOOOO........OOOOOOOOOOOOOOoOOOOOOoOO.OOOOOOO",
"ooooooooooooooooooooooooo....ooo..ooooooooooo.......ooooooo...ooooooooo.......oooooooooooooooooooo......oooooooooooooooooooooooo",
"OoOOOOOOOOOOOOOOOO...OOOOOOOOOOOOOOOOOOOOOOO@@@OOOOOOOOOOOOOOOOOOOoooOOOOOOOOOOOOO@@@@.@@@@@@@@@@@@@OO.OOOOOOO...OOOOOOOOOOOOOOO",
"OO  OOOOOOOOOOOOOO@@@@@@@@@@@@..@@@...@@@@@@@  OOOOOOOOOoo....OOooOOOOooOOOOOOOO#         .            OOOOOOOOOOOOOOOOOOOOOOOOO",
"OOooOOOOOOOOOOOOOO# .     .      ..    ..     OOOOOooOOOOOoOOOO..OOOOOOOOOOOOOO.....OOOOOOOOOOOOOOOOOOO  .   OOOOOOOOOOOOOOOOOOO",
".............................................OOOOOOOOOOOOOOOOOO....................ooooo............OO......O...................",
"OOOOOOOOOOXXXXXXXXXXXXXXXXXXXXOOOOOOOOOOOOOOOOOOXXXXX.XXXOOOOOOOOO@OOoOOOOOOOOOooooOOooOOOOOOOOooooooOOOOOOOOOOOOOOOOOOOOOOOOOOO",
"OOOOOOOOOOOOOOOOOOoOOOOOOOOOOOOOOOOOOOOOOOooOOOOOOOOOOOOOOOOOOOOOoOooOOOOOO.OOOOOOOOOOOOOOOOOOOOOOOOOOOOOOOOOOOOO.OOO.....OOOOOO",
"ooOOOoooooooooOOOOOOoooooooooooooooooOOOOOOOoooooooooooooooooOOOO.OOOOOOoooooooooooooooooooooooooooooooOOooooooooooooooooooooooo",
"OOOOOOoooooo@@@OOOOOOOOOOOOOOOOOOOOXXXXoOOOOOOOOOOOOooOOOOOOO....OOOOOOOOOOOOOOOOOoOOOOOOOooOOOOOOOOOOOOOO# ..  OOOOOOOOOOOOOOOO",
"OOOOOOOOOOOoOooOOO....OOOOOOOOOOOOOO...XXXXOOOOOOOOOXXXXXXOOOOOOOOOOOOOOOOOOOOO.OOoOOO@@ooo@@@@O@@@@@@OOOOOOOOOOOOOOOOOOOOOOOOXO",
"......OO.OOOOOOOOOOO..........................................OOOOOOOOOO..............ooooo.....ooo..............OOOOO..........",
"OOOOOOOOOOOXOOOOOOOOoOOOOoOOOOOOOOOOOOoOOOOOOooOoOOOooOO..oo..ooo.OO.OOoooOOOOOOOoooooOOOOOOOOOOOOOOOO@@@o@@@OOOOOooOOOOOOOOOOOO",
"OOOOOOOOOOOOOOOOoOOOOOOOOOOOOOOOOOOOOOoOoooOOOOOOOooOOOOOOOOOOOOOOOOOOOOOOOOOOOOOOOOOOOOOOOOOOO@@O@oo@OOOOOOOOOOOOOOooOOOOOOOOOO",
"OOOOOOOOOOOXXXXXXXXXXXXOOOOOOOOOOo@@@@OOO......OO.....OOOOOOOOOOOOOOOOOOOOOOOOOOOOO....O.....OOOOOOOOOOOOOOOOOOOOOOOOO.OOOOXXXOO",
"............................................................OOOOOOOOO.....OO...........................oo....oooo...............",
"OOOOOOOOOOOOOOO...O.....OOOOoOOOooOOoOOOOOOOOOOOOOOOOOOOO..OO....OOOOOOOOOOOOOOOOOOOOOOOOOoooOOOOOOO.oo..O....O...OOOOOOOOOO#  O",
"O@@OOOOOOOOOOOOOOOOOOOOOOOOOoOooOOOOOOOOOOOOOOOOOOOOOOOOOOOOOOOOOOOOOOOOOOOO@@@@@@@@@@@@@@.@@@@@@@@@@@@@@@@@@@@@@@@@@@OOOOOOOOOO",
"oooooooooooooooooooooooooooooooooooooooooooooooooooooooooooooooooooooooooooooooooooooooooooooooooooooooooooooooooooooooooooooooo",
"  OOOOOO#  OOOOOOO#     OO@@@.@@@@@@@@.@@@@@@@@@@@@@O    OOOO##    O#..     OOOOOOOOOOOOOOOOOOOOXOOOOO......OOOOOOOOO    O   .  ",
"OooOOOOOOOoOOOOOOOOOOOOOoo     ooo.       .          OOOOOOOOOOOOOOOOOOOOOOOOOOOOOOOOOXXOOOOOOOOOXOOOOOOOOOOOOOOOOOOOOOOOOOOOOOO",
"OoOOOOOOOOOOOOOOOooOOOOoOOOOOOOOOOOOOOOOOOOOOOOOOOOOOOOOOOOOOOOOOOOOO................OOOOOOOOOOOOOOOOOOOOOOOOOOOOOOOOOOOOOOOOOOO",
"OOOOOOOOOoOOOO.OOOOOOOOO...O.....OOOOO........OOOOOO....O............OOOOOOOOOOOOOOOOOOOOOOXXXXXXXXXXXXXXXOOOXXXXXXXXXXXXXXXXOOO",
"......OOO..OO....OOOOOOOOOOOOOOOOO.................................................OO........OOOO....OO.........................",
"OOOOOOOOOOOOOOOOOoOOOOOOOOOOOOOOOOOOOOOOOOOOOOooooooooOOOOOOOOOOOOOOOO..OOOOOOOOOOOOOOooooOooooOOOOOOOoOOOOOOOOOOOOOO..OOOOOOOOO",
"OOOOOOOOOOOOOOOOOOOOOOOOOOOOOOOOOOOOOOOOOooOOOOOOOOOOOOOOOOoooooooOOOOOOOOOOoOOOOOOOOOOOOOOOOOOoooooOOOOOOOOOOooOOOOOOOOOOOOOOOO",
"OOOOOOOOO....OOOOOOOOOOOOOOOOOOOOOOOOOOOOOOOOOOOOOOOOOOOOOOOOOOOOOOOOOOOOOOOo@@@@@OOOOOOOOOOOOOOOOOOOOOOOOOOOOOOOOXXXXXXXXOOOOOO",
"......................OO...OOO.....OOOOOOOO....O...................O........OOOOOOOOOOOOOOO.....................................",
"OOOOOOOOOOO...OOO.......OOOOO......OOOO....OOOOOOOOOOOOOO....OOOOOOOOOOOOOOOOOOOOOXXXXXXOOOOOO.XXXXXXXXXXOOOOOOOOOOOOOOO.OOOOOOO",
"OOOOOOoOOOOOOOOOOOOoOOOOO@@.@@@@@@@@@@@@@@@@@@@..@@@@@@@@.@@@@@@@@@@.@OOOOOOOOOooO...............................OOOOOO.OOOOOOOO",
"OOOOOoOOOOOOOOOOOOOOooOOO#   .         ..   ..        .     ..         OOOOOOOOOOOOOOOOOOO@@@@@.@@@@@@OOOOOOOOOOOOOOOOOOOOOOOOOO",
"OOOOOOOOOOOOOOOOOOOOOOOOOOOOOO.........OOOOOOOOOOOOOOOOOOOOOOOOOoOOOOOOOOOOOOOOOOOOOOOOOOO#       ......@@...@@....@@OOOOOOOOOOO",
"oooooooo.....oooo........ooooooooooooooooooooooooooOOOOOOOOO.OOOOOOOO..O...O..OOOOOOOOOOOoooooooooooooooooooooooooooo...oooooooo",
"OOOOOOOOOO@@............................XXXXXXXXXooOOOOOO..OOOOOOOOOOOOOOOOOOOOOOOOoOOOOOOOOOOOOOOOOOOOOOOOOOOOOOOOOOOOOOOOOOOOO",
"OOOOOOOOOOOOOOOOoOOOOOOOOOOOOOOXXXXXXXXXOOOOOOOOOOOooOOOOOOOOOOOOOOOOOOOOOOOOOOOOooOOOOOOOOOOOOOOOOOOOOOOOOOOOOOOOOOOOOOOoOOOOOO",
"OOOOOOOOOOOOOOOOOoOOO...OOOOO....OOOOOOOOOOOOOOOOOOOOOOOXXXXXXXXXXXXXoooooOOO....OOOOOOXXXXXXXXXXXXXXXX..........OOOOOOOoOOOOOOO",
"....................OOOOOOOOOOOOO...OOOOOOOOOOOOOOOO................OO.....OOOOOO................OOOO..OOOOOOOOOOOOOO...........",
"OOO..OOOOOOOOOOOOOOOOOOOOOOOoooooOOOOooOO.....OOOOOOOO....OOOOOOOOOOOOOOOOOOOOOOOOOOOOOOOOOOOOOOOOOOOOOOOOOOOOOO.OOOOOOOOOOOOOOO",
"OOOOOOoOOOOOOOOoOOOOOOOOOOOO...OOOOOOOOOOOOOOOOOOOOOOOOOOOOOOOOOOOOOOOOOOOOOOOOOOOOOOOOOOOOOOOOOOOOOOOOOOOOOOOOOOOOOOOOOOOOOOOOO",
"ooooooooooooooooooooooooo...oooooooooooooooooooooooooooooooooo...ooooooooooooooooooooooooooooooooooooooooooooooooooooooooooooooo",
"    @.@@@@@@@@@@@@@@@@@@@@@OOOOOOOOOOOOoOOoOOOOooooo@@@@ooOOOOOOOOOOOOOOOOOOOOOOOOO@@@@@@@@@@@@@@@@@@.@@@@@@@@@@@     . ..      ",
"Ooo   ..oo .       .     OOOOOoOOOOOOOOOOOO.......OOOOOOOOOOOOOOOOOOOOOO.OO...OOOOO#      . ..     .        ..   OOOOOOOOOOOOOOO",
"OOOOOOOOOOXXXXXXXXXXXXOOOOOOOOOoOOOOOOOOOOOOOOOOOOOOOOOoOOOOOOOOOOOOOOOOOOOOOOOOOOOOOOOOOOOOOOOOOOOOOOOOOOOOOOOOOOOOOOOOOOOOOOOO",
"OOOOOOOOOOOOOOOOOOOOOOOOOOOOOOOOOOOOOO...OO.......OOO....OOOOOOOOOOOOOOOOOOOOOOOOO......OOOO..OOOOOOOOOOOOOOO....OOOOOOOOOOOOOOO",
".....................O...OOOOOOOO..................................O.OOO....OOOOOOOOOOOOOOOOOO..O...............................",
"OOOOOOOOOOOOOOOOOOOOOOOOOOOOOOOOOOOOOOOOO@OOOOOO..OOOOOOOOOOOO@@@@@@@@@...@@.oOOOOOOOOOOOOOOOOOOOOOOOOOOOOOOOOOOOOOO...OO.OOOOOO",
"OOOOOOOOOOOOOOOOOOOOOOOOOOOOOOOOOOOOOOOOOOOOOOOOOOOOOOOOOOOOOO#ooo.oo   o  o  Ooo.......OOOOOOOOOOOOOOOOOOOOOOOOOooOOOOOOOOOOOOO",
"oo@@@oooo@@@@@OOXXXXXOOOOOOOOOOOOOOOOOOOOOOOOOOOOOOOOOOOOOOOOOOOoooooooooooooooooooooooooooooooooooooooooooooooooooooooooooooooo",
"ooooooooooooooooooooo...........oooooooooooooooooo...oooo...........OOOOoOOOOOOOOOOOOoooooOOOOOOOOOOOOOOOOoo............OOOOOoOO",
"OOOOOOOOOOOOOOOOOOOOOOOOOOO.........OOOOOOOOOOOO..OOOOOOOOOXXXXXXXXXXOOOOOOOOOOOOOOOOOOOOOOOOOOOO...........OOOOOOOOOOOOOOOOOOOO",
"OOOOOOOO.....OOOOOOOOOOOOXXXXXXXOOOO.........OOOOOOOOOOOOOOOOOOOOOOOOOOOOOO.OOOOOOOOOOOOOOOOOOOOOOO..OOOOOOOOOOOOOOOOOOOOOOOOOOO",
"OOOOOOOOOOOOOOOOOOOOOOOOOOOOOOOOXXXXXXOOOOOOOOOOOOOOOOOOOOOOOOOOOOOOOOOOOOOOOOOOOOOOOOOOOOOOOOOOOOOOOOOOOOOOOOOOOOOOOOOOOOOOOOOO"
};
