/* XPM */
static char *_1a4dc6747fd4a7eda8d7a62e1cbc61dtOb8hVdaMm1T8aet[] = {
/* columns rows colors chars-per-pixel */
"128 128 33 1 ",
"  c black",
". c #010701",
"X c #010305",
"o c #020E02",
"O c #0C0805",
"+ c #00060A",
"@ c #03080C",
"# c #0A0908",
"$ c #100D0C",
"% c #031203",
"& c #031403",
"* c #041604",
"= c #061706",
"- c #040B12",
"; c #06111B",
": c #0B1A1F",
"> c #171311",
", c #1B1613",
"< c #261F1A",
"1 c #092409",
"2 c #0F210F",
"3 c #132F13",
"4 c #332419",
"5 c #091A28",
"6 c #0F2A38",
"7 c #3D2D20",
"8 c #4C3321",
"9 c #4A3627",
"0 c #4F3A2B",
"q c #2B552B",
"w c #2A4930",
"e c #50412A",
"r c #1D3C43",
/* pixels */
"00000000000000&&000000000000000000000000000000&&00000777e009000000000000000000&&777000000000000000000000000000&&0000000000000000",
"0007777007700=33&000000000000000000&&77777777&33&7777777499777000000&&0000000&33&00777000000000777&&777777000&33&000000000000000",
"0000000000000&13&7777700&&00000000&33&0000000&13&e9eeeeeee&&eeeeee0&33&000000&13&000000&&00000000&33&77700777&13&777777700000000",
"0000009e9999&1113&00000&33&9e00000&13&000077&1113&7777774&33&000077&13&ee9ee&1113&999e&33&e900009&13&9000eee&1113&9eeeeeeee7eee0",
"000000000000&1=11&00000&13&099eee&1113&77700&1=11&0000000&13&90000&1113&7700&1=11&0000&13&09ee00&1113&770000&1=11&70000077909000",
"77777777944=1==3=1&777&1113&77777&1=11&7777&1==3=1&77777&1113=7477&1=11&777&1==3=1&77&1113&77777&1=11&77777&1==3=1&7777777777777",
"00000000000&3==1=3&009&1=11&0000&1==3=1&000&3==1=3&e77ee&1=11&eee&1==3=1&77&3==1=3&00&1=11&9977&1==3=1&0000&3==1=3&0000000000000",
"eeeeeee700&1======1&0&1==3=1&000&3==1=3&00&1======1&444&1==3=1&97&3==1=3&4&1======1&&1==3=1&777&3==1=3&707&1======1&0000eeeeeeee",
"4447447400&1======1&0&3==1=3&49&1======1&0&1======1&000&3==1=3&4&1======1&&1==&===1&&3==1=3&77&1======1&ee&1==&===1&e44447447444",
"000000077&1==&.%&==1&1======1&0&1==&===1&&1==&.&&==1&0&1======1&&1==&===1&1==&.&&==&1======1&0&1======1&4&1==&.&&==1=40000000000",
"000000000&1=o&..&o=1&1======1&&1==&.&&==1&1=o&..&o=1&0&1======1&1==&X&&==1&=o&..&o=&1==&===1&&1==&.&&==1&&1=o&..&o=1&00000000000",
"00000000&1=oo.=..oo&1==&.&&==1&1=o&..&o=1&=oo.=..oo=1&1==&.&&==1&=o&..&o=1&oo.=..o&1==&.&&==1&1=o&..&o=1&1=oo.=..oo=1&0000000000",
"9997777&11=o&.%..&o&1=o&..&o=1%=oo.=..oo=1&o&.%..&o=1&1=o&..&o=1&oo.=..oo=1&&.&..&&1=o&..&o=1&=oo.=..oo&11=o&.%..&o=11&099999999",
"0000000&1=&&......&1=oo.=..o%=1&o&.%..&o=11&......&&&1=oo.=..oo=1&&.&..&o=11&....&1=oo.=..oo=1&o&.%..&o&1=&&......&&=1&479900000",
"0000000&1=&=..%..&11=o&.%..&o=11&......&&=1&..%...=&11=o&.%..&o=11&.....&&=1&.&.&11=o&.%..&o=11&......&&1=&=..%...=&=1&000777000",
"000000&1=o&......&1=&&......&&=1&..%...=&=1&.......&1=&&......&&=1&.&...=&=1&...&1=&&......&&=1&..%...&1=o&........&%=1&70000000",
"749494&1=o&......&1=&=..%...=&&&&.......&o=1&......&1=&=..%...=&=1&......&o=1&..&1=&=..%...=&=1&......&1=o&........&o=1&49494777",
"00000&3===......&1=o&........&33&&......&o=1&.....&1=&&........&o=1&.....&o=1&.&1=o&........&o=1&....&3===..........===3&000e000",
"0000&3111=......&1=o&........&13&&.......===3&..%=&1&33&.......&o=1&.....&&==3&&1=o&........&o=1&...&3111=......%==.=1113&000000",
"0099#ooo1...=..&3===........&1113&&..%==.=1113&.=&3=&13&........===3&.&=&33&11&3===..........===3&..&ooo1...=...==.......9999990",
"0000###&1==o3=&3111=......%=&1=11&3&.==.........&31&1113&...%==.=1113&==&13&.&3111=......%==&&1113&.==.o1==o3=..==o==1oee7ee0000",
"eeeeee&1==oo&..ooo1...=...=&1==3=1&..==o==1o&....oo&1=11&...==........=&1113&.ooo1...=...==&33&.....==o1==oo&.&&.&oo==1o44747eee",
"444494o1=ooo.....o1==o3=..=&3==1=3&...&oo==1o.....&1==3=1&..==o==1o....&1=11&o..o1==o3=..==&13&o&....&o1=ooo.&33&.ooo=1o00044744",
"77744o1==ooo...&&1==oo&...&1======1&...ooo=1o.....&3==1=3&...&oo==1o..&1==3=1&.o1==oo&....&1113&o....o1==ooo.&13&.ooo==1o7777777",
"e0000o1==oo%..&33&=ooo....&1==&===1&...ooo==1o...&1======1&...ooo=1o..&3==1=3&oo1=ooo.....&1=11&o....o1==oo&&1113&&oo==1o0000000",
"0000o1==oo=...&13&=ooo...&1==&.&&==1&..%oo==1o...&1==&===1&...ooo==1o&1======1&1==ooo....&1==3=1&o..o1==oo=.&1=11&.=oo==1o000000",
"0999o1==oo.=.&1113&oo%...&1=o&..&o=1&...=oo==1o.&1==&.&&==1&..%oo==1o&1======1&1==oo%....&3==1=3&o..o1==oo.&1==3=1&.oo==1&999999",
"000o1====.=..&1=11&o=...&1=oo.=..oo=1&.=.&&==1&.&1=o&..&o=1&...=oo==&1==%.&&==1&=oo=....&1======1&oo1====.=&3==1=3&=.====1o00000",
"00#o31111..=&1==3=1&.=.&11=o&.%..&o=11&.&33&==1&1=oo.=..oo=1&.=.oo&&&1=o%..&o=1&=oo.=...&1==&===1&&o31111.&1======1&.111133o0070",
"00###o1..111&3==1=3&=..&1=&&......&&=1&=&13&11&11=o&.&..&o=11&.=.&33&=oo.=..oo=1&=.=...&1==&.&%==1&o.o1..1&1==&===1&1..1o&3o0000",
"000#.1==..&&1======1&==&1=&=..%...=&=1&&1113&o&1=&&......&&=1&=..&13&=o&.%..&o=11&..==.&1=o&..&o=1&3o1==.&1==&.&&==1&.==1&.07700",
"000#.1==&oo&1======1&1&1=o&........&o=1&1=11&1&1=&=..%...=&=1&11&1113&&......&&=1&111.&1=oo.=..%o=1&o1==&&1=o&..&o=1&&==1.#70000",
"000.1===&o&1==&.&&==1&&1=o&........&o=&1==3=1&1=o&........&o=1&&&1=11&=..%...=&=1&.&.&11=o&.%..&o=11&===&1=oo.=..oo=1&===1.00000",
"999.1==&oo&1=o&..&o=1&3===..........==&3==1=3&1=o&........&o=1&&1==3=1&.......&o=1&o=&1=&&......&&=1&==&11=o&.&..&o=11&==1.99999",
"000.1==o&&1=oo.=..oo=1&11=......%==.=&1======1&==..........===&&3==1=3&.......&o=1&o=&1=&=..%...=&=1&==&1=&&......&&=1&==1.00000",
"00.1==&o&11=o&.&..&o=11&1...=...==...&1==&===1&1=......%==.=11&1======1&.......===3&&1=o&........&o=1&&&1=&=..&...=&=1&&==1.0000",
"00.1==&o&1=&&......&&=1&1==o3=..==o=&1==&.&&==1%...=...==....&&1======1&...%==.=11&&3&=o&........&o=1&&1=o&........%o=1&==1.0000",
"00.1==oo&1=&=..&...=&=1&==oo&....&oo&1=o&..&%=1&==o3=..==o==1&1==&.&&==1&..==....&33&&==..........===3&1=o&........=o=1&==13.000",
"0.1==&o&1=o&........&o=1&ooo......o&1=oo.=..oo=1&oo&....&oo=&&1=o&..&o=1&..==o==1&13&3&=......%==.=11&3===.......X..===3===1o000",
"7.1====&1=o&........&o=1&ooo......&11=o&.%..&o=11&o......ooo&1=oo.=..oo=1&..&oo=&1113&&...=...==....&3111=......o==.=1113==1.494",
".1====&3===..........===3&o%......&1=&&......&&=1&o......oo&11=o&.%..&o=11&..ooo&1=11&1&=o3=..==o==1oooo1...=...==.......===1.00",
".3111&3111=......%==.=1113&.......&1=&=..%...=&=1&%......%o&1=&&......&&=1&..oo&1==3=1&&oo&....&oo==1o1o1==o3=..==o==1o111113.00",
"#...1=ooo1...=...==........=....%&1=o&........&o=1&.......&&1=&=..%...=&=1&..%o&3==1=3&1&o......ooo=1oo1==oo&....&oo==1o=11.#000",
"9##.1==oo1==o3=..==o==1o=.=......&1=&&........&o=1&....%.&&1=o&........&o=1&..&1======1&&o......ooo==1o1=ooo......ooo=1o=11.4999",
"0##.===o1==oo&....&oo==1o..==...&3=&33&........===3&.....&&1=o&........&o=1&.=&1==&===1&&&......&oo==o1==ooo......ooo==1o==1o000",
"00.1==oo1=ooo......ooo=1o111..=&311&13&....%==.=1113&...=&3===..........===3&&1==&.&&=&33&.......=oo=o1==ooo......&oo==1o=111.90",
"00.1==o1==ooo......ooo==1o&..o..oo&1113&...==........=..&3111=......%==.=1113&1=o&..&o&13&&...%.=.ooo1==oo=........=oo==1o1=1o.0",
"0.1===o1==ooo.&&...%oo==1oo=.o..o.&1=11&=..==o==1o..o..o&ooo1..&&...==......&1=oo.=..&1113&&.....=.=o1==oo.=.&&.&.=.oo==1&=111.0",
"0.1==o1==oo=.%33&...=oo==1o=o....&1==3=1&...&oo==1o.o..&3==o1=&33&..==o==1o&11=o&.o..=1=11&&...==..o1====.=.&33&...=.====1o1=1.0",
".1===o1==oo.=&13&%.=.oo==1&oo....&3==1=3&....ooo=1oo..&311o1==&13&...&oo==1&1=&&..X.&1==3=1&=..1111o31111..=&13&.==..111133o111.",
".3=1o1====.=&1113&..=.====1o%...&1======1&...ooo==1o...oooo1=&1113&...ooo=1&1=&=..&.&3==1=3&&.o..&..=o1..11&1113&1111..1o&3o3=1.",
"#oooo31111..&1=11&==..111133o%..&1==&===1&...%oo==1o....%o1==%1=11&...ooo=&1=o&....&1======1&.o.=oo&.1==..&&1=11&..&..==1&.oo#o0",
"######o1..1%1==3=1&111..1o&3o%.&1==&.&&==1&...=oo==1o..%oo1=&1==3=1&..%oo=&1=o&....&1==&===1&&.o=oo&.1==&o&1==3=1&=oo&==1.####00",
"eee##.1==X.=3==1=3&.&..==1&....&1=o&..%%=1&%.=.oo==1&..%o1==&3==1=3&...=o&3===....&1==&.&&==1&&oo=o.1===&o&3==1=3&=oo&===1.000ee",
"444##.1==&&1======1&oo&==1..%.&1=oo.=..oo=1&..=.====1o.o%1=&1======1&.=.&3111=....&1=o&..&o=1&.%ooo.1==&o&1======1&=oo&==1.00444",
"999#.1===&&1==&===1&oo&===1..&11=o&.%..&o=11&=..111133oo1==&1==&===1&..=.ooo1...=&1=oo.=..oo=1&.ooo.1==o&&1======1&oo&o==1.99999",
"000#.1==&&1==&.&&==1&oo&==1.%&1=&&......&&=1&111..1o&3oo31&1==&.&&==1&=..11o1==o&11=o&.&..&o=11&oo.1==&o&1==&.&&==1&ooo&==1.0000",
"000#.1==o&1=o&..&o=1&o&o==1.%&1=&=..%...=&=1&.&..==1&.o1=o&1=o&..&o=1&111.o1==oo&1=&&......&&=1&&&.1==&o&1=o&..&o=1&ooo&==1.0000",
"000.1==&&1=oo.=..oo=1&oo&==1&1=o&........&o=1&oo&==1.o1=.&1=oo.=..oo=1&&..o1=ooo&1=&=..&...=&=1&...1==o&1=oo.=..oo=1&ooo==13.900",
"777.1==&11=o&.&..&o=11&o&==1&1=o&........&o=1&oo&===1.31&11=o&.%..&o=11&oo1==oo&1=o&........&o=1&.1==&&11=o&.o..&o=11&oo===1.778",
"000.1==&1=&&......&&=1&oo==&3===..........===3&oo&==1...&1=&&......&&=1&oo1==oo&1=o&........&o=1&.1===&1=&&......&&=1&o====1.000",
"00.1==&&1=&=..&...=&=1&oo&&3111=......%==.=1113&&o==1...&1=&=..%...=&=1&o1==oo&3===..........===3&====&1=&=..&...=&=1&oo====1.00",
"00.1==&1=o&........&o=1&===ooo1...=...==.......ooo&==1.&1=o&........&o=1&1==o&3111=......&==.=1113&11&1=o&........&o=1&111113#00",
"9.1===&1=o&........&o=1&o====o1==o3=..==o==1oooooo&==1.&1=o&........&o=1&====.ooo1...=...==.........1&1=o&........&o=1&.=11##999",
"0.311&3===..........===3&111o1==oo&....&oo==1o%oooo==1&3===..........===3&111..=o1==o3=..==o==1oo%&.&3===..........===3&=11##000",
"##..&3111=......%==.=1113&11o1=ooo......ooo=1oo%&oo&=&3111=......%==.=1113&..11o1==oo&....&oo==1o%o&3111=......%==.=1113&==1.000",
"####.ooo1...=...==.......=1o1==ooo......ooo==1oo=o===.ooo1...=...==.......==..&o1=ooo......ooo=1o%.1ooo1...=...==.......==111.49",
"####.==o1==o3=..==o==1oo===o1==oo%......%oo==1o==oo==.1=o1==o3=..==o==1o.1==&oo1==ooo......ooo==1o.1==o1==o3=..==o==1ooo==1=1o.0",
"0##.1=o1==oo&....&oo==1oo=o1==oo=........=oo==1o1111.1=o1==oo&....&oo==1o===&oo1==oo%......%oo==1o1==o1==oo&....&oo==1oo===111.0",
"00#.1=o1=ooo......ooo=1oo=o1==oo.=....%.=.oo==1&...=.31o1=ooo......ooo=1o==&oo1==oo=........=oo==1o==o1=ooo......ooo=1ooo==1=1.0",
"99.1=o1==ooo......ooo==1oo1====.=........=.====1oo==1.o1==ooo......ooo==1o=o&o1==oo.=....%.=.oo==1&=o1==ooo......ooo==1o&===111.",
"00.1=o1==oo%......%oo==1oo31111..==....==..111133o====o1==oo%......%oo==1o&oo1====.=........=.====1oo1==oo%......%oo==1o&&1=3=1.",
"0.1=o1==oo=........=oo==1o=o1..111..=..1111..1o&3oo==o1==oo=........=oo==1ooo31111..==....==..11113o1==oo=........=oo==1ooooooo0",
"0.3=o1==oo.=....%.=.oo==1&.1==..&..o..o..&..==1&.oo==o1==oo.=....%.=.oo==1&oooo1..111..=..1111..1o&o1==oo.=....%.=.oo==1&####000",
"8#oo1====.=........=.====1o1==&oo=.o..o.=oo&==1.o&o=o1====.=........=.====1o&.1==..&..o..o..&..==1o1====.=........=.====1o###449",
"9@#o31111..==....==..111133o==&oo=o....o=oo&===1.&ooo31111..==....==..111133o.1==&oo=.o..o.=oo&==1o31111..==....==..111133o#e000",
"0####o1..111..=..1111..1o&3o=&oo=oo....oo=oo&==1.=&&=.o1..111..=..1111..1o&3.1===&oo=o....o=oo&===1.o1..111..=..1111..1o&3%00000",
"9###.1==..&..o..o..&..==1&.==o&ooo%....%ooo&o==1..&&..1==..&..o..o..&..==1&..1==&oo=oo....oo=oo&==1.1==..&..o..o..&..==1&.990999",
"0###.1==&oo=.o..o.=oo&==1.==&ooooo.%..%.ooooo&==1.oo..1==&oo=.o..o.=oo&==1...1==o&ooo%....%ooo&o==1.1==&oo=.o..o.=oo&==1.#000000",
"00#.1===&oo=o....o=oo&===1.=&ooooo.%..%.ooooo&==1.1..1===&oo=o....o=oo&===1.1==&ooooo.%..%.ooooo&=.1===&oo=o....o=oo&===1#000000",
"00#.1==&oo=oo....oo=oo&==1.=oooo%%......%%oooo==13.1.1==&oo=oo....oo=oo&==1.1==&ooooo.%..%.ooooo&=.1==&oo=oo....oo=oo&==1#000000",
"494.1==o&ooooX...%ooo&o==1.&oo&%o.%......o%&oo&==1.3.1==o&ooo%....%ooo&o==1.1==oooo%%......%%oooo=.1==o&ooo%....%ooo&o==1.777777",
"00o1==&ooooo.%..%.ooooo&==1.=o=oo........oo=o====1..1==&ooooo.%..%.ooooo&=.1==&oo&%o.%......o%&oo.1==&ooooo.%..%.ooooo&==1.00000",
"00o1==&ooooo.=..%.ooooo&==1.oo===.%....%.===oo====1.1==&ooooo.%..%.ooooo&=.1====o=oo........oo=o=.1==&ooooo.%..%.ooooo&==1.00000",
"99.1==oooo%%......%%oooo==13.11=%%%....%%%=11111113.1==oooo%%......%%oooo.1====oo===.%....%.===oo.1==oooo%%......%%oooo==13.9999",
"0.1==&oo%%o.%......o%&oo&==1..................=11..1==&oo&%o.%......o%&oo.31111111=%%%....%%%=11.1==&oo&%o.%......o%&oo&==1.0000",
"0.1====o=oo........oo=o====1.o%%%%......%%%%o==11..1====o=oo........oo=o==...1=..................1====o=oo........oo=o====1.0080",
".1====oo===.%....%.===oo====1.%&%........%&%o====.1====oo===.%....%.===oo===.1==o%%%%......%%%%.1====oo===.%....%.===oo====1.777",
".31111111=%%%....%%%=11111113.&o%........%o&=o==1.31111111=%%%....%%%=111111.===o%&%........%&%.31111111=%%%....%%%=11111113.000",
"0...1=..................=11..o&%%........%%&oo==1=...1=..................=1.1==o=&o%........%o&=...1=..................=11..0000",
"000.1==o%%%%......%%%%o==11.o&o%..........%o&o===111.1==o%%%%......%%%%o==1.1==oo&%%........%%&oo=.1==o%%%%......%%%%o==11.#8800",
"777.===o%&%........%&%o====1.&o............o&oo==1=1.===o%&%........%&%o==.1===o&o%..........%o&o=.===o%&%........%&%o====1.#777",
"00.1==o=&o%........%o&=o==111..o..........o.=&&===1.1==o=&o%........%o&=o=.1==oo&o............o&o.1==o=&o%........%o&=o==111.#40",
"0e.1==oo&%%........%%&oo==1=1o...........=.o.&&&1=3.1==oo&%%........%%&oo.1===&&=.o..........o.=&.1==oo&%%........%%&oo==1=1o.#0",
"9.1===o&o%..........%o&o===111.oooooooo..ooooooooo.1===o&o%..........%o&o.3=1&&&.o..........=.o..1===o&o%..........%o&o===111.99",
"4.1==oo&o............o&oo==1=1.   5         #####$.1==oo&o............o&oooooooooooooooooo..oooo.1==oo&o............o&oo==1=1.44",
".1===&&=.o..........o.=&&===111.66   -X+;23q#####.1===&&=.o..........o.=&&===111.5-  5         .1===&&=.o..........o.==&===111.0",
".3=1&&&.o..........=.o.&&&1=3=1.665--  +:13w#####.3=1&&&.o..........=.%X&&&1=3=1.;;66   -X@;23q.3=1&&&.o..........=.o.%%&1=3=1.0",
"0oooooooooooooooo..oooooooooooo<r;5-; XX:w3q#####$oooooooooooooooo..oooooooooooo-$$665--  @:13wXoooooooooooooooo..ooooooooooo%00",
"77777#O$$$  5         O#########r6;;;-XX;21q###############  5         ############r;5-; XX:w3q##########  5         ####0000048",
"000000####66   -X+;23q##########r655;- @:23w###############66   -X+;23q############r6;;;-XX;21q##########66   -X+;23qO##00070000",
"000000####665--  +:13w##########r6--;  X;33w###############665--  X513w############r655;- +:23w##########665--  X513w###00000000",
"000000####r;5-; XX5w3qO#########66-5-  X;23w###############r;5-; X.5w3q############r6--;  X;33w##########r;5-; X.5w3q###00000900",
"707777####r6;;;-XX;21q##########r655---X;23w###############r6;;;-. ;11q############66-5-  X;23w##########r6;;;-XX;11q###07777778",
"000000@###r655;- +:23w##########r6-;;- X523w###############r655;- @:23wO###########r655---X;23w##########r655;- @523w###07700000",
"0000077###r6--;  X;33w##########r6-5--XX;21w###############r6--;  X;33w############r6-;;- X523w##########r6--;  +;33w###00000000",
"077097$###66-5-  X;23w##########r65;- XX;23w###############66-5-  X;23w############r6-5--X ;21wO#########66-5-  X;23w###00000700",
"000080$###r655---X;23w##########r6-5- XX;2wqw##############r655---X;23w############r65;- XX;23wO#########r655---X;23w###77700000",
"990000$$##r6-;;- X:23w##########66-5;- X:23qw##############r6-;;-  523w############r6-5- XX;2wq##########r6-;;- X:23w##$00999999",
"000700$###r6-5--XX;21w##########r6;5; XX;323w##############r6-5--XX;21w############66-5;- X523q##########r6-5--XX;21w##$77000000",
"0000077>$#r65;- XX;23w##########r65;; XX;223w##############r65;- XX;23w############r6;5; XX;323##########r65;- XX;23w##$09000000",
"000000,>##r6-5- XX;2wqw########r65--; X :332w##############r6-5- XX;2wq############r65;; XX;223##########r6-5- XX;2wq####0000000",
"949000,>##66-5;- X:23qw########665;-- XX;3130##############66-5;- X:23q###########r65--; XX5332##########66-5;- X:23qw$$$4877777",
"900400>,,#r6;5; XX;323w#######r655;;-XXX5311r##############r6;5; XX;323w##########665;-- X ;313##########r6;5; XX;323w$$$e009000",
"0000<0>>##r65;; XX;223w#######r65;---XXX.;30r6#############r65;; XX;223w#########r655;;-XX.5311$$########r65;; XX;223w$$$0000000",
"999990<,$r65--; XX:332w#######r;-5--X- X ;3230########$$$$r65--; XX:332w#########r65;---XX. ;30r$###$$$#r65--; XX:332w$$$0999999",
"4444e,$$<665;-- XX;3130#$$$$$r6555-X @ XX;3w21w#####$$$$$$665;-- XX;3130#########r;-5--X- XX;323$$$$$$$$665;-- XX;3130$$$7444444",
"09944<$$r655;;-XXX:311r$$$$$$r6;-5-   XXX;3323ww$$$$$$$$$r655;;-XXX:311r$$$$$$$$r6555-X # XX;3w21w$$$$$r655;;-XXX:311r$$$$000000",
"00000<$$r65;---XXXX;30r$$$$$r65;5-;X @ XXX;3w3wq$$$$$$$$$r65;---XXXX;30r$$$$$$$$r6;-5-   XXX;3323w$$$$$r65;---XXXX;30r$$$$000000",
"00000,$$r;-5--X- XX;323$$$$$r6-5X-     XXX;;331$$$$$$$$$$r;-5--X- XX;323$$$$$$$r65;5-;X @ XXX;3w3w$$$$$r;-5--X- XX;3230$$$#00000",
"7777,$$r6555-X @ XX;3w21$$$$$$$5X -X- XXXXX;;$$$$$$$$$$$r6555-X @ XX;3w21$$$$$$r6-5X-     XXX;;33$$$$$r6555-X @ XX;3w21w$$$$7777",
"0000,#$r6;-5-   XXX;3323w$$$$$$$$     XX XX;$$$$$$$$$$$$r6;-5-   XXX;3323w$$$$$$$$5X -X- XXXXX;;$$$$$$r6;-5-   XXX;3323ww$$$0000",
"0000$$r65;5-;X @ XXX;3w3wq$$$$$$$$$ X XX  $$$$$$$$$$$$$r65;5-;X @ XXX;3w3wq$$$$$$$$$     XX XX;$$$$$$r65;5-;X @ XXX;3w3wq$$$0000",
"99ee$$r6-5X-     XXX;;331w$$$00$$$$$$$$$$$$$$$$000000$$r6-5X-     XXX;;331$$$$$$$$$$$$ X XX  $$$$$$$$$6-5X-     XX ;;331w$$$9990",
"99900#$$$5X -X- XXXXX;;7$$$$77779999999999999999997779$$$$5X -X- XXXXX;;$$$#$$$$$$$$$$$$$$$$$$$$$$$$$$$$5X -X- XXXXX;;$$$$#00900",
"0000000$$$$     XX XX;$$$$$7777777770000000000007700000$$$$$     XX XX;$$$$900000000$$$$$$$$$$$$$$$$$$$$$$     XX XX5$$$$$000000",
"00000000$$$$$ X XX  $$$$$$8888880000777777777000000000000$$$$$ X XX X$$$$$0800000000000$$$$$$$$00007$$$$$$$$ X XX  $$$$$$0000000",
"0000000000$$$$$$$$$$$$$$000000008888880000000000000000000000$$$$$$$$$$$$$00000000000000000000000000000$$$$$$$$$$$$$$$$0000000000"
};
