/* XPM */
static char *_8145_3d12104af2bb4363d1949f27cd9b9e17654c70a2644518c090ba03404213154a[] = {
/* columns rows colors chars-per-pixel */
"128 128 29 1 ",
"  c black",
". c #010000",
"X c #060301",
"o c #190E08",
"O c #23120B",
"+ c #27130B",
"@ c #2A150C",
"# c #2E180D",
"$ c #341B0E",
"% c #603116",
"& c #6C3918",
"* c #86451C",
"= c #A35221",
"- c #AB5522",
"; c #B75D25",
": c #E97929",
"> c #E87E2B",
", c #E8862C",
"< c #E68F2F",
"1 c #E49631",
"2 c #E7A134",
"3 c #E6A435",
"4 c #EBA734",
"5 c #EAAA36",
"6 c #F8CA3E",
"7 c #F9CF40",
"8 c #FAE24C",
"9 c #FAE656",
"0 c None",
/* pixels */
"00000000000000000000000000000000000000000000000000000000000000000000000000000000000000000000000000000000000000000000000000000000",
"00000000000000000000000000000000000000000000000000000000000000000000000000000000000000000000000000000000000000000000000000000000",
"00000000000000000000000000000000000000000000000000000000000000000000000000000000000000000000000000000000000000000000000000000000",
"00000000000000000000000000000000000000000000000000000000000000000000000000000000000000000000000000000000000000000000000000000000",
"00000000000000000000000000000000000000000000000000000000000000000000000000000000000000000000000000000000000000000000000000000000",
"00000000000000000000000000000000000000000000000000000000000000000000000000000000000000000000000000000000000000000000000000000000",
"00000000000000000000000000000000000000000000000000000000000000000000000000000000000000000000000000000000000000000000000000000000",
"00000000000000000000000000000000000000000000000000000000000000000000000000000000000000000000000000000000000000000000000000000000",
"00000000000000000000000000000000000000000000000000000000000000000000000000000000000000000000000000000000000000000000000000000000",
"00000000000000000000000000000000000000000000000000000000000000000000000000000000000000000000000000000000000000000000000000000000",
"00000000000000000000000000000000000000000000000000000000000000000000000000000000000000000000000000000000000000000000000000000000",
"00000000000000000000000000000000000000000000000000000000000000000000000000000000000000000000000000000000000000000000000000000000",
"00000000000000000000000000000000000000000000000000000000000000000000000000000000000000000000000000000000000000000000000000000000",
"00000000000000000000000000000000000000000000000000000000000000000000000000000000000000000000000000000000000000000000000000000000",
"00000000000000000000000000000000000000000000000000000000000000000000000000000000000000000000000000000000000000000000000000000000",
"00000000000000000000000000000000000000000000000000000000000000000000000000000000000000000000000000000000000000000000000000000000",
"00000000000000000000000000000000000000000000000000000000000000000000000000000000000000000000000000000000000000000000000000000000",
"00000000000000000000000000000000000000000000000000000000000000000000000000000000000000000000000000000000000000000000000000000000",
"00000000000000000000000000000000000000000000000000000000000000000000000000000000000000000000000000000000000000000000000000000000",
"00000000000000000000000000000000000000000000000000000000000000000000000000000000000000000000000000000000000000000000000000000000",
"00000000000000000000000000000000000000000000000000000000000000000000000000000000000000000000000000000000000000000000000000000000",
"00000000000000000000000000000000000000000000000000000000000000000000000000000000000000000000000000000000000000000000000000000000",
"00000000000000000000000000000000000000000000000000000000000000000000000000000000000000000000000000000000000000000000000000000000",
"00000000000000000000000000000000000000000000000000000000000000000000000000000000000000000000000000000000000000000000000000000000",
"00000000000000000000000000000000000000000000000000000000000000000000000000000000000000000000000000000000000000000000000000000000",
"00000000000000000000000000000000000000000000000000000000000000000000000000000000000000000000000000000000000000000000000000000000",
"00000000000000000000000000000000000000000000000000000000000000000000000000000000000000000000000000000000000000000000000000000000",
"00000000000000000000000000000000000000000000000000000000000000000000000000000000000000000000000000000000000000000000000000000000",
"00000000000000000000000000000000000000000000000000000000000000000000000000000000000000000000000000000000000000000000000000000000",
"00000000000000000000000000000000000000000000000000000000000000000000000000000000000000000000000000000000000000000000000000000000",
"00000000000000000000000000000000000000000000000000000000000000000000000000000000000000000000000000000000000000000000000000000000",
"00000000000000000000000000000000000000000000000000000000000000000000000000000000000000000000000000000000000000000000000000000000",
"00000000000000000000000000000000000000000000000000000000000000000000000000000000000000000000000000000000000000000000000000000000",
"00000000000000000000000000000000000000000000000000000000000000000000000000000000000000000000000000000000000000000000000000000000",
"00000000000000000000000000000000000000000000000000000000000000000000000000000000000000000000000000000000000000000000000000000000",
"00000000000000000000000000000000000000000000000000000000000000000000000000000000000000000000000000000000000000000000000000000000",
"00000000000000000000000000000000000000000000000000000000000000000000000000000000000000000000000000000000000000000000000000000000",
"00000000000000000000000000000000000000000000000000000000000000000000000000000000000000000000000000000000000000000000000000000000",
"00000000000000000000000000000000000000000000000000000000000000000000000000000000000000000000000000000000000000000000000000000000",
"00000000000000000000000000000000000000000000000000000000000000000000000000000000000000000000000000000000000000000000000000000000",
"00000000000000000000000000000000000000000000000000000000000000000000000000000000000000000000000000000000000000000000000000000000",
"00000000000000000000000000000000000000000000000000000000000000000000000000000000000000000000000000000000000000000000000000000000",
"00000000000000000000000000000000000000000000000000000000000000000000000000000000000000000000000000000000000000000000000000000000",
"00000000000000000000000000000000000000000000000000000000000000000000000000000000000000000000000000000000000000000000000000000000",
"00000000000000000000000000000000000000000000000000000000000000000000000000000000000000000000000000000000000000000000000000000000",
"00000000000000000000000000000000000000000000000000000000000000000000000000000000000000000000000000000000000000000000000000000000",
"00000000000000000000000000000000000000000000000000000000000000000000000000000000000000000000000000000000000000000000000000000000",
"00000000000000000000000000000000000000000000000000000000000000000000000000000000000000000000000000000000000000000000000000000000",
"00000000000000000000000000000000000000000000000000000000000000000000000000000000000000000000000000000000000000000000000000000000",
"00000000000000000000000000000000000000000000000000000000000000000000000000000000000000000000000000000000000000000000000000000000",
"00000000000000000000000000000000000000000000000000000000000000000000000000000000000000000000000000000000000000000000000000000000",
"00000000000000000000000000000000000000000000000000000000000000000000000000000000000000000000000000000000000000000000000000000000",
"00000000000000000000000000000000000000000000000000000000000000000000000000000000000000000000000000000000000000000000000000000000",
"00000000000000000000000000000000000000000000000000000000000000000000000000000000000000000000000000000000000000000000000000000000",
"00000000000000000000000000000000000000000000000000000000   000000000000000000000000000000000000000000000000000000000000000000000",
"000000000000000000000000000000000000000000000000000000  000  0000000000000000000000000000000000000000000000000000000000000000000",
"00000000000000000000000000000000000000000000000000000 0000000 000000000000000000000000000000000000000000000000000000000000000000",
"00000000000000000000000000000000000000000000000000000 0000000 000000000000000000000000000000000000000000000000000000000000000000",
"00000000000000000000000000000000000000000000000000000 0000000 000000000000000000000000000000000000000000000000000000000000000000",
"00000000000000000000000000000000000000000000000000000 000000 0000000000000000000000000000000000000000000000000000000000000000000",
"000000000000000000000000000000000000000000000000000000      00000000000000000000000000000000000000000000000000000000000000000000",
"00000000000000000000000000000000000000000000000000000000   000000000000000000000000000000000000000000000000000000000000000000000",
"000000000000000000000000000000000000000000000000000000000  000000000000000000000000000000000000000000000000000000000000000000000",
"000000000000000000000000000000000000000000000000000000000  000000000000000000000000000000000000000000000000000000000000000000000",
"000000000000000000000000000000000000000000000000000000000   00000000000000000000000000000000000000000000000000000000000000000000",
"000000000000000000000000000000000000000000000000000000000     000000000000000000000000000000000000000000000000000000000000000000",
"00000000000000000000000000000000000000000000000000000000       00000000000000000000000000000000000000000000000000000000000000000",
"0000000000000000000000000000000000000000000000000000000         0000000000000000000000000000000000000000000000000000000000000000",
"0000000000000000000000000000000000000000000000000000000          000000000000000000000000000000000000000000000000000000000000000",
"0000000000000000000000000000000000000000000000000000000           00000000000000000000000000000000000000000000000000000000000000",
"000000000000000000000000000000000000000000000000000000              000000000000000000000000000000000000000000000000000000000000",
"00000000000000000000000000000000000000000000000000000                00000000000000000000000000000000000000000000000000000000000",
"00000000000000000000000000000000000000000000000000000                  000000000000000000000000000000000000000000000000000000000",
"0000000000000000000000000000000000000000000000000000   XX @@@X          00000000000000000000000000000000000000000000000000000000",
"000000000000000000000000000000000000000000000000000    X@ @@@@@@@@@       000000000000000000000000000000000000000000000000000000",
"000000000000000000000000000000000000000000000000000   .@@. @@@@@@@@@@@@ 00000000000000000000000000000000000000000000000000000000",
"00000000000000000000000000000000000000000000000000   @@@@@ @@@@@@@@@@@@ 00000000000000000000000000000000000000000000000000000000",
"0000000000000000000000000000000000000000000000000   @@@@@@ @&&&&&&&&@@+ 00000000000000000000000000000000000000000000000000000000",
"00000000000000000000000000000000000000000000000    @@@@&&& &&&&***&&&@@ 00000000000000000000000000000000000000000000000000000000",
"000000000000000000000000000000000000000000000000000 @&&&&& &*********&& 00000000000000000000000000000000000000000000000000000000",
"000000000000000000000000000000000000000000000000000 &&&**** *:::::::**& 00000000000000000000000000000000000000000000000000000000",
"0000000000000000000000000000000000000000000000000000 &**--- ::>:::::::: 00000000000000000000000000000000000000000000000000000000",
"0000000000000000000000000000000000000000000000000000 &*---: ::::::::::: 00000000000000000000000000000000000000000000000000000000",
"0000000000000000000000000000000000000000000000000000  --::: ::444444:: 000000000000000000000000000000000000000000000000000000000",
"0000000000000000000000000000000000000000000000000000  ;:::: <44444444: 000000000000000000000000000000000000000000000000000000000",
"00000000000000000000000000000000000000000000000000000 :::::$ 44444444, 000000000000000000000000000000000000000000000000000000000",
"000000000000000000000000000000000000000000000000000000 ::444 444444444 000000000000000000000000000000000000000000000000000000000",
"000000000000000000000000000000000000000000000000000000 :4444 466666644 000000000000000000000000000000000000000000000000000000000",
"000000000000000000000000000000000000000000000000000000 44444 466666664 000000000000000000000000000000000000000000000000000000000",
"0000000000000000000000000000000000000000000000000000000 4444 *69999966 000000000000000000000000000000000000000000000000000000000",
"0000000000000000000000000000000000000000000000000000000 4443& 89999996 000000000000000000000000000000000000000000000000000000000",
"00000000000000000000000000000000000000000000000000000000 5794 99999996@ 00000000000000000000000000000000000000000000000000000000",
"00000000000000000000000000000000000000000000000000000000 2994 49999944@@ 0000000000000000000000000000000000000000000000000000000",
"0000000000000000000000000000000000000000000000000000000 *9994 4444444*@X   00000000000000000000000000000000000000000000000000000",
"000000000000000000000000000000000000000000000000000000  **444 *1122**@    000000000000000000000000000000000000000000000000000000",
"00000000000000000000000000000000000000000000000000000    #***% =****   000000000000000000000000000000000000000000000000000000000",
"0000000000000000000000000000000000000000000000000000000   o*@O OO@.  00000000000000000000000000000000000000000000000000000000000",
"000000000000000000000000000000000000000000000000000000000           000000000000000000000000000000000000000000000000000000000000",
"000000000000000000000000000000000000000000000000000000000000     000000000000000000000000000000000000000000000000000000000000000",
"000000000000000000000000000000000000000000000000000000000000000 0000000000000000000000000000000000000000000000000000000000000000",
"00000000000000000000000000000000000000000000000000000000000000000000000000000000000000000000000000000000000000000000000000000000",
"00000000000000000000000000000000000000000000000000000000000000000000000000000000000000000000000000000000000000000000000000000000",
"00000000000000000000000000000000000000000000000000000000000000000000000000000000000000000000000000000000000000000000000000000000",
"00000000000000000000000000000000000000000000000000000000000000000000000000000000000000000000000000000000000000000000000000000000",
"00000000000000000000000000000000000000000000000000000000000000000000000000000000000000000000000000000000000000000000000000000000",
"00000000000000000000000000000000000000000000000000000000000000000000000000000000000000000000000000000000000000000000000000000000",
"00000000000000000000000000000000000000000000000000000000000000000000000000000000000000000000000000000000000000000000000000000000",
"00000000000000000000000000000000000000000000000000000000000000000000000000000000000000000000000000000000000000000000000000000000",
"00000000000000000000000000000000000000000000000000000000000000000000000000000000000000000000000000000000000000000000000000000000",
"00000000000000000000000000000000000000000000000000000000000000000000000000000000000000000000000000000000000000000000000000000000",
"00000000000000000000000000000000000000000000000000000000000000000000000000000000000000000000000000000000000000000000000000000000",
"00000000000000000000000000000000000000000000000000000000000000000000000000000000000000000000000000000000000000000000000000000000",
"00000000000000000000000000000000000000000000000000000000000000000000000000000000000000000000000000000000000000000000000000000000",
"00000000000000000000000000000000000000000000000000000000000000000000000000000000000000000000000000000000000000000000000000000000",
"00000000000000000000000000000000000000000000000000000000000000000000000000000000000000000000000000000000000000000000000000000000",
"00000000000000000000000000000000000000000000000000000000000000000000000000000000000000000000000000000000000000000000000000000000",
"00000000000000000000000000000000000000000000000000000000000000000000000000000000000000000000000000000000000000000000000000000000",
"00000000000000000000000000000000000000000000000000000000000000000000000000000000000000000000000000000000000000000000000000000000",
"00000000000000000000000000000000000000000000000000000000000000000000000000000000000000000000000000000000000000000000000000000000",
"00000000000000000000000000000000000000000000000000000000000000000000000000000000000000000000000000000000000000000000000000000000",
"00000000000000000000000000000000000000000000000000000000000000000000000000000000000000000000000000000000000000000000000000000000",
"00000000000000000000000000000000000000000000000000000000000000000000000000000000000000000000000000000000000000000000000000000000",
"00000000000000000000000000000000000000000000000000000000000000000000000000000000000000000000000000000000000000000000000000000000",
"00000000000000000000000000000000000000000000000000000000000000000000000000000000000000000000000000000000000000000000000000000000",
"00000000000000000000000000000000000000000000000000000000000000000000000000000000000000000000000000000000000000000000000000000000",
"00000000000000000000000000000000000000000000000000000000000000000000000000000000000000000000000000000000000000000000000000000000",
"00000000000000000000000000000000000000000000000000000000000000000000000000000000000000000000000000000000000000000000000000000000",
"00000000000000000000000000000000000000000000000000000000000000000000000000000000000000000000000000000000000000000000000000000000"
};
