/* XPM */
static char *_504_2ec55396deddc91a85cc3466caee29b7a29d455c190866dc8415ccce470e497c[] = {
/* columns rows colors chars-per-pixel */
"128 128 14 1 ",
"  c black",
". c #1B110D",
"X c #191717",
"o c #3D120D",
"O c #37241C",
"+ c #0E1228",
"@ c #322D2D",
"# c #5B1911",
"$ c #2D3359",
"% c #706767",
"& c #99915E",
"* c #BCB68D",
"= c #8D8EBC",
"- c None",
/* pixels */
"--------------------------------------------------------------------------------------------------------------------------------",
"--------------------------------------------------------------------------------------------------------------------------------",
"--------------------------------------------------------------------------------------------------------------------------------",
"--------------------------------------------------------------------------------------------------------------------------------",
"--------------------------------------------------------------------------------------------------------------------------------",
"--------------------------------------------------------------------------------------------------------------------------------",
"--------------------------------------------------------------------------------------------------------------------------------",
"--------------------------------------------------------------------------------------------------------------------------------",
"--------------------------------------------------------------------------------------------------------------------------------",
"--------------------------------------------------------------------------------------------------------------------------------",
"--------------------------------------------------------------------------------------------------------------------------------",
"--------------------------------------------------------------------------------------------------------------------------------",
"--------------------------------------------------------------------------------------------------------------------------------",
"--------------------------------------------------------------------------------------------------------------------------------",
"--------------------------------------------------------------------------------------------------------------------------------",
"--------------------------------------------------------------------------------------------------------------------------------",
"--------------------------------------------------------------------------------------------------------------------------------",
"--------------------------------------------------------------------------------------------------------------------------------",
"--------------------------------------------------------------------------------------------------------------------------------",
"--------------------------------------------------------------------------------------------------------------------------------",
"--------------------------------------------------------------------------------------------------------------------------------",
"--------------------------------------------------------------------------------------------------------------------------------",
"--------------------------------------------------------------------------------------------------------------------------------",
"--------------------------------------------------------------------------------------------------------------------------------",
"--------------------------------------------------------------------------------------------------------------------------------",
"--------------------------------------------------------------------------------------------------------------------------------",
"--------------------------------------------------------------------------------------------------------------------------------",
"--------------------------------------------------------------------------------------------------------------------------------",
"--------------------------------------------------------------------------------------------------------------------------------",
"--------------------------------------------------------------------------------------------------------------------------------",
"--------------------------------------------------------------------------------------------------------------------------------",
"--------------------------------------------------------------------------------------------------------------------------------",
"--------------------------------------------------------------------------------------------------------------------------------",
"--------------------------------------------------------------------------------------------------------------------------------",
"--------------------------------------------------------------------------------------------------------------------------------",
"--------------------------------------------------------------------------------------------------------------------------------",
"--------------------------------------------------------------------------------------------------------------------------------",
"--------------------------------------------------------------------------------------------------------------------------------",
"--------------------------------------------------------------------------------------------------------------------------------",
"--------------------------------------------------------------------------------------------------------------------------------",
"--------------------------------------------------------------------------------------------------------------------------------",
"--------------------------------------------------------------------------------------------------------------------------------",
"--------------------------------------------------------------------------------------------------------------------------------",
"--------------------------------------------------------------------------------------------------------------------------------",
"--------------------------------------------------------------------------------------------------------------------------------",
"--------------------------------------------------------------------------------------------------------------------------------",
"--------------------------------------------------------------------------------------------------------------------------------",
"--------------------------------------------------------------------------------------------------------------------------------",
"--------------------------------------------------------------------------------------------------------------------------------",
"--------------------------------------------------------------------------------------------------------------------------------",
"--------------------------------------------------------------------------------------------------------------------------------",
"--------------------------------------------------------------------------------------------------------------------------------",
"--------------------------------------------------------------------------------------------------------------------------------",
"--------------------------------------------------------------------------------------------------------------------------------",
"--------------------------------------------------------------------------------------------------------------------------------",
"--------------------------------------------------------------------------------------------------------------------------------",
"--------------------------------------------------------------------------------------------------------------------------------",
"--------------------------------------------------------------------------------------------------------------------------------",
"--------------------------------------------------------------------------------------------------------------------------------",
"--------------------------------------------------------------------------------------------------------------------------------",
"--------------------------------------------------------------------------------------------------------------------------------",
"--------------------------------------------------------------------------------------------------------------------------------",
"--------------------------------------------------------------------------------------------------------------------------------",
"--------------------------------------------------------------------------------------------------------------------------------",
"--------------------------------------------------------------------------------------------------------------------------------",
"--------------------------------------------------------------------------------------------------------------------------------",
"--------------------------------------------------------------------------------------------------------------------------------",
"-------------------------------------------------------------------------------------------------     --------------------------",
"------------------------------------------------------------------------------------------------ %%%%%  ------------------------",
"----------------------------------------------------------------------------------------------- %%%%% ** -----------------------",
"---------------------------------------------------------------------------------------------- %     *%%% ----------------------",
"--------------------------------------------------------------------------------------------- %% ********* ---------------------",
"--------------------------------------------------------------------------------------------- %  *  ***%%% ---------------------",
"--------------------------------------------------------------------------------------------- % * ** ******    -----$$$$$$$$----",
"----------------------------------------------------------------------------------------------  * ****   ** &&&$$$$$++++++$$----",
"---------------------------------------------------------------------------------------      - ** * ** = *   &++++++-----$+$----",
"----------------------------------------------------------------------------------     ######  &**  **    = +$---------$$++$----",
"--------------------------------------------------------------------------------  ############  &********  -+$--------$++++$----",
"------------------------------------------------------------------------------- ########### ##  &&&******* -+$-------$++--+$----",
"------------------------------------------------------------------------------ ######## ####               -+$$$$$$$$++---+$----",
"------------------------------------------------------------------------------ ########  #### &&&&&&&&&&&$$$$+++++++$-----+$----",
"----------------------------------------------------------------------------- ########ooo   #         $+++++++-----+$-----+$----",
"----------------------------------------------------------------------------- #######oooo --  -------+$-----+$-----+$-----+$----",
"----------------------------------------------------------------------------- ######ooo  ------------+$-----+$-----+$-----+$----",
"---------------------------------------------------------------------------- ######ooo --------------+$-----+$-----+$-----+$----",
"----------------------------------------------------------------------------    ##ooo ---------------+$-----+$-----+$-----+$----",
"---------------------------------------------------------------------------- OOO       --------------+$-----+$-----+$-----+$----",
"---------------------------------------------------------------------------- OOOOOOOOOO -------------+$-----+$-----+$-----+$----",
"---------------------------------------------------------------------------- .OOOOOOOOOO  -----------+$-----+$-----+$-----+$----",
"---------------------------------------------------------------------------- ..OOOOOOOOOOO ----------+$-----+$-----+$-----+$----",
"----------------------------------------------------------------------------- ...OOO  ..OOO ---------+$-----+$-----+$-----+$----",
"------------------------------------------------------------------------------   OOO -  OOO ---------+$-----+$-----+$-----+$----",
"--------------------------------------------------------------------------------- OOO -- OOO --------+$-----+$-----+$-----+$----",
"--------------------------------------------------------------------------------- OOO --- OO --------+$-----+$-----+$-----+$----",
"--------------------------------------------------------------------------------- .OOO -  .O --------+$-----+$-----+$-----+$----",
"---------------------------------------------------------------------------------- .OO - .OO --------+$-----+$-----+$-----+$----",
"---------------------------------------------------------------------------------- .OO - OO ---------+$-----+$-----+$-----++----",
"---------------------------------------------------------------------------------- .O   OOO ---------+$-----++-----+$-----------",
"---------------------------------------------------------------------------------- OO - OO ----------+$------------+$-----------",
"--------------------------------------------------------------------------------- OOO  .OO ----------+$------------+$-----------",
"--------------------------------------------------------------------------------- OO - .. -----------+$------------+$-----------",
"--------------------------------------------------------------------------------- OO -    -----------+$------------+$-----------",
"-------------------------------------------------------------------------------- .OO - & ------------+$------------++-----------",
"-------------------------------------------------------------------------------- .OO - & ------------++-------------------------",
"------------------------------------------------------------------------------- ..O XX *  XXXXXXXXXX----------------------------",
"-----------------------------------------------------------------------------XX     X ***   XXXXXXXXXXXXXXX---------------------",
"--------------------------------------------------------------------------XXXXXX & XX       XXXXXXXXXXXXXXXXX-------------------",
"------------------------------------------------------------------------XXXXXXXX & XXXXXXXXXXXXXXXXXXXXXXXXXXXX-----------------",
"-----------------------------------------------------------------------XXXXXXXXX *  XXXXXXXXXXXXXXXXXXXXXXXXXXXX----------------",
"-----------------------------------------------------------------------XXXXXXXX ***   XXXXXXXXXXXXXXXXXXXXXXXXXX----------------",
"-----------------------------------------------------------------------@XXXXXXX       XXXXXXXXXXXXXXXXXXXXXXXXX@----------------",
"------------------------------------------------------------------------@@XXXXXXXXXXXXXXXXXXXXXXXXXXXXXXXXXXX@@-----------------",
"--------------------------------------------------------------------------@@@XXXXXXXXXXXXXXXXXXXXXXXXXXXXX@@@-------------------",
"-----------------------------------------------------------------------------@@@@XXXXXXXXXXXXXXXXXXXX@@@@@----------------------",
"-----------------------------------------------------------------------------------@@@@XXXXXXXXX@@@@----------------------------",
"---------------------------------------------------------------------------------------@@@@@@@@@--------------------------------",
"--------------------------------------------------------------------------------------------------------------------------------",
"--------------------------------------------------------------------------------------------------------------------------------",
"--------------------------------------------------------------------------------------------------------------------------------",
"--------------------------------------------------------------------------------------------------------------------------------",
"--------------------------------------------------------------------------------------------------------------------------------",
"--------------------------------------------------------------------------------------------------------------------------------",
"--------------------------------------------------------------------------------------------------------------------------------",
"--------------------------------------------------------------------------------------------------------------------------------",
"--------------------------------------------------------------------------------------------------------------------------------",
"--------------------------------------------------------------------------------------------------------------------------------",
"--------------------------------------------------------------------------------------------------------------------------------",
"--------------------------------------------------------------------------------------------------------------------------------"
};
