/* XPM */
static char *_655_31350c3a2666b51b606cb0547f3366042a4384200ee37b4c6435206a0b6a9165[] = {
/* columns rows colors chars-per-pixel */
"128 128 14 1 ",
"  c black",
". c #1B110D",
"X c #191717",
"o c #3D120D",
"O c #37241C",
"+ c #0E1228",
"@ c #322D2D",
"# c #5B1911",
"$ c #2D3359",
"% c #706767",
"& c #99915E",
"* c #BCB68D",
"= c #8D8EBC",
"- c None",
/* pixels */
"--------------------------------------------------------------------------------------------------------------------------------",
"--------------------------------------------------------------------------------------------------------------------------------",
"--------------------------------------------------------------------------------------------------------------------------------",
"--------------------------------------------------------------------------------------------------------------------------------",
"--------------------------------------------------------------------------------------------------------------------------------",
"--------------------------------------------------------------------------------------------------------------------------------",
"--------------------------------------------------------------------------------------------------------------------------------",
"--------------------------------------------------------------------------------------------------------------------------------",
"--------------------------------------------------------------------------------------------------------------------------------",
"--------------------------------------------------------------------------------------------------------------------------------",
"--------------------------------------------------------------------------------------------------------------------------------",
"--------------------------------------------------------------------------------------------------------------------------------",
"--------------------------------------------------------------------------------------------------------------------------------",
"--------------------------------------------------------------------------------------------------------------------------------",
"--------------------------------------------------------------------------------------------------------------------------------",
"--------------------------------------------------------------------------------------------------------------------------------",
"--------------------------------------------------------------------------------------------------------------------------------",
"--------------------------------------------------------------------------------------------------------------------------------",
"--------------------------------------------------------------------------------------------------------------------------------",
"--------------------------------------------------------------------------------------------------------------------------------",
"--------------------------------------------------------------------------------------------------------------------------------",
"--------------------------------------------------------------------------------------------------------------------------------",
"--------------------------------------------------------------------------------------------------------------------------------",
"--------------------------------------------------------------------------------------------------------------------------------",
"--------------------------------------------------------------------------------------------------------------------------------",
"--------------------------------------------------------------------------------------------------------------------------------",
"--------------------------------------------------------------------------------------------------------------------------------",
"--------------------------------------------------------------------------------------------------------------------------------",
"--------------------------------------------------------------------------------------------------------------------------------",
"--------------------------------------------------------------------------------------------------------------------------------",
"--------------------------------------------------------------------------------------------------------------------------------",
"--------------------------------------------------------------------------------------------------------------------------------",
"--------------------------------------------------------------------------------------------------------------------------------",
"--------------------------------------------------------------------------------------------------------------------------------",
"--------------------------------------------------------------------------------------------------------------------------------",
"--------------------------------------------------------------------------------------------------------------------------------",
"--------------------------------------------------------------------------------------------------------------------------------",
"--------------------------------------------------------------------------------------------------------------------------------",
"--------------------------------------------------------------------------------------------------------------------------------",
"--------------------------------------------------------------------------------------------------------------------------------",
"--------------------------------------------------------------------------------------------------------------------------------",
"--------------------------------------------------------------------------------------------------------------------------------",
"--------------------------------------------------------------------------------------------------------------------------------",
"--------------------------------------------------------------------------------------------------------------------------------",
"--------------------------------------------------------------------------------------------------------------------------------",
"--------------------------------------------------------------------------------------------------------------------------------",
"--------------------------------------------------------------------------------------------------------------------------------",
"--------------------------------------------------------------------------------------------------------------------------------",
"--------------------------------------------------------------------------------------------------------------------------------",
"--------------------------------------------------------------------------------------------------------------------------------",
"--------------------------------------------------------------------------------------------------------------------------------",
"--------------------------------------------------------------------------------------------------------------------------------",
"--------------------------------------------------------------------------------------------------------------------------------",
"--------------------------------------------------------------------------------------------------------------------------------",
"--------------------------------------------------------------------------------------------------------------------------------",
"--------------------------------------------------------------------------------------------------------------------------------",
"--------------------------------------------------------------------------------------------------------------------------------",
"--------------------------------------------------------------------------------------------------------------------------------",
"--------------------------------------------------------------------------------------------------------------------------------",
"--------------------------------------------------------------------------------------------------------------------------------",
"--------------------------------------------------------------------------------------------------------------------------------",
"--------------------------------------------------------------------------------------------------------------------------------",
"--------------------------------------------------------------------------------------------------------------------------------",
"--------------------------------------------------------------------------------------------------------------------------------",
"--------------------------------------------------------------------------------------------------------------------------------",
"--------------------------------------------------------------------------------------------------------------------------------",
"--------------------------------------------------------------------------------------------------------------------------------",
"--------------------------------------------------------------------------------------------------------------------------------",
"------------------------------------------------------------------------------------------     ---------------------------------",
"----------------------------------------------------------------------------------------  %%%%% --------------------------------",
"--------------------------------------------------------------------------------------- ** %%%%% -------------------------------",
"-------------------------------------------------------------------------------------- %%%*     % ------------------------------",
"------------------------------------------------------------------------------------- ********* %% -----------------------------",
"------------------------------------------------------------------------------------- %%%***  *  % -----------------------------",
"------------------------------------------------------------------------------------ ****** ** * % -----------------------------",
"------------------------------------------------------------------------------------ **   **** *  --      ----------------------",
"------------------------------------------------------------------------------------  * = ** * **   ######     -----------------",
"------------------------------------------------------------------------------------ =    **  **&  ############  ---------------",
"-------------------------------------------------------------------------------------  ********& & ############## --------------",
"------------------------------------------------------------------------------------- *******&&& &&  #### ######## -------------",
"-------------------------------------------------------------------------------------   &&&&&&&  &&  #### ######## -------------",
"----------------------------------------------------------------------------------------  &&&  o   o ### oo######## ------------",
"----------------------------------------------------------------------$$$$$$$$-----          &&      ## oooo####### ------------",
"----------------------------------------------------------------------$$++++++$$$$$&&&&&&&&&&   ---       ooo###### ------------",
"----------------------------------------------------------------------$+$-----++++++&         ---- && ---- ooo###### -----------",
"----------------------------------------------------------------------$++$$---------$+----------  && ------ ooo##    -----------",
"----------------------------------------------------------------------$++++$--------$+--------  &&  ------       OOO -----------",
"----------------------------------------------------------------------$+--++$-------$+------  &&  ------- OOOOOOOOOO -----------",
"----------------------------------------------------------------------$+---++$$$$$$$$+---   &&  -------  OOOOOOOOOO. -----------",
"----------------------------------------------------------------------$+-----$+++++++$$$$&&&  -------- OOOOOOOOOOO.. -----------",
"----------------------------------------------------------------------$+-----$+-----+++++++$+-------- OOO..  OOO... ------------",
"----------------------------------------------------------------------$+-----$+-----$+-----$+-------- OOO  - OOO   -------------",
"----------------------------------------------------------------------$+-----$+-----$+-----$+------- OOO -- OOO ----------------",
"----------------------------------------------------------------------$+-----$+-----$+-----$+------- OO --- OOO ----------------",
"----------------------------------------------------------------------$+-----$+-----$+-----$+------- O.  - OOO. ----------------",
"----------------------------------------------------------------------$+-----$+-----$+-----$+------- OO. - OO. -----------------",
"----------------------------------------------------------------------$+-----$+-----$+-----$+-------- OO - OO. -----------------",
"----------------------------------------------------------------------$+-----$+-----$+-----$+-------- OOO   O. -----------------",
"----------------------------------------------------------------------$+-----$+-----$+-----$+--------- OO - OO -----------------",
"----------------------------------------------------------------------$+-----$+-----$+-----$+--------- OO.  OOO ----------------",
"----------------------------------------------------------------------$+-----$+-----$+-----$+---------- .. - OO ----------------",
"----------------------------------------------------------------------$+-----$+-----$+-----$+----------    - OO ----------------",
"----------------------------------------------------------------------$+-----$+-----$+-----$+----------- & - OO. ---------------",
"----------------------------------------------------------------------$+-----$+-----$+-----$+----------- & - OO. ---------------",
"----------------------------------------------------------------------$+-----$+-----$+-----$+XXXXXXXXXX  * X- O.. --------------",
"----------------------------------------------------------------------++-----$+-----$+XXXXX$+XXXXXXXX   *** X     --------------",
"-----------------------------------------------------------------------------$+---XX++XXXXX$+XXXXXXXX       XX & XXXX-----------",
"-----------------------------------------------------------------------------$+-XXXXXXXXXXX$+XXXXXXXXXXXXXXXXX & XXXXXX---------",
"-----------------------------------------------------------------------------$+XXXXXXXXXXXX$+XXXXXXXXXXXXXXXX  * XXXXXXX--------",
"-----------------------------------------------------------------------------$+XXXXXXXXXXXX$+XXXXXXXXXXXXXX   *** XXXXXX--------",
"-----------------------------------------------------------------------------$+@XXXXXXXXXXX$+XXXXXXXXXXXXXX       XXXXX@--------",
"-----------------------------------------------------------------------------++-@@XXXXXXXXX$+XXXXXXXXXXXXXXXXXXXXXXXX@@---------",
"----------------------------------------------------------------------------------@@@XXXXXX++XXXXXXXXXXXXXXXXXXXXX@@@-----------",
"-------------------------------------------------------------------------------------@@@@@XXXXXXXXXXXXXXXXXXXX@@@@--------------",
"-------------------------------------------------------------------------------------------@@@@XXXXXXXXX@@@@--------------------",
"-----------------------------------------------------------------------------------------------@@@@@@@@@------------------------",
"--------------------------------------------------------------------------------------------------------------------------------",
"--------------------------------------------------------------------------------------------------------------------------------",
"--------------------------------------------------------------------------------------------------------------------------------",
"--------------------------------------------------------------------------------------------------------------------------------",
"--------------------------------------------------------------------------------------------------------------------------------",
"--------------------------------------------------------------------------------------------------------------------------------",
"--------------------------------------------------------------------------------------------------------------------------------",
"--------------------------------------------------------------------------------------------------------------------------------",
"--------------------------------------------------------------------------------------------------------------------------------",
"--------------------------------------------------------------------------------------------------------------------------------",
"--------------------------------------------------------------------------------------------------------------------------------",
"--------------------------------------------------------------------------------------------------------------------------------"
};
