/* XPM */
static char *_3422_b0421d04d9052060dc8e73004f73770270f5725a92dc3f66be8cfd42d65a5192[] = {
/* columns rows colors chars-per-pixel */
"128 128 14 1 ",
"  c black",
". c #1B110D",
"X c #191717",
"o c #3D120D",
"O c #37241C",
"+ c #0E1228",
"@ c #322D2D",
"# c #5B1911",
"$ c #2D3359",
"% c #706767",
"& c #99915E",
"* c #BCB68D",
"= c #8D8EBC",
"- c None",
/* pixels */
"--------------------------------------------------------------------------------------------------------------------------------",
"--------------------------------------------------------------------------------------------------------------------------------",
"--------------------------------------------------------------------------------------------------------------------------------",
"--------------------------------------------------------------------------------------------------------------------------------",
"--------------------------------------------------------------------------------------------------------------------------------",
"--------------------------------------------------------------------------------------------------------------------------------",
"--------------------------------------------------------------------------------------------------------------------------------",
"--------------------------------------------------------------------------------------------------------------------------------",
"--------------------------------------------------------------------------------------------------------------------------------",
"--------------------------------------------------------------------------------------------------------------------------------",
"--------------------------------------------------------------------------------------------------------------------------------",
"--------------------------------------------------------------------------------------------------------------------------------",
"--------------------------------------------------------------------------------------------------------------------------------",
"--------------------------------------------------------------------------------------------------------------------------------",
"--------------------------------------------------------------------------------------------------------------------------------",
"--------------------------------------------------------------------------------------------------------------------------------",
"--------------------------------------------------------------------------------------------------------------------------------",
"--------------------------------------------------------------------------------------------------------------------------------",
"--------------------------------------------------------------------------------------------------------------------------------",
"--------------------------------------------------------------------------------------------------------------------------------",
"--------------------------------------------------------------------------------------------------------------------------------",
"--------------------------------------------------------------------------------------------------------------------------------",
"--------------------------------------------------------------------------------------------------------------------------------",
"--------------------------------------------------------------------------------------------------------------------------------",
"--------------------------------------------------------------------------------------------------------------------------------",
"--------------------------------------------------------------------------------------------------------------------------------",
"--------------------------------------------------------------------------------------------------------------------------------",
"--------------------------------------------------------------------------------------------------------------------------------",
"--------------------------------------------------------------------------------------------------------------------------------",
"--------------------------------------------------------------------------------------------------------------------------------",
"--------------------------------------------------------------------------------------------------------------------------------",
"--------------------------------------------------------------------------------------------------------------------------------",
"--------------------------------------------------------------------------------------------------------------------------------",
"--------------------------------------------------------------------------------------------------------------------------------",
"--------------------------------------------------------------------------------------------------------------------------------",
"--------------------------------------------------------------------------------------------------------------------------------",
"--------------------------------------------------------------------------------------------------------------------------------",
"--------------------------------------------------------------------------------------------------------------------------------",
"--------------------------------------------------------------------------------------------------------------------------------",
"--------------------------------------------------------------------------------------------------------------------------------",
"--------------------------------------------------------------------------------------------------------------------------------",
"--------------------------------------------------------------------------------------------------------------------------------",
"--------------------------------------------------------------------------------------------------------------------------------",
"--------------------------------------------------------------------------------------------------------------------------------",
"--------------------------------------------------------------------------------------------------------------------------------",
"--------------------------------------------------------------------------------------------------------------------------------",
"--------------------------------------------------------------------------------------------------------------------------------",
"--------------------------------------------------------------------------------------------------------------------------------",
"--------------------------------------------------------------------------------------------------------------------------------",
"--------------------------------------------------------------------------------------------------------------------------------",
"--------------------------------------------------------------------------------------------------------------------------------",
"--------------------------------------------------------------------------------------------------------------------------------",
"--------------------------------------------------------------------------------------------------------------------------------",
"--------------------------------------------------------------------------------------------------------------------------------",
"--------------------------------------------------------------------------------------------------------------------------------",
"--------------------------------------------------------------------------------------------------------------------------------",
"--------------------------------------------------------------------------------------------------------------------------------",
"--------------------------------------------------------------------------------------------------------------------------------",
"--------------------------------------------------------------------------------------------------------------------------------",
"--------------------------------------------------------------------------------------------------------------------------------",
"--------------------------------------------------------------------------------------------------------------------------------",
"--------------------------------------------------------------------------------------------------------------------------------",
"--------------------------------------------------------------------------------------------------------------------------------",
"--------------------------------------------------------------------------------------------------------------------------------",
"--------------------------------------------------------------------------------------------------------------------------------",
"--------------------------------------------------------------------------------------------------------------------------------",
"--------------------------------------------------------------------------------------------------------------------------------",
"--------------------------------------------------------------------------------------------------------------------------------",
"------------------------------------------------------------------------------------     ---------------------------------------",
"----------------------------------------------------------------------------------  %%%%% --------------------------------------",
"--------------------------------------------------------------------------------- ** %%%%% -------------------------------------",
"-------------------------------------------------------------------------------- %%%*     % ------------------------------------",
"------------------------------------------------------------------------------- ********* %% -----------------------------------",
"------------------------------------------------------------------------------- %%%***  *  % -----------------------------------",
"------------------------------------------------------------------------------ ****** ** * % -----------------------------------",
"------------------------------------------------------------------------------ **   **** *  --      ----------------------------",
"------------------------------------------------------------------------------  * = ** * **   ######     -----------------------",
"------------------------------------------------------------------------------ =    **  **&  ############  ---------------------",
"-------------------------------------------------------------------------------  ********& & ############## --------------------",
"------------------------------------------------------------------------------- *******&&& && ##### ######## -------------------",
"-------------------------------------------------------------------------------   &&&&&&&  &&  #### ######## -------------------",
"----------------------------------------------------------------------------------  &&&  -   o# #oo o######## ------------------",
"----------------------------------------------------------------------$$$$$$$$-----        &    #oo oo####### ------------------",
"----------------------------------------------------------------------$$++++++$$$$$&&&&&&&&& --     ooo###### ------------------",
"----------------------------------------------------------------------$+$-----++++++&       ---- & - ooo###### -----------------",
"----------------------------------------------------------------------$++$$---------$+---------- & -- ooo##    -----------------",
"----------------------------------------------------------------------$++++$--------$+--------  && -       OOO -----------------",
"----------------------------------------------------------------------$+--++$-------$+------  &&  - OOOOOOOOOO -----------------",
"----------------------------------------------------------------------$+---++$$$$$$$$+---   &&  -  OOOOOOOOOO. -----------------",
"----------------------------------------------------------------------$+-----$+++++++$$$$&&&  -- OOOOOOOOOOO.. -----------------",
"----------------------------------------------------------------------$+-----$+-----+++++++$+-- OOO..  OOO... ------------------",
"----------------------------------------------------------------------$+-----$+-----$+-----$+-- OOO  - OOO   -------------------",
"----------------------------------------------------------------------$+-----$+-----$+-----$+- OOO -- OOO ----------------------",
"----------------------------------------------------------------------$+-----$+-----$+-----$+- OO --- OOO ----------------------",
"----------------------------------------------------------------------$+-----$+-----$+-----$+- O.  - OOO. ----------------------",
"----------------------------------------------------------------------$+-----$+-----$+-----$+- OO. - OO. -----------------------",
"----------------------------------------------------------------------$+-----$+-----$+-----$+-- OO - OO. -----------------------",
"----------------------------------------------------------------------$+-----$+-----$+-----$+-- OOO   O. -----------------------",
"----------------------------------------------------------------------$+-----$+-----$+-----$+--- OO - OO -----------------------",
"----------------------------------------------------------------------$+-----$+-----$+-----$+--- OO.  OOO ----------------------",
"----------------------------------------------------------------------$+-----$+-----$+-----$+---- .. - OO ----------------------",
"----------------------------------------------------------------------$+-----$+-----$+-----$+----    - OO ----------------------",
"----------------------------------------------------------------------$+-----$+-----$+-----$+----- & - OO. ---------------------",
"----------------------------------------------------------------------$+-----$+-----$+-----$+----- & - OO. ---------------------",
"----------------------------------------------------------------------$+-----$+-----$+--XXX$+XXXX  * XX O.. --------------------",
"----------------------------------------------------------------------++-----$+--XXX$+XXXXX$+XX   *** X     XXX-----------------",
"-----------------------------------------------------------------------------$+XXXXX++XXXXX$+XX       XX & XXXXXXX--------------",
"-----------------------------------------------------------------------------$+XXXXXXXXXXXX$+XXXXXXXXXXX & XXXXXXXXX------------",
"----------------------------------------------------------------------------X$+XXXXXXXXXXXX$+XXXXXXXXXX  * XXXXXXXXXX-----------",
"----------------------------------------------------------------------------X$+XXXXXXXXXXXX$+XXXXXXXX   *** XXXXXXXXX-----------",
"----------------------------------------------------------------------------@$+XXXXXXXXXXXX$+XXXXXXXX       XXXXXXXX@-----------",
"-----------------------------------------------------------------------------++XXXXXXXXXXXX$+XXXXXXXXXXXXXXXXXXXXX@@------------",
"-------------------------------------------------------------------------------@@@XXXXXXXXX++XXXXXXXXXXXXXXXXXX@@@--------------",
"----------------------------------------------------------------------------------@@@@@XXXXXXXXXXXXXXXXXXXX@@@@-----------------",
"----------------------------------------------------------------------------------------@@@@XXXXXXXXX@@@@-----------------------",
"--------------------------------------------------------------------------------------------@@@@@@@@@---------------------------",
"--------------------------------------------------------------------------------------------------------------------------------",
"--------------------------------------------------------------------------------------------------------------------------------",
"--------------------------------------------------------------------------------------------------------------------------------",
"--------------------------------------------------------------------------------------------------------------------------------",
"--------------------------------------------------------------------------------------------------------------------------------",
"--------------------------------------------------------------------------------------------------------------------------------",
"--------------------------------------------------------------------------------------------------------------------------------",
"--------------------------------------------------------------------------------------------------------------------------------",
"--------------------------------------------------------------------------------------------------------------------------------",
"--------------------------------------------------------------------------------------------------------------------------------",
"--------------------------------------------------------------------------------------------------------------------------------",
"--------------------------------------------------------------------------------------------------------------------------------"
};
