/* XPM */
static const char *bWFuMDY2[] = {
/* columns rows colors chars-per-pixel */
"128 128 14 1 ",
"  c black",
". c #1B110D",
"X c #191717",
"o c #3D120D",
"O c #37241C",
"+ c #0E1228",
"@ c #322D2D",
"# c #5B1911",
"$ c #2D3359",
"% c #706767",
"& c #99915E",
"* c #BCB68D",
"= c #8D8EBC",
"- c None",
/* pixels */
"--------------------------------------------------------------------------------------------------------------------------------",
"--------------------------------------------------------------------------------------------------------------------------------",
"--------------------------------------------------------------------------------------------------------------------------------",
"--------------------------------------------------------------------------------------------------------------------------------",
"--------------------------------------------------------------------------------------------------------------------------------",
"--------------------------------------------------------------------------------------------------------------------------------",
"--------------------------------------------------------------------------------------------------------------------------------",
"--------------------------------------------------------------------------------------------------------------------------------",
"--------------------------------------------------------------------------------------------------------------------------------",
"--------------------------------------------------------------------------------------------------------------------------------",
"--------------------------------------------------------------------------------------------------------------------------------",
"--------------------------------------------------------------------------------------------------------------------------------",
"--------------------------------------------------------------------------------------------------------------------------------",
"--------------------------------------------------------------------------------------------------------------------------------",
"--------------------------------------------------------------------------------------------------------------------------------",
"--------------------------------------------------------------------------------------------------------------------------------",
"--------------------------------------------------------------------------------------------------------------------------------",
"--------------------------------------------------------------------------------------------------------------------------------",
"--------------------------------------------------------------------------------------------------------------------------------",
"--------------------------------------------------------------------------------------------------------------------------------",
"--------------------------------------------------------------------------------------------------------------------------------",
"--------------------------------------------------------------------------------------------------------------------------------",
"--------------------------------------------------------------------------------------------------------------------------------",
"--------------------------------------------------------------------------------------------------------------------------------",
"--------------------------------------------------------------------------------------------------------------------------------",
"--------------------------------------------------------------------------------------------------------------------------------",
"--------------------------------------------------------------------------------------------------------------------------------",
"--------------------------------------------------------------------------------------------------------------------------------",
"--------------------------------------------------------------------------------------------------------------------------------",
"--------------------------------------------------------------------------------------------------------------------------------",
"--------------------------------------------------------------------------------------------------------------------------------",
"--------------------------------------------------------------------------------------------------------------------------------",
"--------------------------------------------------------------------------------------------------------------------------------",
"--------------------------------------------------------------------------------------------------------------------------------",
"--------------------------------------------------------------------------------------------------------------------------------",
"--------------------------------------------------------------------------------------------------------------------------------",
"--------------------------------------------------------------------------------------------------------------------------------",
"--------------------------------------------------------------------------------------------------------------------------------",
"--------------------------------------------------------------------------------------------------------------------------------",
"--------------------------------------------------------------------------------------------------------------------------------",
"--------------------------------------------------------------------------------------------------------------------------------",
"--------------------------------------------------------------------------------------------------------------------------------",
"--------------------------------------------------------------------------------------------------------------------------------",
"--------------------------------------------------------------------------------------------------------------------------------",
"--------------------------------------------------------------------------------------------------------------------------------",
"--------------------------------------------------------------------------------------------------------------------------------",
"--------------------------------------------------------------------------------------------------------------------------------",
"--------------------------------------------------------------------------------------------------------------------------------",
"--------------------------------------------------------------------------------------------------------------------------------",
"--------------------------------------------------------------------------------------------------------------------------------",
"--------------------------------------------------------------------------------------------------------------------------------",
"--------------------------------------------------------------------------------------------------------------------------------",
"--------------------------------------------------------------------------------------------------------------------------------",
"--------------------------------------------------------------------------------------------------------------------------------",
"--------------------------------------------------------------------------------------------------------------------------------",
"--------------------------------------------------------------------------------------------------------------------------------",
"--------------------------------------------------------------------------------------------------------------------------------",
"--------------------------------------------------------------------------------------------------------------------------------",
"--------------------------------------------------------------------------------------------------------------------------------",
"--------------------------------------------------------------------------------------------------------------------------------",
"--------------------------------------------------------------------------------------------------------------------------------",
"--------------------------------------------------------------------------------------------------------------------------------",
"--------------------------------------------------------------------------------------------------------------------------------",
"--------------------------------------------------------------------------------------------------------------------------------",
"--------------------------------------------------------------------------------------------------------------------------------",
"--------------------------------------------------------------------------------------------------------------------------------",
"--------------------------------------------------------------------------------------------------------------------------------",
"--------------------------------------------------------------------------------------------------------------------------------",
"------------------------------------------------------------------------------------     ---------------------------------------",
"----------------------------------------------------------------------------------  %%%%% --------------------------------------",
"--------------------------------------------------------------------------------- ** %%%%% -------------------------------------",
"-------------------------------------------------------------------------------- %%%*     % ------------------------------------",
"------------------------------------------------------------------------------- ********* %% -----------------------------------",
"------------------------------------------------------------------------------- %%%***  *  % -----------------------------------",
"------------------------------------------------------------------------------ ****** ** * % -----------------------------------",
"------------------------------------------------------------------------------ **   **** *  --      ----------------------------",
"------------------------------------------------------------------------------  * = ** * **   ######     -----------------------",
"------------------------------------------------------------------------------ =    **  **&  ############  ---------------------",
"-------------------------------------------------------------------------------  ********& & ############## --------------------",
"------------------------------------------------------------------------------- *******&&& &&  #### ######## -------------------",
"-------------------------------------------------------------------------------   &&&&&&&  &&  #### ######## -------------------",
"----------------------------------------------------------------------------------  &&&  o   o ### oo######## ------------------",
"----------------------------------------------------------------$$$$$$$$-----          &&      ## oooo####### ------------------",
"----------------------------------------------------------------$$++++++$$$$$&&&&&&&&&&   ---       ooo###### ------------------",
"----------------------------------------------------------------$+$-----++++++&         ---- && ---- ooo###### -----------------",
"----------------------------------------------------------------$++$$---------$+----------  && ------ ooo##    -----------------",
"----------------------------------------------------------------$++++$--------$+--------  &&  ------       OOO -----------------",
"----------------------------------------------------------------$+--++$-------$+------  &&  ------- OOOOOOOOOO -----------------",
"----------------------------------------------------------------$+---++$$$$$$$$+---   &&  -------  OOOOOOOOOO. -----------------",
"----------------------------------------------------------------$+-----$+++++++$$$$&&&  -------- OOOOOOOOOOO.. -----------------",
"----------------------------------------------------------------$+-----$+-----+++++++$+-------- OOO..  OOO... ------------------",
"----------------------------------------------------------------$+-----$+-----$+-----$+-------- OOO  - OOO   -------------------",
"----------------------------------------------------------------$+-----$+-----$+-----$+------- OOO -- OOO ----------------------",
"----------------------------------------------------------------$+-----$+-----$+-----$+------- OO --- OOO ----------------------",
"----------------------------------------------------------------$+-----$+-----$+-----$+------- O.  - OOO. ----------------------",
"----------------------------------------------------------------$+-----$+-----$+-----$+------- OO. - OO. -----------------------",
"----------------------------------------------------------------$+-----$+-----$+-----$+-------- OO - OO. -----------------------",
"----------------------------------------------------------------$+-----$+-----$+-----$+-------- OOO   O. -----------------------",
"----------------------------------------------------------------$+-----$+-----$+-----$+--------- OO - OO -----------------------",
"----------------------------------------------------------------$+-----$+-----$+-----$+--------- OO.  OOO ----------------------",
"----------------------------------------------------------------$+-----$+-----$+-----$+---------- .. - OO ----------------------",
"----------------------------------------------------------------$+-----$+-----$+-----$+----------    - OO ----------------------",
"----------------------------------------------------------------$+-----$+-----$+-----$+----------- & - OO. ---------------------",
"----------------------------------------------------------------$+-----$+-----$+-----$+----------- & - OO. ---------------------",
"----------------------------------------------------------------$+-----$+-----$+-----$+-XXXXXXXXX  * XX O.. --------------------",
"----------------------------------------------------------------++-----$+-----$+-XXXX$+XXXXXXXX   *** X     XXX-----------------",
"-----------------------------------------------------------------------$+-----++XXXXX$+XXXXXXXX       XX & XXXXXXX--------------",
"-----------------------------------------------------------------------$+----XXXXXXXX$+XXXXXXXXXXXXXXXXX & XXXXXXXXX------------",
"-----------------------------------------------------------------------$+---XXXXXXXXX$+XXXXXXXXXXXXXXXX  * XXXXXXXXXX-----------",
"-----------------------------------------------------------------------$+---XXXXXXXXX$+XXXXXXXXXXXXXX   *** XXXXXXXXX-----------",
"-----------------------------------------------------------------------$+---@XXXXXXXX$+XXXXXXXXXXXXXX       XXXXXXXX@-----------",
"-----------------------------------------------------------------------++----@@XXXXXX$+XXXXXXXXXXXXXXXXXXXXXXXXXXX@@------------",
"-------------------------------------------------------------------------------@@@XXX++XXXXXXXXXXXXXXXXXXXXXXXX@@@--------------",
"----------------------------------------------------------------------------------@@@@@XXXXXXXXXXXXXXXXXXXX@@@@-----------------",
"----------------------------------------------------------------------------------------@@@@XXXXXXXXX@@@@-----------------------",
"--------------------------------------------------------------------------------------------@@@@@@@@@---------------------------",
"--------------------------------------------------------------------------------------------------------------------------------",
"--------------------------------------------------------------------------------------------------------------------------------",
"--------------------------------------------------------------------------------------------------------------------------------",
"--------------------------------------------------------------------------------------------------------------------------------",
"--------------------------------------------------------------------------------------------------------------------------------",
"--------------------------------------------------------------------------------------------------------------------------------",
"--------------------------------------------------------------------------------------------------------------------------------",
"--------------------------------------------------------------------------------------------------------------------------------",
"--------------------------------------------------------------------------------------------------------------------------------",
"--------------------------------------------------------------------------------------------------------------------------------",
"--------------------------------------------------------------------------------------------------------------------------------",
"--------------------------------------------------------------------------------------------------------------------------------"
};
