/* XPM */
static char *_014_1835f9f9196377a59d027125a6fc92f67fe9d0db5917e39cc69b2ed6e4b83793[] = {
/* columns rows colors chars-per-pixel */
"128 128 14 1 ",
"  c black",
". c #1B110D",
"X c #191717",
"o c #3D120D",
"O c #37241C",
"+ c #0E1228",
"@ c #322D2D",
"# c #5B1911",
"$ c #2D3359",
"% c #706767",
"& c #99915E",
"* c #BCB68D",
"= c #8D8EBC",
"- c None",
/* pixels */
"--------------------------------------------------------------------------------------------------------------------------------",
"--------------------------------------------------------------------------------------------------------------------------------",
"--------------------------------------------------------------------------------------------------------------------------------",
"--------------------------------------------------------------------------------------------------------------------------------",
"--------------------------------------------------------------------------------------------------------------------------------",
"--------------------------------------------------------------------------------------------------------------------------------",
"--------------------------------------------------------------------------------------------------------------------------------",
"--------------------------------------------------------------------------------------------------------------------------------",
"--------------------------------------------------------------------------------------------------------------------------------",
"--------------------------------------------------------------------------------------------------------------------------------",
"--------------------------------------------------------------------------------------------------------------------------------",
"--------------------------------------------------------------------------------------------------------------------------------",
"--------------------------------------------------------------------------------------------------------------------------------",
"--------------------------------------------------------------------------------------------------------------------------------",
"--------------------------------------------------------------------------------------------------------------------------------",
"--------------------------------------------------------------------------------------------------------------------------------",
"--------------------------------------------------------------------------------------------------------------------------------",
"--------------------------------------------------------------------------------------------------------------------------------",
"--------------------------------------------------------------------------------------------------------------------------------",
"--------------------------------------------------------------------------------------------------------------------------------",
"--------------------------------------------------------------------------------------------------------------------------------",
"--------------------------------------------------------------------------------------------------------------------------------",
"--------------------------------------------------------------------------------------------------------------------------------",
"--------------------------------------------------------------------------------------------------------------------------------",
"--------------------------------------------------------------------------------------------------------------------------------",
"--------------------------------------------------------------------------------------------------------------------------------",
"--------------------------------------------------------------------------------------------------------------------------------",
"--------------------------------------------------------------------------------------------------------------------------------",
"--------------------------------------------------------------------------------------------------------------------------------",
"--------------------------------------------------------------------------------------------------------------------------------",
"--------------------------------------------------------------------------------------------------------------------------------",
"--------------------------------------------------------------------------------------------------------------------------------",
"--------------------------------------------------------------------------------------------------------------------------------",
"--------------------------------------------------------------------------------------------------------------------------------",
"--------------------------------------------------------------------------------------------------------------------------------",
"--------------------------------------------------------------------------------------------------------------------------------",
"--------------------------------------------------------------------------------------------------------------------------------",
"--------------------------------------------------------------------------------------------------------------------------------",
"--------------------------------------------------------------------------------------------------------------------------------",
"--------------------------------------------------------------------------------------------------------------------------------",
"--------------------------------------------------------------------------------------------------------------------------------",
"--------------------------------------------------------------------------------------------------------------------------------",
"--------------------------------------------------------------------------------------------------------------------------------",
"--------------------------------------------------------------------------------------------------------------------------------",
"--------------------------------------------------------------------------------------------------------------------------------",
"--------------------------------------------------------------------------------------------------------------------------------",
"--------------------------------------------------------------------------------------------------------------------------------",
"--------------------------------------------------------------------------------------------------------------------------------",
"--------------------------------------------------------------------------------------------------------------------------------",
"--------------------------------------------------------------------------------------------------------------------------------",
"--------------------------------------------------------------------------------------------------------------------------------",
"--------------------------------------------------------------------------------------------------------------------------------",
"--------------------------------------------------------------------------------------------------------------------------------",
"--------------------------------------------------------------------------------------------------------------------------------",
"--------------------------------------------------------------------------------------------------------------------------------",
"--------------------------------------------------------------------------------------------------------------------------------",
"--------------------------------------------------------------------------------------------------------------------------------",
"--------------------------------------------------------------------------------------------------------------------------------",
"--------------------------------------------------------------------------------------------------------------------------------",
"--------------------------------------------------------------------------------------------------------------------------------",
"--------------------------------------------------------------------------------------------------------------------------------",
"--------------------------------------------------------------------------------------------------------------------------------",
"--------------------------------------------------------------------------------------------------------------------------------",
"--------------------------------------------------------------------------------------------------------------------------------",
"--------------------------------------------------------------------------------------------------------------------------------",
"--------------------------------------------------------------------------------------------------------------------------------",
"--------------------------------------------------------------------------------------------------------------------------------",
"--------------------------------------------------------------------------------------------------------------------------------",
"------------------------------------------------------------------     ---------------------------------------------------------",
"----------------------------------------------------------------  %%%%% --------------------------------------------------------",
"--------------------------------------------------------------- ** %%%%% -------------------------------------------------------",
"-------------------------------------------------------------- %%%*     % ------------------------------------------------------",
"------------------------------------------------------------- ********* %% -----------------------------------------------------",
"------------------------------------------------------------- %%%***  *  % -----------------------------------------------------",
"------------------------------------------------------------ ****** ** * % -----------------------------------------------------",
"------------------------------------------------------------ **   **** *  --      ----------------------------------------------",
"------------------------------------------------------------  * = ** * **   ######     -----------------------------------------",
"------------------------------------------------------------ =    **  **&  ############  ---------------------------------------",
"-------------------------------------------------------------  ********& & ############## --------------------------------------",
"------------------------------------------------------------- *******&&& && ##### ######## -------------------------------------",
"-------------------------------------------------------------   &&&&&&&  &&  #### ######## -------------------------------------",
"----------------------------------------------------------------  &&&  -   o# #oo o######## ------------------------------------",
"----------------------------------------------------$$$$$$$$-----        &    #oo oo####### ------------------------------------",
"----------------------------------------------------$$++++++$$$$$&&&&&&&&& --     ooo###### ------------------------------------",
"----------------------------------------------------$+$-----++++++&       ---- & - ooo###### -----------------------------------",
"----------------------------------------------------$++$$---------$+---------- & -- ooo##    -----------------------------------",
"----------------------------------------------------$++++$--------$+--------  && -       OOO -----------------------------------",
"----------------------------------------------------$+--++$-------$+------  &&  - OOOOOOOOOO -----------------------------------",
"----------------------------------------------------$+---++$$$$$$$$+---   &&  -  OOOOOOOOOO. -----------------------------------",
"----------------------------------------------------$+-----$+++++++$$$$&&&  -- OOOOOOOOOOO.. -----------------------------------",
"----------------------------------------------------$+-----$+-----+++++++$+-- OOO..  OOO... ------------------------------------",
"----------------------------------------------------$+-----$+-----$+-----$+-- OOO  - OOO   -------------------------------------",
"----------------------------------------------------$+-----$+-----$+-----$+- OOO -- OOO ----------------------------------------",
"----------------------------------------------------$+-----$+-----$+-----$+- OO --- OOO ----------------------------------------",
"----------------------------------------------------$+-----$+-----$+-----$+- O.  - OOO. ----------------------------------------",
"----------------------------------------------------$+-----$+-----$+-----$+- OO. - OO. -----------------------------------------",
"----------------------------------------------------$+-----$+-----$+-----$+-- OO - OO. -----------------------------------------",
"----------------------------------------------------$+-----$+-----$+-----$+-- OOO   O. -----------------------------------------",
"----------------------------------------------------$+-----$+-----$+-----$+--- OO - OO -----------------------------------------",
"----------------------------------------------------$+-----$+-----$+-----$+--- OO.  OOO ----------------------------------------",
"----------------------------------------------------$+-----$+-----$+-----$+---- .. - OO ----------------------------------------",
"----------------------------------------------------$+-----$+-----$+-----$+----    - OO ----------------------------------------",
"----------------------------------------------------$+-----$+-----$+-----$+----- & - OO. ---------------------------------------",
"----------------------------------------------------$+-----$+-----$+-----$+----- & - OO. ---------------------------------------",
"----------------------------------------------------$+-----$+-----$+-XXXX$+XXXX  * XX O.. --------------------------------------",
"----------------------------------------------------++-----$+-XXXX$+XXXXX$+XX   *** X     XX------------------------------------",
"-----------------------------------------------------------$+XXXXX++XXXXX$+XX       XX & XXXXXX---------------------------------",
"----------------------------------------------------------X$+XXXXXXXXXXXX$+XXXXXXXXXXX & XXXXXXXX-------------------------------",
"---------------------------------------------------------XX$+XXXXXXXXXXXX$+XXXXXXXXXX  * XXXXXXXXX------------------------------",
"---------------------------------------------------------XX$+XXXXXXXXXXXX$+XXXXXXXX   *** XXXXXXXX------------------------------",
"---------------------------------------------------------@X$+XXXXXXXXXXXX$+XXXXXXXX       XXXXXXX@------------------------------",
"----------------------------------------------------------@++XXXXXXXXXXXX$+XXXXXXXXXXXXXXXXXXXX@@-------------------------------",
"------------------------------------------------------------@@@XXXXXXXXXX++XXXXXXXXXXXXXXXXX@@@---------------------------------",
"---------------------------------------------------------------@@@@@XXXXXXXXXXXXXXXXXXXX@@@@------------------------------------",
"---------------------------------------------------------------------@@@@XXXXXXXXX@@@@------------------------------------------",
"-------------------------------------------------------------------------@@@@@@@@@----------------------------------------------",
"--------------------------------------------------------------------------------------------------------------------------------",
"--------------------------------------------------------------------------------------------------------------------------------",
"--------------------------------------------------------------------------------------------------------------------------------",
"--------------------------------------------------------------------------------------------------------------------------------",
"--------------------------------------------------------------------------------------------------------------------------------",
"--------------------------------------------------------------------------------------------------------------------------------",
"--------------------------------------------------------------------------------------------------------------------------------",
"--------------------------------------------------------------------------------------------------------------------------------",
"--------------------------------------------------------------------------------------------------------------------------------",
"--------------------------------------------------------------------------------------------------------------------------------",
"--------------------------------------------------------------------------------------------------------------------------------",
"--------------------------------------------------------------------------------------------------------------------------------"
};
