/* XPM */
static char *_1912_131d0edebca446d64d3e3095b2b8be108289e0f48949cb7ce72b9823197a37f7[] = {
/* columns rows colors chars-per-pixel */
"128 128 14 1 ",
"  c black",
". c #1B110D",
"X c #191717",
"o c #3D120D",
"O c #37241C",
"+ c #0E1228",
"@ c #322D2D",
"# c #5B1911",
"$ c #2D3359",
"% c #706767",
"& c #99915E",
"* c #BCB68D",
"= c #8D8EBC",
"- c None",
/* pixels */
"--------------------------------------------------------------------------------------------------------------------------------",
"--------------------------------------------------------------------------------------------------------------------------------",
"--------------------------------------------------------------------------------------------------------------------------------",
"--------------------------------------------------------------------------------------------------------------------------------",
"--------------------------------------------------------------------------------------------------------------------------------",
"--------------------------------------------------------------------------------------------------------------------------------",
"--------------------------------------------------------------------------------------------------------------------------------",
"--------------------------------------------------------------------------------------------------------------------------------",
"--------------------------------------------------------------------------------------------------------------------------------",
"--------------------------------------------------------------------------------------------------------------------------------",
"--------------------------------------------------------------------------------------------------------------------------------",
"--------------------------------------------------------------------------------------------------------------------------------",
"--------------------------------------------------------------------------------------------------------------------------------",
"--------------------------------------------------------------------------------------------------------------------------------",
"--------------------------------------------------------------------------------------------------------------------------------",
"--------------------------------------------------------------------------------------------------------------------------------",
"--------------------------------------------------------------------------------------------------------------------------------",
"--------------------------------------------------------------------------------------------------------------------------------",
"--------------------------------------------------------------------------------------------------------------------------------",
"--------------------------------------------------------------------------------------------------------------------------------",
"--------------------------------------------------------------------------------------------------------------------------------",
"--------------------------------------------------------------------------------------------------------------------------------",
"--------------------------------------------------------------------------------------------------------------------------------",
"--------------------------------------------------------------------------------------------------------------------------------",
"--------------------------------------------------------------------------------------------------------------------------------",
"--------------------------------------------------------------------------------------------------------------------------------",
"--------------------------------------------------------------------------------------------------------------------------------",
"--------------------------------------------------------------------------------------------------------------------------------",
"--------------------------------------------------------------------------------------------------------------------------------",
"--------------------------------------------------------------------------------------------------------------------------------",
"--------------------------------------------------------------------------------------------------------------------------------",
"--------------------------------------------------------------------------------------------------------------------------------",
"--------------------------------------------------------------------------------------------------------------------------------",
"--------------------------------------------------------------------------------------------------------------------------------",
"--------------------------------------------------------------------------------------------------------------------------------",
"--------------------------------------------------------------------------------------------------------------------------------",
"--------------------------------------------------------------------------------------------------------------------------------",
"--------------------------------------------------------------------------------------------------------------------------------",
"--------------------------------------------------------------------------------------------------------------------------------",
"--------------------------------------------------------------------------------------------------------------------------------",
"--------------------------------------------------------------------------------------------------------------------------------",
"--------------------------------------------------------------------------------------------------------------------------------",
"--------------------------------------------------------------------------------------------------------------------------------",
"--------------------------------------------------------------------------------------------------------------------------------",
"--------------------------------------------------------------------------------------------------------------------------------",
"--------------------------------------------------------------------------------------------------------------------------------",
"--------------------------------------------------------------------------------------------------------------------------------",
"--------------------------------------------------------------------------------------------------------------------------------",
"--------------------------------------------------------------------------------------------------------------------------------",
"--------------------------------------------------------------------------------------------------------------------------------",
"--------------------------------------------------------------------------------------------------------------------------------",
"--------------------------------------------------------------------------------------------------------------------------------",
"--------------------------------------------------------------------------------------------------------------------------------",
"--------------------------------------------------------------------------------------------------------------------------------",
"--------------------------------------------------------------------------------------------------------------------------------",
"--------------------------------------------------------------------------------------------------------------------------------",
"--------------------------------------------------------------------------------------------------------------------------------",
"--------------------------------------------------------------------------------------------------------------------------------",
"--------------------------------------------------------------------------------------------------------------------------------",
"--------------------------------------------------------------------------------------------------------------------------------",
"--------------------------------------------------------------------------------------------------------------------------------",
"--------------------------------------------------------------------------------------------------------------------------------",
"--------------------------------------------------------------------------------------------------------------------------------",
"--------------------------------------------------------------------------------------------------------------------------------",
"--------------------------------------------------------------------------------------------------------------------------------",
"--------------------------------------------------------------------------------------------------------------------------------",
"--------------------------------------------------------------------------------------------------------------------------------",
"--------------------------------------------------------------------------------------------------------------------------------",
"---------------------------------------------------------------     ------------------------------------------------------------",
"-------------------------------------------------------------  %%%%% -----------------------------------------------------------",
"------------------------------------------------------------ ** %%%%% ----------------------------------------------------------",
"----------------------------------------------------------- %%%*     % ---------------------------------------------------------",
"---------------------------------------------------------- ********* %% --------------------------------------------------------",
"---------------------------------------------------------- %%%***  *  % --------------------------------------------------------",
"--------------------------------------------------------- ****** ** * % --------------------------------------------------------",
"--------------------------------------------------------- **   **** *  --      -------------------------------------------------",
"---------------------------------------------------------  * = ** * **   ######     --------------------------------------------",
"--------------------------------------------------------- =    **  **&  ############  ------------------------------------------",
"----------------------------------------------------------  ********& & ############## -----------------------------------------",
"---------------------------------------------------------- *******&&& &&  #### ######## ----------------------------------------",
"----------------------------------------------------------   &&&&&&&  &&  #### ######## ----------------------------------------",
"-------------------------------------------------------------  &&&      o ### oo######## ---------------------------------------",
"----------------------------------------------$$$$$$$$-----        &&&    ## oooo####### ---------------------------------------",
"----------------------------------------------$$++++++$$$$$&&&&&&&&&  ---      ooo###### ---------------------------------------",
"----------------------------------------------$+$-----++++++&       ---- && --- ooo###### --------------------------------------",
"----------------------------------------------$++$$---------$+--------- && ----- ooo##    --------------------------------------",
"----------------------------------------------$++++$--------$+-------- && -----       OOO --------------------------------------",
"----------------------------------------------$+--++$-------$+------  && ----- OOOOOOOOOO --------------------------------------",
"----------------------------------------------$+---++$$$$$$$$+---   &&  ----  OOOOOOOOOO. --------------------------------------",
"----------------------------------------------$+-----$+++++++$$$$&&&  ----- OOOOOOOOOOO.. --------------------------------------",
"----------------------------------------------$+-----$+-----+++++++$+----- OOO..  OOO... ---------------------------------------",
"----------------------------------------------$+-----$+-----$+-----$+----- OOO  - OOO.  ----------------------------------------",
"----------------------------------------------$+-----$+-----$+-----$+---- OOO ---- OO. -----------------------------------------",
"----------------------------------------------$+-----$+-----$+-----$+---- OO ----- OO. -----------------------------------------",
"----------------------------------------------$+-----$+-----$+-----$+---- O.  ---- OO. -----------------------------------------",
"----------------------------------------------$+-----$+-----$+-----$+---- OO. ---- OO. -----------------------------------------",
"----------------------------------------------$+-----$+-----$+-----$+----- OO ---- OO. -----------------------------------------",
"----------------------------------------------$+-----$+-----$+-----$+----- OOO ---  O. -----------------------------------------",
"----------------------------------------------$+-----$+-----$+-----$+------ OO ---- OO -----------------------------------------",
"----------------------------------------------$+-----$+-----$+-----$+------ OO. --- OOO ----------------------------------------",
"----------------------------------------------$+-----$+-----$+-----$+------- .. ---- OO ----------------------------------------",
"----------------------------------------------$+-----$+-----$+-----$+-------    ---- OO ----------------------------------------",
"----------------------------------------------$+-----$+-----$+-----$+-------- & ---- OO. ---------------------------------------",
"----------------------------------------------$+-----$+-----$+-----$+-------- & ---- OO. ---------------------------------------",
"----------------------------------------------$+-----$+-----$+----X$+XXXXXXX  * XXX-- O.. --------------------------------------",
"----------------------------------------------++-----$+----X$+XXXXX$+XXXXX   *** XXXX     --------------------------------------",
"-----------------------------------------------------$+--XXX++XXXXX$+XXXXX       XXXXX & XXX------------------------------------",
"-----------------------------------------------------$+XXXXXXXXXXXX$+XXXXXXXXXXXXXXXXX & XXXXX----------------------------------",
"-----------------------------------------------------$+XXXXXXXXXXXX$+XXXXXXXXXXXXXXXX  * XXXXXX---------------------------------",
"-----------------------------------------------------$+XXXXXXXXXXXX$+XXXXXXXXXXXXXX   *** XXXXX---------------------------------",
"-----------------------------------------------------$+XXXXXXXXXXXX$+XXXXXXXXXXXXXX       XXXX@---------------------------------",
"-----------------------------------------------------++@@XXXXXXXXXX$+XXXXXXXXXXXXXXXXXXXXXXX@@----------------------------------",
"---------------------------------------------------------@@@XXXXXXX++XXXXXXXXXXXXXXXXXXXX@@@------------------------------------",
"------------------------------------------------------------@@@@@XXXXXXXXXXXXXXXXXXXX@@@@---------------------------------------",
"------------------------------------------------------------------@@@@XXXXXXXXX@@@@---------------------------------------------",
"----------------------------------------------------------------------@@@@@@@@@-------------------------------------------------",
"--------------------------------------------------------------------------------------------------------------------------------",
"--------------------------------------------------------------------------------------------------------------------------------",
"--------------------------------------------------------------------------------------------------------------------------------",
"--------------------------------------------------------------------------------------------------------------------------------",
"--------------------------------------------------------------------------------------------------------------------------------",
"--------------------------------------------------------------------------------------------------------------------------------",
"--------------------------------------------------------------------------------------------------------------------------------",
"--------------------------------------------------------------------------------------------------------------------------------",
"--------------------------------------------------------------------------------------------------------------------------------",
"--------------------------------------------------------------------------------------------------------------------------------",
"--------------------------------------------------------------------------------------------------------------------------------",
"--------------------------------------------------------------------------------------------------------------------------------"
};
