/* XPM */
static char *_1600_4dfaa757405d720434135d8ae36091c9af11288a7fd230064314f7b97ed8f690[] = {
/* columns rows colors chars-per-pixel */
"128 128 14 1 ",
"  c black",
". c #1B110D",
"X c #191717",
"o c #3D120D",
"O c #37241C",
"+ c #0E1228",
"@ c #322D2D",
"# c #5B1911",
"$ c #2D3359",
"% c #706767",
"& c #99915E",
"* c #BCB68D",
"= c #8D8EBC",
"- c None",
/* pixels */
"--------------------------------------------------------------------------------------------------------------------------------",
"--------------------------------------------------------------------------------------------------------------------------------",
"--------------------------------------------------------------------------------------------------------------------------------",
"--------------------------------------------------------------------------------------------------------------------------------",
"--------------------------------------------------------------------------------------------------------------------------------",
"--------------------------------------------------------------------------------------------------------------------------------",
"--------------------------------------------------------------------------------------------------------------------------------",
"--------------------------------------------------------------------------------------------------------------------------------",
"--------------------------------------------------------------------------------------------------------------------------------",
"--------------------------------------------------------------------------------------------------------------------------------",
"--------------------------------------------------------------------------------------------------------------------------------",
"--------------------------------------------------------------------------------------------------------------------------------",
"--------------------------------------------------------------------------------------------------------------------------------",
"--------------------------------------------------------------------------------------------------------------------------------",
"--------------------------------------------------------------------------------------------------------------------------------",
"--------------------------------------------------------------------------------------------------------------------------------",
"--------------------------------------------------------------------------------------------------------------------------------",
"--------------------------------------------------------------------------------------------------------------------------------",
"--------------------------------------------------------------------------------------------------------------------------------",
"--------------------------------------------------------------------------------------------------------------------------------",
"--------------------------------------------------------------------------------------------------------------------------------",
"--------------------------------------------------------------------------------------------------------------------------------",
"--------------------------------------------------------------------------------------------------------------------------------",
"--------------------------------------------------------------------------------------------------------------------------------",
"--------------------------------------------------------------------------------------------------------------------------------",
"--------------------------------------------------------------------------------------------------------------------------------",
"--------------------------------------------------------------------------------------------------------------------------------",
"--------------------------------------------------------------------------------------------------------------------------------",
"--------------------------------------------------------------------------------------------------------------------------------",
"--------------------------------------------------------------------------------------------------------------------------------",
"--------------------------------------------------------------------------------------------------------------------------------",
"--------------------------------------------------------------------------------------------------------------------------------",
"--------------------------------------------------------------------------------------------------------------------------------",
"--------------------------------------------------------------------------------------------------------------------------------",
"--------------------------------------------------------------------------------------------------------------------------------",
"--------------------------------------------------------------------------------------------------------------------------------",
"--------------------------------------------------------------------------------------------------------------------------------",
"--------------------------------------------------------------------------------------------------------------------------------",
"--------------------------------------------------------------------------------------------------------------------------------",
"--------------------------------------------------------------------------------------------------------------------------------",
"--------------------------------------------------------------------------------------------------------------------------------",
"--------------------------------------------------------------------------------------------------------------------------------",
"--------------------------------------------------------------------------------------------------------------------------------",
"--------------------------------------------------------------------------------------------------------------------------------",
"--------------------------------------------------------------------------------------------------------------------------------",
"--------------------------------------------------------------------------------------------------------------------------------",
"--------------------------------------------------------------------------------------------------------------------------------",
"--------------------------------------------------------------------------------------------------------------------------------",
"--------------------------------------------------------------------------------------------------------------------------------",
"--------------------------------------------------------------------------------------------------------------------------------",
"--------------------------------------------------------------------------------------------------------------------------------",
"--------------------------------------------------------------------------------------------------------------------------------",
"--------------------------------------------------------------------------------------------------------------------------------",
"--------------------------------------------------------------------------------------------------------------------------------",
"--------------------------------------------------------------------------------------------------------------------------------",
"--------------------------------------------------------------------------------------------------------------------------------",
"--------------------------------------------------------------------------------------------------------------------------------",
"--------------------------------------------------------------------------------------------------------------------------------",
"--------------------------------------------------------------------------------------------------------------------------------",
"--------------------------------------------------------------------------------------------------------------------------------",
"--------------------------------------------------------------------------------------------------------------------------------",
"--------------------------------------------------------------------------------------------------------------------------------",
"--------------------------------------------------------------------------------------------------------------------------------",
"--------------------------------------------------------------------------------------------------------------------------------",
"--------------------------------------------------------------------------------------------------------------------------------",
"--------------------------------------------------------------------------------------------------------------------------------",
"--------------------------------------------------------------------------------------------------------------------------------",
"-------------------------------------------------------------     --------------------------------------------------------------",
"-----------------------------------------------------------  %%%%% -------------------------------------------------------------",
"---------------------------------------------------------- ** %%%%% ------------------------------------------------------------",
"--------------------------------------------------------- %%%*     % -----------------------------------------------------------",
"-------------------------------------------------------- ********* %% ----------------------------------------------------------",
"-------------------------------------------------------- %%%***  *  % ----------------------------------------------------------",
"---------------------------------------$$$$$$$$-----    ****** ** * % ----------------------------------------------------------",
"---------------------------------------$$++++++$$$$$&&& **   **** *  -----------------------------------------------------------",
"---------------------------------------$+$-----++++++&   * = ** * ** -      ----------------------------------------------------",
"---------------------------------------$++$$---------$+ =    **  **&  ######     -----------------------------------------------",
"---------------------------------------$++++$--------$+-  ********&  ############  ---------------------------------------------",
"---------------------------------------$+--++$-------$+- *******&&&  ## ########### --------------------------------------------",
"---------------------------------------$+---++$$$$$$$$+-               #### ######## -------------------------------------------",
"---------------------------------------$+-----$+++++++$$$$&&&&&&&&&&& ####  ######## -------------------------------------------",
"---------------------------------------$+-----$+-----+++++++$         #   ooo######## ------------------------------------------",
"---------------------------------------$+-----$+-----$+-----$+-------  -- oooo####### ------------------------------------------",
"---------------------------------------$+-----$+-----$+-----$+------------  ooo###### ------------------------------------------",
"---------------------------------------$+-----$+-----$+-----$+-------------- ooo###### -----------------------------------------",
"---------------------------------------$+-----$+-----$+-----$+--------------- ooo##    -----------------------------------------",
"---------------------------------------$+-----$+-----$+-----$+--------------       OOO -----------------------------------------",
"---------------------------------------$+-----$+-----$+-----$+------------- OOOOOOOOOO -----------------------------------------",
"---------------------------------------$+-----$+-----$+-----$+-----------  OOOOOOOOOO. -----------------------------------------",
"---------------------------------------$+-----$+-----$+-----$+---------- OOOOOOOOOOO.. -----------------------------------------",
"---------------------------------------$+-----$+-----$+-----$+--------- OOO..  OOO... ------------------------------------------",
"---------------------------------------$+-----$+-----$+-----$+--------- OOO  - OOO   -------------------------------------------",
"---------------------------------------$+-----$+-----$+-----$+-------- OOO -- OOO ----------------------------------------------",
"---------------------------------------$+-----$+-----$+-----$+-------- OO --- OOO ----------------------------------------------",
"---------------------------------------$+-----$+-----$+-----$+-------- O.  - OOO. ----------------------------------------------",
"---------------------------------------$+-----$+-----$+-----$+-------- OO. - OO. -----------------------------------------------",
"---------------------------------------++-----$+-----$+-----$+--------- OO - OO. -----------------------------------------------",
"----------------------------------------------$+-----++-----$+--------- OOO   O. -----------------------------------------------",
"----------------------------------------------$+------------$+---------- OO - OO -----------------------------------------------",
"----------------------------------------------$+------------$+---------- OO.  OOO ----------------------------------------------",
"----------------------------------------------$+------------$+----------- .. - OO ----------------------------------------------",
"----------------------------------------------$+------------$+-----------    - OO ----------------------------------------------",
"----------------------------------------------++------------$+------------ & - OO. ---------------------------------------------",
"------------------------------------------------------------++------------ & - OO. ---------------------------------------------",
"---------------------------------------------------------------XXXXXXXXXX  * XX O.. --------------------------------------------",
"--------------------------------------------------------XXXXXXXXXXXXXXX   *** X     XX------------------------------------------",
"------------------------------------------------------XXXXXXXXXXXXXXXXX       XX & XXXXXX---------------------------------------",
"----------------------------------------------------XXXXXXXXXXXXXXXXXXXXXXXXXXXX & XXXXXXXX-------------------------------------",
"---------------------------------------------------XXXXXXXXXXXXXXXXXXXXXXXXXXXX  * XXXXXXXXX------------------------------------",
"---------------------------------------------------XXXXXXXXXXXXXXXXXXXXXXXXXX   *** XXXXXXXX------------------------------------",
"---------------------------------------------------@XXXXXXXXXXXXXXXXXXXXXXXXX       XXXXXXX@------------------------------------",
"----------------------------------------------------@@XXXXXXXXXXXXXXXXXXXXXXXXXXXXXXXXXXX@@-------------------------------------",
"------------------------------------------------------@@@XXXXXXXXXXXXXXXXXXXXXXXXXXXXX@@@---------------------------------------",
"---------------------------------------------------------@@@@@XXXXXXXXXXXXXXXXXXXX@@@@------------------------------------------",
"---------------------------------------------------------------@@@@XXXXXXXXX@@@@------------------------------------------------",
"-------------------------------------------------------------------@@@@@@@@@----------------------------------------------------",
"--------------------------------------------------------------------------------------------------------------------------------",
"--------------------------------------------------------------------------------------------------------------------------------",
"--------------------------------------------------------------------------------------------------------------------------------",
"--------------------------------------------------------------------------------------------------------------------------------",
"--------------------------------------------------------------------------------------------------------------------------------",
"--------------------------------------------------------------------------------------------------------------------------------",
"--------------------------------------------------------------------------------------------------------------------------------",
"--------------------------------------------------------------------------------------------------------------------------------",
"--------------------------------------------------------------------------------------------------------------------------------",
"--------------------------------------------------------------------------------------------------------------------------------",
"--------------------------------------------------------------------------------------------------------------------------------",
"--------------------------------------------------------------------------------------------------------------------------------"
};
