/* XPM */
static char *_1156_697a31a29d93585a1f7566f2351dd656df98473ec52d65c2545375044f278cfc[] = {
/* columns rows colors chars-per-pixel */
"128 128 14 1 ",
"  c black",
". c #1B110D",
"X c #191717",
"o c #3D120D",
"O c #37241C",
"+ c #0E1228",
"@ c #322D2D",
"# c #5B1911",
"$ c #2D3359",
"% c #706767",
"& c #99915E",
"* c #BCB68D",
"= c #8D8EBC",
"- c None",
/* pixels */
"--------------------------------------------------------------------------------------------------------------------------------",
"--------------------------------------------------------------------------------------------------------------------------------",
"--------------------------------------------------------------------------------------------------------------------------------",
"--------------------------------------------------------------------------------------------------------------------------------",
"--------------------------------------------------------------------------------------------------------------------------------",
"--------------------------------------------------------------------------------------------------------------------------------",
"--------------------------------------------------------------------------------------------------------------------------------",
"--------------------------------------------------------------------------------------------------------------------------------",
"--------------------------------------------------------------------------------------------------------------------------------",
"--------------------------------------------------------------------------------------------------------------------------------",
"--------------------------------------------------------------------------------------------------------------------------------",
"--------------------------------------------------------------------------------------------------------------------------------",
"--------------------------------------------------------------------------------------------------------------------------------",
"--------------------------------------------------------------------------------------------------------------------------------",
"--------------------------------------------------------------------------------------------------------------------------------",
"--------------------------------------------------------------------------------------------------------------------------------",
"--------------------------------------------------------------------------------------------------------------------------------",
"--------------------------------------------------------------------------------------------------------------------------------",
"--------------------------------------------------------------------------------------------------------------------------------",
"--------------------------------------------------------------------------------------------------------------------------------",
"--------------------------------------------------------------------------------------------------------------------------------",
"--------------------------------------------------------------------------------------------------------------------------------",
"--------------------------------------------------------------------------------------------------------------------------------",
"--------------------------------------------------------------------------------------------------------------------------------",
"--------------------------------------------------------------------------------------------------------------------------------",
"--------------------------------------------------------------------------------------------------------------------------------",
"--------------------------------------------------------------------------------------------------------------------------------",
"--------------------------------------------------------------------------------------------------------------------------------",
"--------------------------------------------------------------------------------------------------------------------------------",
"--------------------------------------------------------------------------------------------------------------------------------",
"--------------------------------------------------------------------------------------------------------------------------------",
"--------------------------------------------------------------------------------------------------------------------------------",
"--------------------------------------------------------------------------------------------------------------------------------",
"--------------------------------------------------------------------------------------------------------------------------------",
"--------------------------------------------------------------------------------------------------------------------------------",
"--------------------------------------------------------------------------------------------------------------------------------",
"--------------------------------------------------------------------------------------------------------------------------------",
"--------------------------------------------------------------------------------------------------------------------------------",
"--------------------------------------------------------------------------------------------------------------------------------",
"--------------------------------------------------------------------------------------------------------------------------------",
"--------------------------------------------------------------------------------------------------------------------------------",
"--------------------------------------------------------------------------------------------------------------------------------",
"--------------------------------------------------------------------------------------------------------------------------------",
"--------------------------------------------------------------------------------------------------------------------------------",
"--------------------------------------------------------------------------------------------------------------------------------",
"--------------------------------------------------------------------------------------------------------------------------------",
"--------------------------------------------------------------------------------------------------------------------------------",
"--------------------------------------------------------------------------------------------------------------------------------",
"--------------------------------------------------------------------------------------------------------------------------------",
"--------------------------------------------------------------------------------------------------------------------------------",
"--------------------------------------------------------------------------------------------------------------------------------",
"--------------------------------------------------------------------------------------------------------------------------------",
"--------------------------------------------------------------------------------------------------------------------------------",
"--------------------------------------------------------------------------------------------------------------------------------",
"--------------------------------------------------------------------------------------------------------------------------------",
"--------------------------------------------------------------------------------------------------------------------------------",
"--------------------------------------------------------------------------------------------------------------------------------",
"--------------------------------------------------------------------------------------------------------------------------------",
"--------------------------------------------------------------------------------------------------------------------------------",
"--------------------------------------------------------------------------------------------------------------------------------",
"--------------------------------------------------------------------------------------------------------------------------------",
"--------------------------------------------------------------------------------------------------------------------------------",
"--------------------------------------------------------------------------------------------------------------------------------",
"--------------------------------------------------------------------------------------------------------------------------------",
"--------------------------------------------------------------------------------------------------------------------------------",
"--------------------------------------------------------------------------------------------------------------------------------",
"--------------------------------------------------------------------------------------------------------------------------------",
"--------------------------------------------------------------------------------------------------------------------------------",
"---------------------------------------------     ------------------------------------------------------------------------------",
"-------------------------------------------  %%%%% -----------------------------------------------------------------------------",
"------------------------------------------ ** %%%%% ----------------------------------------------------------------------------",
"----------------------------------------- %%%*     % ---------------------------------------------------------------------------",
"---------------------------------------- ********* %% --------------------------------------------------------------------------",
"---------------------------------------- %%%***  *  % --------------------------------------------------------------------------",
"--------------------------------------- ****** ** * % --------------------------------------------------------------------------",
"--------------------------------------- **   **** *  --      -------------------------------------------------------------------",
"---------------------------------------  * = ** * **   ######     --------------------------------------------------------------",
"--------------------------------------- =    **  **&  ############  ------------------------------------------------------------",
"----------------------------------------  ********& & ############## -----------------------------------------------------------",
"---------------------------------------- *******&&& &&  #### ######## ----------------------------------------------------------",
"----------------------------------------   &&&&&&&  &&  #### ######## ----------------------------------------------------------",
"-------------------------------------------  &&&  o   o ### oo######## ---------------------------------------------------------",
"-------------------------$$$$$$$$-----          &&      ## oooo####### ---------------------------------------------------------",
"-------------------------$$++++++$$$$$&&&&&&&&&&   ---       ooo###### ---------------------------------------------------------",
"-------------------------$+$-----++++++&         ---- && ---- ooo###### --------------------------------------------------------",
"-------------------------$++$$---------$+----------  && ------ ooo##    --------------------------------------------------------",
"-------------------------$++++$--------$+--------  &&  ------       OOO --------------------------------------------------------",
"-------------------------$+--++$-------$+------  &&  ------- OOOOOOOOOO --------------------------------------------------------",
"-------------------------$+---++$$$$$$$$+---   &&  -------  OOOOOOOOOO. --------------------------------------------------------",
"-------------------------$+-----$+++++++$$$$&&&  -------- OOOOOOOOOOO.. --------------------------------------------------------",
"-------------------------$+-----$+-----+++++++$+-------- OOO..  OOO... ---------------------------------------------------------",
"-------------------------$+-----$+-----$+-----$+-------- OOO  - OOO   ----------------------------------------------------------",
"-------------------------$+-----$+-----$+-----$+------- OOO -- OOO -------------------------------------------------------------",
"-------------------------$+-----$+-----$+-----$+------- OO --- OOO -------------------------------------------------------------",
"-------------------------$+-----$+-----$+-----$+------- O.  - OOO. -------------------------------------------------------------",
"-------------------------$+-----$+-----$+-----$+------- OO. - OO. --------------------------------------------------------------",
"-------------------------$+-----$+-----$+-----$+-------- OO - OO. --------------------------------------------------------------",
"-------------------------$+-----$+-----$+-----$+-------- OOO   O. --------------------------------------------------------------",
"-------------------------$+-----$+-----$+-----$+--------- OO - OO --------------------------------------------------------------",
"-------------------------$+-----$+-----$+-----$+--------- OO.  OOO -------------------------------------------------------------",
"-------------------------$+-----$+-----$+-----$+---------- .. - OO -------------------------------------------------------------",
"-------------------------$+-----$+-----$+-----$+----------    - OO -------------------------------------------------------------",
"-------------------------$+-----$+-----$+-----$+----------- & - OO. ------------------------------------------------------------",
"-------------------------$+-----$+-----$+-----$+----------- & - OO. ------------------------------------------------------------",
"-------------------------$+-----$+-----$+-----$+XXXXXXXXXX  * XX O.. -----------------------------------------------------------",
"-------------------------++-----$+-----$+XXXXX$+XXXXXXXX   *** X     XX---------------------------------------------------------",
"--------------------------------$+-----++XXXXX$+XXXXXXXX       XX & XXXXXX------------------------------------------------------",
"--------------------------------$+---XXXXXXXXX$+XXXXXXXXXXXXXXXXX & XXXXXXXX----------------------------------------------------",
"--------------------------------$+--XXXXXXXXXX$+XXXXXXXXXXXXXXXX  * XXXXXXXXX---------------------------------------------------",
"--------------------------------$+--XXXXXXXXXX$+XXXXXXXXXXXXXX   *** XXXXXXXX---------------------------------------------------",
"--------------------------------$+--@XXXXXXXXX$+XXXXXXXXXXXXXX       XXXXXXX@---------------------------------------------------",
"--------------------------------++---@@XXXXXXX$+XXXXXXXXXXXXXXXXXXXXXXXXXX@@----------------------------------------------------",
"---------------------------------------@@@XXXX++XXXXXXXXXXXXXXXXXXXXXXX@@@------------------------------------------------------",
"------------------------------------------@@@@@XXXXXXXXXXXXXXXXXXXX@@@@---------------------------------------------------------",
"------------------------------------------------@@@@XXXXXXXXX@@@@---------------------------------------------------------------",
"----------------------------------------------------@@@@@@@@@-------------------------------------------------------------------",
"--------------------------------------------------------------------------------------------------------------------------------",
"--------------------------------------------------------------------------------------------------------------------------------",
"--------------------------------------------------------------------------------------------------------------------------------",
"--------------------------------------------------------------------------------------------------------------------------------",
"--------------------------------------------------------------------------------------------------------------------------------",
"--------------------------------------------------------------------------------------------------------------------------------",
"--------------------------------------------------------------------------------------------------------------------------------",
"--------------------------------------------------------------------------------------------------------------------------------",
"--------------------------------------------------------------------------------------------------------------------------------",
"--------------------------------------------------------------------------------------------------------------------------------",
"--------------------------------------------------------------------------------------------------------------------------------",
"--------------------------------------------------------------------------------------------------------------------------------"
};
