/* XPM */
static char *_620_5d93984cc8b2887bd187fe3f7456d0c3dcea03acd08ad454e5bd3abd7480419c[] = {
/* columns rows colors chars-per-pixel */
"128 128 14 1 ",
"  c black",
". c #1B110D",
"X c #191717",
"o c #3D120D",
"O c #37241C",
"+ c #0E1228",
"@ c #322D2D",
"# c #5B1911",
"$ c #2D3359",
"% c #706767",
"& c #99915E",
"* c #BCB68D",
"= c #8D8EBC",
"- c None",
/* pixels */
"--------------------------------------------------------------------------------------------------------------------------------",
"--------------------------------------------------------------------------------------------------------------------------------",
"--------------------------------------------------------------------------------------------------------------------------------",
"--------------------------------------------------------------------------------------------------------------------------------",
"--------------------------------------------------------------------------------------------------------------------------------",
"--------------------------------------------------------------------------------------------------------------------------------",
"--------------------------------------------------------------------------------------------------------------------------------",
"--------------------------------------------------------------------------------------------------------------------------------",
"--------------------------------------------------------------------------------------------------------------------------------",
"--------------------------------------------------------------------------------------------------------------------------------",
"--------------------------------------------------------------------------------------------------------------------------------",
"--------------------------------------------------------------------------------------------------------------------------------",
"--------------------------------------------------------------------------------------------------------------------------------",
"--------------------------------------------------------------------------------------------------------------------------------",
"--------------------------------------------------------------------------------------------------------------------------------",
"--------------------------------------------------------------------------------------------------------------------------------",
"--------------------------------------------------------------------------------------------------------------------------------",
"--------------------------------------------------------------------------------------------------------------------------------",
"--------------------------------------------------------------------------------------------------------------------------------",
"--------------------------------------------------------------------------------------------------------------------------------",
"--------------------------------------------------------------------------------------------------------------------------------",
"--------------------------------------------------------------------------------------------------------------------------------",
"--------------------------------------------------------------------------------------------------------------------------------",
"--------------------------------------------------------------------------------------------------------------------------------",
"--------------------------------------------------------------------------------------------------------------------------------",
"--------------------------------------------------------------------------------------------------------------------------------",
"--------------------------------------------------------------------------------------------------------------------------------",
"--------------------------------------------------------------------------------------------------------------------------------",
"--------------------------------------------------------------------------------------------------------------------------------",
"--------------------------------------------------------------------------------------------------------------------------------",
"--------------------------------------------------------------------------------------------------------------------------------",
"--------------------------------------------------------------------------------------------------------------------------------",
"--------------------------------------------------------------------------------------------------------------------------------",
"--------------------------------------------------------------------------------------------------------------------------------",
"--------------------------------------------------------------------------------------------------------------------------------",
"--------------------------------------------------------------------------------------------------------------------------------",
"--------------------------------------------------------------------------------------------------------------------------------",
"--------------------------------------------------------------------------------------------------------------------------------",
"--------------------------------------------------------------------------------------------------------------------------------",
"--------------------------------------------------------------------------------------------------------------------------------",
"--------------------------------------------------------------------------------------------------------------------------------",
"--------------------------------------------------------------------------------------------------------------------------------",
"--------------------------------------------------------------------------------------------------------------------------------",
"--------------------------------------------------------------------------------------------------------------------------------",
"--------------------------------------------------------------------------------------------------------------------------------",
"--------------------------------------------------------------------------------------------------------------------------------",
"--------------------------------------------------------------------------------------------------------------------------------",
"--------------------------------------------------------------------------------------------------------------------------------",
"--------------------------------------------------------------------------------------------------------------------------------",
"--------------------------------------------------------------------------------------------------------------------------------",
"--------------------------------------------------------------------------------------------------------------------------------",
"--------------------------------------------------------------------------------------------------------------------------------",
"--------------------------------------------------------------------------------------------------------------------------------",
"--------------------------------------------------------------------------------------------------------------------------------",
"--------------------------------------------------------------------------------------------------------------------------------",
"--------------------------------------------------------------------------------------------------------------------------------",
"--------------------------------------------------------------------------------------------------------------------------------",
"--------------------------------------------------------------------------------------------------------------------------------",
"--------------------------------------------------------------------------------------------------------------------------------",
"--------------------------------------------------------------------------------------------------------------------------------",
"--------------------------------------------------------------------------------------------------------------------------------",
"--------------------------------------------------------------------------------------------------------------------------------",
"--------------------------------------------------------------------------------------------------------------------------------",
"--------------------------------------------------------------------------------------------------------------------------------",
"--------------------------------------------------------------------------------------------------------------------------------",
"--------------------------------------------------------------------------------------------------------------------------------",
"--------------------------------------------------------------------------------------------------------------------------------",
"--------------------------------------------------------------------------------------------------------------------------------",
"------------------------------------------     ---------------------------------------------------------------------------------",
"----------------------------------------  %%%%% --------------------------------------------------------------------------------",
"--------------------------------------- ** %%%%% -------------------------------------------------------------------------------",
"-------------------------------------- %%%*     % ------------------------------------------------------------------------------",
"------------------------------------- ********* %% -----------------------------------------------------------------------------",
"------------------------------------- %%%***  *  % -----------------------------------------------------------------------------",
"------------------------------------ ****** ** * % -----------------------------------------------------------------------------",
"------------------------------------ **   **** *  --      ----------------------------------------------------------------------",
"------------------------------------  * = ** * **   ######     -----------------------------------------------------------------",
"------------------------------------ =    **  **&  ############  ---------------------------------------------------------------",
"-------------------------------------  ********& & ############## --------------------------------------------------------------",
"------------------------------------- *******&&& &&  #### ######## -------------------------------------------------------------",
"-------------------------------------   &&&&&&&  &&  #### ######## -------------------------------------------------------------",
"----------------------------------------  &&&      o ### oo######## ------------------------------------------------------------",
"-------------------------$$$$$$$$-----        &&&    ## oooo####### ------------------------------------------------------------",
"-------------------------$$++++++$$$$$&&&&&&&&&  ---      ooo###### ------------------------------------------------------------",
"-------------------------$+$-----++++++&       ---- && --- ooo###### -----------------------------------------------------------",
"-------------------------$++$$---------$+--------- && ----- ooo##    -----------------------------------------------------------",
"-------------------------$++++$--------$+-------- && -----       OOO -----------------------------------------------------------",
"-------------------------$+--++$-------$+------  && ----- OOOOOOOOOO -----------------------------------------------------------",
"-------------------------$+---++$$$$$$$$+---   &&  ----  OOOOOOOOOO. -----------------------------------------------------------",
"-------------------------$+-----$+++++++$$$$&&&  ----- OOOOOOOOOOO.. -----------------------------------------------------------",
"-------------------------$+-----$+-----+++++++$+----- OOO..  OOO... ------------------------------------------------------------",
"-------------------------$+-----$+-----$+-----$+----- OOO  - OOO.  -------------------------------------------------------------",
"-------------------------$+-----$+-----$+-----$+---- OOO ---- OO. --------------------------------------------------------------",
"-------------------------$+-----$+-----$+-----$+---- OO ----- OO. --------------------------------------------------------------",
"-------------------------$+-----$+-----$+-----$+---- O.  ---- OO. --------------------------------------------------------------",
"-------------------------$+-----$+-----$+-----$+---- OO. ---- OO. --------------------------------------------------------------",
"-------------------------$+-----$+-----$+-----$+----- OO ---- OO. --------------------------------------------------------------",
"-------------------------$+-----$+-----$+-----$+----- OOO ---  O. --------------------------------------------------------------",
"-------------------------$+-----$+-----$+-----$+------ OO ---- OO --------------------------------------------------------------",
"-------------------------$+-----$+-----$+-----$+------ OO. --- OOO -------------------------------------------------------------",
"-------------------------$+-----$+-----$+-----$+------- .. ---- OO -------------------------------------------------------------",
"-------------------------$+-----$+-----$+-----$+-------    ---- OO -------------------------------------------------------------",
"-------------------------$+-----$+-----$+-----$+-------- & ---- OO. ------------------------------------------------------------",
"-------------------------$+-----$+-----$+-----$+-------- & ---- OO. ------------------------------------------------------------",
"-------------------------$+-----$+-----$+----X$+XXXXXXX  * XXX-- O.. -----------------------------------------------------------",
"-------------------------++-----$+----X$+XXXXX$+XXXXX   *** XXXX     -----------------------------------------------------------",
"--------------------------------$+--XXX++XXXXX$+XXXXX       XXXXX & XXX---------------------------------------------------------",
"--------------------------------$+XXXXXXXXXXXX$+XXXXXXXXXXXXXXXXX & XXXXX-------------------------------------------------------",
"--------------------------------$+XXXXXXXXXXXX$+XXXXXXXXXXXXXXXX  * XXXXXX------------------------------------------------------",
"--------------------------------$+XXXXXXXXXXXX$+XXXXXXXXXXXXXX   *** XXXXX------------------------------------------------------",
"--------------------------------$+XXXXXXXXXXXX$+XXXXXXXXXXXXXX       XXXX@------------------------------------------------------",
"--------------------------------++@@XXXXXXXXXX$+XXXXXXXXXXXXXXXXXXXXXXX@@-------------------------------------------------------",
"------------------------------------@@@XXXXXXX++XXXXXXXXXXXXXXXXXXXX@@@---------------------------------------------------------",
"---------------------------------------@@@@@XXXXXXXXXXXXXXXXXXXX@@@@------------------------------------------------------------",
"---------------------------------------------@@@@XXXXXXXXX@@@@------------------------------------------------------------------",
"-------------------------------------------------@@@@@@@@@----------------------------------------------------------------------",
"--------------------------------------------------------------------------------------------------------------------------------",
"--------------------------------------------------------------------------------------------------------------------------------",
"--------------------------------------------------------------------------------------------------------------------------------",
"--------------------------------------------------------------------------------------------------------------------------------",
"--------------------------------------------------------------------------------------------------------------------------------",
"--------------------------------------------------------------------------------------------------------------------------------",
"--------------------------------------------------------------------------------------------------------------------------------",
"--------------------------------------------------------------------------------------------------------------------------------",
"--------------------------------------------------------------------------------------------------------------------------------",
"--------------------------------------------------------------------------------------------------------------------------------",
"--------------------------------------------------------------------------------------------------------------------------------",
"--------------------------------------------------------------------------------------------------------------------------------"
};
