/* XPM */
static char *_a327db7c101406b9f3677114b3f0218MxpWhd6IfABeApS9[] = {
/* columns rows colors chars-per-pixel */
"128 128 14 1 ",
"  c None",
". c black",
"X c #1B110D",
"o c #191717",
"O c #3D120D",
"+ c #37241C",
"@ c #0E1228",
"# c #322D2D",
"$ c #5B1911",
"% c #2D3359",
"& c #706767",
"* c #99915E",
"= c #BCB68D",
"- c #8D8EBC",
/* pixels */
"                                                                                                                                ",
"                                                                                                                                ",
"                                                                                                                                ",
"                                                                                                                                ",
"                                                                                                                                ",
"                                                                                                                                ",
"                                                                                                                                ",
"                                                                                                                                ",
"                                                                                                                                ",
"                                                                                                                                ",
"                                                                                                                                ",
"                                                                                                                                ",
"                                                                                                                                ",
"                                                                                                                                ",
"                                                                                                                                ",
"                                                                                                                                ",
"                                                                                                                                ",
"                                                                                                                                ",
"                                                                                                                                ",
"                                                                                                                                ",
"                                                                                                                                ",
"                                                                                                                                ",
"                                                                                                                                ",
"                                                                                                                                ",
"                                                                                                                                ",
"                                                                                                                                ",
"                                                                                                                                ",
"                                                                                                                                ",
"                                                                                                                                ",
"                                                                                                                                ",
"                                                                                                                                ",
"                                                                                                                                ",
"                                                                                                                                ",
"                                                                                                                                ",
"                                                                                                                                ",
"                                                                                                                                ",
"                                                                                                                                ",
"                                                                                                                                ",
"                                                                                                                                ",
"                                                                                                                                ",
"                                                                                                                                ",
"                                                                                                                                ",
"                                                                                                                                ",
"                                                                                                                                ",
"                                                                                                                                ",
"                                                                                                                                ",
"                                                                                                                                ",
"                                                                                                                                ",
"                                                                                                                                ",
"                                                                                                                                ",
"                                                                                                                                ",
"                                                                                                                                ",
"                                                                                                                                ",
"                                                                                                                                ",
"                                                                                                                                ",
"                                                                                                                                ",
"                                                                                                                                ",
"                                                                                                                                ",
"                                                                                                                                ",
"                                                                                                                                ",
"                                                                                                                                ",
"                                                                                                                                ",
"                                                                                                                                ",
"                                                                                                                                ",
"                                                                                                                                ",
"                                                                                                                                ",
"                                                                                                                                ",
"                                                                                                                                ",
"                               .....                                                                                            ",
"                             ..&&&&&.                                                                                           ",
"                            .==.&&&&&.                                                                                          ",
"                           .&&&=.....&.                                                                                         ",
"                          .=========.&&.                                                                                        ",
"                          .&&&===..=..&.                                                                                        ",
"                         .======.==.=.&.                                                                                        ",
"                         .==...====.=..  ......                                                                                 ",
"                         ..=.-.==.=.==...$$$$$$.....                                                                            ",
"                         .-....==..==*..$$$$$$$$$$$$..                                                                          ",
"                          ..========*.*.$$$$$$$$$$$$$$.                                                                         ",
"                          .=======***.**..$$$$.$$$$$$$$.                                                                        ",
"                          ...*******..**..$$$$.$$$$$$$$.                                                                        ",
"                             ..***..O...O.$$$.OO$$$$$$$$.                                                                       ",
"           %%%%%%%%     ..........**......$$.OOOO$$$$$$$.                                                                       ",
"           %%@@@@@@%%%%%**********...   .......OOO$$$$$$.                                                                       ",
"           %@%     @@@@@@*.........    .**.    .OOO$$$$$$.                                                                      ",
"           %@@%%         %@          ..**.      .OOO$$....                                                                      ",
"           %@@@@%        %@        ..**..      .......+++.                                                                      ",
"           %@  @@%       %@      ..**..       .++++++++++.                                                                      ",
"           %@   @@%%%%%%%%@   ...**..       ..++++++++++X.                                                                      ",
"           %@     %@@@@@@@%%%%***..        .+++++++++++XX.                                                                      ",
"           %@     %@     @@@@@@@%@        .+++XX..+++XXX.                                                                       ",
"           %@     %@     %@     %@        .+++.. .+++...                                                                        ",
"           %@     %@     %@     %@       .+++.  .+++.                                                                           ",
"           %@     %@     %@     %@       .++.   .+++.                                                                           ",
"           %@     %@     %@     %@       .+X.. .+++X.                                                                           ",
"           %@     %@     %@     %@       .++X. .++X.                                                                            ",
"           %@     %@     %@     %@        .++. .++X.                                                                            ",
"           %@     %@     %@     %@        .+++...+X.                                                                            ",
"           %@     %@     %@     %@         .++. .++.                                                                            ",
"           %@     %@     %@     %@         .++X..+++.                                                                           ",
"           %@     %@     %@     %@          .XX. .++.                                                                           ",
"           %@     %@     %@     %@          .... .++.                                                                           ",
"           %@     %@     %@     %@           .*. .++X.                                                                          ",
"           %@     %@     %@     %@           .*. .++X.                                                                          ",
"           %@     %@     %@     %@oooooooooo..=.oo.+XX.                                                                         ",
"           @@     %@     %@ooooo%@oooooooo...===.o.....oo                                                                       ",
"                  %@     @@ooooo%@oooooooo.......oo.*.oooooo                                                                    ",
"                  %@   ooooooooo%@ooooooooooooooooo.*.oooooooo                                                                  ",
"                  %@  oooooooooo%@oooooooooooooooo..=.ooooooooo                                                                 ",
"                  %@  oooooooooo%@oooooooooooooo...===.oooooooo                                                                 ",
"                  %@  #ooooooooo%@oooooooooooooo.......ooooooo#                                                                 ",
"                  @@   ##ooooooo%@oooooooooooooooooooooooooo##                                                                  ",
"                         ###oooo@@ooooooooooooooooooooooo###                                                                    ",
"                            #####oooooooooooooooooooo####                                                                       ",
"                                  ####ooooooooo####                                                                             ",
"                                      #########                                                                                 ",
"                                                                                                                                ",
"                                                                                                                                ",
"                                                                                                                                ",
"                                                                                                                                ",
"                                                                                                                                ",
"                                                                                                                                ",
"                                                                                                                                ",
"                                                                                                                                ",
"                                                                                                                                ",
"                                                                                                                                ",
"                                                                                                                                ",
"                                                                                                                                "
};
