/* XPM */
static char *_fb7be7f83ba4c29bc549d7dfdff2649JqjzTwZfyePjPujo[] = {
/* columns rows colors chars-per-pixel */
"128 128 14 1 ",
"  c None",
". c black",
"X c #1B110D",
"o c #191717",
"O c #3D120D",
"+ c #37241C",
"@ c #0E1228",
"# c #322D2D",
"$ c #5B1911",
"% c #2D3359",
"& c #706767",
"* c #99915E",
"= c #BCB68D",
"- c #8D8EBC",
/* pixels */
"                                                                                                                                ",
"                                                                                                                                ",
"                                                                                                                                ",
"                                                                                                                                ",
"                                                                                                                                ",
"                                                                                                                                ",
"                                                                                                                                ",
"                                                                                                                                ",
"                                                                                                                                ",
"                                                                                                                                ",
"                                                                                                                                ",
"                                                                                                                                ",
"                                                                                                                                ",
"                                                                                                                                ",
"                                                                                                                                ",
"                                                                                                                                ",
"                                                                                                                                ",
"                                                                                                                                ",
"                                                                                                                                ",
"                                                                                                                                ",
"                                                                                                                                ",
"                                                                                                                                ",
"                                                                                                                                ",
"                                                                                                                                ",
"                                                                                                                                ",
"                                                                                                                                ",
"                                                                                                                                ",
"                                                                                                                                ",
"                                                                                                                                ",
"                                                                                                                                ",
"                                                                                                                                ",
"                                                                                                                                ",
"                                                                                                                                ",
"                                                                                                                                ",
"                                                                                                                                ",
"                                                                                                                                ",
"                                                                                                                                ",
"                                                                                                                                ",
"                                                                                                                                ",
"                                                                                                                                ",
"                                                                                                                                ",
"                                                                                                                                ",
"                                                                                                                                ",
"                                                                                                                                ",
"                                                                                                                                ",
"                                                                                                                                ",
"                                                                                                                                ",
"                                                                                                                                ",
"                                                                                                                                ",
"                                                                                                                                ",
"                                                                                                                                ",
"                                                                                                                                ",
"                                                                                                                                ",
"                                                                                                                                ",
"                                                                                                                                ",
"                                                                                                                                ",
"                                                                                                                                ",
"                                                                                                                                ",
"                                                                                                                                ",
"                                                                                                                                ",
"                                                                                                                                ",
"                                                                                                                                ",
"                                                                                                                                ",
"                                                                                                                                ",
"                                                                                                                                ",
"                                                                                                                                ",
"                                                                                                                                ",
"                          .....                                                                                                 ",
"                        ..&&&&&.                                                                                                ",
"                       .==.&&&&&.                                                                                               ",
"                      .&&&=.....&.                                                                                              ",
"                     .=========.&&.                                                                                             ",
"                     .&&&===..=..&.                                                                                             ",
"                    .======.==.=.&.                                                                                             ",
"                    .==...====.=..                                                                                              ",
"                    ..=.-.==.=.==. ......                                                                                       ",
"       %%%%%%%%     .-....==..==*..$$$$$$.....                                                                                  ",
"       %%@@@@@@%%%%**..========*..$$$$$$$$$$$$..                                                                                ",
"       %@%     @@@@@@.=======***..$$$$$$$$$$$$$$.                                                                               ",
"       %@@%%         ...*******.**..$$$$.$$$$$$$$.                                                                              ",
"       %@@@@%        %@ ..***.......$$$$.$$$$$$$$.                                                                              ",
"       %@  @@%       %@   ...     .OOOO.OO$$$$$$$$.                                                                             ",
"       %@   @@%%%%%%%%@   .....  .$$$$.OOOO$$$$$$$.                                                                             ",
"       %@     %@@@@@@@%%%%*****.....$. ..OOO$$$$$$.                                                                             ",
"       %@     %@     @@@@@@@%..****..    .OOO$$$$$$.                                                                            ",
"       %@     %@     %@     %@ ....       .OOO$$....                                                                            ",
"       %@     %@     %@     %@           .......+++.                                                                            ",
"       %@     %@     %@     %@          .++++++++++.                                                                            ",
"       %@     %@     %@     %@        ..++++++++++X.                                                                            ",
"       %@     %@     %@     %@       .+++++++++++XX.                                                                            ",
"       %@     %@     %@     %@      .+++XX..+++XXX.                                                                             ",
"       %@     %@     %@     %@      .+++.. .+++...                                                                              ",
"       %@     %@     %@     %@     .+++.  .+++.                                                                                 ",
"       %@     %@     %@     %@     .++.   .+++.                                                                                 ",
"       %@     %@     %@     %@     .+X.. .+++X.                                                                                 ",
"       %@     %@     %@     %@     .++X. .++X.                                                                                  ",
"       %@     %@     %@     %@      .++. .++X.                                                                                  ",
"       %@     %@     %@     %@      .+++...+X.                                                                                  ",
"       %@     %@     %@     %@       .++. .++.                                                                                  ",
"       @@     %@     %@     %@       .++X..+++.                                                                                 ",
"              %@     @@     %@        .XX. .++.                                                                                 ",
"              %@            %@        .... .++.                                                                                 ",
"              %@            %@         .*. .++X.                                                                                ",
"              %@            %@         .*. .++X.                                                                                ",
"              %@            %@oooooooo..=.oo.+XX.                                                                               ",
"              @@     ooooooo%@oooooo...===.o.....oo                                                                             ",
"                   ooooooooo@@oooooo.......oo.*.oooooo                                                                          ",
"                 oooooooooooooooooooooooooooo.*.oooooooo                                                                        ",
"                oooooooooooooooooooooooooooo..=.ooooooooo                                                                       ",
"                oooooooooooooooooooooooooo...===.oooooooo                                                                       ",
"                #ooooooooooooooooooooooooo.......ooooooo#                                                                       ",
"                 ##ooooooooooooooooooooooooooooooooooo##                                                                        ",
"                   ###ooooooooooooooooooooooooooooo###                                                                          ",
"                      #####oooooooooooooooooooo####                                                                             ",
"                            ####ooooooooo####                                                                                   ",
"                                #########                                                                                       ",
"                                                                                                                                ",
"                                                                                                                                ",
"                                                                                                                                ",
"                                                                                                                                ",
"                                                                                                                                ",
"                                                                                                                                ",
"                                                                                                                                ",
"                                                                                                                                ",
"                                                                                                                                ",
"                                                                                                                                ",
"                                                                                                                                ",
"                                                                                                                                "
};
