/* XPM */
static char *_3f8a436e9ff49708c3a2554f1c5b63745aAgfqyCI36OExX[] = {
/* columns rows colors chars-per-pixel */
"128 128 14 1 ",
"  c None",
". c black",
"X c #1B110D",
"o c #191717",
"O c #3D120D",
"+ c #37241C",
"@ c #0E1228",
"# c #322D2D",
"$ c #5B1911",
"% c #2D3359",
"& c #706767",
"* c #99915E",
"= c #BCB68D",
"- c #8D8EBC",
/* pixels */
"                                                                                                                                ",
"                                                                                                                                ",
"                                                                                                                                ",
"                                                                                                                                ",
"                                                                                                                                ",
"                                                                                                                                ",
"                                                                                                                                ",
"                                                                                                                                ",
"                                                                                                                                ",
"                                                                                                                                ",
"                                                                                                                                ",
"                                                                                                                                ",
"                                                                                                                                ",
"                                                                                                                                ",
"                                                                                                                                ",
"                                                                                                                                ",
"                                                                                                                                ",
"                                                                                                                                ",
"                                                                                                                                ",
"                                                                                                                                ",
"                                                                                                                                ",
"                                                                                                                                ",
"                                                                                                                                ",
"                                                                                                                                ",
"                                                                                                                                ",
"                                                                                                                                ",
"                                                                                                                                ",
"                                                                                                                                ",
"                                                                                                                                ",
"                                                                                                                                ",
"                                                                                                                                ",
"                                                                                                                                ",
"                                                                                                                                ",
"                                                                                                                                ",
"                                                                                                                                ",
"                                                                                                                                ",
"                                                                                                                                ",
"                                                                                                                                ",
"                                                                                                                                ",
"                                                                                                                                ",
"                                                                                                                                ",
"                                                                                                                                ",
"                                                                                                                                ",
"                                                                                                                                ",
"                                                                                                                                ",
"                                                                                                                                ",
"                                                                                                                                ",
"                                                                                                                                ",
"                                                                                                                                ",
"                                                                                                                                ",
"                                                                                                                                ",
"                                                                                                                                ",
"                                                                                                                                ",
"                                                                                                                                ",
"                                                                                                                                ",
"                                                                                                                                ",
"                                                                                                                                ",
"                                                                                                                                ",
"                                                                                                                                ",
"                                                                                                                                ",
"                                                                                                                                ",
"                                                                                                                                ",
"                                                                                                                                ",
"                                                                                                                                ",
"                                                                                                                                ",
"                                                                                                                                ",
"                                                                                                                                ",
"                                                                                                                                ",
"                       .....                                                                                                    ",
"                     ..&&&&&.                                                                                                   ",
"                    .==.&&&&&.                                                                                                  ",
"                   .&&&=.....&.                                                                                                 ",
"                  .=========.&&.                                                                                                ",
"                  .&&&===..=..&.                                                                                                ",
"                 .======.==.=.&.                                                                                                ",
"                 .==...====.=..  ......                                                                                         ",
"                 ..=.-.==.=.==...$$$$$$.....                                                                                    ",
"                 .-....==..==*..$$$$$$$$$$$$..                                                                                  ",
"                  ..========*.*.$$$$$$$$$$$$$$.                                                                                 ",
"                  .=======***.**..$$$$.$$$$$$$$.                                                                                ",
"                  ...*******..**..$$$$.$$$$$$$$.                                                                                ",
"                     ..***..O...O.$$$.OO$$$$$$$$.                                                                               ",
"   %%%%%%%%     ..........**......$$.OOOO$$$$$$$.                                                                               ",
"   %%@@@@@@%%%%%**********...   .......OOO$$$$$$.                                                                               ",
"   %@%     @@@@@@*.........    .**.    .OOO$$$$$$.                                                                              ",
"   %@@%%         %@          ..**.      .OOO$$....                                                                              ",
"   %@@@@%        %@        ..**..      .......+++.                                                                              ",
"   %@  @@%       %@      ..**..       .++++++++++.                                                                              ",
"   %@   @@%%%%%%%%@   ...**..       ..++++++++++X.                                                                              ",
"   %@     %@@@@@@@%%%%***..        .+++++++++++XX.                                                                              ",
"   %@     %@     @@@@@@@%@        .+++XX..+++XXX.                                                                               ",
"   %@     %@     %@     %@        .+++.. .+++...                                                                                ",
"   %@     %@     %@     %@       .+++.  .+++.                                                                                   ",
"   %@     %@     %@     %@       .++.   .+++.                                                                                   ",
"   %@     %@     %@     %@       .+X.. .+++X.                                                                                   ",
"   %@     %@     %@     %@       .++X. .++X.                                                                                    ",
"   %@     %@     %@     %@        .++. .++X.                                                                                    ",
"   %@     %@     %@     %@        .+++...+X.                                                                                    ",
"   %@     %@     %@     %@         .++. .++.                                                                                    ",
"   %@     %@     %@     %@         .++X..+++.                                                                                   ",
"   %@     %@     %@     %@          .XX. .++.                                                                                   ",
"   %@     %@     %@     %@          .... .++.                                                                                   ",
"   %@     %@     %@     %@           .*. .++X.                                                                                  ",
"   %@     %@     %@     %@           .*. .++X.                                                                                  ",
"   %@     %@     %@     %@ ooooooooo..=.oo.+XX.                                                                                 ",
"   @@     %@     %@ oooo%@oooooooo...===.o.....ooo                                                                              ",
"          %@     @@ooooo%@oooooooo.......oo.*.ooooooo                                                                           ",
"          %@    oooooooo%@ooooooooooooooooo.*.ooooooooo                                                                         ",
"          %@   ooooooooo%@oooooooooooooooo..=.oooooooooo                                                                        ",
"          %@   ooooooooo%@oooooooooooooo...===.ooooooooo                                                                        ",
"          %@   #oooooooo%@oooooooooooooo.......oooooooo#                                                                        ",
"          @@    ##oooooo%@ooooooooooooooooooooooooooo##                                                                         ",
"                  ###ooo@@oooooooooooooooooooooooo###                                                                           ",
"                     #####oooooooooooooooooooo####                                                                              ",
"                           ####ooooooooo####                                                                                    ",
"                               #########                                                                                        ",
"                                                                                                                                ",
"                                                                                                                                ",
"                                                                                                                                ",
"                                                                                                                                ",
"                                                                                                                                ",
"                                                                                                                                ",
"                                                                                                                                ",
"                                                                                                                                ",
"                                                                                                                                ",
"                                                                                                                                ",
"                                                                                                                                ",
"                                                                                                                                "
};
