/* XPM */
static char *result[] = {
/* columns rows colors chars-per-pixel */
"128 128 16 1 ",
"  c black",
". c #05021B",
"X c #3F1A11",
"o c #0F0425",
"O c #0B0530",
"+ c #110A3F",
"@ c #623328",
"# c #4F5030",
"$ c #636431",
"% c #6B6C34",
"& c #19114C",
"* c #524F4F",
"= c #706D6D",
"- c #7F7D7D",
"; c #A49E9E",
": c None",
/* pixels */
"::::::::::::::::::::::::::::::::::::::::::::::::::::::::::::::::::::::::::::::::::::::::::::::::::::     :::::::::::::::::::::::",
":::::::::::::::::::::::::::::::::::::::::::::::::::::::::::::::::::::::::::::::::::::::::::::::::::  XXX :::::::::::::::::::::::",
"::::::::::::::::::::::::::::::::::::::::::::::::::::::::::::::::::::::::::::::::::::::::::::::::::  XX   :::::::::::::::::::::::",
"::::::::::::::::::::::::::::::::::::::::::::::::::::::::::::::::::::::::::::::::::::::::::::::::  XX   :::::::::::::::::::::::::",
"::::::::::::::::::::::::::::::::::::::::::::::::::::::::::::::::::::::::::::::::::::::::::::::   X  ::::::::::::::::::::::::::::",
":::::::::::::::::::::::::::::::::::::::::::::::::::::::::::::::::::::::::::::::::::::::::::::  XXX :::::::::::::::::::::::::::::",
":::::::::::::::::::::::::::::::::::::::::::::::::::::::::::::::::::::::::::::::::::::::::::   XX  ::::::::::::::::::::::::::::::",
"::::::::::::::::::::::::::::::::::::::::::::::::::::::::::::::::::::::::::::::::::::::::::  XX  ::::::::::::::::::::::::::::::::",
":::::::::::::::::::::::::::::::::::::::::::::::::::::::::::::::::::::::::::::::::::  :::  XX  ::::::::::::::::::::::::::::::::::",
":::::::::::::::::::::::::::::::::::::::::::::::::::::::::::::::::::::::::::::::::: **   XX  ::::::::::::::::::::::::::::::::::::",
":::::::::::::::::  :::::::::::::::::::::::::::::::::::::::::::::::::::::::::::::: *-  XX  ::::::::::::::::::::::::::::::::::::::",
":::::::::::::::::  ::::::::::::::::::::::::::::::::::::::::::::::::::::::::::::::   XX  ::::::::::::::::::::::::::::::::::::::::",
":::::::::::::::: ; :::::::::::::::::::::::::::::::::::::::::::::::::::::::::::::  XX   :::::::::::::::::::::::::::::::::::::::::",
":::::::::::::::: ;; ::::::::::::::::::::::::::::::::::::::::::::::::::::::::::  XX  - ::::::::::::::::::::::::::::::::::::::::::",
":::::::::::::::: =; ::::::::::::::::::::::::::::::::::::::::::::::::::::::::  XXX  -  ::::::::::::::::::::::::::::::::::::::::::",
":::::::::::::::: =; ::::::::::::::::::::::::::::::::::::::::::::::::::  ::  XXX   *- :::::::::::::::::::::::::::::::::::::::::::",
":::::::::::::::: =; :::::::::::::::::::::::::::::::::::::::::::::::::: *  XXX  :: *- :::::::::::::::::::::::::::::::::::::::::::",
":::::::::::::::: =; ::::::::::::::::::::::::::::::::::::::::::::::::: -*- X  :::: -- :::::::::::::::::::::::::::::::::::::::::::",
":::::::::::::::: =;; :::::::::::::::::::::::::::::::::::::::::::::::  **-  :::::  - ::::::::::::::::::::::::::::::::::::::::::::",
":::::::::::::::  ==; ::::::::::::::::::::::::::::::::::      :::::  @ *-- :::::: -- ::::::::::::::::::::::::::::::::::::::::::::",
"::::::::::::::: **=;  :::::::::::::::::::::::::::::::   &&&&      @XX --         -= ::::::::::::::::::::::::::::::::::::::::::::",
"::::::::::::::: **=;; ::::::::::::::::::::*:::::::::  &&&&&&&&  @XXX  -  &&&&&&& -= ::::::::::::::::::::::::::::::::::::::::::::",
"::::::::::::::: **==; ::::::::::::::::::::::::::::: &&&&&&&+& @@XX  . - &&.         ::::::::::::::::::::::::::::::::::::::::::::",
"::::::::::::::: ***=; :::::::::::::::::::::::::::: &&&&&++&& @@XX &&  -     &&&&&&& ::::::::::::::::::::::::::::::::::::::::::::",
"::::::::::::::: ***=; :::::::::::::::::::::::::::  &&&&++&&  @X       - &&&&+&&&&&& ::::::::::::::::::::::::::::::::::::::::::::",
"::::::::::::::: ***=; ::::::::::::::::::::::::::: &&&&+&&& @@X ****  *- &&&&&+&&&&  ::::::::::::::::::::::::::::::::::::::::::::",
"::::::::::::::: ***=;; :::::::::::::::::::::::::  &&&++&  @X  *====* -  &&&+++&&&& :::::::::::::::::::::::::::::::::::::::::::::",
"::::::::::::::: ***==; :::::::::::::::::::::::: &&&&+&& @@X  *=----= -  &+++&&+++& :::::::::::::::::::::::::::::::::::::::::::::",
"::::::::::::::: ****==; ::::::::::::::::::::::: &&&&+& @@X  *=------ -  +&&&&++&+& :::::::::::::::::::::::::::::::::::::::::::::",
"::::::::::::::: *****=; ::::::::::::::::::::::: &&&&+ @@X & =-  --- *-  &&&+++&++  :::::::::::::::::::::::::::::::::::::::::::::",
":::::::::::::::  ****==; :::::::::::::::::::::: &&&  @@X && - ## -- -.  &&&&&+&++ ::::::::::::::::::::::::::::::::::::::::::::::",
":::::::::::::::: *****=; :::::::::::::::::::::: &+ @@@  &&&  $$##  ** . &&&&&+++  ::::::::::::::::::::::::::::::::::::::::::::::",
":::::::::::::::: *****==; ::::::::::::::::::::: & @@  &+&&&  %$$#  *- . +&&&&&++ :::::::::::::::::::::::::::::::::::::::::::::::",
":::::::::::::::: ******==; ::::::::::::::::::::  @@X &&+&&&  %%$#  -  . &&&&&++  :::::::::::::::::::::::::::::::::::::::::::::::",
"::::::::::::::::  ******==; :::::::::::::::::: @@@X +&+&&&   %%$#  -  . &&&&++& ::::::::::::::::::::::::::::::::::::::::::::::::",
"::::::::::::::::: ******===; :::::::::::::::: @@XX ++&+&&& - $$$# *-  . &&&++  :::::::::::::::::::::::::::::::::::::::::::::::::",
"::::::::::::::::: *******===; :::::::::::::: @@X  &+&&+&&& -- ##  *-  . &&++ :::::::::::::::::::::::::::::::::::::::::::::::::::",
":::::::::::::::::  *******===; :::::::::::  @@X &&&+&&&+&&& --  - -- o&&+++ ::::::::::::::::::::::::::::::::::::::::::::::::::::",
":::::::::::::::::: ********==;  ::::::::: @@@X &&&&&&&&+&&&& ---  - o&&+++ :::::::::::::::::::::::::::::::::::::::::::::::::::::",
":::::::::::::::::: ********===;  ::::::: @@XX   &&&&+&&+&&&& = - --  &++  ::::::::::::::::::::::::::::::::::::::::::::::::::::::",
":::::::::::::::::: *********===;  ::::: @@X  : &&&O              -= &&+& :::::::::::::::::::::::::::::::::::::::::::::::::::::::",
"::::::::::::::::::  *********===;  ::: @@X ::: &&O  &&&&&&&&&&&. -= &++  :::::::::::::::::::::::::::::::::::::::::::::::::::::::",
"::::::::::::::::::: **********===;    @@X :::  &&  .&&&&&&&         &+  ::::::::::::::::::::::::::::::::::::::::::::::::::::::::",
":::::::::::::::::::  **********===; @@@X :::: &&&           &&&&&&  ++ :::::::::::::::::::::::::::::::::::::::::::::::::::::::::",
":::::::::::::::::::: ***********=  @@XX ::::: &&& O&&&&&&&&&&&&&&&& +  :::::::::::::::::::::::::::::::::::::::::::::::::::::::::",
"::::::::::::::::::::  ********** @@@XX ::::: &&&. &&++++&&&&&+&&&+  + ::::::::::::::::::::::::::::::::::::::::::::::::::::::::::",
":::::::::::::::::::::  ******** @@@X  :::::: &&&. +&&++&&&&+++&&++ + :::::::::::::::::::::::::::::::::::::::::::::::::::::::::::",
":::::::::::::::::::::: ******  @@XX :::::::: &&&. +&&+&&&+++&&++++   :::::::::::::::::::::::::::::::::::::::::::::::::::::::::::",
"::::::::::::::::::::::  ****  @@XX ::::::::: &&.  &&&++++&&&&+++++  ::::::::::::::::::::::::::::::::::::::::::::::::::::::::::::",
":::::::::::::::::::::::      @@XX :::::::::  &+. O&&+++&&&&+++&+&  :::::::::::::::::::::::::::::::::::::::::::::::::::::::::::::",
":::::::::::::::::::::::: @@@@@@XX ::::::::: &&+. +&&++&&&&&&&++++  :::::::::::::::::::::::::::::::::::::::::::::::::::::::::::::",
"::::::::::::::::::::::::  @@@XXX  ::::::::: &+&. +&&++&&&&&&&+++&  :::::::::::::::::::::::::::::::::::::::::::::::::::::::::::::",
":::::::::::::::::::::::::  @XXXX ::::::::: &++&. +&++++++&&&&+++ + :::::::::::::::::::::::::::::::::::::::::::::::::::::::::::::",
"::::::::::::::::::::::::::  X    ::::::::: +++&. +&&+&&&&&&&+++ ++ :::::::::::::::::::::::::::::::::::::::::::::::::::::::::::::",
"::::::::::::::::::::::::::: X :::::::::::: +++&& +&+&&&&&&&+++& +  :::::::::::::::::::::::::::::::::::::::::::::::::::::::::::::",
":::::::::::::::::::::::::::   :::::::::::: +++&&.&&O+&&&&&+++  ++ ::::::::::::::::::::::::::::::::::::::::::::::::::::::::::::::",
":::::::::::::::::::::::::::::::::::::::::: +++&& &&O+&&&&&++ &++  ::::::::::::::::::::::::::::::::::::::::::::::::::::::::::::::",
":::::::::::::::::::::::::::::::::::::::::: ++&&& &&&&&&&&&+ ++++ :::::::::::::::::::::::::::::::::::::::::::::::::::::::::::::::",
":::::::::::::::::::::::::::::::::::::::::: ++&&& &&&&&&&&&++++++ :::::::::::::::::::::::::::::::::::::::::::::::::::::::::::::::",
":::::::::::::::::::::::::::::::::::::::::: ++&&&&&&&&&&&++++++++ :::::::::::::::::::::::::::::::::::::::::::::::::::::::::::::::",
":::::::::::::::::::::::::::::::::::::::::: ++&&&+++++&&+++++++++ :::::::::::::::::::::::::::::::::::::::::::::::::::::::::::::::",
":::::::::::::::::::::::::::::::::::::::::: ++&&&++&&&&&+++++++++  ::::::::::::::::::::::::::::::::::::::::::::::::::::::::::::::",
":::::::::::::::::::::::::::::::::::::::::: ++&&&+++&&&&++++++++++ ::::::::::::::::::::::::::::::::::::::::::::::::::::::::::::::",
":::::::::::::::::::::::::::::::::::::::::: +&+&&++++&&&++++++++++ ::::::::::::::::::::::::::::::::::::::::::::::::::::::::::::::",
":::::::::::::::::::::::::::::::::::::::::: +&+&&&&&+++&+++++++++++ :::::::::::::::::::::::::::::::::::::::::::::::::::::::::::::",
":::::::::::::::::::::::::::::::::::::::::: +&+&&&&&+&+++++++++++++ :::::::::::::::::::::::::::::::::::::::::::::::::::::::::::::",
":::::::::::::::::::::::::::::::::::::::::: +++&+&&&&&++++++++++++++ ::::::::::::::::::::::::::::::::::::::::::::::::::::::::::::",
"::::::::::::::::::::::::::::::::::::::::::  &+++++&&&&&+&++++++++++ ::::::::::::::::::::::::::::::::::::::::::::::::::::::::::::",
":::::::::::::::::::::::::::::::::::::::::::  +++&&&&&&&++&+++++++++ ::::::::::::::::::::::::::::::::::::::::::::::::::::::::::::",
":::::::::::::::::::::::::::::::::::::::::::: ++&++++&&&&&++++++++++  :::::::::::::::::::::::::::::::::::::::::::::::::::::::::::",
"::::::::::::::::::::::::::::::::::::::::::::  ++++++&&O&&&&+++++++++  ::::::::::::::::::::::::::::::::::::::::::::::::::::::::::",
":::::::::::::::::::::::::::::::::::::::::::::  ++&&&&&O&&&&++++++++++  :::::::::::::::::::::::::::::::::::::::::::::::::::::::::",
"::::::::::::::::::::::::::::::::::::::::::::::  +&&&&&&&&&&&&++++++++  :::::::::::::::::::::::::::::::::::::::::::::::::::::::::",
"::::::::::::::::::::::::::::::::::::::::::::::: ++&&&&&&&&O&&&&++++++& :::::::::::::::::::::::::::::::::::::::::::::::::::::::::",
"::::::::::::::::::::::::::::::::::::::::::::::  &+&+++&&&&O&&&O&+++&&&& ::::::::::::::::::::::::::::::::::::::::::::::::::::::::",
"::::::::::::::::::::::::::::::::::::::::::     &&+&++++&&&O&&&O&+&++++& ::::::::::::::::::::::::::::::::::::::::::::::::::::::::",
":::::::::::::::::::::::::::::::::::::::::: &&&&&+&+++++&&&&&&&&+&+&++&+ ::::::::::::::::::::::::::::::::::::::::::::::::::::::::",
":::::::::::::::::::::::::::::::::::::::::  &&&+++++&+&+O&&&&&+&+&++&&+& ::::::::::::::::::::::::::::::::::::::::::::::::::::::::",
"::::::::::::::::::::::::::::::::::::::::  &&+++++&&&&&+O+&&&&+&+&&+&&O+ ::::::::::::::::::::::::::::::::::::::::::::::::::::::::",
":::::::::::::::::::::::::::::::::::::::  &++&+++&&&&&&&+O++&++&+&&&&&&&  :::::::::::::::::::::::::::::::::::::::::::::::::::::::",
"::::::::::::::::::::::::::::::::::::::: &&&&++++&+&&&&&&++O+++&+&&&OOOOO :::::::::::::::::::::::::::::::::::::::::::::::::::::::",
":::::::::::::::::::::::::::::::::::::: +++++++&&++&&&&&&&&+++O&&&&++++++ :::::::::::::::::::::::::::::::::::::::::::::::::::::::",
":::::::::::::::::::::::::::::::::::::          ++&&&&&&&&&&&++&&&&+++&&& :::::::::::::::::::::::::::::::::::::::::::::::::::::::",
":::::::::::::::::::::::::::::::::::::::::::::: +&&&&&&++&+&&&&&&&&&&&&&&& ::::::::::::::::::::::::::::::::::::::::::::::::::::::",
":::::::::::::::::::::::::::::::::::::::::::::: &&&&&+++&&&&&&&&&&&&&&&&+&  :::::::::::::::::::::::::::::::::::::::::::::::::::::",
":::::::::::::::::::::::::::::::::::::::::::::: &&&&+&&&&&&&&&++&&&&&&&++++ :::::::::::::::::::::::::::::::::::::::::::::::::::::",
":::::::::::::::::::::::::::::::::::::::::::::: &&&&+&&&&&&&+++&&&&&++&&&+& :::::::::::::::::::::::::::::::::::::::::::::::::::::",
":::::::::::::::::::::::::::::::::::::::::::   &&&&&+&&&&&&&&++&&&&&+&&&&+& :::::::::::::::::::::::::::::::::::::::::::::::::::::",
":::::::::::::::::::::::::::::::::::::::::   &&&&&&&+&&&&&&&&+&&&&&++&&&&&& :::::::::::::::::::::::::::::::::::::::::::::::::::::",
"::::::::::::::::::::::::::::::::::::::::  &&&&&&&&&&&&&&&&&++&&&&&+&&&+&&+ :::::::::::::::::::::::::::::::::::::::::::::::::::::",
":::::::::::::::::::::::::::::::::::::::  &&&&&&&&&&++&&&&&&&+&&&&&+&&++&++ :::::::::::::::::::::::::::::::::::::::::::::::::::::",
":::::::::::::::::::::::::::::::::::::  &&&&&&&&&&&++&&&+&&&&+&&&&&&&&+&&++ :::::::::::::::::::::::::::::::::::::::::::::::::::::",
"::::::::::::::::::::::::::::::::::::  &&&&&&&&&&&&+&&&&+&&&++&&&&&&&++&&++ :::::::::::::::::::::::::::::::::::::::::::::::::::::",
":::::::::::::::::::::::::::::::::::  &&&&&+&&&&&&+&&&&&+&&&++&&&&&&&++&&++ :::::::::::::::::::::::::::::::::::::::::::::::::::::",
"::::::::::::::::::::::::::::::::::  &&&&+++&&&&&&&&&&&+&&&&++&+&&&&&+&+&+O :::::::::::::::::::::::::::::::::::::::::::::::::::::",
":::::::::::::::::::::::::::::::::  ++&&&&&&&&&&&&&&&&&+&&&&++&+&&&OO&&+&+O :::::::::::::::::::::::::::::::::::::::::::::::::::::",
"::::::::::::::::::::::::::::::::: +++++&&&&&&&&&&&&&&+&&&&&+&&+&&&OO+&+++O :::::::::::::::::::::::::::::::::::::::::::::::::::::",
":::::::::::::::::::::::::::::::::  +++++&+++++&&&&&++&&&&&++&+&&&&O++&++O  :::::::::::::::::::::::::::::::::::::::::::::::::::::",
"::::::::::::::::::::::::::::::::::  ++++++++&&&&&+++&&&&+++&++&&&OO+&+++O ::::::::::::::::::::::::::::::::::::::::::::::::::::::",
":::::::::::::::::::::::::::::::::::    +++&&&&&+++++&&&++&&&+&&&&O++&++OO ::::::::::::::::::::::::::::::::::::::::::::::::::::::",
":::::::::::::::::::::::::::::::::::::  &&&&&&&+++++&&&++&&&&+&&&OO+&&++OO ::::::::::::::::::::::::::::::::::::::::::::::::::::::",
"::::::::::::::::::::::::::::::::::::: &&&&&&&++++&&&++++&&&+&&&OO++&+++O. ::::::::::::::::::::::::::::::::::::::::::::::::::::::",
"::::::::::::::::::::::::::::::::::::: &&&&&&&+&&&&&&++++&&&+&&&O++&&+++O. ::::::::::::::::::::::::::::::::::::::::::::::::::::::",
"::::::::::::::::::::::::::::::::::::: &&&&&&+&&&&&&++++&&&+&&&& +&&&++OO  ::::::::::::::::::::::::::::::::::::::::::::::::::::::",
":::::::::::::::::::::::::::::::::::: &&&&&&++&&&&&++++&&+++&&&& +&&+++O. :::::::::::::::::::::::::::::::::::::::::::::::::::::::",
"::::::::::::::::::::::::::::::::::: &&&&&&++&&&&&+++&&&++&&&&+& +&&+++O. :::::::::::::::::::::::::::::::::::::::::::::::::::::::",
"::::::::::::::::::::::::::::::::::  &&&+++++&&&&+++&&&++&&&&+O  +&+++OO. :::::::::::::::::::::::::::::::::::::::::::::::::::::::",
":::::::::::::::::::::::::::::::::: &&&++&  &&&&&+&&&&&+&&&&+O  +++++OO. ::::::::::::::::::::::::::::::::::::::::::::::::::::::::",
"::::::::::::::::::::::::::::::::: +++++  :  &&& &&&&&++&&&+O. +++++OO.  ::::::::::::::::::::::::::::::::::::::::::::::::::::::::",
":::::::::::::::::::::::::::::::: OOOOO  ::: &&&  &&&++++++O.  +++OOO.  :::::::::::::::::::::::::::::::::::::::::::::::::::::::::",
"::::::::::::::::::::::::::::::::      :::: &&+ : &&&++OOOO.  +++OOO.  ::::::::::::::::::::::::::::::::::::::::::::::::::::::::::",
"::::::::::::::::::::::::::::::::::::::::: &OO :: +&++O.    ++++OO..  :::::::::::::::::::::::::::::::::::::::::::::::::::::::::::",
"::::::::::::::::::::::::::::::::::::::::: O. ::: ++O.  ++++++OOO.   ::::::::::::::::::::::::::::::::::::::::::::::::::::::::::::",
":::::::::::::::::::::::::::::::::::::::: &O  ::: +O. : OOOOOOO..  ::::::::::::::::::::::::::::::::::::::::::::::::::::::::::::::",
":::::::::::::::::::::::::::::::::::::::: O ::::: +O  : .......   :::::::::::::::::::::::::::::::::::::::::::::::::::::::::::::::",
"::::::::::::::::::::::::::::::::::::::::   :::: +O. ::         :::::::::::::::::::::::::::::::::::::::::::::::::::::::::::::::::",
"::::::::::::::::::::::::::::::::::::::::::::::  O. :::::::::::::::::::::::::::::::::::::::::::::::::::::::::::::::::::::::::::::",
"::::::::::::::::::::::::::::::::::::::::::::: OO  ::::::::::::::::::::::::::::::::::::::::::::::::::::::::::::::::::::::::::::::",
"::::::::::::::::::::::::::::::::::::::::::::  O ::::::::::::::::::::::::::::::::::::::::::::::::::::::::::::::::::::::::::::::::",
":::::::::::::::::::::::::::::::::::::::::::: O :::::::::::::::::::::::::::::::::::::::::::::::::::::::::::::::::::::::::::::::::",
"::::::::::::::::::::::::::::::::::::::::::::  ::::::::::::::::::::::::::::::::::::::::::::::::::::::::::::::::::::::::::::::::::",
"::::::::::::::::::::::::::::::::::::::::::::::::::::::::::::::::::::::::::::::::::::::::::::::::::::::::::::::::::::::::::::::::",
"::::::::::::::::::::::::::::::::::::::::::::::::::::::::::::::::::::::::::::::::::::::::::::::::::::::::::::::::::::::::::::::::",
"::::::::::::::::::::::::::::::::::::::::::::::::::::::::::::::::::::::::::::::::::::::::::::::::::::::::::::::::::::::::::::::::",
"::::::::::::::::::::::::::::::::::::::::::::::::::::::::::::::::::::::::::::::::::::::::::::::::::::::::::::::::::::::::::::::::",
"::::::::::::::::::::::::::::::::::::::::::::::::::::::::::::::::::::::::::::::::::::::::::::::::::::::::::::::::::::::::::::::::",
"::::::::::::::::::::::::::::::::::::::::::::::::::::::::::::::::::::::::::::::::::::::::::::::::::::::::::::::::::::::::::::::::",
"::::::::::::::::::::::::::::::::::::::::::::::::::::::::::::::::::::::::::::::::::::::::::::::::::::::::::::::::::::::::::::::::"
};
