/* XPM */
static char *result[] = {
/* columns rows colors chars-per-pixel */
"128 128 16 1 ",
"  c black",
". c #05021B",
"X c #3F1A11",
"o c #0F0425",
"O c #0B0530",
"+ c #110A3F",
"@ c #623328",
"# c #4F5030",
"$ c #636431",
"% c #6B6C34",
"& c #19114C",
"* c #524F4F",
"= c #706D6D",
"- c #7F7D7D",
"; c #A49E9E",
": c None",
/* pixels */
"::::::::::::::::::::::::::::::::::::::::::::            ::::::::::::::::::::::::::::::::::::::::::::::::::::::::::::::::::::::::",
":::::::::::::::::::::::::::::::::::::        **********     ::::::::::::::::::::::::::::::::::::::::::::::::::::::::::::::::::::",
":::::::::::::::::::::::::::::::::::  ;;======**************    :::::::::::::::::::::::::::::::::::::::::::::::::::::::::::::::::",
":::::::::::::::::::::::::::::::::::   ;;;;;;====**************     :::::::::::::::::::::::::::::::::::::::::::::::::::::::::::::",
"::::::::::::::::::::::::::::::::::::::     ;;;;======*************   :::::::::::::::::::::::::::::::::::::::::::::::::::::::::::",
":::::::::::::::::::::::::::::::::::::::::::   ;;;;;;==**************   :::::::::::::::::::::::::::::::::::::::::::::::::::::::::",
":::::::::::::::::::::::::::::::::::::::::::::      ;;===**************  ::::::::::::::::::::::::::::::::::::::::::::::::::::::::",
":::::::::::::::::::::::::::::::::::::::::::::::::::  ;;===*************   ::::::::::::::::::::::::::::::::::::::::::::::::::::::",
":::::::::::::::::::::::::::::::::::::::::::::::::::::  ;;==**************  :::::::::::::::::::::::::::::::::::::::::::::::::::::",
":::::::::::::::::::::::::::::::::::::::::::::::::::::::  ;===*************   :::::::::::::::::::::::::::::::::::::::::::::::::::",
"::::::::::::::::::::::::::::::::::::::::::::::::::::::::: ;===************ @  ::::::::::::::::::::::::::::::::::::::::::::::::::",
":::::::::::::::::::::::::::::::::::::::::::::::::::::::::: ;===*********** @@  :::::::::::::::::::::::::::::::::::::::::::::::::",
"::::::::::::::::::::::::::::::::::::::::::::::::::::::::::: ;====********* @@@   :::::::::::::::::::::::::::::::::::::::::::::::",
":::::::::::::::::::::::::::::::::::::::::::::::::::::::::::: ;====*******  @@XXX :::::::::::::::::::::::::::::::::::::::::::::::",
"::::::::::::::::::::::::::::::::::::::::::::::::::::::::::::: ;;===*****  @@XX   :::::::::::::::::::::::::::::::::::::::::::::::",
"::::::::::::::::::::::::::::::::::::::::::::::::::::::::::::::  ;===**** @@@XX :::::::::::::::::::::::::::::::::::::::::::::::::",
":::::::::::::::::::::::::::::::::::::::::::::::::::::::::::::::  ;===** @@XXXX :::::::::::::::::::::::::::::::::::::::::::::::::",
"::::::::::::::::::::::::::::::::::::::::::::::::::::::::::::::::  ;=== @@XXX   :::::::::::::::::::::::::::::::::::::::::::::::::",
":::::::::::::::::::::::::::::::::::::::::::::::::::::::::::::::::  ;= @@XX   :::::::::::::::::::::::::::::::::::::::::::::::::::",
"::::::::::::::::::::::::::::::::::::::::::::::::::::::::::::::::    ; @@X   ::::::::::::::::::::::::::::::::::::::::::::::::::::",
"::::::::::::::::::::::::::::::::::::::::::::::::::::::::::::::   &&  @@X &&  :::::::::::::::::::::::::::::::::::::::::::::::::::",
":::::::::::::::::::::::::::::::::::::::::::::::::::::::::::::  &&&& @@X &&&&& ::::::::::::::::::::::::::::::::::::::::::::::::::",
":::::::::::::::::::::::::::::::::::::::::::::::::::::::::::: &&&&&& @XX +&&&&& :::::::::::::::::::::::::::::::::::::::::::::::::",
"::::::::::::::::::::::::::::::::::::::::::::::::::::*::::::        @@X &++&&&&  ::::::::::::::::::::::::::::::::::::::::::::::::",
":::::::::::::::::::::::::::::::::::::::::::::::::::::::::: .. *** @@X &&&&+&&&& ::::::::::::::::::::::::::::::::::::::::::::::::",
"::::::::::::::::::::::::::::::::::::::::::::::::::::::::: .. *== @@X &&+&&++&&&  :::::::::::::::::::::::::::::::::::::::::::::::",
"::::::::::::::::::::::::::::::::::::::::::::::::::::::::: .. =- @@X   &++&&&+&&&& ::::::::::::::::::::::::::::::::::::::::::::::",
"::::::::::::::::::::::::::::::::::::::::::::::::::::::::: .. - @@X =* &&+&&&+&&&& ::::::::::::::::::::::::::::::::::::::::::::::",
"::::::::::::::::::::::::::::::::::::::::::::::::::::::::: .. - @X  -= &&+&&&+&&&&&  ::::::::::::::::::::::::::::::::::::::::::::",
"::::::::::::::::::::::::::::::::::::::::::::::::::::::::: ..  @@X # - &&++&&+&&&&&&  :::::::::::::::::::::::::::::::::::::::::::",
"::::::::::::::::::::::::::::::::::::::::::::::::::::::::: .  @@X #$$  &&&+&&+&++&&&& :::::::::::::::::::::::::::::::::::::::::::",
"::::::::::::::::::::::::::::::::::::::::::::::::::::::::: . @@X #$$%  &&&+&&+&+&&&&& :::::::::::::::::::::::::::::::::::::::::::",
":::::::::::::::::::::::::::::::::::::::::::::::::::::::::  @@X  #$%%  &&&+&&+&+&&&&&& ::::::::::::::::::::::::::::::::::::::::::",
":::::::::::::::::::::::::::::::::::::::::::::::::::::::::  @X - #$%%   &&&+&+&&+&&+&& ::::::::::::::::::::::::::::::::::::::::::",
"::::::::::::::::::::::::::::::::::::::::::::::::::::::::: @@X - #$$$ - &&&+&++&+&&+&&& :::::::::::::::::::::::::::::::::::::::::",
":::::::::::::::::::::::::::::::::::::::::::::::::::::::: @@X  -- ## -- &&&+&&+&+&&+&&& :::::::::::::::::::::::::::::::::::::::::",
"::::::::::::::::::::::::::::::::::::::::::::::::::::::: @@X  - --  -- &&&+&&&+&&&&+&&& :::::::::::::::::::::::::::::::::::::::::",
"::::::::::::::::::::::::::::::::::::::::::::::::::::::: @   o ------ &&&&+&&&&&&&&&&+&& ::::::::::::::::::::::::::::::::::::::::",
":::::::::::::::::::::::::::::::::::::::::::::::::::::: @@ ::    -- = &&&&+&&+&&&&&&&+&&  :::::::::::::::::::::::::::::::::::::::",
"::::::::::::::::::::::::::::::::::::::::::::::::::::: @@ ::::::  === &&&+&&&&&&+&&&&+&&& :::::::::::::::::::::::::::::::::::::::",
":::::::::::::::::::::::::::::::::::::::::::::::::::: @@X :::::::  = &+&&+&&&+++++&&&&+&&  ::::::::::::::::::::::::::::::::::::::",
"::::::::::::::::::::::::::::::::::::::::::::::::::: @@X :::::::: .  &+&&&&&&+&&&+&&&&+&&& ::::::::::::::::::::::::::::::::::::::",
"::::::::::::::::::::::::::::::::::::::::::::::::::: @X ::::::::: .. &&++&&+++&&&++&&++&&& ::::::::::::::::::::::::::::::::::::::",
":::::::::::::::::::::::::::::::::::::::::::::::::: @X :::::::::::.. &&+&&+++&&&&&++&&&+&& ::::::::::::::::::::::::::::::::::::::",
"::::::::::::::::::::::::::::::::::::::::::::::::: @X ::::::::::::.. &&+&&+&&+++++&+++&+&&& :::::::::::::::::::::::::::::::::::::",
"::::::::::::::::::::::::::::::::::::::::::::::::  @ ::::::::::::::. &&++&++&&&&&&&+++&&+&& :::::::::::::::::::::::::::::::::::::",
"::::::::::::::::::::::::::::::::::::::::::::::: @@X ::::::::::::::: &&++++&&&&&&&&&++&&&+& :::::::::::::::::::::::::::::::::::::",
":::::::::::::::::::::::::::::::::::::::::::::: @@X ::::::::::::::..  +++&&&+&&&&&&&&&&&&&& :::::::::::::::::::::::::::::::::::::",
":::::::::::::::::::::::::::::::::::::::::::::: @X :::::::::::::::.+++++&&&++&&&&+&&&+&&&&++ ::::::::::::::::::::::::::::::::::::",
"::::::::::::::::::::::::::::::::::::::::::::: @XX :::::::::::::: &++++&&&++&&&&++&&&+&&&&&+ ::::::::::::::::::::::::::::::::::::",
"::::::::::::::::::::::::::::::::::::::::::::: XX ::::::::::::::  &++++&&++&&&+++&&&&&&+&&&& ::::::::::::::::::::::::::::::::::::",
":::::::::::::::::::::::::::::::::::::::::::: @X ::::::::::::::  &&&&&&&&+&&&&+++&&&&&&&+&&& ::::::::::::::::::::::::::::::::::::",
":::::::::::::::::::::::::::::::::::::::::::: X ::::::::::::::: &&&&&&&&&&&&&&+&&&&&&&+&&&&& ::::::::::::::::::::::::::::::::::::",
"::::::::::::::::::::::::::::::::::::::::::: @X :::::::::::::: &&&&&&&&&+&&&&&&&&&&&&&+&&&&&  :::::::::::::::::::::::::::::::::::",
"::::::::::::::::::::::::::::::::::::::::::: X ::::::::::::::  &&&&&&&&&+&+&&&&&&&&&&&&+&&&&& :::::::::::::::::::::::::::::::::::",
":::::::::::::::::::::::::::::::::::::::::: @X :::::::::::::  &&&&&&&+&&&&&&++&&&&&&&&&++&&&& :::::::::::::::::::::::::::::::::::",
":::::::::::::::::::::::::::::::::::::::::: XX :::::::::::   &&&&++&&&+&&&&+&&++++++++&&&&&&& :::::::::::::::::::::::::::::::::::",
"::::::::::::::::::::::::::::::::::::::::: XX :::::  ::   &&&&&&&&&&&&+&+&&+++++++++&++&&&&&&  ::::::::::::::::::::::::::::::::::",
"::::::::::::::::::::::::::::::::::::::::               &&&&&&&&&&&&&&+++++++++++++++++&&&&&&& ::::::::::::::::::::::::::::::::::",
"::::::::::::::::::::::::::::::::::::::: ---------- &&&&&++&&&+&&+&&&+++&+++++++O +++++&+&&+&& ::::::::::::::::::::::::::::::::::",
"::::::::::::::::::::::::::::::::::::::: ========== &&&&&&+&&&+&++++++++++++OOOO  +&+++&+&&++& ::::::::::::::::::::::::::::::::::",
":::::::::::::::::::::::::::::::::::::::             &&&&&&&&&+++&&&&++&++OOOOO  ++++++&++&&+& ::::::::::::::::::::::::::::::::::",
"::::::::::::::::::::::::::::::::::::::: X ::::: ... &&+&+&&+&++++++++++OOO    ++++++++&&+&++& ::::::::::::::::::::::::::::::::::",
":::::::::::::::::::::::::::::::::::::   X :::::  .. &&+&+&&+&+++++++++OOO +++&+++++++&&&&&+&& ::::::::::::::::::::::::::::::::::",
"::::::::::::::::::::::::::::::::::::: -    ::::: .. &&+&&&++&++++++++OOO ++++++++++&+&&&+&+&& ::::::::::::::::::::::::::::::::::",
"::::::::::::::::::::::::::::::::::::: ----   ::  .. &&&&&&+++++++++&OO  +++++++++++&&&&&+&+&& ::::::::::::::::::::::::::::::::::",
":::::::::::::::::::::::::::::::::::::  **---     .. &&&&&+&++++++O+OO   ++&+++++++&&&&&&&&+&& ::::::::::::::::::::::::::::::::::",
":::::::::::::::::::::::::::::::::::: X   **----  .. &&&&&+++++++OOOO  : &+&&&&+&++&&&&+&&&+&& ::::::::::::::::::::::::::::::::::",
":::::::::::::::::::::::::::::::::::  X ::  **--  ..  &&&&+++++OOOOO  :: +&&&&&++++&&&&++&&+&& ::::::::::::::::::::::::::::::::::",
"::::::::::::::::::::::::::::::::::: X ::::       ... &+++++OOOOOO   :::  &&&&&&+++&&&&++&&+&& ::::::::::::::::::::::::::::::::::",
"::::::::::::::::::::::::::::::::::: X *::::: ... ... &+++OOOO.OO  :::::: &&&&&&+++&&&&++&&+&& ::::::::::::::::::::::::::::::::::",
":::::::::::::::::::::::::::::::::: X  ::::::  .. ... +++OOOOO.O ::::::::: &&&&++++&&&&&&&&+&& ::::::::::::::::::::::::::::::::::",
":::::::::::::::::::::::::::::::::: X :::::::: ..  .. ++OOOOO.  :::::::::  &&&&+&++&&&&&&&&+&& ::::::::::::::::::::::::::::::::::",
"::::::::::::::::::::::::::::::::: X ::::::::: ..   . OOOOOO.   ::::::::: &&&&&&&++&&&&&&&+&&& ::::::::::::::::::::::::::::::::::",
"::::::::::::::::::::::::::::::::: X ::::::::: .. O   ......  . ::::::::: &&++&&&++&&&&&&&+&&& ::::::::::::::::::::::::::::::::::",
":::::::::::::::::::::::::::::::: X :::::::::: .. &   .        :::::::::: &&++&&&+&&&&&&&&+&&& ::::::::::::::::::::::::::::::::::",
":::::::::::::::::::::::::::::::  X :::::::::: ..  OO   +OOO. ::::::::::: &&+&&&&++&&&&&&&&&&& ::::::::::::::::::::::::::::::::::",
"::::::::::::::::::::::::::::::: X :::::::::::: .. O++OOOOo& :::::::::::  &&+&&&&+&&&&&&&+&&&& ::::::::::::::::::::::::::::::::::",
"::::::::::::::::::::::::::::::  X ::::::::::::: . O+++OO   :::::::::::: &&&+&&&&&&&&&&&&+&&&& ::::::::::::::::::::::::::::::::::",
":::::::::::::::::::::::::::::  X :::::::::::::::        ::::::::::::::: &&++&&&&+&&&&&&&+&&&& ::::::::::::::::::::::::::::::::::",
"::::::::::::::::::::::::::::: XX ::::::::::::::::::::::::::::::::::::: &&&+&&&&&+&&&&+&&+&&&&  :::::::::::::::::::::::::::::::::",
"::::::::::::::::::::::::::::  X :::::::::::::::::::::::::::::::::::::: &&&+&&&+&&&&&&&&&+&&&&& :::::::::::::::::::::::::::::::::",
":::::::::::::::::::::::::::: XX :::::::::::::::::::::::::::::::::::::: &&&+&&&+&&&&&&&&&&&&&&+ :::::::::::::::::::::::::::::::::",
"::::::::::::::::::::::::::: X  ::::::::::::::::::::::::::::::::::::::  &&&+&&&+&&&&+&&&&&&&&++ :::::::::::::::::::::::::::::::::",
"::::::::::::::::::::::::::  X ::::::::::::::::::::::::::::::::::::::: &&&&&&&&+&&&+&&&+&&+&&+O :::::::::::::::::::::::::::::::::",
":::::::::::::::::::::::::  X :::::::::::::::::::::::::::::::::::::::  &&&+&&&+&&&&+&&&+&&+&&+O :::::::::::::::::::::::::::::::::",
"::::::::::::::::::::::::: XX ::::::::::::::::::::::::::::::::::::::  &&+++&&++&&&++&&++&+&&&+O :::::::::::::::::::::::::::::::::",
"::::::::::::::::::::::::: X  :::::::::::::::::::::::::::::::::::::: &&&&&&&++&&&&+&&+++&+&&&+O :::::::::::::::::::::::::::::::::",
"::::::::::::::::::::::::: X :::::::::::::::::::::::::::::::::::::: &&&&&&&++&&&&&&&&+++&+&&&+O :::::::::::::::::::::::::::::::::",
":::::::::::::::::::::::::   ::::::::::::::::::::::::::::::::::::  &&&+&&&+++&&&&&&&+++&&+&&++O :::::::::::::::::::::::::::::::::",
":::::::::::::::::::::::::::::::::::::::::::::::::::::::::::::::: &&&+&&&+++&&&&+&&&+&+&&&&&+&O :::::::::::::::::::::::::::::::::",
"::::::::::::::::::::::::::::::::::::::::::::::::::::::::::::::: &&&++&&++++&&&+&&&++&+&&&+&+OO :::::::::::::::::::::::::::::::::",
"::::::::::::::::::::::::::::::::::::::::::::::::::::::::::::::  &&&+&&++++&&&&+&&&+&+&&&&+&+O  :::::::::::::::::::::::::::::::::",
":::::::::::::::::::::::::::::::::::::::::::::::::::::::::::::: &&&+&&&++&+&&&&&&&&++&&&&+++&O ::::::::::::::::::::::::::::::::::",
":::::::::::::::::::::::::::::::::::::::::::::::::::::::::::::  &&+&&&&+++&&&&&&&&&++&&&&+&++O ::::::::::::::::::::::::::::::::::",
"::::::::::::::::::::::::::::::::::::::::::::::::::::::::::::  &&&++&&++++&&&&&&&&&+&&&&&+&++O ::::::::::::::::::::::::::::::::::",
":::::::::::::::::::::::::::::::::::::::::::::::::::::::::::: &&&+&&&&+&+&&&&&&&&&&+&&&&+&++OO ::::::::::::::::::::::::::::::::::",
"::::::::::::::::::::::::::::::::::::::::::::::::::::::::::: &&&&+&&&++++&&&&&&&&&+&&&&++&++O :::::::::::::::::::::::::::::::::::",
"::::::::::::::::::::::::::::::::::::::::::::::::::::::::::  &&+++&&&+&++&&&&++&&&+&&&&+&&+OO :::::::::::::::::::::::::::::::::::",
":::::::::::::::::::::::::::::::::::::::::::::::::::::::::  &&++&&&&&++++&&&&+&&&&+&&&++&+OO ::::::::::::::::::::::::::::::::::::",
"::::::::::::::::::::::::::::::::::::::::::::::::::::::::  &&++&&&&&++++&&&&&+&&&&+&&&+&&+O  ::::::::::::::::::::::::::::::::::::",
":::::::::::::::::::::::::::::::::::::::::::::::::::::::: &&++&&&++++++&&&&&&&&&&++&&&+&++O :::::::::::::::::::::::::::::::::::::",
":::::::::::::::::::::::::::::::::::::::::::::::::::::::  &++&&&&+++&+&&&&&++&&+++&&&&+&OOO :::::::::::::::::::::::::::::::::::::",
"::::::::::::::::::::::::::::::::::::::::::::::::::::::: &++&&&&++&&&+&&&&+&&&&OOOO&&&++OO ::::::::::::::::::::::::::::::::::::::",
"::::::::::::::::::::::::::::::::::::::::::::::::::::::: ++&&&+++&&&++&&&&&&&&OO  O++&+OO+ ::::::::::::::::::::::::::::::::::::::",
":::::::::::::::::::::::::::::::::::::::::::::::::::::  O+&&&+++&&&+++&&&&&&&OO  :   ++OO :::::::::::::::::::::::::::::::::::::::",
"::::::::::::::::::::::::::::::::::::::::::::::::::::: .OO  &+&+&&++++&&++&&OO ::::: ++OO :::::::::::::::::::::::::::::::::::::::",
":::::::::::::::::::::::::::::::::::::::::::::::::::  OOO :: +++&+++++&&+&+OO  ::::: +OO ::::::::::::::::::::::::::::::::::::::::",
"::::::::::::::::::::::::::::::::::::::::::::::::::: OO  ::: ++++++++&&&+&+O  :::::: +O  ::::::::::::::::::::::::::::::::::::::::",
"::::::::::::::::::::::::::::::::::::::::::::::::::    :::: &+++OOOOO+&&&+OO ::::::: +O :::::::::::::::::::::::::::::::::::::::::",
":::::::::::::::::::::::::::::::::::::::::::::::::::::::::  +++OO+  O++&&+O :::::::: OO :::::::::::::::::::::::::::::::::::::::::",
"::::::::::::::::::::::::::::::::::::::::::::::::::::::::: +++OO+ : O++&++O ::::::::   ::::::::::::::::::::::::::::::::::::::::::",
":::::::::::::::::::::::::::::::::::::::::::::::::::::::: O+&OO+ :: OO++++O :::::::::::::::::::::::::::::::::::::::::::::::::::::",
":::::::::::::::::::::::::::::::::::::::::::::::::::::::  OOOO+  ::  O++++O :::::::::::::::::::::::::::::::::::::::::::::::::::::",
":::::::::::::::::::::::::::::::::::::::::::::::::::::::  OOO   ::::  OOO+O :::::::::::::::::::::::::::::::::::::::::::::::::::::",
":::::::::::::::::::::::::::::::::::::::::::::::::::::::: OO  :::::::  OOOO :::::::::::::::::::::::::::::::::::::::::::::::::::::",
":::::::::::::::::::::::::::::::::::::::::::::::::::::::: O :::::::::::     :::::::::::::::::::::::::::::::::::::::::::::::::::::",
"::::::::::::::::::::::::::::::::::::::::::::::::::::::::  ::::::::::::::::::::::::::::::::::::::::::::::::::::::::::::::::::::::",
"::::::::::::::::::::::::::::::::::::::::::::::::::::::::::::::::::::::::::::::::::::::::::::::::::::::::::::::::::::::::::::::::",
"::::::::::::::::::::::::::::::::::::::::::::::::::::::::::::::::::::::::::::::::::::::::::::::::::::::::::::::::::::::::::::::::",
"::::::::::::::::::::::::::::::::::::::::::::::::::::::::::::::::::::::::::::::::::::::::::::::::::::::::::::::::::::::::::::::::",
"::::::::::::::::::::::::::::::::::::::::::::::::::::::::::::::::::::::::::::::::::::::::::::::::::::::::::::::::::::::::::::::::",
"::::::::::::::::::::::::::::::::::::::::::::::::::::::::::::::::::::::::::::::::::::::::::::::::::::::::::::::::::::::::::::::::",
"::::::::::::::::::::::::::::::::::::::::::::::::::::::::::::::::::::::::::::::::::::::::::::::::::::::::::::::::::::::::::::::::",
"::::::::::::::::::::::::::::::::::::::::::::::::::::::::::::::::::::::::::::::::::::::::::::::::::::::::::::::::::::::::::::::::",
"::::::::::::::::::::::::::::::::::::::::::::::::::::::::::::::::::::::::::::::::::::::::::::::::::::::::::::::::::::::::::::::::",
"::::::::::::::::::::::::::::::::::::::::::::::::::::::::::::::::::::::::::::::::::::::::::::::::::::::::::::::::::::::::::::::::",
"::::::::::::::::::::::::::::::::::::::::::::::::::::::::::::::::::::::::::::::::::::::::::::::::::::::::::::::::::::::::::::::::"
};
