/* XPM */
static char *result[] = {
/* columns rows colors chars-per-pixel */
"128 128 16 1 ",
"  c black",
". c #05021B",
"X c #3F1A11",
"o c #0F0425",
"O c #0B0530",
"+ c #110A3F",
"@ c #623328",
"# c #4F5030",
"$ c #636431",
"% c #6B6C34",
"& c #19114C",
"* c #524F4F",
"= c #706D6D",
"- c #7F7D7D",
"; c #A49E9E",
": c None",
/* pixels */
"::::::::::::::::::::::::::::::::::::::::::::::::::::::::::::::::::::::::            ::::::::::::::::::::::::::::::::::::::::::::",
"::::::::::::::::::::::::::::::::::::::::::::::::::::::::::::::::::::     **********        :::::::::::::::::::::::::::::::::::::",
":::::::::::::::::::::::::::::::::::::::::::::::::::::::::::::::::    **************======;;  :::::::::::::::::::::::::::::::::::",
":::::::::::::::::::::::::::::::::::::::::::::::::::::::::::::     **************====;;;;;;   :::::::::::::::::::::::::::::::::::",
":::::::::::::::::::::::::::::::::::::::::::::::::::::::::::   *************======;;;;     ::::::::::::::::::::::::::::::::::::::",
":::::::::::::::::::::::::::::::::::::::::::::::::::::::::   **************==;;;;;;   :::::::::::::::::::::::::::::::::::::::::::",
"::::::::::::::::::::::::::::::::::::::::::::::::::::::::  **************===;;      :::::::::::::::::::::::::::::::::::::::::::::",
"::::::::::::::::::::::::::::::::::::::::::::::::::::::   *************===;;  :::::::::::::::::::::::::::::::::::::::::::::::::::",
":::::::::::::::::::::::::::::::::::::::::::::::::::::  **************==;;  :::::::::::::::::::::::::::::::::::::::::::::::::::::",
":::::::::::::::::::::::::::::::::::::::::::::::::::   *************===;  :::::::::::::::::::::::::::::::::::::::::::::::::::::::",
"::::::::::::::::::::::::::::::::::::::::::::::::::  @ ************===; :::::::::::::::::::::::::::::::::::::::::::::::::::::::::",
":::::::::::::::::::::::::::::::::::::::::::::::::  @@ ***********===; ::::::::::::::::::::::::::::::::::::::::::::::::::::::::::",
":::::::::::::::::::::::::::::::::::::::::::::::   @@@ *********====; :::::::::::::::::::::::::::::::::::::::::::::::::::::::::::",
"::::::::::::::::::::::::::::::::::::::::::::::: XXX@@  *******====; ::::::::::::::::::::::::::::::::::::::::::::::::::::::::::::",
":::::::::::::::::::::::::::::::::::::::::::::::   XX@@  *****===;; :::::::::::::::::::::::::::::::::::::::::::::::::::::::::::::",
"::::::::::::::::::::::::::::::::::::::::::::::::: XX@@@ ****===;  ::::::::::::::::::::::::::::::::::::::::::::::::::::::::::::::",
"::::::::::::::::::::::::::::::::::::::::::::::::: XXXX@@ **===;  :::::::::::::::::::::::::::::::::::::::::::::::::::::::::::::::",
":::::::::::::::::::::::::::::::::::::::::::::::::   XXX@@ ===;  ::::::::::::::::::::::::::::::::::::::::::::::::::::::::::::::::",
":::::::::::::::::::::::::::::::::::::::::::::::::::   XX@@ =;  :::::::::::::::::::::::::::::::::::::::::::::::::::::::::::::::::",
"::::::::::::::::::::::::::::::::::::::::::::::::::::   X@@ ;    ::::::::::::::::::::::::::::::::::::::::::::::::::::::::::::::::",
":::::::::::::::::::::::::::::::::::::::::::::::::::  && X@@  &&   ::::::::::::::::::::::::::::::::::::::::::::::::::::::::::::::",
":::::::::::::::::::::::::::::::::::::::::::::::::: &&&&& X@@ &&&&  :::::::::::::::::::::::::::::::::::::::::::::::::::::::::::::",
"::::::::::::::::::::::::::::::::::::::::::::::::: &&&&&+ XX@ &&&&&& ::::::::::::::::::::::::::::::::::::::::::::::::::::::::::::",
"::::::::::::::::::::::::::::::::::::::::::::::::  &&&&++& X@@        ::::::*::::::::::::::::::::::::::::::::::::::::::::::::::::",
":::::::::::::::::::::::::::::::::::::::::::::::: &&&&+&&&& X@@ *** .. ::::::::::::::::::::::::::::::::::::::::::::::::::::::::::",
":::::::::::::::::::::::::::::::::::::::::::::::  &&&++&&+&& X@@ ==* .. :::::::::::::::::::::::::::::::::::::::::::::::::::::::::",
":::::::::::::::::::::::::::::::::::::::::::::: &&&&+&&&++&   X@@ -= .. :::::::::::::::::::::::::::::::::::::::::::::::::::::::::",
":::::::::::::::::::::::::::::::::::::::::::::: &&&&+&&&+&& *= X@@ - .. :::::::::::::::::::::::::::::::::::::::::::::::::::::::::",
"::::::::::::::::::::::::::::::::::::::::::::  &&&&&+&&&+&& =-  X@ - .. :::::::::::::::::::::::::::::::::::::::::::::::::::::::::",
":::::::::::::::::::::::::::::::::::::::::::  &&&&&&+&&++&& - # X@@  .. :::::::::::::::::::::::::::::::::::::::::::::::::::::::::",
"::::::::::::::::::::::::::::::::::::::::::: &&&&++&+&&+&&&  $$# X@@  . :::::::::::::::::::::::::::::::::::::::::::::::::::::::::",
"::::::::::::::::::::::::::::::::::::::::::: &&&&&+&+&&+&&&  %$$# X@@ . :::::::::::::::::::::::::::::::::::::::::::::::::::::::::",
":::::::::::::::::::::::::::::::::::::::::: &&&&&&+&+&&+&&&  %%$#  X@@  :::::::::::::::::::::::::::::::::::::::::::::::::::::::::",
":::::::::::::::::::::::::::::::::::::::::: &&+&&+&&+&+&&&   %%$# - X@  :::::::::::::::::::::::::::::::::::::::::::::::::::::::::",
"::::::::::::::::::::::::::::::::::::::::: &&&+&&+&++&+&&& - $$$# - X@@ :::::::::::::::::::::::::::::::::::::::::::::::::::::::::",
"::::::::::::::::::::::::::::::::::::::::: &&&+&&+&+&&+&&& -- ## --  X@@ ::::::::::::::::::::::::::::::::::::::::::::::::::::::::",
"::::::::::::::::::::::::::::::::::::::::: &&&+&&&&+&&&+&&& --  -- -  X@@ :::::::::::::::::::::::::::::::::::::::::::::::::::::::",
":::::::::::::::::::::::::::::::::::::::: &&+&&&&&&&&&&+&&&& ------ o   @ :::::::::::::::::::::::::::::::::::::::::::::::::::::::",
":::::::::::::::::::::::::::::::::::::::  &&+&&&&&&&+&&+&&&& = --    :: @@ ::::::::::::::::::::::::::::::::::::::::::::::::::::::",
"::::::::::::::::::::::::::::::::::::::: &&&+&&&&+&&&&&&+&&& ===  :::::: @@ :::::::::::::::::::::::::::::::::::::::::::::::::::::",
"::::::::::::::::::::::::::::::::::::::  &&+&&&&+++++&&&+&&+& =  ::::::: X@@ ::::::::::::::::::::::::::::::::::::::::::::::::::::",
":::::::::::::::::::::::::::::::::::::: &&&+&&&&+&&&+&&&&&&+&  . :::::::: X@@ :::::::::::::::::::::::::::::::::::::::::::::::::::",
":::::::::::::::::::::::::::::::::::::: &&&++&&++&&&+++&&++&& .. ::::::::: X@ :::::::::::::::::::::::::::::::::::::::::::::::::::",
":::::::::::::::::::::::::::::::::::::: &&+&&&++&&&&&+++&&+&& ..::::::::::: X@ ::::::::::::::::::::::::::::::::::::::::::::::::::",
"::::::::::::::::::::::::::::::::::::: &&&+&+++&+++++&&+&&+&& ..:::::::::::: X@ :::::::::::::::::::::::::::::::::::::::::::::::::",
"::::::::::::::::::::::::::::::::::::: &&+&&+++&&&&&&&++&++&& .:::::::::::::: @  ::::::::::::::::::::::::::::::::::::::::::::::::",
"::::::::::::::::::::::::::::::::::::: &+&&&++&&&&&&&&&++++&& ::::::::::::::: X@@ :::::::::::::::::::::::::::::::::::::::::::::::",
"::::::::::::::::::::::::::::::::::::: &&&&&&&&&&&&&&+&&&+++  ..:::::::::::::: X@@ ::::::::::::::::::::::::::::::::::::::::::::::",
":::::::::::::::::::::::::::::::::::: ++&&&&+&&&+&&&&++&&&+++++.::::::::::::::: X@ ::::::::::::::::::::::::::::::::::::::::::::::",
":::::::::::::::::::::::::::::::::::: +&&&&&+&&&++&&&&++&&&++++& :::::::::::::: XX@ :::::::::::::::::::::::::::::::::::::::::::::",
":::::::::::::::::::::::::::::::::::: &&&&+&&&&&&+++&&&++&&++++&  :::::::::::::: XX :::::::::::::::::::::::::::::::::::::::::::::",
":::::::::::::::::::::::::::::::::::: &&&+&&&&&&&+++&&&&+&&&&&&&&  :::::::::::::: X@ ::::::::::::::::::::::::::::::::::::::::::::",
":::::::::::::::::::::::::::::::::::: &&&&&+&&&&&&&+&&&&&&&&&&&&&& ::::::::::::::: X ::::::::::::::::::::::::::::::::::::::::::::",
":::::::::::::::::::::::::::::::::::  &&&&&+&&&&&&&&&&&&&+&&&&&&&&& :::::::::::::: X@ :::::::::::::::::::::::::::::::::::::::::::",
"::::::::::::::::::::::::::::::::::: &&&&&+&&&&&&&&&&&&+&+&&&&&&&&&  :::::::::::::: X :::::::::::::::::::::::::::::::::::::::::::",
"::::::::::::::::::::::::::::::::::: &&&&++&&&&&&&&&++&&&&&&+&&&&&&&  ::::::::::::: X@ ::::::::::::::::::::::::::::::::::::::::::",
"::::::::::::::::::::::::::::::::::: &&&&&&&++++++++&&+&&&&+&&&++&&&&   ::::::::::: XX ::::::::::::::::::::::::::::::::::::::::::",
"::::::::::::::::::::::::::::::::::  &&&&&&++&+++++++++&&+&+&&&&&&&&&&&&   ::  ::::: XX :::::::::::::::::::::::::::::::::::::::::",
":::::::::::::::::::::::::::::::::: &&&&&&&+++++++++++++++++&&&&&&&&&&&&&&               ::::::::::::::::::::::::::::::::::::::::",
":::::::::::::::::::::::::::::::::: &&+&&+&+++++ O+++++++&+++&&&+&&+&&&++&&&&& ---------- :::::::::::::::::::::::::::::::::::::::",
":::::::::::::::::::::::::::::::::: &++&&+&+++&+  OOOO++++++++++++&+&&&+&&&&&& ========== :::::::::::::::::::::::::::::::::::::::",
":::::::::::::::::::::::::::::::::: &+&&++&++++++  OOOOO++&++&&&&+++&&&&&&&&&             :::::::::::::::::::::::::::::::::::::::",
":::::::::::::::::::::::::::::::::: &++&+&&++++++++    OOO++++++++++&+&&+&+&& ... ::::: X :::::::::::::::::::::::::::::::::::::::",
":::::::::::::::::::::::::::::::::: &&+&&&&&+++++++&+++ OOO+++++++++&+&&+&+&& ..  ::::: X   :::::::::::::::::::::::::::::::::::::",
":::::::::::::::::::::::::::::::::: &&+&+&&&+&++++++++++ OOO++++++++&++&&&+&& .. :::::    - :::::::::::::::::::::::::::::::::::::",
":::::::::::::::::::::::::::::::::: &&+&+&&&&&+++++++++++  OO&+++++++++&&&&&& ..  ::   ---- :::::::::::::::::::::::::::::::::::::",
":::::::::::::::::::::::::::::::::: &&+&&&&&&&&+++++++&++   OO+O++++++&+&&&&& ..     ---**  :::::::::::::::::::::::::::::::::::::",
":::::::::::::::::::::::::::::::::: &&+&&&+&&&&++&+&&&&+& :  OOOO+++++++&&&&& ..  ----**   X ::::::::::::::::::::::::::::::::::::",
":::::::::::::::::::::::::::::::::: &&+&&++&&&&++++&&&&&+ ::  OOOOO+++++&&&&  ..  --**  :: X  :::::::::::::::::::::::::::::::::::",
":::::::::::::::::::::::::::::::::: &&+&&++&&&&+++&&&&&&  :::   OOOOOO+++++& ...       :::: X :::::::::::::::::::::::::::::::::::",
":::::::::::::::::::::::::::::::::: &&+&&++&&&&+++&&&&&& ::::::  OO.OOOO+++& ... ... :::::* X :::::::::::::::::::::::::::::::::::",
":::::::::::::::::::::::::::::::::: &&+&&&&&&&&++++&&&& ::::::::: O.OOOOO+++ ... ..  ::::::  X ::::::::::::::::::::::::::::::::::",
":::::::::::::::::::::::::::::::::: &&+&&&&&&&&++&+&&&&  :::::::::  .OOOOO++ ..  .. :::::::: X ::::::::::::::::::::::::::::::::::",
":::::::::::::::::::::::::::::::::: &&&+&&&&&&&++&&&&&&& :::::::::   .OOOOOO .   .. ::::::::: X :::::::::::::::::::::::::::::::::",
":::::::::::::::::::::::::::::::::: &&&+&&&&&&&++&&&++&& ::::::::: .  ......   O .. ::::::::: X :::::::::::::::::::::::::::::::::",
":::::::::::::::::::::::::::::::::: &&&+&&&&&&&&+&&&++&& ::::::::::        .   & .. :::::::::: X ::::::::::::::::::::::::::::::::",
":::::::::::::::::::::::::::::::::: &&&&&&&&&&&++&&&&+&& ::::::::::: .OOO+   OO  .. :::::::::: X  :::::::::::::::::::::::::::::::",
":::::::::::::::::::::::::::::::::: &&&&+&&&&&&&+&&&&+&&  ::::::::::: &oOOOO++O .. :::::::::::: X :::::::::::::::::::::::::::::::",
":::::::::::::::::::::::::::::::::: &&&&+&&&&&&&&&&&&+&&& ::::::::::::   OO+++O . ::::::::::::: X  ::::::::::::::::::::::::::::::",
":::::::::::::::::::::::::::::::::: &&&&+&&&&&&&+&&&&++&& :::::::::::::::        ::::::::::::::: X  :::::::::::::::::::::::::::::",
":::::::::::::::::::::::::::::::::  &&&&+&&+&&&&+&&&&&+&&& ::::::::::::::::::::::::::::::::::::: XX :::::::::::::::::::::::::::::",
"::::::::::::::::::::::::::::::::: &&&&&+&&&&&&&&&+&&&+&&& :::::::::::::::::::::::::::::::::::::: X  ::::::::::::::::::::::::::::",
"::::::::::::::::::::::::::::::::: +&&&&&&&&&&&&&&+&&&+&&& :::::::::::::::::::::::::::::::::::::: XX ::::::::::::::::::::::::::::",
"::::::::::::::::::::::::::::::::: ++&&&&&&&&+&&&&+&&&+&&&  ::::::::::::::::::::::::::::::::::::::  X :::::::::::::::::::::::::::",
"::::::::::::::::::::::::::::::::: O+&&+&&+&&&+&&&+&&&&&&&& ::::::::::::::::::::::::::::::::::::::: X  ::::::::::::::::::::::::::",
"::::::::::::::::::::::::::::::::: O+&&+&&+&&&+&&&&+&&&+&&&  ::::::::::::::::::::::::::::::::::::::: X  :::::::::::::::::::::::::",
"::::::::::::::::::::::::::::::::: O+&&&+&++&&++&&&++&&+++&&  :::::::::::::::::::::::::::::::::::::: XX :::::::::::::::::::::::::",
"::::::::::::::::::::::::::::::::: O+&&&+&+++&&+&&&&++&&&&&&& ::::::::::::::::::::::::::::::::::::::  X :::::::::::::::::::::::::",
"::::::::::::::::::::::::::::::::: O+&&&+&+++&&&&&&&&++&&&&&&& :::::::::::::::::::::::::::::::::::::: X :::::::::::::::::::::::::",
"::::::::::::::::::::::::::::::::: O++&&+&&+++&&&&&&&+++&&&+&&&  ::::::::::::::::::::::::::::::::::::   :::::::::::::::::::::::::",
"::::::::::::::::::::::::::::::::: O&+&&&&&+&+&&&+&&&&+++&&&+&&& ::::::::::::::::::::::::::::::::::::::::::::::::::::::::::::::::",
"::::::::::::::::::::::::::::::::: OO+&+&&&+&++&&&+&&&++++&&++&&& :::::::::::::::::::::::::::::::::::::::::::::::::::::::::::::::",
":::::::::::::::::::::::::::::::::  O+&+&&&&+&+&&&+&&&&++++&&+&&&  ::::::::::::::::::::::::::::::::::::::::::::::::::::::::::::::",
":::::::::::::::::::::::::::::::::: O&+++&&&&++&&&&&&&&+&++&&&+&&& ::::::::::::::::::::::::::::::::::::::::::::::::::::::::::::::",
":::::::::::::::::::::::::::::::::: O++&+&&&&++&&&&&&&&&+++&&&&+&&  :::::::::::::::::::::::::::::::::::::::::::::::::::::::::::::",
":::::::::::::::::::::::::::::::::: O++&+&&&&&+&&&&&&&&&++++&&++&&&  ::::::::::::::::::::::::::::::::::::::::::::::::::::::::::::",
":::::::::::::::::::::::::::::::::: OO++&+&&&&+&&&&&&&&&&+&+&&&&+&&& ::::::::::::::::::::::::::::::::::::::::::::::::::::::::::::",
"::::::::::::::::::::::::::::::::::: O++&++&&&&+&&&&&&&&&++++&&&+&&&& :::::::::::::::::::::::::::::::::::::::::::::::::::::::::::",
"::::::::::::::::::::::::::::::::::: OO+&&+&&&&+&&&++&&&&++&+&&&+++&&  ::::::::::::::::::::::::::::::::::::::::::::::::::::::::::",
":::::::::::::::::::::::::::::::::::: OO+&++&&&+&&&&+&&&&++++&&&&&++&&  :::::::::::::::::::::::::::::::::::::::::::::::::::::::::",
"::::::::::::::::::::::::::::::::::::  O+&&+&&&+&&&&+&&&&&++++&&&&&++&&  ::::::::::::::::::::::::::::::::::::::::::::::::::::::::",
"::::::::::::::::::::::::::::::::::::: O++&+&&&++&&&&&&&&&&++++++&&&++&& ::::::::::::::::::::::::::::::::::::::::::::::::::::::::",
"::::::::::::::::::::::::::::::::::::: OOO&+&&&&+++&&++&&&&&+&+++&&&&++&  :::::::::::::::::::::::::::::::::::::::::::::::::::::::",
":::::::::::::::::::::::::::::::::::::: OO++&&&OOOO&&&&+&&&&+&&&++&&&&++& :::::::::::::::::::::::::::::::::::::::::::::::::::::::",
":::::::::::::::::::::::::::::::::::::: +OO+&++O  OO&&&&&&&&++&&&+++&&&++ :::::::::::::::::::::::::::::::::::::::::::::::::::::::",
"::::::::::::::::::::::::::::::::::::::: OO++   :  OO&&&&&&&+++&&&+++&&&+O  :::::::::::::::::::::::::::::::::::::::::::::::::::::",
"::::::::::::::::::::::::::::::::::::::: OO++ ::::: OO&&++&&++++&&+&+&  OO. :::::::::::::::::::::::::::::::::::::::::::::::::::::",
":::::::::::::::::::::::::::::::::::::::: OO+ :::::  OO+&+&&+++++&+++ :: OOO  :::::::::::::::::::::::::::::::::::::::::::::::::::",
"::::::::::::::::::::::::::::::::::::::::  O+ ::::::  O+&+&&&++++++++ :::  OO :::::::::::::::::::::::::::::::::::::::::::::::::::",
"::::::::::::::::::::::::::::::::::::::::: O+ ::::::: OO+&&&+OOOOO+++& ::::    ::::::::::::::::::::::::::::::::::::::::::::::::::",
"::::::::::::::::::::::::::::::::::::::::: OO :::::::: O+&&++O  +OO+++  :::::::::::::::::::::::::::::::::::::::::::::::::::::::::",
"::::::::::::::::::::::::::::::::::::::::::   :::::::: O++&++O : +OO+++ :::::::::::::::::::::::::::::::::::::::::::::::::::::::::",
"::::::::::::::::::::::::::::::::::::::::::::::::::::: O++++OO :: +OO&+O ::::::::::::::::::::::::::::::::::::::::::::::::::::::::",
"::::::::::::::::::::::::::::::::::::::::::::::::::::: O++++O  ::  +OOOO  :::::::::::::::::::::::::::::::::::::::::::::::::::::::",
"::::::::::::::::::::::::::::::::::::::::::::::::::::: O+OOO  ::::   OOO  :::::::::::::::::::::::::::::::::::::::::::::::::::::::",
"::::::::::::::::::::::::::::::::::::::::::::::::::::: OOOO  :::::::  OO ::::::::::::::::::::::::::::::::::::::::::::::::::::::::",
":::::::::::::::::::::::::::::::::::::::::::::::::::::     ::::::::::: O ::::::::::::::::::::::::::::::::::::::::::::::::::::::::",
"::::::::::::::::::::::::::::::::::::::::::::::::::::::::::::::::::::::  ::::::::::::::::::::::::::::::::::::::::::::::::::::::::",
"::::::::::::::::::::::::::::::::::::::::::::::::::::::::::::::::::::::::::::::::::::::::::::::::::::::::::::::::::::::::::::::::",
"::::::::::::::::::::::::::::::::::::::::::::::::::::::::::::::::::::::::::::::::::::::::::::::::::::::::::::::::::::::::::::::::",
"::::::::::::::::::::::::::::::::::::::::::::::::::::::::::::::::::::::::::::::::::::::::::::::::::::::::::::::::::::::::::::::::",
"::::::::::::::::::::::::::::::::::::::::::::::::::::::::::::::::::::::::::::::::::::::::::::::::::::::::::::::::::::::::::::::::",
"::::::::::::::::::::::::::::::::::::::::::::::::::::::::::::::::::::::::::::::::::::::::::::::::::::::::::::::::::::::::::::::::",
"::::::::::::::::::::::::::::::::::::::::::::::::::::::::::::::::::::::::::::::::::::::::::::::::::::::::::::::::::::::::::::::::",
"::::::::::::::::::::::::::::::::::::::::::::::::::::::::::::::::::::::::::::::::::::::::::::::::::::::::::::::::::::::::::::::::",
"::::::::::::::::::::::::::::::::::::::::::::::::::::::::::::::::::::::::::::::::::::::::::::::::::::::::::::::::::::::::::::::::",
"::::::::::::::::::::::::::::::::::::::::::::::::::::::::::::::::::::::::::::::::::::::::::::::::::::::::::::::::::::::::::::::::",
"::::::::::::::::::::::::::::::::::::::::::::::::::::::::::::::::::::::::::::::::::::::::::::::::::::::::::::::::::::::::::::::::"
};
