/* XPM */
static char *result[] = {
/* columns rows colors chars-per-pixel */
"128 128 17 1 ",
"  c black",
". c #05021B",
"X c #3F1A11",
"o c #0F0425",
"O c #0B0530",
"+ c #110A3F",
"@ c #623328",
"# c #4F5030",
"$ c #54553E",
"% c #636431",
"& c #6B6C34",
"* c #19114C",
"= c #524F4F",
"- c #706D6D",
"; c #7F7D7D",
": c #A49E9E",
"> c None",
/* pixels */
">>>>>>>>>>>>>>>>>>>>>>>>>>>>>>>>>>>>>>>>>>>>>>>>>>>>>>>>>>>>>>>>>>>>>>>>>>>>>>>>>>>>>>>>>>>>>>>>>>>>>>>>>>>>>>>>>>>>>>>>>>>>>>>>",
">>>>>>>>>>>>>>>>>>>>>>>>>>>>>>>>>>>>>>>>>>>>>>>>>>>>>>>>>>>>>>>>>>>>>>>>>>>>>>>>>>>>>>>>>>>>>>>>>>>>>>>>>>>>>>>>>>>>>>>>>>>>>>>>",
">>>>>>>>>>>>>>>>>>>>>>>>>>>>>>>>>>>>>>>>>>>>>>>>      >>>>>>>>>>>>>>>>>>>>>>>>>>>>>>>>>>>>>>>>>>>>>>>>>>>>>>>>>>>>>>>>>>>>>>>>>>",
">>>>>>>>>>>>>>>>>>>>>>>>>>>>>>>>>>>>>>>>>>>>>>   ****     >>>>>>>>>>>>>>>>>>>>>>>>>>>>>>>>>>>>>>>>>>>>>>>>>>>>>>>>>>>>>>>>>>>>>>",
">>>>>>>>>>>>>>>>>>>>>>>>>>>>>>>>>>>=>>>>>>>>>  **********   >>>>>>>>>>>>>>>>>>>>>>>>>>>>>>>>>>>>>>>>>>>>>>>>>>>>>>>>>>>>>>>>>>>>",
">>>>>>>>>>>>>>>>>>>>>>>>>>>>>>>>>>>>>>>>>>>> *******+*+****  >>>>>>>>>>>>>>>>>>>>>>>>>>>>>>>>>>>>>>>>>>>>>>>>>>>>>>>>>>>>>>>>>>>",
">>>>>>>>>>>>>>>>>>>>>>>>>>>>>>>>>>>>>>>>>>> *****++********** >>>>>>>>>>>>>>>>>>>>>>>>>>>>>>>>>>>>>>>>>>>>>>>>>>>>>>>>>>>>>>>>>>",
">>>>>>>>>>>>>>>>>>>>>>>>>>>>>>>>>>>>>>>>>>  ****++****         >>>>>>=>>>>>>>>>>>>>>>>>>>>>>>>>>>>>>>>>>>>>>>>>>>>>>>>>>>>>>>>>>",
">>>>>>>>>>>>>>>>>>>>>>>>>>>>>>>>>>>>>>>>>> ****+****** ===== .. >>>>>>>>>>>>>>>>>>>>>>>>>>>>>>>>>>>>>>>>>>>>>>>>>>>>>>>>>>>>>>>>",
">>>>>>>>>>>>>>>>>>>>>>>>>>>>>>>>>>>>>>>>>  ***++**+**  =----= .. >>>>>>>>>>>>>>>>>>>>>>>>>>>>>>>>>>>>>>>>>>>>>>>>>>>>>>>>>>>>>>>",
">>>>>>>>>>>>>>>>>>>>>>>>>>>>>>>>>>>>>>>> ****+***++*  =-;;;;- .. >>>>>>>>>>>>>>>>>>>>>>>>>>>>>>>>>>>>>>>>>>>>>>>>>>>>>>>>>>>>>>>",
">>>>>>>>>>>>>>>>>>>>>>>>>>>>>>>>>>>>>>>> ****+***+** =-;;;;;; .. >>>>>>>>>>>>>>>>>>>>>>>>>>>>>>>>>>>>>>>>>>>>>>>>>>>>>>>>>>>>>>>",
">>>>>>>>>>>>>>>>>>>>>>>>>>>>>>>>>>>>>>  *****+***+** -;  ;;;; .. >>>>>>>>>>>>>>>>>>>>>>>>>>>>>>>>>>>>>>>>>>>>>>>>>>>>>>>>>>>>>>>",
">>>>>>>>>>>>>>>>>>>>>>>>>>>>>>>>>>>>>  ******+**++** ; ## ;;; .. >>>>>>>>>>>>>>>>>>>>>>>>>>>>>>>>>>>>>>>>>>>>>>>>>>>>>>>>>>>>>>>",
">>>>>>>>>>>>>>>>>>>>>>>>>>>>>>>>>>>>> ****++*+**+***  %%## ; $ . >>>>>>>>>>>>>>>>>>>>>>>>>>>>>>>>>>>>>>>>>>>>>>>>>>>>>>>>>>>>>>>",
">>>>>>>>>>>>>>>>>>>>>>>>>>>>>>>>>>>>> *****+*+**+***  &%%# ; # . >>>>>>>>>>>>>>>>>>>>>>>>>>>>>>>>>>>>>>>>>>>>>>>>>>>>>>>>>>>>>>>",
">>>>>>>>>>>>>>>>>>>>>>>>>>>>>>>>>>>> ******+*+**+***  &&%# ; % . >>>>>>>>>>>>>>>>>>>>>>>>>>>>>>>>>>>>>>>>>>>>>>>>>>>>>>>>>>>>>>>",
">>>>>>>>>>>>>>>>>>>>>>>>>>>>>>>>>>>> **+**+**+*+***   &&%# ; % . >>>>>>>>>>>>>>>>>>>>>>>>>>>>>>>>>>>>>>>>>>>>>>>>>>>>>>>>>>>>>>>",
">>>>>>>>>>>>>>>>>>>>>>>>>>>>>>>>>>> ***+**+*++*+*** ; %%%# ; % . >>>>>>>>>>>>>>>>>>>>>>>>>>>>>>>>>>>>>>>>>>>>>>>>>>>>>>>>>>>>>>>",
">>>>>>>>>>>>>>>>>>>>>>>>>>>>>>>>>>> ***+**+*+**+*** ;; ## ;; # . >>>>>>>>>>>>>>>>>>>>>>>>>>>>>>>>>>>>>>>>>>>>>>>>>>>>>>>>>>>>>>>",
">>>>>>>>>>>>>>>>>>>>>>>>>>>>>>>>>>> ***+****+***+*** ;;  ;; ; o >>>>>>>>>>>>>>>>>>>>>>>>>>>>>>>>>>>>>>>>>>>>>>>>>>>>>>>>>>>>>>>>",
">>>>>>>>>>>>>>>>>>>>>>>>>>>>>>>>>> *************+**** ;;;;;; o >>>>>>>>>>>>>>>>>>>>>>>>>>>>>>>>>>>>>>>>>>>>>>>>>>>>>>>>>>>>>>>>>",
">>>>>>>>>>>>>>>>>>>>>>>>>>>>>>>>>  **********+**+**** - ;;    >>>>>>>>>>>>>>>>>>>>>>>>>>>>>>>>>>>>>>>>>>>>>>>>>>>>>>>>>>>>>>>>>>",
">>>>>>>>>>>>>>>>>>>>>>>>>>>>>>>>> ***+***********+*** ---  >>>>>>>>>>>>>>>>>>>>>>>>>>>>>>>>>>>>>>>>>>>>>>>>>>>>>>>>>>>>>>>>>>>>>",
">>>>>>>>>>>>>>>>>>>>>>>>>>>>>>>>  **+******+++***+**+* -  >>>>>>>>>>>>>>>>>>>>>>>>>>>>>>>>>>>>>>>>>>>>>>>>>>>>>>>>>>>>>>>>>>>>>>",
">>>>>>>>>>>>>>>>>>>>>>>>>>>>>>>> ***+********+******+*  . >>>>>>>>>>>>>>>>>>>>>>>>>>>>>>>>>>>>>>>>>>>>>>>>>>>>>>>>>>>>>>>>>>>>>>",
">>>>>>>>>>>>>>>>>>>>>>>>>>>>>>>> ***++**++***+++***+** .. >>>>>>>>>>>>>>>>>>>>>>>>>>>>>>>>>>>>>>>>>>>>>>>>>>>>>>>>>>>>>>>>>>>>>>",
">>>>>>>>>>>>>>>>>>>>>>>>>>>>>>>> **+***++*****+++**+** .. >>>>>>>>>>>>>>>>>>>>>>>>>>>>>>>>>>>>>>>>>>>>>>>>>>>>>>>>>>>>>>>>>>>>>>",
">>>>>>>>>>>>>>>>>>>>>>>>>>>>>>> ***+*+++*+++++**+**+** .. >>>>>>>>>>>>>>>>>>>>>>>>>>>>>>>>>>>>>>>>>>>>>>>>>>>>>>>>>>>>>>>>>>>>>>",
">>>>>>>>>>>>>>>>>>>>>>>>>>>>>>> **+**+++*******++*++** .. >>>>>>>>>>>>>>>>>>>>>>>>>>>>>>>>>>>>>>>>>>>>>>>>>>>>>>>>>>>>>>>>>>>>>>",
">>>>>>>>>>>>>>>>>>>>>>>>>>>>>>> *+***++*********++++** .. >>>>>>>>>>>>>>>>>>>>>>>>>>>>>>>>>>>>>>>>>>>>>>>>>>>>>>>>>>>>>>>>>>>>>>",
">>>>>>>>>>>>>>>>>>>>>>>>>>>>>>> **************+***+++  .. >>>>>>>>>>>>>>>>>>>>>>>>>>>>>>>>>>>>>>>>>>>>>>>>>>>>>>>>>>>>>>>>>>>>>>",
">>>>>>>>>>>>>>>>>>>>>>>>>>>>>> ++****+***+****++***+++++. >>>>>>>>>>>>>>>>>>>>>>>>>>>>>>>>>>>>>>>>>>>>>>>>>>>>>>>>>>>>>>>>>>>>>>",
">>>>>>>>>>>>>>>>>>>>>>>>>>>>>> +*****+***++****++***++++* >>>>>>>>>>>>>>>>>>>>>>>>>>>>>>>>>>>>>>>>>>>>>>>>>>>>>>>>>>>>>>>>>>>>>>",
">>>>>>>>>>>>>>>>>>>>>>>>>>>>>> ****+******+++***++**++++*  >>>>>>>>>>>>>>>>>>>>>>>>>>>>>>>>>>>>>>>>>>>>>>>>>>>>>>>>>>>>>>>>>>>>>",
">>>>>>>>>>>>>>>>>>>>>>>>>>>>>> ***+*******+++****+********  >>>>>>>>>>>>>>>>>>>>>>>>>>>>>>>>>>>>>>>>>>>>>>>>>>>>>   >>>>>>>>>>>>",
">>>>>>>>>>>>>>>>>>>>>>>>>>>>>> *****+*******+************** >>>>>>>>>>>>>>>>>>>>>>>>>>>>>>>>>>>>>>>>>>>>>>>>>>>>> X >>>>>>>>>>>>",
">>>>>>>>>>>>>>>>>>>>>>>>>>>>>  *****+*************+********* >>>>>>>>>>>>>>>>>>>>>>>>>>>>>>>>>>>>>>>>>>>>>>>>>    X  >>>>>>>>>>>",
">>>>>>>>>>>>>>>>>>>>>>>>>>>>> *****+************+*+*********  >>>>>>>>>>>>>>>>>>>>>>>>>>>>>>>>>>>>>>>>>>>>>>>> XXXX@  >>>>>>>>>>",
">>>>>>>>>>>>>>>>>>>>>>>>>>>>> ****++*********++******+*******  >>>>>>>>>>>>>>>>>>>>>>>>>>>>>>>>>>>>>>>>>>>>>>  XXX@@@  >>>>>>>>>",
">>>>>>>>>>>>>>>>>>>>>>>>>>>>> *******++++++++**+****+***++**** >>>>>>>>>>>>>>>>>>>>>>>>>>>>>>>>>>>>>>>>>>>>>> XX@@@@@@ >>>>>>>>>",
">>>>>>>>>>>>>>>>>>>>>>>>>>>>  ******++*+++++++++**+*+**********  >>>>>>>>>>>>>>>>>>>>>>>>>>>>>>>>>>>>>>>>>>>> XX@@      >>>>>>>>",
">>>>>>>>>>>>>>>>>>>>>>>>>>>> *******+++++++++++++++++***********  >>>>>>>>>>>>>>>>>>>>>>>>>>>>>>>>>>>>>>>>>> XX@@  ====  >>>>>>>",
">>>>>>>>>>>>>>>>>>>>>>>>>>>> **+**+*+++++ O+++++++*+++***+**+***+ >>>>>>>>>>>>>>>>>>>>>>>>>>>>>>>>>>>>>>>>> XX@@  ====== >>>>>>>",
">>>>>>>>>>>>>>>>>>>>>>>>>>>> *++**+*+++*+  OOOO++++++++++++*+***+  >>>>>>>>>>>>>>>>>>>>>>>>>>>>>>>>>>>>>>  X@@@ ========  >>>>>>",
">>>>>>>>>>>>>>>>>>>>>>>>>>>> *+**++*++++++  OOOOO++*++****+++***** >>>>>>>>>>>>>>>>>>>>>>>>>>>>>>>>>>>>> XX@@@ ==========  >>>>>",
">>>>>>>>>>>>>>>>>>>>>>>>>>>> *++*+**++++++++    OOO++++++++++*+**+* >>>>>>>>>>>>>>>>>>>>>>>>>>>>>>>>>>> XX@@  -=========== >>>>>",
">>>>>>>>>>>>>>>>>>>>>>>>>>>> **+*****+++++++*+++ OOO+++++++++*+**+*  >>>>>>>>>>>>>>>>>>>>>>>>>>>>>>>>> X@@@ :---==========  >>>>",
">>>>>>>>>>>>>>>>>>>>>>>>>>>> **+*+***+*++++++++++ OOO++++++++*++***+  >>>>>>>>>>>>>>>>>>>>>>>>>>>>>>> X@@    :---========== >>>>",
">>>>>>>>>>>>>>>>>>>>>>>>>>>> **+*+*****+++++++++++  OO*+++++++++***** >>>>>>>>>>>>>>>>>>>>>>>>>>>>>> X@@ >>>  :---=========  >>>",
">>>>>>>>>>>>>>>>>>>>>>>>>>>> **+********+++++++*++   OO+O++++++*+***** >>>>>>>>>>>>>>>>>>>>>>>>>>>  X@@ >>>>>  :---========= >>>",
">>>>>>>>>>>>>>>>>>>>>>>>>>>> **+***+****++*+****+* >  OOOO+++++++***** >>>>>>>>>>>>>>>>>>>>>>>>>> XX@@ >>>>>>>  :---======== >>>",
">>>>>>>>>>>>>>>>>>>>>>>>>>>> **+**++****++++*****+ >   OOOOO+++++**** >>>>>>>>>>>>>>>>>>>>>>>>>> X@@@ >>>>>>>>>  :--======== >>>",
">>>>>>>>>>>>>>>>>>>>>>>>>>>> **+**++****+++******  >     OOOOOO+++++ - >>>>>>>>>>>>>>>>>>>>>>>> X@@  >>>>>>>>>>> :---=======  >>",
">>>>>>>>>>>>>>>>>>>>>>>>>>>> **+**++****+++****** >>> OO  OO.OOOO++  -- >>>>>>>>>>>>>>>>>>>>>  X@@ >>>>>>>>>>>>>> :---======= >>",
">>>>>>>>>>>>>>>>>>>>>>>>>>>> **+********++++**** >>>>  OOO O.OOOOO+  -- >>>>>>>>>>>>>>>>>>>> XX@@ >>>>>>>>>>>>>>>> :---====== >>",
">>>>>>>>>>>>>>>>>>>>>>>>>>>> **+********++*+****  >>>>  OOO  .OOOO >  -- >>>>>>>>>>>>>>>>>> X@@@ >>>>>>>>>>>>>>>>>> :--======  >",
">>>>>>>>>>>>>>>>>>>>>>>>>>>> ***+*******++******* >>>>>  OO   .OO  >>  -- >>>>>>>>>>>>>>>> X@@  >>>>>>>>>>>>>>>>>>>> :--====== >",
">>>>>>>>>>>>>>>>>>>>>>>>>>>> ***+*******++***++** >>>>>> OOOO  .   >>>  - >>>>>>>>>>>>>>>  @@ >>>>>>>>>>>>>>>>>>>>>>> :--===== >",
">>>>>>>>>>>>>>>>>>>>>>>>>>>> ***+********+***++** >>>>>>> OOOO      >>>  - >>>>>>>>>>>>  @@@ >>>>>>>>>>>>>>>>>>>>>>>>> :-===== >",
">>>>>>>>>>>>>>>>>>>>>>>>>>>> ***********++****+** >>>>>>>  OOOOO  - >>>> -- >>>>>>>>>> X@@  >>>>>>>>>>>>>>>>>>>>>>>>>> :--====  ",
">>>>>>>>>>>>>>>>>>>>>>>>>>>> ****+*******+****+**  >>>>>>> OOOOO  -- >>>  -  >>>>>>>> X@@ >>>>>>>>>>>>>>>>>>>>>>>>>>>>> :-===== ",
">>>>>>>>>>>>>>>>>>>>>>>>>>>> ****+************+*** >>>>>>>  OOO    - >>>> -- >>>>>>> X@@ >>>>>>>>>>>>>>>>>>>>>>>>>>>>>> :--==== ",
">>>>>>>>>>>>>>>>>>>>>>>>>>>> ****+*******+****++**  >>>>>>> O   >> -- >>>  -  >>>>> X@@ >>>>>>>>>>>>>>>>>>>>>>>>>>>>>>>> :--=== ",
">>>>>>>>>>>>>>>>>>>>>>>>>>>  ****+**+****+*****+*** >>>>>>>   >>>>> - >>>> --  >>  X@  >>>>>>>>>>>>>>>>>>>>>>>>>>>>>>>>> ::-=== ",
">>>>>>>>>>>>>>>>>>>>>>>>>>> *****+*********+***+*** >>>>>>>  >>>>>> -- >>>> -- > X@@ >>>>>>>>>>>>>>>>>>>>>>>>>>>>>>>>>>>> :-=== ",
">>>>>>>>>>>>>>>>>>>>>>>>>>> +**************+***+*** >>>>>>>>>>>>>>>> -->>>> --   @  >>>>>>>>>>>>>>>>>>>>>>>>>>>>>>>>>>>>> :-=== ",
">>>>>>>>>>>>>>>>>>>>>>>>>>> ++********+****+***+*+*O >>>>>>>>>>>>>>>> - >>>> --- @ >>>>>>>>>>>>>>>>>>>>>>>>>>>>>>>>>>>>>> :-=== ",
">>>>>>>>>>>>>>>>>>>>>>>>>>> O+**+**+***+***+****++**   >>>>>>>>>>>>>> --  >>  --  >>>>>>>>>>>>>>>>>>>>>>>>>>>>>>>>>>>>>>> :--== ",
">>>>>>>>>>>>>>>>>>>>>>>>>>> O+**+**+***+***++***++***O  >>>>>>>>>>>>>> --  XXX   >>>>>>>>>>>>>>>>>>>>>>>>>>>>>>>>>>>>>>>> ::-== ",
">>>>>>>>>>>>>>>>>>>>>>>>>>> O+***+*++**++**++***++***O+   >>>>>>>>>>>>  -- X@  >>>>>>>>>>>>>>>>>>>>>>>>>>>>>>>>>>>>>>>>>>  :-== ",
">>>>>>>>>>>>>>>>>>>>>>>>>>> O+***+*+++**+**+++*+O+*****++  >>>>>>>>>>> ---   >>>>>>>>>>>>>>>>>>>>>>>>>>>>>>>>>>>>>>>>>>>>> :--  ",
">>>>>>>>>>>>>>>>>>>>>>>>>>> O+***+*+++*****+*+*+O+*******O*  >>>>>>     -  >>>>>>>>>>>>>>>>>>>>>>>>>>>>>>>>>>>>>>>>>>>>>>> ::- >",
">>>>>>>>>>>>>>>>>>>>>>>>>>> O++**+**+++****+***+O***********  >>>>  XXX  >>>>>>>>>>>>>>>>>>>>>>>>>>>>>>>>>>>>>>>>>>>>>>>>>> :- >",
">>>>>>>>>>>>>>>>>>>>>>>>>>> O*+*****+*+***++***+*O***O********  > XXX  >>>>>>>>>>>>>>>>>>>>>>>>>>>>>>>>>>>>>>>>>>>>>>>>>>>> :- >",
">>>>>>>>>>>>>>>>>>>>>>>>>>> OO+*+***+*++**+******O***O****+++***  X  >>>>>>>>>>>>>>>>>>>>>>>>>>>>>>>>>>>>>>>>>>>>>>>>>>>>>> :- >",
">>>>>>>>>>>>>>>>>>>>>>>>>>>  O+*+****+*+*++*+O***O***O***++++****     >>>>>>>>>>>>>>>>>>>>>>>>>>>>>>>>>>>>>>>>>>>>>>>>>>>>> :- >",
">>>>>>>>>>>>>>>>>>>>>>>>>>>> O*+++****++*+*+*************+++++*+***** >>>>>>>>>>>>>>>>>>>>>>>>>>>>>>>>>>>>>>>>>>>>>>>>>>>>> :: >",
">>>>>>>>>>>>>>>>>>>>>>>>>>>> O++*+****++**+*************O+*+*+++++***  >>>>>>>>>>>>>>>>>>>>>>>>>>>>>>>>>>>>>>>>>>>>>>>>>>>>> : >",
">>>>>>>>>>>>>>>>>>>>>>>>>>>> O++*+********O************+O+*****+++++**  >>>>>>>>>>>>>>>>>>>>>>>>>>>>>>>>>>>>>>>>>>>>>>>>>>>>  >>",
">>>>>>>>>>>>>>>>>>>>>>>>>>>> OO++*+***************++*++O+*******+++*++*   >>>>>>>>>>>>>>>>>>>>>>>>>>>>>>>>>>>>>>>>>>>>>>>>>>  >>",
">>>>>>>>>>>>>>>>>>>>>>>>>>>>> O++*++*****OOOO*****+++O++******+*++++****** >>>>>>>>>>>>>>>>>>>>>>>>>>>>>>>>>>>>>>>>>>>>>>>>>>>>>",
">>>>>>>>>>>>>>>>>>>>>>>>>>>>> OO+**+****++++++****O+++********++**++++++++ >>>>>>>>>>>>>>>>>>>>>>>>>>>>>>>>>>>>>>>>>>>>>>>>>>>>>",
">>>>>>>>>>>>>>>>>>>>>>>>>>>>>> OO+*++******+++****++***********++          >>>>>>>>>>>>>>>>>>>>>>>>>>>>>>>>>>>>>>>>>>>>>>>>>>>>>",
">>>>>>>>>>>>>>>>>>>>>>>>>>>>>>  O+**+*****************+*++******+ >>>>>>>>>>>>>>>>>>>>>>>>>>>>>>>>>>>>>>>>>>>>>>>>>>>>>>>>>>>>>>",
">>>>>>>>>>>>>>>>>>>>>>>>>>>>>>> O++*+***+****************+++***** >>>>>>>>>>>>>>>>>>>>>>>>>>>>>>>>>>>>>>>>>>>>>>>>>>>>>>>>>>>>>>",
">>>>>>>>>>>>>>>>>>>>>>>>>>>>>>> OOO*+**+++*******++*********+****      >>>>>>>>>>>>>>>>>>>>>>>>>>>>>>>>>>>>>>>>>>>>>>>>>>>>>>>>>",
">>>>>>>>>>>>>>>>>>>>>>>>>>>>>>>> OO++**+***++*****+++*******+*********  >>>>>>>>>>>>>>>>>>>>>>>>>>>>>>>>>>>>>>>>>>>>>>>>>>>>>>>>",
">>>>>>>>>>>>>>>>>>>>>>>>>>>>>>>> +OO+**+****+*****++********+**********   >>>>>>>>>>>>>>>>>>>>>>>>>>>>>>>>>>>>>>>>>>>>>>>>>>>>>>",
">>>>>>>>>>>>>>>>>>>>>>>>>>>>>>>>> OO+*******++*****+********+*************      >>>>>>>>>>>>>>>>>>>>>>>>>>>>>>>>>>>>>>>>>>>>>>>>",
">>>>>>>>>>>>>>>>>>>>>>>>>>>>>>>>> OO+*+**+***+*****++********+***************** >>>>>>>>>>>>>>>>>>>>>>>>>>>>>>>>>>>>>>>>>>>>>>>>",
">>>>>>>>>>>>>>>>>>>>>>>>>>>>>>>>>> OO*++*++**+*****+*******++*+******+********+ >>>>>>>>>>>>>>>>>>>>>>>>>>>>>>>>>>>>>>>>>>>>>>>>",
">>>>>>>>>>>>>>>>>>>>>>>>>>>>>>>>>>  O*++**+********+****+***+********+++*****++ >>>>>>>>>>>>>>>>>>>>>>>>>>>>>>>>>>>>>>>>>>>>>>>>",
">>>>>>>>>>>>>>>>>>>>>>>>>>>>>>>>>>> **++**++*******++***+******************++++ >>>>>>>>>>>>>>>>>>>>>>>>>>>>>>>>>>>>>>>>>>>>>>>>",
">>>>>>>>>>>>>>>>>>>>>>>>>>>>>>>>>>> **++**++*******++***+****************+++++  >>>>>>>>>>>>>>>>>>>>>>>>>>>>>>>>>>>>>>>>>>>>>>>>",
">>>>>>>>>>>>>>>>>>>>>>>>>>>>>>>>>>>>  *+*+*+*****+*++****+********+++++*+++++   >>>>>>>>>>>>>>>>>>>>>>>>>>>>>>>>>>>>>>>>>>>>>>>>",
">>>>>>>>>>>>>>>>>>>>>>>>>>>>>>>>>>>>> *+*+*******+*++****+****+*****++++++++  >>>>>>>>>>>>>>>>>>>>>>>>>>>>>>>>>>>>>>>>>>>>>>>>>>",
">>>>>>>>>>>>>>>>>>>>>>>>>>>>>>>>>>>>> O+++*+*****+**+*****+****++*****+++    >>>>>>>>>>>>>>>>>>>>>>>>>>>>>>>>>>>>>>>>>>>>>>>>>>>",
">>>>>>>>>>>>>>>>>>>>>>>>>>>>>>>>>>>>> *O++*++*****+*++*****++***++*******  >>>>>>>>>>>>>>>>>>>>>>>>>>>>>>>>>>>>>>>>>>>>>>>>>>>>>",
">>>>>>>>>>>>>>>>>>>>>>>>>>>>>>>>>>>>>>*O+++*+*****++*+++****+++**++******* >>>>>>>>>>>>>>>>>>>>>>>>>>>>>>>>>>>>>>>>>>>>>>>>>>>>>",
">>>>>>>>>>>>>>>>>>>>>>>>>>>>>>>>>>>>>> *O++*++*****+***++***+++++*+******** >>>>>>>>>>>>>>>>>>>>>>>>>>>>>>>>>>>>>>>>>>>>>>>>>>>>",
">>>>>>>>>>>>>>>>>>>>>>>>>>>>>>>>>>>>>> OO++**++****+****++*****+++*+******** >>>>>>>>>>>>>>>>>>>>>>>>>>>>>>>>>>>>>>>>>>>>>>>>>>>",
">>>>>>>>>>>>>>>>>>>>>>>>>>>>>>>>>>>>>> .O+++*++*****+***++++***+++*++******** >>>>>>>>>>>>>>>>>>>>>>>>>>>>>>>>>>>>>>>>>>>>>>>>>>",
">>>>>>>>>>>>>>>>>>>>>>>>>>>>>>>>>>>>>> .O+++**++**+*+++****++*****+*++++++***  >>>>>>>>>>>>>>>>>>>>>>>>>>>>>>>>>>>>>>>>>>>>>>>>>",
">>>>>>>>>>>>>>>>>>>>>>>>>>>>>>>>>>>>>>  OO++******+***++****++**OOOOOO  OO+*** >>>>>>>>>>>>>>>>>>>>>>>>>>>>>>>>>>>>>>>>>>>>>>>>>",
">>>>>>>>>>>>>>>>>>>>>>>>>>>>>>>>>>>>>>> .O+++*****++***+++***++*O   O >>  +++++ >>>>>>>>>>>>>>>>>>>>>>>>>>>>>>>>>>>>>>>>>>>>>>>>",
">>>>>>>>>>>>>>>>>>>>>>>>>>>>>>>>>>>>>>> .O+++*****+++***+++***+O  >>  >>>  OOOOO >>>>>>>>>>>>>>>>>>>>>>>>>>>>>>>>>>>>>>>>>>>>>>>",
">>>>>>>>>>>>>>>>>>>>>>>>>>>>>>>>>>>>>>> .OO+**++**++++**+*+*  OO. >>>>>>>>>      >>>>>>>>>>>>>>>>>>>>>>>>>>>>>>>>>>>>>>>>>>>>>>>",
">>>>>>>>>>>>>>>>>>>>>>>>>>>>>>>>>>>>>>>> .OOO+*+**+++++*+++ >> OOO >>>>>>>>>>>>>>>>>>>>>>>>>>>>>>>>>>>>>>>>>>>>>>>>>>>>>>>>>>>>>",
">>>>>>>>>>>>>>>>>>>>>>>>>>>>>>>>>>>>>>>>    O+*+***++++++++ >>>  OO >>>>>>>>>>>>>>>>>>>>>>>>>>>>>>>>>>>>>>>>>>>>>>>>>>>>>>>>>>>>",
">>>>>>>>>>>>>>>>>>>>>>>>>>>>>>>>>>>>>>>>>   OO+***+OOOOO+++* >>>     >>>>>>>>>>>>>>>>>>>>>>>>>>>>>>>>>>>>>>>>>>>>>>>>>>>>>>>>>>>",
">>>>>>>>>>>>>>>>>>>>>>>>>>>>>>>>>>>>>>>>>>   O+**++O  +OO+++  >>>>>>>>>>>>>>>>>>>>>>>>>>>>>>>>>>>>>>>>>>>>>>>>>>>>>>>>>>>>>>>>>>",
">>>>>>>>>>>>>>>>>>>>>>>>>>>>>>>>>>>>>>>>>>>  O++*++O   +OO+++ >>>>>>>>>>>>>>>>>>>>>>>>>>>>>>>>>>>>>>>>>>>>>>>>>>>>>>>>>>>>>>>>>>",
">>>>>>>>>>>>>>>>>>>>>>>>>>>>>>>>>>>>>>>>>>>> O++++OO >> +OO*+O >>>>>>>>>>>>>>>>>>>>>>>>>>>>>>>>>>>>>>>>>>>>>>>>>>>>>>>>>>>>>>>>>",
">>>>>>>>>>>>>>>>>>>>>>>>>>>>>>>>>>>>>>>>>>>> O++++O >>>  +OOOO >>>>>>>>>>>>>>>>>>>>>>>>>>>>>>>>>>>>>>>>>>>>>>>>>>>>>>>>>>>>>>>>>",
">>>>>>>>>>>>>>>>>>>>>>>>>>>>>>>>>>>>>>>>>>>> O+OOO  >>>>   OOO >>>>>>>>>>>>>>>>>>>>>>>>>>>>>>>>>>>>>>>>>>>>>>>>>>>>>>>>>>>>>>>>>",
">>>>>>>>>>>>>>>>>>>>>>>>>>>>>>>>>>>>>>>>>>>> OOOO >>>>>>>>  OO >>>>>>>>>>>>>>>>>>>>>>>>>>>>>>>>>>>>>>>>>>>>>>>>>>>>>>>>>>>>>>>>>",
">>>>>>>>>>>>>>>>>>>>>>>>>>>>>>>>>>>>>>>>>>>>     >>>>>>>>>>> O >>>>>>>>>>>>>>>>>>>>>>>>>>>>>>>>>>>>>>>>>>>>>>>>>>>>>>>>>>>>>>>>>",
">>>>>>>>>>>>>>>>>>>>>>>>>>>>>>>>>>>>>>>>>>>>>>>>>>>>>>>>>>>>>  >>>>>>>>>>>>>>>>>>>>>>>>>>>>>>>>>>>>>>>>>>>>>>>>>>>>>>>>>>>>>>>>>",
">>>>>>>>>>>>>>>>>>>>>>>>>>>>>>>>>>>>>>>>>>>>>>>>>>>>>>>>>>>>>>>>>>>>>>>>>>>>>>>>>>>>>>>>>>>>>>>>>>>>>>>>>>>>>>>>>>>>>>>>>>>>>>>>",
">>>>>>>>>>>>>>>>>>>>>>>>>>>>>>>>>>>>>>>>>>>>>>>>>>>>>>>>>>>>>>>>>>>>>>>>>>>>>>>>>>>>>>>>>>>>>>>>>>>>>>>>>>>>>>>>>>>>>>>>>>>>>>>>",
">>>>>>>>>>>>>>>>>>>>>>>>>>>>>>>>>>>>>>>>>>>>>>>>>>>>>>>>>>>>>>>>>>>>>>>>>>>>>>>>>>>>>>>>>>>>>>>>>>>>>>>>>>>>>>>>>>>>>>>>>>>>>>>>",
">>>>>>>>>>>>>>>>>>>>>>>>>>>>>>>>>>>>>>>>>>>>>>>>>>>>>>>>>>>>>>>>>>>>>>>>>>>>>>>>>>>>>>>>>>>>>>>>>>>>>>>>>>>>>>>>>>>>>>>>>>>>>>>>",
">>>>>>>>>>>>>>>>>>>>>>>>>>>>>>>>>>>>>>>>>>>>>>>>>>>>>>>>>>>>>>>>>>>>>>>>>>>>>>>>>>>>>>>>>>>>>>>>>>>>>>>>>>>>>>>>>>>>>>>>>>>>>>>>",
">>>>>>>>>>>>>>>>>>>>>>>>>>>>>>>>>>>>>>>>>>>>>>>>>>>>>>>>>>>>>>>>>>>>>>>>>>>>>>>>>>>>>>>>>>>>>>>>>>>>>>>>>>>>>>>>>>>>>>>>>>>>>>>>",
">>>>>>>>>>>>>>>>>>>>>>>>>>>>>>>>>>>>>>>>>>>>>>>>>>>>>>>>>>>>>>>>>>>>>>>>>>>>>>>>>>>>>>>>>>>>>>>>>>>>>>>>>>>>>>>>>>>>>>>>>>>>>>>>",
">>>>>>>>>>>>>>>>>>>>>>>>>>>>>>>>>>>>>>>>>>>>>>>>>>>>>>>>>>>>>>>>>>>>>>>>>>>>>>>>>>>>>>>>>>>>>>>>>>>>>>>>>>>>>>>>>>>>>>>>>>>>>>>>",
">>>>>>>>>>>>>>>>>>>>>>>>>>>>>>>>>>>>>>>>>>>>>>>>>>>>>>>>>>>>>>>>>>>>>>>>>>>>>>>>>>>>>>>>>>>>>>>>>>>>>>>>>>>>>>>>>>>>>>>>>>>>>>>>"
};
