/* XPM */
static char *_0b51daa8fc44a93c3499184bd584f5eyoSp4fabYWNfijWz[] = {
/* columns rows colors chars-per-pixel */
"128 128 17 1 ",
"  c None",
". c black",
"X c #05021B",
"o c #3F1A11",
"O c #0F0425",
"+ c #0B0530",
"@ c #110A3F",
"# c #623328",
"$ c #4F5030",
"% c #54553E",
"& c #636431",
"* c #6B6C34",
"= c #19114C",
"- c #524F4F",
"; c #706D6D",
": c #7F7D7D",
"> c #A49E9E",
/* pixels */
"                                                                                                                                ",
"                                                                                                                                ",
"                                                                                                                                ",
"                                                                                                                                ",
"                                               ............                                                                     ",
"                                        ........----------.....                                                                 ",
"                                      ..>>;;;;;;--------------....                                                              ",
"                                      ...>>>>>>;;;;--------------.....                                                          ",
"                                         .....>>>>;;;;;;-------------...                                                        ",
"                                              ...>>>>>>;;--------------...                                                      ",
"                                                ......>>;;;--------------..                                                     ",
"                                                  ......>>;;;-------------...                                                   ",
"                                              .....====...>>;;--------------..                                                  ",
"                                            ...==========...>;;;-------------...                                                ",
"                                           ..====@=@=======..>;;;------------.#..                                               ",
"                                          .==========@@=====..>;;;-----------.##..                                              ",
"                                         .........====@@====...>;;;;---------.###...                                            ",
"                                        .XX.-----.======@====. .>;;;;-------..##ooo.                                            ",
"                                       .XX.-;;;;-..==@==@@===.. .>>;;;-----..##oo...                                            ",
"                                       .XX.;::::;-..=@@===@====. ..>;;;----.###oo.                                              ",
"                                       .XX.::::::;-.==@===@====.  ..>;;;--.##oooo.                                              ",
"                                       .XX.::::..:;.==@===@=====.. ..>;;;.##ooo...                                              ",
"                                       .XX.:::.$$.:.==@@==@======.. ..>;.##oo...                                                ",
"                                       .X.%.:.$$&&..===@==@=@@====.  ..>.##o.                                                   ",
"                                       .X.$.:.$&&*..===@==@=@=====.   ..##o.                                                    ",
"                                       .X.&.:.$&**..===@==@=@======.  .##o.                                                     ",
"                                       .X.&.:.$&**...===@=@==@==@==.  .#oo.                                                     ",
"                                       .X.&.:.$&&&.:.===@=@@=@==@===..##o.                                                      ",
"                                       .X.$.::.$$.::.===@==@=@==@===.##o.                                                       ",
"                                        .O.:.::..::.===@===@====@==.##o.                                                        ",
"                                         .O.::::::.====@==========.##o.                                                         ",
"                                          ....::.;.====@==@======.##o.                                                          ",
"                                             ..;;;.===@==========.#oo.                                                          ",
"                                              ..;.=@==@===@@@===.##o.@.                                                         ",
"                                              .X..=@======@====.##o@@@..                                                        ",
"                                              .XX.==@===@@@===.##o.@@==..                                                       ",
"                                              .XX.==@==@@@===.##o.@@@@==.                                                       ",
"                                              .XX.==@==@=====.#o.@@==@@=..                                                      ",
"                                              .XX.==@@@=====.##o.@@======.                                                      ",
"                                              .XX.==@======.##o.@@=@=====..                                                     ",
"                                              .XX..=@@====.##o.@==========.                                                     ",
"                                              .XXX.=@@====.#..@@=====..===..                                                    ",
"                                               .XX.======.##.@@@======.====.                                                    ",
"                                              ..XX.=====.##.@@========.====.                                                    ",
"                                             ..=XX.====.##o.@@========..===.                                                    ",
"                         ...                ..==...===.##o.@===========.===.                                                    ",
"                         .:....           ...====..===.#o.@=============.==..                                                   ",
"                         .::::...  ..  ...========.==.#o.@==@===========.===.                                                   ",
"                         ..--:::........==========.=.#o.@===@@==@=======.@===.                                                  ",
"                           ..--::::.=====@@===@==@.....@====@@==========.@@==.                                                  ",
"                             ..--::.======@===@=@@.:::..====@@@@@@======..@==..                                                 ",
"                              .......=========@@@.---::....==@+++@@@@====.@@==.                                                 ",
"                                .XXX.==@=@==@=@@@.-:--:::::........=.====..@==..                                                ",
"                                ..XX.==@=@==@=@@.#.-....--:::;;..=.....===.@@==.                                                ",
"                                 .XX.==@====@=@@.oo.=@@=....:::.======..===.@===.                                               ",
"                                 .XX.=======@@@.#o.=@@@====.....=======@===.@====..                                             ",
"                                 .XX.=====@=@@@.#o..@@@======.X.====@==@@==..@====..                                            ",
"                                 .XX.=====@@@@.#o...=@@==@===.X.====@@=@====.@@=@@=...                                          ",
"                                 .XX..====@@++.oo. ..@@==@@==.X.==@@=@@@@===..@==@@==..                                         ",
"                                 .XXX.=@@@@++.#o.   .@@==@@==.X.===@==@======.@@==@@@==..                                       ",
"                                 .XXX.=@@@+++.oo.   .@@@=@===.X..==@@=@=======.@@===@@==...                                     ",
"                                 .XXX.@@@++X.oo.    .+@@=@@==.XX.===@=========.@@@==@@@===.                                     ",
"                                 ..XX.@@++XX.o.     .+@@==@==.XX.===@==========.@=@@=@@@@@.                                     ",
"                                  ..X.++XXX.oo.     .+@@=====.XX.====@===@=====.@@=====....                                     ",
"                                   ...XXX...o.      ..+@@====.XX.@@==@===@=====.@=====..                                        ",
"                                   ...X....oo.       .+@@===@.XX.@@@=@@==@=====.@@====..                                        ",
"                                     ...  .o.        .+@@@==@.XX.@@@@@@@@@====@.@@@====..                                       ",
"                                         .oo.        .+@@@==@.XX.+@@@@@@@@@=@@@.@@@@====.....                                   ",
"                                         .o.         .++@@==@..X.++++++@@@@@++..@@@@@=@=====.                                   ",
"                                        .oo.         ..+@@==@+...++++++++++++..+@=@=@@@@@===..                                  ",
"                                        .o.           .++@@=@++.......++++++..X+@=====@@@@@==..                                 ",
"                                       .o.             .+@@=@@+XXXXXX.......X++@=======@@@=@@=...                               ",
"                                       .o.             .++@@=@+++++++XXXXXXX+@@======@=@@@@======.                              ",
"                                      .o.              ..+@@@@@@@@@@@+++++@@@========@@==@@@@@@@@.                              ",
"                                      .o.               .++@@=====@@@@@@@@@===========@@..........                              ",
"                                     .o.                 .+@@@===============@=@@======@.                                       ",
"                                     .o.                 .+@@@=@================@@@=====.                                       ",
"                                    .o.                  .+@=@@@@=======@@=========@====.                                       ",
"                                    .o.                  .+@@=@===@@=====@@@=======@====.                                       ",
"                                   .o.                   .+@@=@====@=====@@========@=====...                                    ",
"                                  ..o.                   .+@@======@@=====@========@=======...                                  ",
"                                  .o.                    .++@@==@===@=====@@=================..                                 ",
"                                 ..o.                    ..+@@@=@@==@=====@=======@@==========...                               ",
"                                ..o.                      .+@@@==@========@====@===@@============......                         ",
"                                .oo.                      .++@@==@@=======@@===@====@=================.                         ",
"                               ..o.                       ..+@@==@@=======@@===@=====@======@========@.                         ",
"                               .oo.                        .++@=@=@=====@=@@====@===========@@@=====@@.                         ",
"                              .o..                         ..+@=@==.====@=@@====@=================@@@@.                         ",
"                             ..o.                           .+@@@=@..===@==@=====@==============@@@@@.                          ",
"                            ..o.                            ..+@@=@@.====@=@@=====@@=====@@@@@=@@@@@..                          ",
"                            .oo.                             .+@@@=@..===@@=@@@====@@@=====@@@@@@@@..                           ",
"                            .o..                             .++@@=@@.====@===@@===@@@@@=====@@@....                            ",
"                            .o.                              .++@@==@@.===@====@@===@@@@@=======..                              ",
"                            ...                              .X+@@@=@@..===@===@@@@===@@@@=======.                              ",
"                                                             .X+@@@==@@.===@===@@@@======@========..                            ",
"                                                             ..++@@===@.====@===@@@@======@========.                            ",
"                                                              .X+@@@==@.====@@@==@@@@=====@@========.                           ",
"                                                              .X+@@@==@.=@====@@===@@@=====@@@@@@===..                          ",
"                                                              .X++@@@=@..+@====@@===@@@======..=@@===.                          ",
"                                                               .X++@@@@@..+@====@=====@=====.  ..@@@@@.                         ",
"                                                               ..X++@@@@@.X+@===@@=====..===.   ..+++++.                        ",
"                                                                ..X+++@@@..X+@@@@@@====. .@==.    ......                        ",
"                                                                 ..X+++@@@..X++++@@@@=@.  .++=.    ..                           ",
"                                                                  ..XX++@@@@....X++X+@@.   .X+.                                 ",
"                                                                   ...X+++@@@@@@....X+@.   ..+=.                                ",
"                                                                     ..XX+++++++.  ..+@..    .+.                                ",
"                                                                      ...XXXXXXX.   .X+@.    ...                                ",
"                                                                        .........    .X+..     .                                ",
"                                                                                      ..++.                                     ",
"                                                                                        .+..                                    ",
"                                                                                         .+.                                    ",
"                                                                                          ...                                   ",
"                                                                                                                                ",
"                                                                                                                                ",
"                                                                                                                                ",
"                                                                                                                                ",
"                                                                                                                                ",
"                                                                                                                                ",
"                                                                                                                                ",
"                                                                                                                                ",
"                                                                                                                                ",
"                                                                                                                                ",
"                                                                                                                                ",
"                                                                                                                                ",
"                                                                                                                                ",
"                                                                                                                                ",
"                                                                                                                                ",
"                                                                                                                                "
};
